<?xml version="1.0" encoding="UTF-8"?>
<!DOCTYPE svg PUBLIC "-//W3C//DTD SVG 1.1//EN" "http://www.w3.org/Graphics/SVG/1.1/DTD/svg11.dtd">
<svg xmlns="http://www.w3.org/2000/svg" version="1.1" width="1024px" height="1024px" style="shape-rendering:geometricPrecision; text-rendering:geometricPrecision; image-rendering:optimizeQuality; fill-rule:evenodd; clip-rule:evenodd" xmlns:xlink="http://www.w3.org/1999/xlink">
<g><path style="opacity:1" fill="#f8f0e4" d="M -0.5,-0.5 C 340.833,-0.5 682.167,-0.5 1023.5,-0.5C 1023.5,340.833 1023.5,682.167 1023.5,1023.5C 682.167,1023.5 340.833,1023.5 -0.5,1023.5C -0.5,682.167 -0.5,340.833 -0.5,-0.5 Z"/></g>
<g><path style="opacity:1" fill="#28272f" d="M 487.5,387.5 C 486.303,388.261 485.47,389.928 485,392.5C 481.402,408.058 477.569,423.558 473.5,439C 473.645,439.772 473.978,440.439 474.5,441C 472.705,441.257 470.705,441.923 468.5,443C 469.167,443.333 469.833,443.667 470.5,444C 470.335,445.117 470.002,446.284 469.5,447.5C 471.045,448.452 472.712,448.785 474.5,448.5C 474.227,450.451 474.893,451.951 476.5,453C 476.167,453.333 475.833,453.667 475.5,454C 477.274,455.756 478.941,455.756 480.5,454C 479.891,451.942 478.891,451.109 477.5,451.5C 478.025,450.808 478.692,450.308 479.5,450C 477.302,448.33 476.968,446.33 478.5,444C 482.442,443.685 486.276,444.185 490,445.5C 488.254,441.572 488.587,437.572 491,433.5C 491.419,434.672 492.085,435.672 493,436.5C 494.726,435.424 496.559,435.257 498.5,436C 497.328,436.419 496.328,437.085 495.5,438C 497.979,438.879 499.979,440.379 501.5,442.5C 499.564,447.807 497.731,453.14 496,458.5C 495.667,457.833 495.333,457.167 495,456.5C 494.228,457.849 493.061,458.682 491.5,459C 492.668,460.406 492.335,461.572 490.5,462.5C 492.272,463.27 493.272,464.603 493.5,466.5C 490.934,475.363 488.268,484.197 485.5,493C 485.645,493.772 485.978,494.439 486.5,495C 489.367,495.801 492.034,495.634 494.5,494.5C 504.912,496.98 515.245,499.313 525.5,501.5C 522.903,501.721 522.903,502.221 525.5,503C 523.146,504.378 523.146,505.878 525.5,507.5C 525.333,508.167 525.167,508.833 525,509.5C 524.935,507.117 524.102,506.45 522.5,507.5C 522.167,506.833 521.833,506.167 521.5,505.5C 520.459,507.991 519.626,507.991 519,505.5C 518.805,507.207 518.805,508.874 519,510.5C 518.085,509.672 517.419,508.672 517,507.5C 516.833,508 516.667,508.5 516.5,509C 517.377,510.867 518.877,512.034 521,512.5C 522.154,510.043 523.488,510.043 525,512.5C 525.725,510.842 526.892,510.342 528.5,511C 526.855,512.8 525.522,514.8 524.5,517C 524.833,517.333 525.167,517.667 525.5,518C 524.085,517.745 522.585,517.245 521,516.5C 517.799,517.238 516.299,519.238 516.5,522.5C 517.5,522.5 518.5,522.5 519.5,522.5C 519.21,518.446 519.877,517.946 521.5,521C 520.167,522.667 520.167,524.333 521.5,526C 520.258,526.311 519.258,525.811 518.5,524.5C 518.167,524.833 517.833,525.167 517.5,525.5C 520.48,530.081 523.146,534.248 525.5,538C 525.333,538.833 525.167,539.667 525,540.5C 524.667,539.167 524.333,537.833 524,536.5C 523.07,538.552 521.57,540.052 519.5,541C 519.833,541.333 520.167,541.667 520.5,542C 519.333,542.5 518.5,543.333 518,544.5C 516.334,543.66 516.167,544.16 517.5,546C 515.833,546.667 514.167,546.667 512.5,546C 513.34,544.334 512.84,544.167 511,545.5C 510.333,544.5 510.333,543.5 511,542.5C 512.183,543.731 513.349,543.731 514.5,542.5C 514.167,541.833 513.833,541.167 513.5,540.5C 514.729,539.719 516.062,539.219 517.5,539C 511.833,538.333 506.167,538.333 500.5,539C 501.061,540.676 502.061,542.009 503.5,543C 502.333,543.5 501.5,544.333 501,545.5C 500.676,543.431 499.842,543.098 498.5,544.5C 497.459,546.585 495.959,548.252 494,549.5C 493.667,548.833 493.333,548.167 493,547.5C 492.535,548.931 491.701,550.097 490.5,551C 505.851,551.332 521.185,550.832 536.5,549.5C 539.686,549.502 542.686,549.835 545.5,550.5C 513.837,552.203 482.171,553.87 450.5,555.5C 460.781,553.882 473.781,552.715 489.5,552C 487.939,551.059 486.605,549.892 485.5,548.5C 486.106,546.291 486.773,544.124 487.5,542C 487.167,541.667 486.833,541.333 486.5,541C 489.827,539.837 491.827,541.003 492.5,544.5C 493.82,542.73 495.32,542.397 497,543.5C 497.432,542.4 496.932,541.733 495.5,541.5C 494.218,542.137 493.218,542.137 492.5,541.5C 494.078,540.702 495.744,540.202 497.5,540C 492.649,539.826 487.982,539.326 483.5,538.5C 495.205,537.959 506.872,536.959 518.5,535.5C 517.047,528.784 515.38,522.118 513.5,515.5C 501.262,512.458 488.929,509.624 476.5,507C 470.975,504.081 469.142,499.581 471,493.5C 474.608,481.511 478.108,469.511 481.5,457.5C 476.167,456.167 470.834,454.834 465.5,453.5C 461.005,452.674 458.671,450.007 458.5,445.5C 462.407,426.724 466.74,408.057 471.5,389.5C 475.544,371.989 479.878,354.656 484.5,337.5C 486.356,333.993 487.856,329.66 489,324.5C 492.352,309.094 496.018,293.76 500,278.5C 500.789,276.288 500.622,274.288 499.5,272.5C 500.371,269.888 501.037,267.221 501.5,264.5C 502.435,261.887 502.602,259.221 502,256.5C 500.293,254.963 498.793,253.296 497.5,251.5C 496.952,249.606 495.952,247.94 494.5,246.5C 495.025,245.808 495.692,245.308 496.5,245C 488.991,241.743 486.491,236.243 489,228.5C 491.153,226.556 493.653,226.056 496.5,227C 500.199,230.368 501.865,234.368 501.5,239C 502.449,239.617 503.282,239.451 504,238.5C 504.708,239.381 505.542,240.047 506.5,240.5C 512.295,245.97 518.628,250.637 525.5,254.5C 529.894,257.693 534.894,259.526 540.5,260C 545.858,260.798 551.192,261.632 556.5,262.5C 557.298,262.043 557.631,261.376 557.5,260.5C 567.97,261.321 576.637,265.655 583.5,273.5C 589.132,279.326 595.799,282.326 603.5,282.5C 608.032,282.818 612.366,282.485 616.5,281.5C 617.833,281.167 619.167,280.833 620.5,280.5C 626.156,277.552 629.656,272.885 631,266.5C 633.218,258.916 632.551,251.583 629,244.5C 628.583,243.244 627.75,242.577 626.5,242.5C 623.934,238.391 621.101,234.391 618,230.5C 607.626,219.128 597.626,207.461 588,195.5C 584.015,183.208 578.681,171.542 572,160.5C 569.066,156.377 565.232,153.71 560.5,152.5C 560.5,152.167 560.5,151.833 560.5,151.5C 560.938,151.565 561.272,151.399 561.5,151C 559.643,149.818 558.643,148.151 558.5,146C 559.62,138.339 560.62,130.672 561.5,123C 561.046,121.378 560.046,120.212 558.5,119.5C 554.519,128.27 551.019,137.27 548,146.5C 544.73,147.132 541.563,147.799 538.5,148.5C 529.458,147.412 520.458,146.078 511.5,144.5C 510.808,143.975 510.308,143.308 510,142.5C 508.853,133.803 507.52,125.136 506,116.5C 504.014,126.446 502.347,136.446 501,146.5C 500.439,150.095 499.272,153.428 497.5,156.5C 494.584,158.818 491.584,158.984 488.5,157C 483.938,152.269 479.271,147.769 474.5,143.5C 470.953,139.481 466.62,136.314 461.5,134C 450.49,128.941 439.157,124.775 427.5,121.5C 426.098,121.865 425.098,122.699 424.5,124C 426.547,131.473 429.38,138.639 433,145.5C 434.666,148.331 436.832,150.664 439.5,152.5C 442.432,153.8 444.766,155.8 446.5,158.5C 445.262,158.81 445.262,159.31 446.5,160C 456.382,166.962 467.382,170.962 479.5,172C 481.839,174.887 482.172,178.054 480.5,181.5C 478.497,183.982 475.831,184.982 472.5,184.5C 465.367,205.231 458.034,225.897 450.5,246.5C 442.929,265.995 435.595,285.661 428.5,305.5C 420.107,328.51 411.607,351.51 403,374.5C 400.078,380.68 396.911,386.68 393.5,392.5C 387.491,399.508 380.825,405.842 373.5,411.5C 373.062,411.565 372.728,411.399 372.5,411C 375.57,409.038 377.07,406.538 377,403.5C 378.016,402.366 378.683,402.699 379,404.5C 380.113,403.24 380.28,402.073 379.5,401C 385.03,397.242 384.696,396.075 378.5,397.5C 378.762,398.978 378.429,400.311 377.5,401.5C 376.494,401.062 376.494,400.396 377.5,399.5C 375.267,397.715 374.267,395.715 374.5,393.5C 372.99,395.322 371.657,397.322 370.5,399.5C 369.386,398.277 369.219,396.944 370,395.5C 371.333,394.167 372.667,392.833 374,391.5C 374.692,390.563 374.525,389.897 373.5,389.5C 377.877,385.289 381.71,380.622 385,375.5C 393.568,351.286 402.401,327.286 411.5,303.5C 427.004,263.891 442.004,223.391 456.5,182C 456.43,181.235 456.097,180.735 455.5,180.5C 426.722,167.953 412.222,145.953 412,114.5C 414.76,108.703 419.26,106.537 425.5,108C 448.565,112.065 469.232,121.232 487.5,135.5C 489.484,128.232 491.151,120.898 492.5,113.5C 479.96,104.009 476.794,92.0092 483,77.5C 489.661,67.755 498.827,63.9217 510.5,66C 526.953,71.4008 533.12,82.5674 529,99.5C 527.026,104.449 523.86,108.449 519.5,111.5C 520.856,118.118 522.023,124.784 523,131.5C 528.414,132.526 533.914,133.192 539.5,133.5C 541.291,127.461 543.291,121.461 545.5,115.5C 535.055,101.12 536.388,87.9532 549.5,76C 568.183,67.2263 581.35,72.393 589,91.5C 590.608,104.618 585.608,114.285 574,120.5C 573.061,127.488 572.728,134.488 573,141.5C 579.044,145.876 584.044,151.21 588,157.5C 593.775,168.163 598.775,179.163 603,190.5C 615.416,203.578 627.083,217.245 638,231.5C 647.24,247.818 647.906,264.484 640,281.5C 627.204,297.762 611.037,302.262 591.5,295C 587.5,293 583.5,291 579.5,289C 574.111,284.611 568.444,280.611 562.5,277C 547.137,276.235 532.304,273.068 518,267.5C 517.5,267.833 517,268.167 516.5,268.5C 506.961,308.319 497.294,347.986 487.5,387.5 Z"/></g>
<g><path style="opacity:1" fill="#0e0d3d" d="M 572.5,103.5 C 576.266,96.3747 574.599,90.8747 567.5,87C 563.928,86.1529 560.594,86.6529 557.5,88.5C 556.262,88.19 556.262,87.69 557.5,87C 564.898,83.4792 570.732,85.3126 575,92.5C 576.075,96.8583 575.408,100.858 573,104.5C 572.601,104.272 572.435,103.938 572.5,103.5 Z"/></g>
<g><path style="opacity:1" fill="#facc02" d="M 572.5,103.5 C 563.084,110.368 556.751,108.202 553.5,97C 553.635,93.5642 554.969,90.7309 557.5,88.5C 560.594,86.6529 563.928,86.1529 567.5,87C 574.599,90.8747 576.266,96.3747 572.5,103.5 Z"/></g>
<g><path style="opacity:1" fill="#facc03" d="M 500.5,80.5 C 512.886,79.3765 517.386,84.7099 514,96.5C 506.344,103.768 500.01,102.768 495,93.5C 494.114,87.9465 495.947,83.6131 500.5,80.5 Z"/></g>
<g><path style="opacity:1" fill="#1c143b" d="M 560.5,151.5 C 559.542,151.047 558.708,150.381 558,149.5C 557.833,147.333 557.667,145.167 557.5,143C 558.477,135.841 558.977,128.674 559,121.5C 555.42,129.234 552.42,137.234 550,145.5C 549.623,146.942 548.79,147.942 547.5,148.5C 544.5,148.5 541.5,148.5 538.5,148.5C 541.563,147.799 544.73,147.132 548,146.5C 551.019,137.27 554.519,128.27 558.5,119.5C 560.046,120.212 561.046,121.378 561.5,123C 560.62,130.672 559.62,138.339 558.5,146C 558.643,148.151 559.643,149.818 561.5,151C 561.272,151.399 560.938,151.565 560.5,151.5 Z"/></g>
<g><path style="opacity:1" fill="#fdc900" d="M 538.5,148.5 C 541.5,148.5 544.5,148.5 547.5,148.5C 545.031,149.317 542.365,149.817 539.5,150C 543.909,151.262 547.743,150.428 551,147.5C 552.466,142.768 554.133,138.102 556,133.5C 556.082,138.505 556.082,143.505 556,148.5C 556.748,150.751 558.248,152.084 560.5,152.5C 565.312,155.749 569.478,159.749 573,164.5C 578.595,175.679 583.595,187.013 588,198.5C 597.667,209.5 607.333,220.5 617,231.5C 621.125,236.301 624.458,241.635 627,247.5C 629.704,256.974 628.704,265.974 624,274.5C 621.441,277.531 618.274,279.698 614.5,281C 615.094,281.464 615.761,281.631 616.5,281.5C 612.366,282.485 608.032,282.818 603.5,282.5C 596.298,280.563 589.631,277.563 583.5,273.5C 576.637,265.655 567.97,261.321 557.5,260.5C 554.287,260.81 551.287,260.477 548.5,259.5C 550.857,259.663 553.19,259.497 555.5,259C 537.649,258.499 522.149,252.333 509,240.5C 505.468,236.308 502.802,231.641 501,226.5C 492.473,221.014 486.973,223.181 484.5,233C 486.847,242.031 491.681,249.531 499,255.5C 499.973,258.579 500.806,261.579 501.5,264.5C 501.037,267.221 500.371,269.888 499.5,272.5C 494.707,292.466 490.04,312.466 485.5,332.5C 470.888,326.053 457.388,327.719 445,337.5C 436.726,350.188 436.393,363.188 444,376.5C 450.554,384.693 459.054,389.027 469.5,389.5C 465.407,408.374 461.073,427.207 456.5,446C 457.518,451.565 460.518,454.065 465.5,453.5C 470.834,454.834 476.167,456.167 481.5,457.5C 478.108,469.511 474.608,481.511 471,493.5C 469.142,499.581 470.975,504.081 476.5,507C 488.929,509.624 501.262,512.458 513.5,515.5C 515.38,522.118 517.047,528.784 518.5,535.5C 506.872,536.959 495.205,537.959 483.5,538.5C 483.167,538.5 482.833,538.5 482.5,538.5C 471.262,537.239 459.929,537.572 448.5,539.5C 447.833,530.167 447.167,520.833 446.5,511.5C 442.862,507.288 438.529,506.455 433.5,509C 432.262,509.69 432.262,510.19 433.5,510.5C 432.488,511.872 431.488,513.205 430.5,514.5C 429.182,522.968 428.515,531.635 428.5,540.5C 420.479,540.442 412.479,540.776 404.5,541.5C 404.667,530.828 404.5,520.161 404,509.5C 403.768,510.737 403.268,511.737 402.5,512.5C 402.5,510.833 402.5,509.167 402.5,507.5C 403.803,505.243 403.136,503.41 400.5,502C 394.226,499.033 389.392,500.533 386,506.5C 385.5,518.495 385.333,530.495 385.5,542.5C 369.511,543.461 353.511,544.294 337.5,545C 327.939,547.725 320.939,553.559 316.5,562.5C 315.749,561.624 315.249,560.624 315,559.5C 313.933,560.191 312.766,560.691 311.5,561C 314.051,561.422 315.385,562.922 315.5,565.5C 312.762,573.979 311.928,582.646 313,591.5C 313.176,587.312 313.676,583.312 314.5,579.5C 313.988,590.09 315.321,600.424 318.5,610.5C 309.615,612.61 300.615,613.944 291.5,614.5C 291.5,609.5 291.5,604.5 291.5,599.5C 291.333,573.165 291.5,546.831 292,520.5C 310.54,528.716 327.373,526.049 342.5,512.5C 352.879,498.46 351.546,485.627 338.5,474C 330.043,468.369 321.043,467.202 311.5,470.5C 318.866,460.626 327.199,451.459 336.5,443C 349.025,432.635 361.358,422.135 373.5,411.5C 380.825,405.842 387.491,399.508 393.5,392.5C 399.077,386.36 403.411,379.36 406.5,371.5C 413.703,350.392 421.203,329.392 429,308.5C 433.08,307.7 437.247,307.2 441.5,307C 440.552,306.517 439.552,306.351 438.5,306.5C 445.933,305.042 452.933,302.209 459.5,298C 470.964,285.648 472.464,272.148 464,257.5C 460.817,253.462 456.984,250.462 452.5,248.5C 453.239,248.631 453.906,248.464 454.5,248C 453.5,247.667 452.5,247.333 451.5,247C 459.167,226.667 466.833,206.333 474.5,186C 481.861,184.977 485.028,180.81 484,173.5C 482.833,171 481,169.167 478.5,168C 455.168,166.604 439.335,155.104 431,133.5C 430.31,132.262 429.81,132.262 429.5,133.5C 428.365,130.662 427.365,127.662 426.5,124.5C 443.747,127.258 459.747,133.591 474.5,143.5C 479.271,147.769 483.938,152.269 488.5,157C 491.584,158.984 494.584,158.818 497.5,156.5C 499.272,153.428 500.439,150.095 501,146.5C 502.347,136.446 504.014,126.446 506,116.5C 507.52,125.136 508.853,133.803 510,142.5C 510.308,143.308 510.808,143.975 511.5,144.5C 520.458,146.078 529.458,147.412 538.5,148.5 Z"/></g>
<g><path style="opacity:1" fill="#f1da0d" d="M 560.5,151.5 C 560.5,151.833 560.5,152.167 560.5,152.5C 558.248,152.084 556.748,150.751 556,148.5C 556.082,143.505 556.082,138.505 556,133.5C 554.133,138.102 552.466,142.768 551,147.5C 547.743,150.428 543.909,151.262 539.5,150C 542.365,149.817 545.031,149.317 547.5,148.5C 548.79,147.942 549.623,146.942 550,145.5C 552.42,137.234 555.42,129.234 559,121.5C 558.977,128.674 558.477,135.841 557.5,143C 557.667,145.167 557.833,147.333 558,149.5C 558.708,150.381 559.542,151.047 560.5,151.5 Z"/></g>
<g><path style="opacity:1" fill="#1c1439" d="M 474.5,143.5 C 459.747,133.591 443.747,127.258 426.5,124.5C 427.365,127.662 428.365,130.662 429.5,133.5C 431.545,140.592 434.878,146.926 439.5,152.5C 436.832,150.664 434.666,148.331 433,145.5C 429.38,138.639 426.547,131.473 424.5,124C 425.098,122.699 426.098,121.865 427.5,121.5C 439.157,124.775 450.49,128.941 461.5,134C 466.62,136.314 470.953,139.481 474.5,143.5 Z"/></g>
<g><path style="opacity:1" fill="#edda0d" d="M 560.5,152.5 C 565.232,153.71 569.066,156.377 572,160.5C 578.681,171.542 584.015,183.208 588,195.5C 597.626,207.461 607.626,219.128 618,230.5C 621.101,234.391 623.934,238.391 626.5,242.5C 633.366,256.647 631.366,269.313 620.5,280.5C 619.167,280.833 617.833,281.167 616.5,281.5C 615.761,281.631 615.094,281.464 614.5,281C 618.274,279.698 621.441,277.531 624,274.5C 628.704,265.974 629.704,256.974 627,247.5C 624.458,241.635 621.125,236.301 617,231.5C 607.333,220.5 597.667,209.5 588,198.5C 583.595,187.013 578.595,175.679 573,164.5C 569.478,159.749 565.312,155.749 560.5,152.5 Z"/></g>
<g><path style="opacity:1" fill="#edda0d" d="M 452.5,248.5 C 451.167,248.5 450.5,247.833 450.5,246.5C 458.034,225.897 465.367,205.231 472.5,184.5C 475.831,184.982 478.497,183.982 480.5,181.5C 484.561,177.493 484.228,173.66 479.5,170C 467.357,169.231 456.357,165.398 446.5,158.5C 444.766,155.8 442.432,153.8 439.5,152.5C 434.878,146.926 431.545,140.592 429.5,133.5C 429.81,132.262 430.31,132.262 431,133.5C 439.335,155.104 455.168,166.604 478.5,168C 481,169.167 482.833,171 484,173.5C 485.028,180.81 481.861,184.977 474.5,186C 466.833,206.333 459.167,226.667 451.5,247C 452.5,247.333 453.5,247.667 454.5,248C 453.906,248.464 453.239,248.631 452.5,248.5 Z"/></g>
<g><path style="opacity:1" fill="#150f3c" d="M 446.5,158.5 C 456.357,165.398 467.357,169.231 479.5,170C 484.228,173.66 484.561,177.493 480.5,181.5C 482.172,178.054 481.839,174.887 479.5,172C 467.382,170.962 456.382,166.962 446.5,160C 445.262,159.31 445.262,158.81 446.5,158.5 Z"/></g>
<g><path style="opacity:1" fill="#282533" d="M 544.5,192.5 C 552.846,192.18 556.846,196.18 556.5,204.5C 556.81,211.87 553.31,216.203 546,217.5C 539.597,215.884 536.431,211.718 536.5,205C 536.933,199.401 539.6,195.234 544.5,192.5 Z"/></g>
<g><path style="opacity:1" fill="#131316" d="M 455.5,180.5 C 456.097,180.735 456.43,181.235 456.5,182C 442.004,223.391 427.004,263.891 411.5,303.5C 425.769,262.36 440.436,221.36 455.5,180.5 Z"/></g>
<g><path style="opacity:1" fill="#ebd90d" d="M 548.5,259.5 C 540.598,258.865 532.931,257.198 525.5,254.5C 518.628,250.637 512.295,245.97 506.5,240.5C 503.898,235.471 500.898,230.638 497.5,226C 490.872,223.487 487.205,225.82 486.5,233C 487.993,240.49 491.659,246.656 497.5,251.5C 498.793,253.296 500.293,254.963 502,256.5C 502.602,259.221 502.435,261.887 501.5,264.5C 500.806,261.579 499.973,258.579 499,255.5C 491.681,249.531 486.847,242.031 484.5,233C 486.973,223.181 492.473,221.014 501,226.5C 502.802,231.641 505.468,236.308 509,240.5C 522.149,252.333 537.649,258.499 555.5,259C 553.19,259.497 550.857,259.663 548.5,259.5 Z"/></g>
<g><path style="opacity:1" fill="#1a143b" d="M 506.5,240.5 C 505.542,240.047 504.708,239.381 504,238.5C 503.282,239.451 502.449,239.617 501.5,239C 501.865,234.368 500.199,230.368 496.5,227C 493.653,226.056 491.153,226.556 489,228.5C 486.491,236.243 488.991,241.743 496.5,245C 495.692,245.308 495.025,245.808 494.5,246.5C 495.952,247.94 496.952,249.606 497.5,251.5C 491.659,246.656 487.993,240.49 486.5,233C 487.205,225.82 490.872,223.487 497.5,226C 500.898,230.638 503.898,235.471 506.5,240.5 Z"/></g>
<g><path style="opacity:1" fill="#0d0e3b" d="M 626.5,242.5 C 627.75,242.577 628.583,243.244 629,244.5C 632.551,251.583 633.218,258.916 631,266.5C 629.656,272.885 626.156,277.552 620.5,280.5C 631.366,269.313 633.366,256.647 626.5,242.5 Z"/></g>
<g><path style="opacity:1" fill="#191140" d="M 616.5,262.5 C 616.912,259.269 616.412,255.936 615,252.5C 612.627,250.15 610.127,249.983 607.5,252C 603.726,259.707 606.06,263.874 614.5,264.5C 608.2,266.671 604.866,264.337 604.5,257.5C 605.324,249.838 609.157,247.838 616,251.5C 617.747,255.125 617.914,258.792 616.5,262.5 Z"/></g>
<g><path style="opacity:1" fill="#2c2a31" d="M 616.5,262.5 C 616.167,263.5 615.5,264.167 614.5,264.5C 606.06,263.874 603.726,259.707 607.5,252C 610.127,249.983 612.627,250.15 615,252.5C 616.412,255.936 616.912,259.269 616.5,262.5 Z"/></g>
<g><path style="opacity:1" fill="#0d0d3b" d="M 525.5,254.5 C 532.931,257.198 540.598,258.865 548.5,259.5C 551.287,260.477 554.287,260.81 557.5,260.5C 557.631,261.376 557.298,262.043 556.5,262.5C 551.192,261.632 545.858,260.798 540.5,260C 534.894,259.526 529.894,257.693 525.5,254.5 Z"/></g>
<g><path style="opacity:1" fill="#e78101" d="M 450.5,246.5 C 450.5,247.833 451.167,248.5 452.5,248.5C 456.984,250.462 460.817,253.462 464,257.5C 472.464,272.148 470.964,285.648 459.5,298C 452.933,302.209 445.933,305.042 438.5,306.5C 435.061,306.747 431.728,306.414 428.5,305.5C 435.595,285.661 442.929,265.995 450.5,246.5 Z"/></g>
<g><path style="opacity:1" fill="#100f3c" d="M 583.5,273.5 C 589.631,277.563 596.298,280.563 603.5,282.5C 595.799,282.326 589.132,279.326 583.5,273.5 Z"/></g>
<g><path style="opacity:1" fill="#1e143a" d="M 499.5,272.5 C 500.622,274.288 500.789,276.288 500,278.5C 496.018,293.76 492.352,309.094 489,324.5C 487.856,329.66 486.356,333.993 484.5,337.5C 484.366,335.708 484.699,334.042 485.5,332.5C 490.04,312.466 494.707,292.466 499.5,272.5 Z"/></g>
<g><path style="opacity:1" fill="#e68001" d="M 485.5,332.5 C 484.699,334.042 484.366,335.708 484.5,337.5C 479.878,354.656 475.544,371.989 471.5,389.5C 470.833,389.5 470.167,389.5 469.5,389.5C 459.054,389.027 450.554,384.693 444,376.5C 436.393,363.188 436.726,350.188 445,337.5C 457.388,327.719 470.888,326.053 485.5,332.5 Z"/></g>
<g><path style="opacity:1" fill="#edda0d" d="M 428.5,305.5 C 431.728,306.414 435.061,306.747 438.5,306.5C 439.552,306.351 440.552,306.517 441.5,307C 437.247,307.2 433.08,307.7 429,308.5C 421.203,329.392 413.703,350.392 406.5,371.5C 403.411,379.36 399.077,386.36 393.5,392.5C 396.911,386.68 400.078,380.68 403,374.5C 411.607,351.51 420.107,328.51 428.5,305.5 Z"/></g>
<g><path style="opacity:1" fill="#28272e" d="M 373.5,389.5 C 374.525,389.897 374.692,390.563 374,391.5C 372.667,392.833 371.333,394.167 370,395.5C 369.219,396.944 369.386,398.277 370.5,399.5C 371.657,397.322 372.99,395.322 374.5,393.5C 374.267,395.715 375.267,397.715 377.5,399.5C 376.494,400.396 376.494,401.062 377.5,401.5C 378.429,400.311 378.762,398.978 378.5,397.5C 384.696,396.075 385.03,397.242 379.5,401C 380.28,402.073 380.113,403.24 379,404.5C 378.683,402.699 378.016,402.366 377,403.5C 377.07,406.538 375.57,409.038 372.5,411C 372.728,411.399 373.062,411.565 373.5,411.5C 361.358,422.135 349.025,432.635 336.5,443C 327.199,451.459 318.866,460.626 311.5,470.5C 299.588,485.003 292.588,501.67 290.5,520.5C 289.336,549.33 289.17,578.33 290,607.5C 290.112,610.634 290.612,612.967 291.5,614.5C 300.615,613.944 309.615,612.61 318.5,610.5C 315.321,600.424 313.988,590.09 314.5,579.5C 314.725,568.649 318.725,559.483 326.5,552C 329.554,549.806 332.888,548.139 336.5,547C 344.165,546.405 351.832,545.905 359.5,545.5C 369.003,546.5 378.67,546.5 388.5,545.5C 388.333,533.162 388.5,520.829 389,508.5C 390.942,503.295 394.442,502.129 399.5,505C 400.43,506.194 401.097,507.527 401.5,509C 400.365,520.466 400.198,531.966 401,543.5C 408.9,544.727 411.067,544.727 407.5,543.5C 414.989,542.487 422.656,541.82 430.5,541.5C 431.417,541.506 431.917,540.506 432,538.5C 432.333,530.167 432.667,521.833 433,513.5C 435.255,511.501 437.755,510.168 440.5,509.5C 441.492,509.328 442.158,509.662 442.5,510.5C 442.062,510.435 441.728,510.601 441.5,511C 442.333,511.833 443.167,512.667 444,513.5C 444.333,522.5 444.667,531.5 445,540.5C 445.5,531.84 445.666,523.173 445.5,514.5C 446.493,522.984 446.826,531.651 446.5,540.5C 447.5,540.5 448.5,540.5 449.5,540.5C 451.978,541.164 454.645,541.497 457.5,541.5C 465.5,541 473.5,540.5 481.5,540C 477.848,539.501 474.182,539.335 470.5,539.5C 474.298,538.517 478.298,538.183 482.5,538.5C 482.833,538.5 483.167,538.5 483.5,538.5C 487.982,539.326 492.649,539.826 497.5,540C 495.744,540.202 494.078,540.702 492.5,541.5C 493.218,542.137 494.218,542.137 495.5,541.5C 496.932,541.733 497.432,542.4 497,543.5C 495.32,542.397 493.82,542.73 492.5,544.5C 491.827,541.003 489.827,539.837 486.5,541C 486.833,541.333 487.167,541.667 487.5,542C 486.773,544.124 486.106,546.291 485.5,548.5C 486.605,549.892 487.939,551.059 489.5,552C 473.781,552.715 460.781,553.882 450.5,555.5C 449.081,556.451 447.415,556.784 445.5,556.5C 438.011,555.344 430.345,555.178 422.5,556C 402.865,557.62 383.198,558.62 363.5,559C 370.158,559.5 376.825,559.666 383.5,559.5C 377.347,560.328 371.013,560.828 364.5,561C 399.966,572.545 435.633,583.378 471.5,593.5C 542.169,586.619 612.836,579.786 683.5,573C 641.908,564.735 600.242,556.902 558.5,549.5C 554.202,550.297 549.868,550.63 545.5,550.5C 542.686,549.835 539.686,549.502 536.5,549.5C 521.185,550.832 505.851,551.332 490.5,551C 491.701,550.097 492.535,548.931 493,547.5C 493.333,548.167 493.667,548.833 494,549.5C 495.959,548.252 497.459,546.585 498.5,544.5C 499.842,543.098 500.676,543.431 501,545.5C 501.5,544.333 502.333,543.5 503.5,543C 502.061,542.009 501.061,540.676 500.5,539C 506.167,538.333 511.833,538.333 517.5,539C 516.062,539.219 514.729,539.719 513.5,540.5C 513.833,541.167 514.167,541.833 514.5,542.5C 513.349,543.731 512.183,543.731 511,542.5C 510.333,543.5 510.333,544.5 511,545.5C 512.84,544.167 513.34,544.334 512.5,546C 514.167,546.667 515.833,546.667 517.5,546C 516.167,544.16 516.334,543.66 518,544.5C 518.5,543.333 519.333,542.5 520.5,542C 520.167,541.667 519.833,541.333 519.5,541C 521.57,540.052 523.07,538.552 524,536.5C 524.333,537.833 524.667,539.167 525,540.5C 525.167,539.667 525.333,538.833 525.5,538C 523.146,534.248 520.48,530.081 517.5,525.5C 517.833,525.167 518.167,524.833 518.5,524.5C 519.258,525.811 520.258,526.311 521.5,526C 520.167,524.333 520.167,522.667 521.5,521C 519.877,517.946 519.21,518.446 519.5,522.5C 518.5,522.5 517.5,522.5 516.5,522.5C 516.299,519.238 517.799,517.238 521,516.5C 522.585,517.245 524.085,517.745 525.5,518C 525.167,517.667 524.833,517.333 524.5,517C 525.522,514.8 526.855,512.8 528.5,511C 526.892,510.342 525.725,510.842 525,512.5C 523.488,510.043 522.154,510.043 521,512.5C 518.877,512.034 517.377,510.867 516.5,509C 516.667,508.5 516.833,508 517,507.5C 517.419,508.672 518.085,509.672 519,510.5C 518.805,508.874 518.805,507.207 519,505.5C 519.626,507.991 520.459,507.991 521.5,505.5C 521.833,506.167 522.167,506.833 522.5,507.5C 524.102,506.45 524.935,507.117 525,509.5C 525.167,508.833 525.333,508.167 525.5,507.5C 523.146,505.878 523.146,504.378 525.5,503C 522.903,502.221 522.903,501.721 525.5,501.5C 551.929,506.68 578.263,511.847 604.5,517C 618.455,472.964 632.122,428.798 645.5,384.5C 607.36,376.09 569.194,367.757 531,359.5C 530.167,359.833 529.333,360.167 528.5,360.5C 514.228,404.649 500.561,448.982 487.5,493.5C 489.806,493.993 492.139,494.326 494.5,494.5C 492.034,495.634 489.367,495.801 486.5,495C 485.978,494.439 485.645,493.772 485.5,493C 488.268,484.197 490.934,475.363 493.5,466.5C 493.272,464.603 492.272,463.27 490.5,462.5C 492.335,461.572 492.668,460.406 491.5,459C 493.061,458.682 494.228,457.849 495,456.5C 495.333,457.167 495.667,457.833 496,458.5C 497.731,453.14 499.564,447.807 501.5,442.5C 499.979,440.379 497.979,438.879 495.5,438C 496.328,437.085 497.328,436.419 498.5,436C 496.559,435.257 494.726,435.424 493,436.5C 492.085,435.672 491.419,434.672 491,433.5C 488.587,437.572 488.254,441.572 490,445.5C 486.276,444.185 482.442,443.685 478.5,444C 476.968,446.33 477.302,448.33 479.5,450C 478.692,450.308 478.025,450.808 477.5,451.5C 478.891,451.109 479.891,451.942 480.5,454C 478.941,455.756 477.274,455.756 475.5,454C 475.833,453.667 476.167,453.333 476.5,453C 474.893,451.951 474.227,450.451 474.5,448.5C 472.712,448.785 471.045,448.452 469.5,447.5C 470.002,446.284 470.335,445.117 470.5,444C 469.833,443.667 469.167,443.333 468.5,443C 470.705,441.923 472.705,441.257 474.5,441C 473.978,440.439 473.645,439.772 473.5,439C 477.569,423.558 481.402,408.058 485,392.5C 485.47,389.928 486.303,388.261 487.5,387.5C 483.74,404.372 479.74,421.206 475.5,438C 475.755,439.326 476.422,440.326 477.5,441C 480.264,441.532 482.93,442.366 485.5,443.5C 497.96,404.951 510.127,366.284 522,327.5C 523.5,324.667 525.667,322.5 528.5,321C 566.206,319.344 601.873,327.011 635.5,344C 643.521,348.351 650.688,353.851 657,360.5C 682.18,322.376 717.68,301.209 763.5,297C 766.583,297.786 768.749,299.619 770,302.5C 770.365,308.648 769.531,314.648 767.5,320.5C 768.167,320.833 768.833,321.167 769.5,321.5C 774.391,319.79 779.391,319.29 784.5,320C 790.198,322.226 792.698,326.393 792,332.5C 777.536,382.226 762.869,431.893 748,481.5C 746.681,483.487 744.848,484.654 742.5,485C 734.866,486.825 727.199,488.492 719.5,490C 717.424,499.892 713.591,509.059 708,517.5C 697.221,530.946 685.054,543.112 671.5,554C 691.575,558.414 711.575,563.081 731.5,568C 734.803,571.795 735.303,575.962 733,580.5C 722.281,587.945 717.447,598.278 718.5,611.5C 717.451,623.07 722.284,631.07 733,635.5C 736.014,641.972 734.181,646.472 727.5,649C 722.845,649.499 718.179,649.666 713.5,649.5C 713.666,656.175 713.5,662.842 713,669.5C 700.127,682.413 696.794,697.413 703,714.5C 707.122,718.89 711.789,722.557 717,725.5C 718.202,729.793 717.035,733.293 713.5,736C 627.233,747.075 540.9,757.742 454.5,768C 450.074,768.791 445.741,768.457 441.5,767C 387.952,742.726 334.285,718.726 280.5,695C 271.061,686.706 266.227,676.206 266,663.5C 264.99,653.048 265.656,642.714 268,632.5C 269.763,627.959 272.263,623.959 275.5,620.5C 275.833,617.5 276.167,614.5 276.5,611.5C 275.401,578.84 275.234,546.173 276,513.5C 279.941,488.954 290.275,467.62 307,449.5C 322.989,433.608 339.822,418.775 357.5,405C 362.729,399.603 368.062,394.436 373.5,389.5 Z"/></g>
<g><path style="opacity:1" fill="#260e21" d="M 445.5,556.5 C 424.837,557.57 404.171,558.57 383.5,559.5C 376.825,559.666 370.158,559.5 363.5,559C 383.198,558.62 402.865,557.62 422.5,556C 430.345,555.178 438.011,555.344 445.5,556.5 Z"/></g>
<g><path style="opacity:1" fill="#efd808" d="M 402.5,507.5 C 400.098,501.801 396.098,500.301 390.5,503C 389.299,503.903 388.465,505.069 388,506.5C 387.5,519.162 387.333,531.829 387.5,544.5C 378.148,544.434 368.815,544.768 359.5,545.5C 351.832,545.905 344.165,546.405 336.5,547C 332.888,548.139 329.554,549.806 326.5,552C 318.725,559.483 314.725,568.649 314.5,579.5C 313.676,583.312 313.176,587.312 313,591.5C 311.928,582.646 312.762,573.979 315.5,565.5C 315.385,562.922 314.051,561.422 311.5,561C 312.766,560.691 313.933,560.191 315,559.5C 315.249,560.624 315.749,561.624 316.5,562.5C 320.939,553.559 327.939,547.725 337.5,545C 353.511,544.294 369.511,543.461 385.5,542.5C 385.333,530.495 385.5,518.495 386,506.5C 389.392,500.533 394.226,499.033 400.5,502C 403.136,503.41 403.803,505.243 402.5,507.5 Z"/></g>
<g><path style="opacity:1" fill="#04063f" d="M 290.5,520.5 C 290.169,547.005 290.502,573.339 291.5,599.5C 291.5,604.5 291.5,609.5 291.5,614.5C 290.612,612.967 290.112,610.634 290,607.5C 289.17,578.33 289.336,549.33 290.5,520.5 Z"/></g>
<g><path style="opacity:1" fill="#f4df05" d="M 430.5,514.5 C 430.5,523.5 430.5,532.5 430.5,541.5C 422.656,541.82 414.989,542.487 407.5,543.5C 405.833,543.5 404.167,543.5 402.5,543.5C 402.5,533.167 402.5,522.833 402.5,512.5C 403.268,511.737 403.768,510.737 404,509.5C 404.5,520.161 404.667,530.828 404.5,541.5C 412.479,540.776 420.479,540.442 428.5,540.5C 428.515,531.635 429.182,522.968 430.5,514.5 Z"/></g>
<g><path style="opacity:1" fill="#06063c" d="M 470.5,539.5 C 474.182,539.335 477.848,539.501 481.5,540C 473.5,540.5 465.5,541 457.5,541.5C 454.645,541.497 451.978,541.164 449.5,540.5C 456.51,540.332 463.51,539.999 470.5,539.5 Z"/></g>
<g><path style="opacity:1" fill="#1a1438" d="M 440.5,509.5 C 437.755,510.168 435.255,511.501 433,513.5C 432.667,521.833 432.333,530.167 432,538.5C 431.917,540.506 431.417,541.506 430.5,541.5C 430.5,532.5 430.5,523.5 430.5,514.5C 431.488,513.205 432.488,511.872 433.5,510.5C 435.717,509.631 438.05,509.298 440.5,509.5 Z"/></g>
<g><path style="opacity:1" fill="#efdd0d" d="M 670.5,494.5 C 671.658,500.037 671.492,505.704 670,511.5C 668.954,513.09 667.787,514.59 666.5,516C 654.576,520.851 643.576,527.184 633.5,535C 631.833,535.833 630.167,536.667 628.5,537.5C 627.893,537.376 627.56,537.043 627.5,536.5C 639.272,527.928 651.938,520.761 665.5,515C 667.317,513.2 668.484,511.034 669,508.5C 669.223,503.75 669.723,499.084 670.5,494.5 Z"/></g>
<g><path style="opacity:1" fill="#f3ede4" d="M 626.5,537.5 C 626.5,540.167 626.5,542.833 626.5,545.5C 604.77,542.1 583.104,538.267 561.5,534C 552.447,533.726 543.447,534.226 534.5,535.5C 532.042,530.078 530.875,524.412 531,518.5C 562.895,524.379 594.728,530.712 626.5,537.5 Z"/></g>
<g><path style="opacity:1" fill="#f2e00a" d="M 482.5,538.5 C 478.298,538.183 474.298,538.517 470.5,539.5C 463.51,539.999 456.51,540.332 449.5,540.5C 448.5,540.5 447.5,540.5 446.5,540.5C 446.826,531.651 446.493,522.984 445.5,514.5C 445.262,512.596 444.262,511.262 442.5,510.5C 442.158,509.662 441.492,509.328 440.5,509.5C 438.05,509.298 435.717,509.631 433.5,510.5C 432.262,510.19 432.262,509.69 433.5,509C 438.529,506.455 442.862,507.288 446.5,511.5C 447.167,520.833 447.833,530.167 448.5,539.5C 459.929,537.572 471.262,537.239 482.5,538.5 Z"/></g>
<g><path style="opacity:1" fill="#030741" d="M 442.5,510.5 C 444.262,511.262 445.262,512.596 445.5,514.5C 445.666,523.173 445.5,531.84 445,540.5C 444.667,531.5 444.333,522.5 444,513.5C 443.167,512.667 442.333,511.833 441.5,511C 441.728,510.601 442.062,510.435 442.5,510.5 Z"/></g>
<g><path style="opacity:1" fill="#110f3c" d="M 402.5,507.5 C 402.5,509.167 402.5,510.833 402.5,512.5C 402.5,522.833 402.5,533.167 402.5,543.5C 404.167,543.5 405.833,543.5 407.5,543.5C 411.067,544.727 408.9,544.727 401,543.5C 400.198,531.966 400.365,520.466 401.5,509C 401.097,507.527 400.43,506.194 399.5,505C 394.442,502.129 390.942,503.295 389,508.5C 388.5,520.829 388.333,533.162 388.5,545.5C 378.67,546.5 369.003,546.5 359.5,545.5C 368.815,544.768 378.148,544.434 387.5,544.5C 387.333,531.829 387.5,519.162 388,506.5C 388.465,505.069 389.299,503.903 390.5,503C 396.098,500.301 400.098,501.801 402.5,507.5 Z"/></g>
<g><path style="opacity:1" fill="#e48002" d="M 291.5,599.5 C 290.502,573.339 290.169,547.005 290.5,520.5C 292.588,501.67 299.588,485.003 311.5,470.5C 321.043,467.202 330.043,468.369 338.5,474C 351.546,485.627 352.879,498.46 342.5,512.5C 327.373,526.049 310.54,528.716 292,520.5C 291.5,546.831 291.333,573.165 291.5,599.5 Z"/></g>
<g><path style="opacity:1" fill="#8163c6" d="M 661.5,388.5 C 664.187,388.336 666.854,388.503 669.5,389C 654.873,431.547 641.04,474.381 628,517.5C 625.847,520.124 623.013,521.124 619.5,520.5C 631.947,476.989 645.114,433.656 659,390.5C 659.995,389.934 660.828,389.267 661.5,388.5 Z"/></g>
<g><path style="opacity:1" fill="#7e61c2" d="M 525.5,501.5 C 515.245,499.313 504.912,496.98 494.5,494.5C 492.139,494.326 489.806,493.993 487.5,493.5C 500.561,448.982 514.228,404.649 528.5,360.5C 529.333,360.167 530.167,359.833 531,359.5C 569.194,367.757 607.36,376.09 645.5,384.5C 632.122,428.798 618.455,472.964 604.5,517C 578.263,511.847 551.929,506.68 525.5,501.5 Z"/></g>
<g><path style="opacity:1" fill="#f2e106" d="M 694.5,509.5 C 693.957,509.44 693.624,509.107 693.5,508.5C 701.608,497.098 703.775,484.764 700,471.5C 696.544,467.262 692.378,466.429 687.5,469C 684.37,471.128 681.537,473.628 679,476.5C 676.867,480.592 674.701,483.926 672.5,486.5C 674.644,478.51 679.311,472.344 686.5,468C 694.276,464.487 699.776,466.654 703,474.5C 704.776,487.328 701.943,498.994 694.5,509.5 Z"/></g>
<g><path style="opacity:1" fill="#fcc901" d="M 694.5,509.5 C 689.454,517.054 683.454,523.888 676.5,530C 668.646,536.431 660.98,543.097 653.5,550C 644.165,549.963 635.165,548.463 626.5,545.5C 626.5,542.833 626.5,540.167 626.5,537.5C 626.5,536.833 626.833,536.5 627.5,536.5C 627.56,537.043 627.893,537.376 628.5,537.5C 630.167,536.667 631.833,535.833 633.5,535C 643.576,527.184 654.576,520.851 666.5,516C 667.787,514.59 668.954,513.09 670,511.5C 671.492,505.704 671.658,500.037 670.5,494.5C 670.294,491.505 670.96,488.838 672.5,486.5C 674.701,483.926 676.867,480.592 679,476.5C 681.537,473.628 684.37,471.128 687.5,469C 692.378,466.429 696.544,467.262 700,471.5C 703.775,484.764 701.608,497.098 693.5,508.5C 693.624,509.107 693.957,509.44 694.5,509.5 Z"/></g>
<g><path style="opacity:1" fill="#e58001" d="M 401.5,417.5 C 417.164,415.34 427.664,421.673 433,436.5C 436.976,453.037 431.476,464.87 416.5,472C 391.485,473.985 380.318,462.485 383,437.5C 385.614,427.391 391.781,420.725 401.5,417.5 Z"/></g>
<g><path style="opacity:1" fill="#7f61c2" d="M 774.5,334.5 C 775.043,334.56 775.376,334.893 775.5,335.5C 762.039,380.386 748.873,425.386 736,470.5C 730.483,471.638 724.983,472.971 719.5,474.5C 711.187,451.012 696.187,445.178 674.5,457C 660.753,468.999 653.919,484.165 654,502.5C 651.02,504.134 648.02,505.8 645,507.5C 658.102,464.522 671.435,421.522 685,378.5C 699.08,366.867 714.58,357.367 731.5,350C 745.611,343.91 759.944,338.743 774.5,334.5 Z"/></g>
<g><path style="opacity:1" fill="#f3e107" d="M 469.5,389.5 C 470.167,389.5 470.833,389.5 471.5,389.5C 466.74,408.057 462.407,426.724 458.5,445.5C 458.671,450.007 461.005,452.674 465.5,453.5C 460.518,454.065 457.518,451.565 456.5,446C 461.073,427.207 465.407,408.374 469.5,389.5 Z"/></g>
<g><path style="opacity:1" fill="#f4ede4" d="M 609.5,348.5 C 609.842,349.338 610.508,349.672 611.5,349.5C 623.429,354.463 634.429,360.963 644.5,369C 608.383,360.375 572.05,352.375 535.5,345C 534.484,344.481 533.818,343.647 533.5,342.5C 533.696,336.727 536.696,334.394 542.5,335.5C 565.439,336.888 587.772,341.221 609.5,348.5 Z"/></g>
<g><path style="opacity:1" fill="#292931" d="M 611.5,349.5 C 610.508,349.672 609.842,349.338 609.5,348.5C 606.601,346.303 602.767,344.636 598,343.5C 590.735,341.726 583.569,339.726 576.5,337.5C 575.494,336.604 575.494,335.938 576.5,335.5C 579.105,338.199 579.772,337.866 578.5,334.5C 579.504,330.647 580.338,330.647 581,334.5C 582.02,333.109 582.853,331.609 583.5,330C 581.993,329.163 581.493,327.996 582,326.5C 598.519,329.729 614.353,335.062 629.5,342.5C 630.584,343.665 631.417,344.998 632,346.5C 634.963,347.629 637.129,349.629 638.5,352.5C 637.885,354.116 636.885,355.449 635.5,356.5C 637.271,357.988 638.604,359.821 639.5,362C 631.502,357.497 623.169,353.164 614.5,349C 613.251,348.26 612.251,348.427 611.5,349.5 Z"/></g>
<g><path style="opacity:1" fill="#f5efe5" d="M 749.5,313.5 C 751.199,313.34 752.866,313.506 754.5,314C 753.607,318.023 752.607,322.023 751.5,326C 722.489,335.501 696.156,349.667 672.5,368.5C 672.167,368.167 671.833,367.833 671.5,367.5C 683.685,347.148 700.685,332.315 722.5,323C 731.571,319.7 740.571,316.534 749.5,313.5 Z"/></g>
<g><path style="opacity:1" fill="#35a978" d="M 383.5,559.5 C 404.171,558.57 424.837,557.57 445.5,556.5C 447.415,556.784 449.081,556.451 450.5,555.5C 482.171,553.87 513.837,552.203 545.5,550.5C 549.868,550.63 554.202,550.297 558.5,549.5C 600.242,556.902 641.908,564.735 683.5,573C 612.836,579.786 542.169,586.619 471.5,593.5C 435.633,583.378 399.966,572.545 364.5,561C 371.013,560.828 377.347,560.328 383.5,559.5 Z"/></g>
<g><path style="opacity:1" fill="#f5eee4" d="M 698.5,587.5 C 701.518,587.335 704.518,587.502 707.5,588C 705.02,593.439 703.353,599.106 702.5,605C 633.853,611.761 565.186,618.427 496.5,625C 490.909,628.279 490.242,632.279 494.5,637C 495.5,637.167 496.5,637.333 497.5,637.5C 566.158,631.001 634.825,624.668 703.5,618.5C 703.978,623.579 705.311,628.412 707.5,633C 633.019,641.013 558.519,648.847 484,656.5C 481.906,656.464 479.906,656.131 478,655.5C 473.73,644.902 472.397,633.902 474,622.5C 475.057,616.204 478.223,611.371 483.5,608C 555.304,601.031 626.971,594.197 698.5,587.5 Z"/></g>
<g><path style="opacity:1" fill="#35a978" d="M 334.5,564.5 C 377.888,578.296 421.222,592.296 464.5,606.5C 459.767,614.658 457.767,623.491 458.5,633C 457.997,641.152 459.33,648.985 462.5,656.5C 460.534,657.372 458.534,657.205 456.5,656C 416.5,640.667 376.5,625.333 336.5,610C 333.195,606.105 331.028,601.605 330,596.5C 329.333,588.833 329.333,581.167 330,573.5C 330.986,570.194 332.486,567.194 334.5,564.5 Z"/></g>
<g><path style="opacity:1" fill="#8164c8" d="M 467.5,675.5 C 467.5,678.167 467.5,680.833 467.5,683.5C 418.334,664.556 369.334,645.223 320.5,625.5C 326.495,623.472 332.495,623.305 338.5,625C 381.318,642.413 424.318,659.247 467.5,675.5 Z"/></g>
<g><path style="opacity:1" fill="#35aa79" d="M 467.5,683.5 C 467.5,680.833 467.5,678.167 467.5,675.5C 544.256,666.231 621.256,657.898 698.5,650.5C 699.011,654.03 698.344,657.196 696.5,660C 619.909,667.975 543.575,675.809 467.5,683.5 Z"/></g>
<g><path style="opacity:1" fill="#f6626c" d="M 289.5,627.5 C 298.413,629.45 307.08,632.283 315.5,636C 360.281,654.147 404.948,672.48 449.5,691C 444.558,696.142 441.725,702.309 441,709.5C 439.56,723.421 440.726,737.088 444.5,750.5C 391.829,728.081 339.163,704.914 286.5,681C 283.368,676.314 281.535,671.147 281,665.5C 280.333,657.5 280.333,649.5 281,641.5C 281.572,635.34 284.405,630.673 289.5,627.5 Z"/></g>
<g><path style="opacity:1" fill="#f5eee3" d="M 526.5,724.5 C 579.536,719.163 632.536,713.496 685.5,707.5C 685.245,713.325 686.912,718.491 690.5,723C 613.545,732.556 536.545,741.723 459.5,750.5C 454.991,737.106 453.824,723.439 456,709.5C 457.373,706.588 458.873,703.754 460.5,701C 536.384,692.662 612.217,684.496 688,676.5C 686.402,682.664 685.235,688.997 684.5,695.5C 616.495,702.467 548.495,709.634 480.5,717C 474.941,718.458 473.108,721.958 475,727.5C 476.594,729.297 478.594,730.297 481,730.5C 496.315,728.524 511.482,726.524 526.5,724.5 Z"/></g>
<g><path style="opacity:1" fill="#0b0a0e" d="M 685.5,707.5 C 632.536,713.496 579.536,719.163 526.5,724.5C 575.088,718.431 624.422,712.598 674.5,707C 678.358,706.19 682.024,706.357 685.5,707.5 Z"/></g>
<g><path style="opacity:1" fill="#1c1c1d" d="M 242.5,829.5 C 241.31,826.232 240.976,816.898 241.5,801.5C 235.833,801.5 230.167,801.5 224.5,801.5C 224.5,836.167 224.5,870.833 224.5,905.5C 229.833,905.5 235.167,905.5 240.5,905.5C 240.16,902.028 240.493,899.361 241.5,897.5C 241.5,900.5 241.5,903.5 241.5,906.5C 235.242,906.81 229.076,906.476 223,905.5C 222.333,870.833 222.333,836.167 223,801.5C 223.5,801 224,800.5 224.5,800C 230.416,799.193 236.25,799.359 242,800.5C 242.5,810.161 242.666,819.828 242.5,829.5 Z"/></g>
<g><path style="opacity:1" fill="#25252b" d="M 354.5,799.5 C 365.831,797.68 371.331,802.347 371,813.5C 367.916,820.955 362.416,823.455 354.5,821C 348.823,817.364 346.99,812.197 349,805.5C 350.36,802.977 352.193,800.977 354.5,799.5 Z"/></g>
<g><path style="opacity:1" fill="#27272d" d="M 193.5,799.5 C 207.626,799.115 212.126,805.449 207,818.5C 202.632,821.42 197.799,822.253 192.5,821C 187.15,817.629 185.317,812.796 187,806.5C 188.018,802.985 190.185,800.652 193.5,799.5 Z"/></g>
<g><path style="opacity:1" fill="#25242b" d="M 587.5,799.5 C 600.045,797.877 605.212,803.21 603,815.5C 602.215,817.286 601.049,818.786 599.5,820C 586.754,824.237 580.587,819.737 581,806.5C 582.694,803.642 584.861,801.309 587.5,799.5 Z"/></g>
<g><path style="opacity:1" fill="#9c9894" d="M 830.5,819.5 C 830.5,823.167 830.5,826.833 830.5,830.5C 836.026,830.179 841.36,830.512 846.5,831.5C 840.833,831.5 835.167,831.5 829.5,831.5C 829.183,827.298 829.517,823.298 830.5,819.5 Z"/></g>
<g><path style="opacity:1" fill="#28282f" d="M 775.5,831.5 C 780.077,832.355 785.411,832.855 791.5,833C 792.467,837.401 792.8,841.901 792.5,846.5C 786.575,846.192 780.741,846.525 775,847.5C 774.667,866.5 774.333,885.5 774,904.5C 768.259,905.475 762.425,905.808 756.5,905.5C 756.83,886.326 756.497,867.326 755.5,848.5C 751.563,848.793 747.73,848.46 744,847.5C 743.501,842.177 743.334,836.844 743.5,831.5C 747.5,831.5 751.5,831.5 755.5,831.5C 751.293,809.216 760.459,797.883 783,797.5C 786.243,797.307 789.243,797.973 792,799.5C 792.667,804.167 792.667,808.833 792,813.5C 787.92,814.3 783.753,814.8 779.5,815C 778.069,815.465 776.903,816.299 776,817.5C 775.501,822.155 775.334,826.821 775.5,831.5 Z"/></g>
<g><path style="opacity:1" fill="#0f0d12" d="M 350.5,831.5 C 356.833,831.5 363.167,831.5 369.5,831.5C 369.5,856.5 369.5,881.5 369.5,906.5C 362.91,906.811 356.41,906.478 350,905.5C 349.177,880.761 349.344,856.094 350.5,831.5 Z"/></g>
<g><path style="opacity:1" fill="#29292f" d="M 830.5,819.5 C 829.517,823.298 829.183,827.298 829.5,831.5C 835.167,831.5 840.833,831.5 846.5,831.5C 847.651,836.65 847.817,841.984 847,847.5C 841.593,848.473 836.093,848.807 830.5,848.5C 830.83,867.674 830.497,886.674 829.5,905.5C 829.167,829.5 828.833,829.5 828.5,905.5C 822.833,905.5 817.167,905.5 811.5,905.5C 811.667,886.497 811.5,867.497 811,848.5C 810.617,849.056 810.117,849.389 809.5,849.5C 805.969,848.77 802.303,848.104 798.5,847.5C 797.196,842.281 797.196,837.114 798.5,832C 802.152,831.501 805.818,831.335 809.5,831.5C 806.446,805.845 817.779,794.679 843.5,798C 844.766,798.309 845.933,798.809 847,799.5C 847.667,803.833 847.667,808.167 847,812.5C 846.5,813 846,813.5 845.5,814C 841.833,814.333 838.167,814.667 834.5,815C 832.249,815.748 830.916,817.248 830.5,819.5 Z"/></g>
<g><path style="opacity:1" fill="#27262d" d="M 411.5,829.5 C 444.209,827.714 460.375,843.047 460,875.5C 453.789,900.003 437.955,910.836 412.5,908C 388.231,900.31 378.064,883.81 382,858.5C 386.421,843.245 396.254,833.578 411.5,829.5 Z"/></g>
<g><path style="opacity:1" fill="#2a2930" d="M 148.5,842.5 C 148.833,841.5 149.5,840.833 150.5,840.5C 151.329,841.332 152.162,840.999 153,839.5C 153.167,840 153.333,840.5 153.5,841C 152.66,842.767 151.327,844.101 149.5,845C 150,845.5 150.5,846 151,846.5C 152.049,845.483 153.216,845.316 154.5,846C 151.085,847.143 150.751,848.81 153.5,851C 152.5,852 151.5,853 150.5,854C 150.833,854.333 151.167,854.667 151.5,855C 150.692,855.308 150.025,855.808 149.5,856.5C 150.534,858.438 149.868,859.772 147.5,860.5C 145.964,859.751 144.631,858.751 143.5,857.5C 142.396,858.631 142.729,859.465 144.5,860C 141,860.167 137.5,860.333 134,860.5C 129.977,860.425 126.144,859.758 122.5,858.5C 121.262,862.311 120.596,862.311 120.5,858.5C 117.833,858.833 115.167,859.167 112.5,859.5C 112.36,861.124 113.027,862.29 114.5,863C 113.747,864.487 112.914,864.654 112,863.5C 111.134,865.896 111.634,866.563 113.5,865.5C 114.167,866.167 114.833,866.833 115.5,867.5C 116.696,867.154 116.696,866.654 115.5,866C 116.9,864.562 118.567,863.729 120.5,863.5C 120.183,872.085 120.517,880.585 121.5,889C 129.833,889.667 138.167,889.667 146.5,889C 149.112,888.361 151.446,887.194 153.5,885.5C 154.696,885.846 154.696,886.346 153.5,887C 154.766,887.309 155.933,887.809 157,888.5C 158.193,887.022 158.693,885.688 158.5,884.5C 159.981,885.48 161.315,886.647 162.5,888C 161.833,888.333 161.167,888.667 160.5,889C 161.646,889.645 162.646,890.478 163.5,891.5C 165.635,888.922 167.635,889.088 169.5,892C 166.833,892.667 166.833,893.333 169.5,894C 167.833,895.667 166.167,897.333 164.5,899C 164.728,899.399 165.062,899.565 165.5,899.5C 165.158,900.338 164.492,900.672 163.5,900.5C 158.673,902.497 153.673,903.997 148.5,905C 133.504,905.5 118.504,905.667 103.5,905.5C 103.5,871.833 103.5,838.167 103.5,804.5C 113.172,804.334 122.839,804.5 132.5,805C 129.957,805.14 127.623,805.806 125.5,807C 128.119,807.184 130.619,808.017 133,809.5C 132.637,811.973 131.97,814.307 131,816.5C 132.558,815.655 133.558,816.321 134,818.5C 134.914,817.346 135.747,817.513 136.5,819C 131.306,820.242 126.64,819.242 122.5,816C 125.032,815.388 125.865,813.888 125,811.5C 124.667,812.167 124.333,812.833 124,813.5C 122.204,812.233 120.371,812.233 118.5,813.5C 118.386,810.947 118.386,808.447 118.5,806C 114.833,805.333 111.167,805.333 107.5,806C 108.563,807.188 109.897,807.688 111.5,807.5C 111.357,809.262 111.691,810.929 112.5,812.5C 111.271,813.281 109.938,813.781 108.5,814C 110.087,814.862 111.754,815.529 113.5,816C 112.167,816.333 110.833,816.667 109.5,817C 112.177,817.249 114.51,818.249 116.5,820C 114.027,821.402 114.027,822.902 116.5,824.5C 117.773,824.254 118.94,824.254 120,824.5C 120.829,829.864 120.663,835.198 119.5,840.5C 118.667,841.5 117.833,842.5 117,843.5C 116.667,843.167 116.333,842.833 116,842.5C 115.333,846.5 114.667,846.5 114,842.5C 113.598,843.872 113.098,845.205 112.5,846.5C 112.833,846.833 113.167,847.167 113.5,847.5C 115.106,847.481 116.772,847.647 118.5,848C 118.833,847.667 119.167,847.333 119.5,847C 118.529,845.796 117.529,845.296 116.5,845.5C 117.934,844.77 119.1,843.77 120,842.5C 120.374,843.416 120.874,844.25 121.5,845C 129.833,845.667 138.167,845.667 146.5,845C 147.672,844.581 148.672,843.915 149.5,843C 149.272,842.601 148.938,842.435 148.5,842.5 Z"/></g>
<g><path style="opacity:1" fill="#26252c" d="M 165.5,899.5 C 165.062,899.565 164.728,899.399 164.5,899C 166.167,897.333 167.833,895.667 169.5,894C 166.833,893.333 166.833,892.667 169.5,892C 167.635,889.088 165.635,888.922 163.5,891.5C 162.646,890.478 161.646,889.645 160.5,889C 161.167,888.667 161.833,888.333 162.5,888C 161.315,886.647 159.981,885.48 158.5,884.5C 158.693,885.688 158.193,887.022 157,888.5C 155.933,887.809 154.766,887.309 153.5,887C 154.696,886.346 154.696,885.846 153.5,885.5C 151.446,887.194 149.112,888.361 146.5,889C 138.167,889.667 129.833,889.667 121.5,889C 120.517,880.585 120.183,872.085 120.5,863.5C 118.567,863.729 116.9,864.562 115.5,866C 116.696,866.654 116.696,867.154 115.5,867.5C 114.833,866.833 114.167,866.167 113.5,865.5C 111.634,866.563 111.134,865.896 112,863.5C 112.914,864.654 113.747,864.487 114.5,863C 113.027,862.29 112.36,861.124 112.5,859.5C 115.167,859.167 117.833,858.833 120.5,858.5C 120.596,862.311 121.262,862.311 122.5,858.5C 126.144,859.758 129.977,860.425 134,860.5C 137.5,860.333 141,860.167 144.5,860C 142.729,859.465 142.396,858.631 143.5,857.5C 144.631,858.751 145.964,859.751 147.5,860.5C 149.868,859.772 150.534,858.438 149.5,856.5C 150.025,855.808 150.692,855.308 151.5,855C 151.167,854.667 150.833,854.333 150.5,854C 151.5,853 152.5,852 153.5,851C 150.751,848.81 151.085,847.143 154.5,846C 153.216,845.316 152.049,845.483 151,846.5C 150.5,846 150,845.5 149.5,845C 151.327,844.101 152.66,842.767 153.5,841C 153.333,840.5 153.167,840 153,839.5C 152.162,840.999 151.329,841.332 150.5,840.5C 155.851,829.704 152.518,823.204 140.5,821C 134.509,820.501 128.509,820.334 122.5,820.5C 122.5,828.5 122.5,836.5 122.5,844.5C 130.174,844.666 137.841,844.5 145.5,844C 146.527,843.487 147.527,842.987 148.5,842.5C 148.938,842.435 149.272,842.601 149.5,843C 148.672,843.915 147.672,844.581 146.5,845C 138.167,845.667 129.833,845.667 121.5,845C 120.874,844.25 120.374,843.416 120,842.5C 119.1,843.77 117.934,844.77 116.5,845.5C 117.529,845.296 118.529,845.796 119.5,847C 119.167,847.333 118.833,847.667 118.5,848C 116.772,847.647 115.106,847.481 113.5,847.5C 113.167,847.167 112.833,846.833 112.5,846.5C 113.098,845.205 113.598,843.872 114,842.5C 114.667,846.5 115.333,846.5 116,842.5C 116.333,842.833 116.667,843.167 117,843.5C 117.833,842.5 118.667,841.5 119.5,840.5C 120.663,835.198 120.829,829.864 120,824.5C 118.94,824.254 117.773,824.254 116.5,824.5C 114.027,822.902 114.027,821.402 116.5,820C 114.51,818.249 112.177,817.249 109.5,817C 110.833,816.667 112.167,816.333 113.5,816C 111.754,815.529 110.087,814.862 108.5,814C 109.938,813.781 111.271,813.281 112.5,812.5C 111.691,810.929 111.357,809.262 111.5,807.5C 109.897,807.688 108.563,807.188 107.5,806C 111.167,805.333 114.833,805.333 118.5,806C 118.386,808.447 118.386,810.947 118.5,813.5C 120.371,812.233 122.204,812.233 124,813.5C 124.333,812.833 124.667,812.167 125,811.5C 125.865,813.888 125.032,815.388 122.5,816C 126.64,819.242 131.306,820.242 136.5,819C 135.747,817.513 134.914,817.346 134,818.5C 133.558,816.321 132.558,815.655 131,816.5C 131.97,814.307 132.637,811.973 133,809.5C 130.619,808.017 128.119,807.184 125.5,807C 127.623,805.806 129.957,805.14 132.5,805C 122.839,804.5 113.172,804.334 103.5,804.5C 103.5,838.167 103.5,871.833 103.5,905.5C 118.504,905.667 133.504,905.5 148.5,905C 153.673,903.997 158.673,902.497 163.5,900.5C 161.351,902.746 158.684,904.246 155.5,905C 151.227,906.03 146.894,906.697 142.5,907C 129.5,907.667 116.5,907.667 103.5,907C 103,906.5 102.5,906 102,905.5C 101.333,871.833 101.333,838.167 102,804.5C 102.5,804 103,803.5 103.5,803C 119.199,802.138 134.866,802.471 150.5,804C 172.699,809.567 178.865,822.734 169,843.5C 165.886,846.296 162.719,848.962 159.5,851.5C 170.382,856.259 176.049,864.592 176.5,876.5C 176.452,886.015 172.785,893.681 165.5,899.5 Z"/></g>
<g><path style="opacity:1" fill="#f4eee4" d="M 150.5,840.5 C 149.5,840.833 148.833,841.5 148.5,842.5C 147.527,842.987 146.527,843.487 145.5,844C 137.841,844.5 130.174,844.666 122.5,844.5C 122.5,836.5 122.5,828.5 122.5,820.5C 128.509,820.334 134.509,820.501 140.5,821C 152.518,823.204 155.851,829.704 150.5,840.5 Z"/></g>
<g><path style="opacity:1" fill="#f6efe4" d="M 413.5,848.5 C 434.144,846.792 442.644,856.125 439,876.5C 435.059,887.502 427.225,892.002 415.5,890C 407.895,888.062 403.395,883.228 402,875.5C 399.314,863.555 403.147,854.555 413.5,848.5 Z"/></g>
<g><path style="opacity:1" fill="#28272e" d="M 242.5,829.5 C 243.317,831.969 243.817,834.635 244,837.5C 258.245,827.161 272.745,826.995 287.5,837C 299.399,848.364 303.899,862.198 301,878.5C 295.58,900.802 281.413,910.635 258.5,908C 255.007,907.058 251.674,905.725 248.5,904C 246.25,901.578 243.917,899.411 241.5,897.5C 240.493,899.361 240.16,902.028 240.5,905.5C 235.167,905.5 229.833,905.5 224.5,905.5C 224.5,870.833 224.5,836.167 224.5,801.5C 230.167,801.5 235.833,801.5 241.5,801.5C 240.976,816.898 241.31,826.232 242.5,829.5 Z"/></g>
<g><path style="opacity:1" fill="#f5eee4" d="M 256.5,847.5 C 276.104,848.271 283.937,858.271 280,877.5C 275.184,888.852 266.684,893.019 254.5,890C 245.638,885.967 241.305,878.967 241.5,869C 242.123,858.578 247.123,851.411 256.5,847.5 Z"/></g>
<g><path style="opacity:1" fill="#27262d" d="M 508.5,801.5 C 522.516,799.849 535.849,802.016 548.5,808C 557.867,814.232 564.201,822.732 567.5,833.5C 567.392,834.442 567.059,835.275 566.5,836C 559.5,836.667 552.5,836.667 545.5,836C 538.764,823.8 528.431,818.8 514.5,821C 501.59,824.244 493.757,832.411 491,845.5C 488.48,860.611 492.646,873.444 503.5,884C 515.152,889.96 526.819,889.96 538.5,884C 543.991,880.176 547.324,875.009 548.5,868.5C 538.828,868.666 529.161,868.5 519.5,868C 518.194,862.554 518.194,857.054 519.5,851.5C 536.696,850.172 553.863,850.172 571,851.5C 570.777,891.724 550.611,910.557 510.5,908C 487.912,903.078 474.412,889.245 470,866.5C 466.233,845.136 472.067,826.97 487.5,812C 494.045,807.394 501.045,803.894 508.5,801.5 Z"/></g>
<g><path style="opacity:1" fill="#f6efe5" d="M 122.5,862.5 C 131.25,862.09 139.916,862.59 148.5,864C 154.908,867.323 157.075,872.489 155,879.5C 153.291,884.541 149.791,887.375 144.5,888C 137.174,888.5 129.841,888.666 122.5,888.5C 122.5,879.833 122.5,871.167 122.5,862.5 Z"/></g>
<g><path style="opacity:1" fill="#1e1d1e" d="M 636.5,832.5 C 636.167,840.5 635.833,840.5 635.5,832.5C 630.238,832.195 625.072,832.529 620,833.5C 619.5,857.498 619.333,881.498 619.5,905.5C 625.167,905.5 630.833,905.5 636.5,905.5C 636.333,893.162 636.5,880.829 637,868.5C 638.856,853.223 647.523,846.223 663,847.5C 663.667,842.5 663.667,837.5 663,832.5C 658.771,830.194 654.437,830.194 650,832.5C 649.235,832.43 648.735,832.097 648.5,831.5C 653.361,829.381 658.361,829.048 663.5,830.5C 664.664,836.472 664.83,842.472 664,848.5C 657.55,848.756 651.383,850.256 645.5,853C 642.894,854.938 641.061,857.438 640,860.5C 638.874,875.674 638.04,890.84 637.5,906C 630.918,906.81 624.418,906.643 618,905.5C 617.333,881.5 617.333,857.5 618,833.5C 618.5,833 619,832.5 619.5,832C 625.349,831.182 631.015,831.348 636.5,832.5 Z"/></g>
<g><path style="opacity:1" fill="#292830" d="M 636.5,832.5 C 637.319,835.305 637.819,838.305 638,841.5C 640.711,837.288 644.211,833.954 648.5,831.5C 648.735,832.097 649.235,832.43 650,832.5C 654.437,830.194 658.771,830.194 663,832.5C 663.667,837.5 663.667,842.5 663,847.5C 647.523,846.223 638.856,853.223 637,868.5C 636.5,880.829 636.333,893.162 636.5,905.5C 630.833,905.5 625.167,905.5 619.5,905.5C 619.333,881.498 619.5,857.498 620,833.5C 625.072,832.529 630.238,832.195 635.5,832.5C 635.833,840.5 636.167,840.5 636.5,832.5 Z"/></g>
<g><path style="opacity:1" fill="#08080b" d="M 775.5,831.5 C 781.176,831.334 786.843,831.501 792.5,832C 793.833,837.333 793.833,842.667 792.5,848C 786.843,848.499 781.176,848.666 775.5,848.5C 775.667,867.503 775.5,886.503 775,905.5C 768.59,906.478 762.09,906.811 755.5,906.5C 755.5,887.167 755.5,867.833 755.5,848.5C 756.497,867.326 756.83,886.326 756.5,905.5C 762.425,905.808 768.259,905.475 774,904.5C 774.333,885.5 774.667,866.5 775,847.5C 780.741,846.525 786.575,846.192 792.5,846.5C 792.8,841.901 792.467,837.401 791.5,833C 785.411,832.855 780.077,832.355 775.5,831.5 Z"/></g>
<g><path style="opacity:1" fill="#191a1c" d="M 582.5,831.5 C 589.09,831.189 595.59,831.522 602,832.5C 602.827,857.072 602.661,881.572 601.5,906C 594.918,906.81 588.418,906.643 582,905.5C 581.177,880.761 581.344,856.094 582.5,831.5 Z"/></g>
<g><path style="opacity:1" fill="#27262d" d="M 694.5,829.5 C 705.695,827.923 716.028,830.089 725.5,836C 729.877,840.043 733.044,844.876 735,850.5C 735.667,868.833 735.667,887.167 735,905.5C 734.5,906 734,906.5 733.5,907C 728.5,907.667 723.5,907.667 718.5,907C 718,906.5 717.5,906 717,905.5C 716.667,902.5 716.333,899.5 716,896.5C 711.848,903.496 705.681,907.33 697.5,908C 686.799,909.952 677.966,906.786 671,898.5C 664.978,887.164 666.811,877.33 676.5,869C 681.816,866.006 687.482,864.006 693.5,863C 701.493,862.5 709.493,862.334 717.5,862.5C 716.811,848.978 709.811,843.478 696.5,846C 693.305,847.695 690.972,850.195 689.5,853.5C 669.139,855.909 666.806,849.742 682.5,835C 686.475,832.854 690.475,831.02 694.5,829.5 Z"/></g>
<g><path style="opacity:1" fill="#292931" d="M 583.5,832.5 C 589.167,832.5 594.833,832.5 600.5,832.5C 600.5,856.833 600.5,881.167 600.5,905.5C 594.833,905.5 589.167,905.5 583.5,905.5C 583.5,881.167 583.5,856.833 583.5,832.5 Z"/></g>
<g><path style="opacity:1" fill="#292930" d="M 351.5,832.5 C 357.167,832.5 362.833,832.5 368.5,832.5C 368.5,856.833 368.5,881.167 368.5,905.5C 362.833,905.5 357.167,905.5 351.5,905.5C 351.5,881.167 351.5,856.833 351.5,832.5 Z"/></g>
<g><path style="opacity:1" fill="#f4ede4" d="M 699.5,873.5 C 705.167,873.5 710.833,873.5 716.5,873.5C 715.941,890.569 707.608,896.402 691.5,891C 687.5,886.333 687.5,881.667 691.5,877C 694.158,875.522 696.825,874.355 699.5,873.5 Z"/></g>
<g><path style="opacity:1" fill="#17171a" d="M 188.5,831.5 C 195.09,831.189 201.59,831.522 208,832.5C 208.827,857.072 208.661,881.572 207.5,906C 200.918,906.81 194.418,906.643 188,905.5C 187.177,880.761 187.344,856.094 188.5,831.5 Z"/></g>
<g><path style="opacity:1" fill="#292930" d="M 189.5,832.5 C 195.167,832.5 200.833,832.5 206.5,832.5C 206.5,856.833 206.5,881.167 206.5,905.5C 200.833,905.5 195.167,905.5 189.5,905.5C 189.5,881.167 189.5,856.833 189.5,832.5 Z"/></g>
<g><path style="opacity:1" fill="#26262d" d="M 853.5,831.5 C 859.842,831.334 866.175,831.5 872.5,832C 879.311,848.259 885.645,864.759 891.5,881.5C 897.218,864.841 903.218,848.341 909.5,832C 915.167,831.333 920.833,831.333 926.5,832C 927.059,832.725 927.392,833.558 927.5,834.5C 917.633,862.265 907.467,889.932 897,917.5C 890.274,933.025 878.607,939.691 862,937.5C 861.333,932.5 861.333,927.5 862,922.5C 872.465,922.873 878.632,917.873 880.5,907.5C 871.735,882.634 862.402,857.967 852.5,833.5C 852.863,832.817 853.196,832.15 853.5,831.5 Z"/></g>
<g><path style="opacity:1" fill="#1e1d20" d="M 314.5,799.5 C 320.176,799.334 325.843,799.501 331.5,800C 332,800.5 332.5,801 333,801.5C 333.667,836.167 333.667,870.833 333,905.5C 332.5,906 332,906.5 331.5,907C 325.833,907.667 320.167,907.667 314.5,907C 314,906.5 313.5,906 313,905.5C 312.333,870.833 312.333,836.167 313,801.5C 313.717,800.956 314.217,800.289 314.5,799.5 Z"/></g>
<g><path style="opacity:1" fill="#292930" d="M 314.5,801.5 C 320.167,801.5 325.833,801.5 331.5,801.5C 331.5,836.167 331.5,870.833 331.5,905.5C 325.833,905.5 320.167,905.5 314.5,905.5C 314.5,870.833 314.5,836.167 314.5,801.5 Z"/></g>
<g><path style="opacity:1" fill="#08080f" d="M 829.5,905.5 C 823.099,906.826 816.599,906.826 810,905.5C 809.5,886.836 809.333,868.17 809.5,849.5C 810.117,849.389 810.617,849.056 811,848.5C 811.5,867.497 811.667,886.497 811.5,905.5C 817.167,905.5 822.833,905.5 828.5,905.5C 828.833,829.5 829.167,829.5 829.5,905.5 Z"/></g>
</svg>
