<svg width="430" height="121" viewBox="0 0 430 121" fill="none" xmlns="http://www.w3.org/2000/svg">
<rect x="3.5" y="6.5" width="423" height="108" stroke="black" stroke-width="7"/>
<rect y="3" width="181" height="115" fill="black"/>
<path d="M221.64 29.432C217.8 29.432 214.536 30.392 211.848 32.312C209.16 34.168 207.176 36.696 205.896 39.896C203.656 45.72 202.536 52.024 202.536 58.808C202.536 65.912 203.656 72.664 205.896 79.064C207.176 82.52 209.16 85.304 211.848 87.416C214.536 89.528 217.8 90.584 221.64 90.584C230.792 90.584 236.52 84.216 238.824 71.48L245.448 73.016C242.056 88.632 234.088 96.44 221.544 96.44C217.384 96.44 213.672 95.64 210.408 94.04C207.208 92.376 204.648 90.296 202.728 87.8C200.808 85.304 199.24 82.328 198.024 78.872C195.912 72.984 194.856 66.392 194.856 59.096C194.856 52.312 195.912 46.072 198.024 40.376C199.24 37.112 200.808 34.296 202.728 31.928C204.648 29.496 207.24 27.512 210.504 25.976C213.768 24.376 217.48 23.576 221.64 23.576C228.616 23.576 235.752 25.4 243.048 29.048L240.552 34.808C234.088 31.224 227.784 29.432 221.64 29.432ZM336.081 95H325.137C323.217 95 322.193 94.072 322.065 92.216L318.417 35.384L298.929 85.112H291.921L273.489 35.384L269.937 92.216C269.809 94.072 268.785 95 266.865 95H255.921V90.008L262.449 89.336L265.905 30.68L260.529 29.912V24.92H274.641C276.305 24.92 277.425 25.72 278.001 27.32L295.377 75.896L313.905 27.32C314.481 25.72 315.601 24.92 317.265 24.92H331.377V29.912L326.001 30.68L329.553 89.336L336.081 90.008V95ZM369.614 60.728H375.278C380.27 60.728 384.014 59.448 386.51 56.888C389.006 54.264 390.254 50.52 390.254 45.656C390.254 40.728 389.006 36.92 386.51 34.232C384.014 31.544 380.27 30.2 375.278 30.2H364.046V89.336L372.398 90.008V95H350.414V90.008L356.366 89.336V30.68L350.414 29.912V24.92H375.278C382.574 24.92 388.142 26.712 391.982 30.296C395.822 33.88 397.742 39 397.742 45.656C397.742 55.832 393.358 62.232 384.59 64.856C387.79 66.328 390.094 68.728 391.502 72.056L398.99 89.336L405.038 90.008V95H395.726C394.062 95 392.91 94.264 392.27 92.792L383.918 73.112C382.702 70.232 381.262 68.344 379.598 67.448C377.998 66.488 375.374 66.008 371.726 66.008H369.614V60.728Z" fill="black"/>
<path d="M50.2667 53.9334C47.2 67.6667 44.6667 79.4 44.6667 79.9334C44.6667 80.6 47.8667 81 51.7333 81C61.7333 81 72.2667 84.2 86.4 91.4C88.6667 92.6 87.3333 75.4 84.6667 70.3334C81.2 63.4 81.2 53.6667 84.8 47.8C91.4667 36.8667 84.6667 30.2 65.8667 29.2667L55.8667 28.7334L50.2667 53.9334Z" fill="white"/>
<path d="M97.6 30.8667C90.9333 33.2667 88.6667 35.4 88.6667 39V42.0667L93.6 39.5334C99.2 36.7334 105.333 36.3334 110.933 38.4667C115.6 40.2 123.333 47.5334 123.333 50.2C123.333 51.2667 123.6 51.8 124 51.4C124.4 51.1334 123.6 45.9334 122.4 39.9334L120.133 29H111.333C106.533 29.1334 100.4 29.9334 97.6 30.8667Z" fill="white"/>
<path d="M44 38.7334C42.6667 42.6 34.2667 88.3334 34.8 88.8667C35.0667 89.2667 47.0667 91.6667 61.4667 94.3334L87.7333 99.1334L105.2 95.9334C114.8 94.2 122.933 92.4667 123.2 92.2C123.6 91.8 122.267 89.9334 120.267 88.0667L116.667 84.4667L102 89.4L87.2 94.4667L78.8 91.1334C67.8667 86.7334 59.2 84.8667 49.0667 84.7334C43.6 84.6 40.6667 83.9334 40.6667 83C40.6667 82.0667 42.8 72.4667 45.3333 61.5334C47.8667 50.6 50 41 50 40.2C50 38.0667 44.6667 36.8667 44 38.7334Z" fill="white"/>
<path d="M127.867 38.0667C125.2 38.4667 125.2 38.6 129.6 58.0667C132.933 72.6 134.8 78.3333 136.933 80.0667C138.4 81.4 139.867 82.2 140.133 82.0667C140.533 81.5333 131.867 38.3333 131.2 37.9333C130.933 37.6667 129.467 37.8 127.867 38.0667Z" fill="white"/>
<path d="M93.2 43.5334C88.5333 46.3334 84.6667 53.5334 84.6667 59.2667C84.6667 68.6 93.3333 77.1334 103.067 77.2667C116.8 77.4 125.6 64.2 120.267 51.2667C116.267 41.8 102.533 37.8 93.2 43.5334ZM109.067 46.4667C119.2 51.6667 119.2 66.3334 109.067 71.5334C96.8 77.8 84.2667 61.9334 92.8 51.1334C97.3333 45.4 103.467 43.6667 109.067 46.4667Z" fill="white"/>
<path d="M125.867 60.3334C123.467 64.4667 123.467 68.7334 126 71C127.467 72.3334 128.933 73.1334 129.067 72.8667C129.333 72.6 128.933 69.2667 128.133 65.6667C127.333 61.9334 126.267 59.5334 125.867 60.3334Z" fill="white"/>
<path d="M118 73.6667C115.6 76.4667 117.6 79.8 128.4 91.6667C136 100.067 137.467 101.133 141.2 100.733C147.333 100.2 147.467 95.4 141.733 89.4C136 83.2667 122.133 71.6667 120.8 71.6667C120.133 71.6667 118.933 72.6 118 73.6667Z" fill="white"/>
<path d="M88.6667 84.2V91.5333L97.0667 87.5333C101.6 85.4 107.6 83.2667 110.267 82.8667C113.333 82.3333 114.933 81.4 114.533 80.3333C114 79.1333 112.667 79.1333 108.667 80.2C103.6 81.5333 98.1333 80.7333 91.0667 77.6667C88.9333 76.8667 88.6667 77.5333 88.6667 84.2Z" fill="white"/>
</svg>
