<?xml version="1.0" encoding="UTF-8"?>
<svg width="410px" height="238px" viewBox="0 0 410 238" version="1.1" xmlns="http://www.w3.org/2000/svg" xmlns:xlink="http://www.w3.org/1999/xlink">
    <!-- Generator: Sketch 55.2 (78181) - https://sketchapp.com -->
    <title>LINDAT-CLARIAH-cz-blue</title>
    <desc>Created with Sketch.</desc>
    <g id="LINDAT-CLARIAH-cz-blue" stroke="none" stroke-width="1" fill="none" fill-rule="evenodd">
        <path d="M408,117.998601 C408,183.168395 355.172664,236 290.002997,236 C224.83433,236 172,183.17349 172,118.005595 C172,118.003597 172,118.001599 172,117.9996 C172,52.8317051 224.827336,0 289.997003,0 C355.16567,0 407.996003,52.8267095 408,117.994605 C408,117.994605 408,117.996603 408,117.998601 Z" id="Fill-1" fill-opacity="0.43" fill="#F4F4F4"></path>
        <path d="M16.1537496,85.7775844 L16.1537496,143.745407 L48.8956672,143.745407 C51.5066869,143.745407 53.5100221,144.380029 54.9056725,145.64527 C56.2996194,146.914514 57,148.507075 57,150.425956 C57,152.381873 56.3116448,153.966627 54.9331306,155.178915 C53.5547165,156.393005 51.5427632,157 48.8956672,157 L9.8999288,157 C6.38249281,157 3.85384717,156.221537 2.31228826,154.664511 C0.770729349,153.107584 0,150.590117 0,147.112708 L0,85.7775844 C0,82.5193906 0.734653082,80.0739935 2.20245607,78.4453971 C3.67015884,76.8147987 5.60144164,76 7.99620426,76 C10.4252393,76 12.3924982,76.8057899 13.898081,78.4163686 C15.4018601,80.0299503 16.1537496,82.4833553 16.1537496,85.7775844 Z" id="Fill-2" fill="#FFFFFF"></path>
        <path d="M69,148.209312 L69,85.7348777 C69,82.4909151 69.7362654,80.056199 71.2088956,78.434716 C72.6815257,76.8112398 74.5843803,76 76.9191468,76 C79.3248894,76 81.2744989,76.8022703 82.7654935,78.4058144 C84.2554954,80.010355 85,82.4540405 85,85.7348777 L85,148.209312 C85,151.490149 84.2554954,153.941907 82.7654935,155.565483 C81.2744989,157.187365 79.3248894,158 76.9191468,158 C74.6201165,158 72.7257989,157.180588 71.2344073,155.53987 C69.7431149,153.899253 69,151.454271 69,148.209312 Z" id="Fill-3" fill="#FFFFFF"></path>
        <path d="M123.914737,85.6283224 L155.09166,132.36271 L155.09166,85.196787 C155.09166,82.132188 155.755684,79.8319946 157.085743,78.2991968 C158.414797,76.7673955 160.207661,76.0009966 162.465342,76.0009966 C164.795462,76.0009966 166.632595,76.7663989 167.980764,78.2991968 C169.325915,79.8319946 170,82.132188 170,85.196787 L170,147.562125 C170,154.520609 167.08735,158 161.264063,158 C159.807235,158 158.497297,157.791707 157.332237,157.378609 C156.167177,156.963717 155.074556,156.306448 154.056386,155.405007 C153.036204,154.503567 152.089468,153.448448 151.216176,152.240248 C150.341878,151.032348 149.468586,149.796542 148.594288,148.534824 L118.179986,102.340603 L118.179986,148.804907 C118.179986,151.833628 117.470688,154.122859 116.05008,155.672998 C114.630477,157.223236 112.810448,157.998306 110.589993,157.998306 C108.296093,157.998306 106.45896,157.214665 105.075577,155.64569 C103.691188,154.076715 103,151.795757 103,148.802914 L103,87.6275373 C103,85.0313485 103.291768,82.9942622 103.874298,81.5152817 C104.565486,79.8937849 105.71143,78.5672869 107.314142,77.5397742 C108.914842,76.5122614 110.645328,76 112.501577,76 C113.958405,76 115.203952,76.2352017 116.241238,76.7016188 C117.27953,77.1710257 118.189041,77.8028812 118.971784,78.5941956 C119.753521,79.3865065 120.55538,80.4150159 121.374343,81.6777303 C122.194312,82.9434347 123.040439,84.2589699 123.914737,85.6283224 Z" id="Fill-4" fill="#FFFFFF"></path>
        <path d="M196.876419,77 L217.881183,77 C223.341862,77 228.028587,77.50977 231.935357,78.527299 C235.842127,79.5478443 239.389918,81.456214 242.572731,84.2584406 C250.858244,91.3891872 255,102.230094 255,116.782166 C255,121.58426 254.585024,125.96808 253.751073,129.932623 C252.919122,133.899176 251.634198,137.473598 249.8973,140.65589 C248.160402,143.841198 245.936533,146.68666 243.223693,149.197302 C241.088818,151.124775 238.754956,152.671178 236.223105,153.834198 C233.689254,155.000334 230.967414,155.81667 228.053585,156.290344 C225.141756,156.764018 221.85795,157 218.204164,157 L197.2024,157 C194.271572,157 192.063702,156.553876 190.581789,155.663437 C189.097877,154.771189 188.130933,153.517276 187.67796,151.897977 C187.223987,150.279181 187,148.177762 187,145.594727 L187,86.9309624 C187,83.4399933 187.777954,80.9112528 189.332863,79.3477571 C190.888771,77.7822506 193.402623,77 196.876419,77 Z M203.117052,89.8246861 L203.117052,144.119712 L215.326334,144.119712 C218.004176,144.119712 220.104053,144.047318 221.623963,143.902532 C223.142874,143.757745 224.716781,143.392762 226.344686,142.810598 C227.97359,142.228435 229.383507,141.410993 230.578437,140.355257 C235.969119,135.771349 238.664961,127.877455 238.664961,116.671565 C238.664961,108.777672 237.480031,102.865547 235.11117,98.9361958 C232.740309,95.0078502 229.818481,92.5062571 226.345686,91.4334276 C222.87389,90.3605982 218.675137,89.8236807 213.756426,89.8236807 L203.117052,89.8236807 L203.117052,89.8246861 Z" id="Fill-5" fill="#FFFFFF"></path>
        <path d="M315.753953,147.663209 L311.945225,137.711204 L279.514395,137.711204 L275.705667,147.87947 C274.217867,151.846918 272.948626,154.525867 271.895937,155.912132 C270.843248,157.298397 269.120849,157.994917 266.726734,157.994917 C264.693542,157.994917 262.898958,157.255742 261.338974,155.777292 C259.779992,154.298843 259,152.622369 259,150.747673 C259,149.66537 259.180461,148.549183 259.54439,147.393132 C259.905312,146.239074 260.504843,144.636548 261.338974,142.580571 L281.74409,91.08846 C282.324572,89.6115051 283.021352,87.8355714 283.839441,85.7616556 C284.656528,83.6877398 285.525748,81.9666189 286.451112,80.5953031 C287.377478,79.2259805 288.591578,78.1167694 290.097425,77.269663 C291.602268,76.4235532 293.462018,76 295.675672,76 C297.923412,76 299.801208,76.4235532 301.305049,77.269663 C302.809893,78.1167694 304.027001,79.2090384 304.951362,80.5424835 C305.875723,81.8759287 306.656718,83.31003 307.290336,84.8427943 C307.923954,86.3765552 308.733021,88.4225663 309.712523,90.9818243 L330.55275,142.150041 C332.182913,146.044737 333,148.875069 333,150.644027 C333,152.482347 332.231036,154.167392 330.687093,155.700455 C329.146157,157.231824 327.286407,158 325.110851,158 C323.841609,158 322.752828,157.77467 321.845511,157.324009 C320.940199,156.871555 320.178253,156.260442 319.561678,155.483596 C318.945103,154.710237 318.283413,153.520302 317.576608,151.91369 C316.8688,150.306181 316.262251,148.890018 315.753953,147.663209 Z M283.758234,125.648408 L307.591104,125.648408 L295.56539,92.925186 L283.758234,125.648408 Z" id="Fill-6" fill="#FFFFFF"></path>
        <path d="M387.706017,91.3126059 L370.021975,91.3126059 L370.021975,149.16839 C370.021975,152.499545 369.274833,154.972286 367.78457,156.582311 C366.291291,158.192435 364.363604,159 361.999497,159 C359.598184,159 357.641335,158.183827 356.134984,156.554885 C354.623604,154.925942 353.869423,152.46251 353.869423,149.166388 L353.869423,91.310604 L336.187392,91.310604 C333.422061,91.310604 331.36566,90.7030287 330.0202,89.4898799 C328.67273,88.2777321 328,86.6742137 328,84.6813266 C328,82.6173723 328.698875,80.9878292 330.101652,79.7916966 C331.499401,78.5975658 333.528651,78 336.187392,78 L387.706017,78 C390.505538,78 392.58909,78.6155829 393.953655,79.8467487 C395.320231,81.0779145 396,82.6894405 396,84.6803257 C396,86.6722118 395.30917,88.2757302 393.926504,89.487878 C392.544844,90.7070325 390.470343,91.3126059 387.706017,91.3126059 Z" id="Fill-7" fill="#FFFFFF"></path>
        <text id="CLARIAH-CZ" font-family="ArialRoundedMTBold, Arial Rounded MT Bold" font-size="26.3772" font-weight="normal" letter-spacing="0.00527544" fill="#FFFFFF">
            <tspan x="207" y="183">C</tspan>
            <tspan x="226.530586" y="183" letter-spacing="-0.34817904">L</tspan>
            <tspan x="241.766592" y="183">AR</tspan>
            <tspan x="279.720127" y="183" letter-spacing="-0.00263772">I</tspan>
            <tspan x="287.973244" y="183">A</tspan>
            <tspan x="306.950011" y="183" letter-spacing="-0.00527544">H</tspan>
            <tspan x="326.985226" y="183" letter-spacing="0.00263772">-</tspan>
            <tspan x="335.771677" y="183">C</tspan>
            <tspan x="355.302263" y="183" letter-spacing="-17.0396712">Z</tspan>
        </text>
    </g>
</svg>