<?xml version="1.0" encoding="UTF-8"?><svg id="Layer_2" xmlns="http://www.w3.org/2000/svg" viewBox="0 0 16 16"><defs><style>.cls-1{fill:#fff;}.cls-1,.cls-2{stroke-width:0px;}.cls-2{fill:#e63946;}</style></defs><g id="Layer_1-2"><rect class="cls-2" x="0" y="0" width="16" height="16" rx="1.8" ry="1.8"/><path class="cls-1" d="m10.07,3.94c0-.09.06-.17.15-.18h.49v-.46c0-.09.09-.16.18-.15.08,0,.15.07.15.15v.46h.46c.09,0,.17.07.17.16h0c0,.1-.08.17-.17.17h-.46v.46c0,.09-.08.17-.17.17s-.17-.08-.17-.17v-.46h-.46c-.09,0-.17-.06-.18-.15h0Z"/><path class="cls-1" d="m11.85,11.01c-.28-.17-.62-.28-.98-.28-.08,0-.16,0-.23.01-.03,0-.07,0-.1,0-1.23.15-2.47-.15-3.5-.84-.03-.02-.08-.05-.1-.07,0,0,0,0,0,0h0c-.14-.08-.26-.18-.36-.28l-.02-.02c-.58-.59-.71-1.52-.27-2.27.1-.17.22-.32.37-.45.07-.07.15-.13.23-.18,0,0,.01,0,.02-.01.04-.03.09-.06.13-.09.81-.53,1.77-.84,2.82-.84.09,0,.18,0,.27,0,.06,0,.13,0,.19.01.04,0,.08,0,.13.01.07,0,.14.02.21.03.08.01.17.02.26.02.32,0,.63-.08.91-.23.29-.16.55-.4.73-.7.53-.9.23-2.05-.67-2.58-.59-.35-1.29-.34-1.85-.03-.29.16-.55.4-.73.7-.04.07-.08.14-.11.21,0,.03-.02.06-.04.09-.78,1.84-2.61,3.13-4.74,3.13-.23,0-.45-.02-.67-.05-.07,0-.13-.02-.19-.03-.38-.04-.76.04-1.1.22-.29.16-.55.4-.73.71-.25.42-.31.88-.23,1.32,0,.04.02.08.03.12h0s.02.07.03.1c.05.16.12.32.22.46.02.03.05.07.07.1.02.03.05.07.08.1,0,0,0,0,0,0,.03.04.07.08.11.11.1.11.22.19.34.27.29.18.62.28.98.28.03,0,.05,0,.08,0,.06,0,.12,0,.18,0,.03,0,.05-.01.08-.01.05,0,.09-.02.13-.03,1.95-.19,3.92.75,4.96,2.55.05.08.09.16.13.23.03.06.06.11.08.17.02.04.03.08.05.12.03.06.06.13.08.19.03.08.07.16.11.23.16.27.38.51.65.68.28.17.62.27.97.28,1.04,0,1.89-.83,1.9-1.87h0c0-.68-.35-1.28-.89-1.62h0Zm-.98-8.15c.59,0,1.07.48,1.07,1.07s-.48,1.07-1.07,1.07-1.07-.48-1.07-1.07.48-1.07,1.07-1.07h0Zm-7.44,6.42c-.59,0-1.07-.48-1.07-1.07s.48-1.07,1.07-1.07,1.07.48,1.07,1.07-.48,1.07-1.07,1.07Zm7.45,4.44c-.58,0-1.05-.47-1.05-1.05s.47-1.05,1.05-1.05,1.05.47,1.05,1.05-.47,1.05-1.05,1.05Z"/><path class="cls-1" d="m11.67,3.92h0c0,.1-.08.17-.17.17h-.46v.46c0,.09-.08.17-.17.17s-.17-.08-.17-.17v-.46h-.46c-.09,0-.17-.06-.18-.15s.06-.17.15-.18h.49v-.46c0-.09.09-.16.18-.15.08,0,.15.07.15.15v.46h.46c.09,0,.17.07.17.16h0Z"/><path class="cls-1" d="m11.67,3.92h0c0,.1-.08.17-.17.17h-.46v.46c0,.09-.08.17-.17.17s-.17-.08-.17-.17v-.46h-.46c-.09,0-.17-.06-.18-.15s.06-.17.15-.18h.49v-.46c0-.09.09-.16.18-.15.08,0,.15.07.15.15v.46h.46c.09,0,.17.07.17.16h0Z"/></g></svg>