<?xml version="1.0" encoding="UTF-8"?>
<!DOCTYPE svg PUBLIC "-//W3C//DTD SVG 1.1//EN" "http://www.w3.org/Graphics/SVG/1.1/DTD/svg11.dtd">
<!-- Creator: CorelDRAW 2017 -->
<svg xmlns="http://www.w3.org/2000/svg" xml:space="preserve" width="0.926815in" height="0.935681in" version="1.1" style="shape-rendering:geometricPrecision; text-rendering:geometricPrecision; image-rendering:optimizeQuality; fill-rule:evenodd; clip-rule:evenodd"
viewBox="0 0 361 365"
 xmlns:xlink="http://www.w3.org/1999/xlink">
 <defs>
  <style type="text/css">
   <![CDATA[
    .str0 {stroke:transparent;stroke-width:1.16983}
    .fil0 {fill:transparent}
    .fil1 {fill:white;fill-rule:nonzero}
   ]]>
  </style>
 </defs>
 <g id="Layer_x0020_1">
  <metadata id="CorelCorpID_0Corel-Layer"/>
  <rect class="fil0 str0" x="1" y="1" width="360" height="364"/>
  <g id="_2303695135536">
   <path class="fil1" d="M254 213l-10 -3c-2,-1 -5,0 -6,3 -3,6 -7,11 -11,15 0,0 -1,1 -1,1 0,0 0,0 0,0 -2,2 -2,4 -1,6 0,0 0,0 0,0l5 9 -8 5 -1 0 -10 6 -5 -9c-1,-2 -4,-3 -6,-2 -7,2 -13,3 -20,3 -3,0 -5,2 -5,4l-2 8 0 2 -2 -1 -19 -5 3 -10c0,0 0,0 0,0 1,-2 -1,-5 -3,-6 0,0 0,0 -1,0 -2,-1 -4,-3 -7,-4 -2,-1 -4,-3 -5,-4 -1,-1 -3,-2 -4,-4 -2,-2 -5,-2 -7,-1l-5 3 -4 2 -1 -1 -4 -7 -3 -5 -3 -6 9 -5c2,-1 3,-4 2,-6 -2,-7 -3,-14 -3,-20 0,-3 -2,-5 -4,-5l-9 -2 -1 0 1 -5 4 -16 10 3c2,1 4,0 6,-2 0,0 0,-1 1,-1 0,0 1,-1 1,-1 2,-3 3,-5 5,-8 1,-2 3,-4 5,-5 0,0 1,-1 1,-1 0,0 1,-1 1,-1 2,-2 2,-5 1,-7l-5 -9 19 -11 5 9c1,2 4,3 6,2 7,-2 13,-3 20,-3 3,0 5,-2 5,-4l3 -10 21 6 -3 10c-1,2 0,5 3,6 6,3 12,7 16,12 2,2 5,2 7,1l9 -5 11 19 -9 5c-2,1 -3,4 -2,6 2,7 3,14 3,20 0,3 2,5 4,5l10 3 -5 21zm17 -28c-1,-1 -2,-2 -3,-3l-11 -3c0,-5 -1,-10 -2,-15l10 -6c1,-1 2,-2 3,-3 0,-1 0,-3 -1,-4l-17 -28c-1,-1 -2,-2 -3,-3 -1,0 -3,0 -4,1l-10 6c-4,-4 -8,-7 -12,-9l3 -11c0,-1 0,-3 -1,-4 -1,-1 -2,-2 -3,-3l-32 -8c-1,0 -3,0 -4,1 -1,1 -2,2 -3,3l-3 11c-5,0 -10,1 -15,2l-6 -10c-2,-3 -5,-3 -8,-2l-28 17c-1,1 -2,2 -3,3 0,1 0,3 1,4l6 10c-4,4 -7,8 -9,12l-11 -3c-1,0 -3,0 -4,1 -1,1 -2,2 -3,3l-8 32c-1,3 1,6 4,7l11 3c0,5 1,10 2,15l-10 6c-1,1 -2,2 -3,3 0,1 0,3 1,4l17 28c1,1 2,2 3,3 1,0 3,0 4,-1l10 -6c4,4 8,7 12,9l-3 11c0,1 0,3 1,4 1,1 2,2 3,3l32 8c0,0 1,0 1,0 2,0 5,-2 5,-4l3 -11c5,0 10,-1 15,-2l6 10c2,3 5,3 7,2l28 -17c1,-1 2,-2 3,-3 0,-1 0,-3 -1,-4l-6 -10c4,-4 7,-8 9,-12l11 3c1,0 3,0 4,-1 1,-1 2,-2 3,-3l8 -32c0,-1 0,-3 -1,-4z"/>
   <path class="fil1" d="M181 149c3,0 6,0 8,1 18,5 28,23 24,40 -4,15 -17,25 -32,25 -3,0 -6,0 -8,-1 -9,-2 -16,-8 -20,-15 -4,-8 -6,-17 -3,-25 4,-15 17,-25 32,-25zm-41 18c0,1 -1,3 -1,4 0,0 0,1 0,1 -2,6 -2,13 0,19 0,0 0,0 0,0 0,0 0,0 0,0 0,0 0,1 0,1 1,4 3,8 5,12 6,10 16,17 27,20 0,0 1,0 1,0 0,0 1,0 1,0 3,1 6,1 9,1 4,0 7,0 10,-1 2,0 3,-1 5,-1 6,-2 12,-6 16,-11 5,-5 9,-12 11,-20 6,-24 -8,-48 -32,-54 -4,-1 -7,-1 -11,-1 -12,0 -23,5 -31,13 -5,5 -8,10 -11,16z"/>
  </g>
 </g>
</svg>
