<?xml version="1.0" standalone="no"?>
<!DOCTYPE svg PUBLIC "-//W3C//DTD SVG 20010904//EN"
 "http://www.w3.org/TR/2001/REC-SVG-20010904/DTD/svg10.dtd">
<svg version="1.0" xmlns="http://www.w3.org/2000/svg"
 width="166.000000pt" height="171.000000pt" viewBox="0 0 166.000000 171.000000"
 preserveAspectRatio="xMidYMid meet">

<g transform="translate(0.000000,171.000000) scale(0.100000,-0.100000)"
fill="#099244" stroke="none">
<path d="M1204 1620 c-36 -14 -64 -59 -64 -101 0 -57 41 -99 102 -106 42 -5
50 -2 77 24 16 17 33 43 37 57 21 85 -69 160 -152 126z"/>
<path d="M654 1536 c-224 -51 -386 -253 -386 -481 0 -139 47 -252 146 -351
154 -154 380 -188 580 -87 80 40 175 144 216 236 34 75 36 77 70 77 48 1 110
31 143 69 71 85 52 218 -40 281 -31 21 -48 25 -115 25 l-78 0 -44 56 c-110
140 -319 214 -492 175z m309 -94 c160 -86 184 -311 46 -426 -105 -88 -272 -78
-360 22 -53 60 -72 115 -67 193 14 195 211 304 381 211z"/>
<path d="M1351 458 c-105 -55 -110 -206 -9 -268 42 -25 112 -26 158 -1 41 21
80 89 80 138 0 118 -122 188 -229 131z m123 -10 c40 -17 70 -89 63 -148 -3
-27 -12 -58 -18 -69 -44 -69 -162 -54 -195 26 -28 67 -11 166 33 192 24 14 86
14 117 -1z"/>
<path d="M93 460 c15 -10 17 -28 17 -138 0 -86 -4 -132 -12 -140 -9 -9 -1 -12
38 -11 27 0 42 3 34 6 -23 9 -30 24 -30 71 0 40 1 42 30 42 24 0 37 -10 70
-54 45 -59 56 -66 103 -65 29 1 30 2 8 8 -13 3 -46 32 -74 63 l-49 57 21 29
c27 39 28 93 0 118 -16 14 -39 19 -97 22 -59 2 -73 0 -59 -8z m128 -27 c19
-22 18 -101 -1 -113 -8 -6 -28 -9 -45 -8 -30 3 -30 3 -33 71 l-3 67 34 0 c20
0 40 -7 48 -17z"/>
<path d="M688 329 c-10 -95 -20 -144 -29 -150 -9 -6 -1 -9 26 -9 24 0 35 4 27
8 -9 6 -11 30 -6 96 4 47 10 89 14 91 3 2 28 -41 55 -96 27 -54 52 -99 55 -99
3 0 27 48 55 107 49 104 50 106 57 72 3 -19 8 -67 10 -106 l3 -73 40 1 c22 1
33 3 23 6 -23 6 -25 15 -39 155 -7 67 -15 127 -19 131 -4 4 -31 -44 -61 -108
-29 -64 -57 -119 -61 -121 -4 -3 -33 49 -64 116 -31 66 -60 120 -64 120 -4 0
-14 -63 -22 -141z"/>
<path d="M1073 459 c15 -9 17 -27 17 -139 0 -112 -2 -130 -17 -139 -13 -8 5
-10 70 -11 l87 0 -1 28 c-1 16 -3 20 -6 10 -3 -14 -15 -18 -49 -18 l-44 0 0
65 0 65 35 0 c26 0 35 -4 35 -17 0 -21 6 -14 13 17 6 24 5 25 -38 22 l-45 -4
0 56 0 56 35 0 c22 0 38 -6 44 -17 9 -15 10 -14 11 10 l0 27 -82 0 c-61 -1
-78 -3 -65 -11z"/>
<path d="M432 400 c-67 -42 -77 -133 -21 -190 78 -77 209 -24 209 86 0 95
-108 155 -188 104z"/>
</g>
</svg>
