<svg id="BG" xmlns="http://www.w3.org/2000/svg" viewBox="0 0 110.00 86.32"><defs><style>.cls-1,.cls-2,.cls-3{fill:#C40F74;}.cls-1{opacity:0.7;}.cls-2{opacity:0.95;}</style></defs><title>180509 ZDB-Logo</title><g id="Ebene_1" data-name="Ebene 1"><polygon class="cls-1" points="22.88 35.32 22.85 35.25 10.63 39.69 10.63 60.01 21.32 38.34 22.88 35.32"/><path class="cls-1" d="M46,34.87l-.07,0Z"/><path class="cls-1" d="M73.42,23.9V11.36L48,20.57V34.33c5.81-1.11,8.28,2.34,8.28,11,0,10.42-3.69,15.82-11.1,18.52L36,67.22v8.69L65.9,65.06V56.78l5.55-2a5.81,5.81,0,0,1,2-.43V49.5a5.84,5.84,0,0,1-2.14,1.3l-5.38,2V45.32l5.18-1.88a4.2,4.2,0,0,1,2.34-.35V38.2a13.72,13.72,0,0,0-2.17.62L61.4,42.4V28.26Z"/><path class="cls-1" d="M46.66,34.66h0Z"/><path class="cls-1" d="M40.68,41.65,45.12,40A8.79,8.79,0,0,1,48,39.39V34.33a19.42,19.42,0,0,0-2.89.83L36,38.48V24.94l12-4.37V7.08L10.63,20.66V34.79l17.9-6.51v4L18.08,53.43l-1.56,3,0,.1L28.6,52.13,28.53,57l-17.9,6.51v8.1L40.68,60.7Z"/><path class="cls-2" d="M51.44,47.08c0-7.43-1.75-8.71-6.32-7l-4.44,1.61V60.7l4.44-1.62C49.52,57.48,51.44,55.05,51.44,47.08Z"/><path class="cls-2" d="M65.9,65.06,71.55,63c2.6-1,3.93-2.47,3.93-5.69,0-2.79-1.19-3.59-4-2.55l-5.55,2Z"/><path class="cls-2" d="M74.73,45.78c0-2.68-1.12-3.27-3.65-2.34L65.9,45.32v7.44l5.38-2A4.78,4.78,0,0,0,74.73,45.78Z"/><path class="cls-1" d="M73.42,23.9V38.2h0c3.85-.75,5.78,1,5.78,5a9.17,9.17,0,0,1-3.42,7.45v.08c2.81-.14,4.36,1.55,4.36,5.31,0,5.14-2.5,9.19-8.63,11.42L61.4,71.14v8.09L98.81,65.65v-51Z"/><path class="cls-1" d="M72.72,38.36l-.38.1Z"/><path class="cls-1" d="M71.25,38.82l.79-.27Z"/><path class="cls-2" d="M61.4,42.4l9.85-3.58a13.72,13.72,0,0,1,2.17-.62V23.9l-12,4.36Z"/><path class="cls-2" d="M36,38.48l9.14-3.32A19.42,19.42,0,0,1,48,34.33V20.57L36,24.94Z"/></g></svg>
