<svg width="25" height="25" viewBox="0 0 25 25" fill="none" xmlns="http://www.w3.org/2000/svg">
<path fill-rule="evenodd" clip-rule="evenodd" d="M6.0721 13.9251C10.9544 13.9251 11.1715 15.581 11.1715 19.0246C11.1715 20.75 11.1715 21.9775 10.4468 22.8762C9.61292 23.9116 8.09508 24.124 6.0721 24.124C4.04912 24.124 2.53129 23.9116 1.69738 22.8762C0.972656 21.9775 0.972656 20.7512 0.972656 19.0546L1.87256 19.0246H0.972656C0.972656 15.581 1.18983 13.9251 6.0721 13.9251ZM19.2707 13.9251C24.1529 13.9251 24.3701 15.581 24.3701 19.0246C24.3701 20.75 24.3701 21.9775 23.6454 22.8762C22.8115 23.9116 21.2937 24.124 19.2707 24.124C17.2477 24.124 15.7299 23.9116 14.8959 22.8762C14.1712 21.9775 14.1712 20.7512 14.1712 19.0546L15.0711 19.0246H14.1712C14.1712 15.581 14.3884 13.9251 19.2707 13.9251ZM6.31947 15.7255L6.0721 15.7249C2.94167 15.7249 2.78114 15.9496 2.77291 18.5771L2.77341 19.6007C2.7791 20.6458 2.81891 21.4007 3.09763 21.7483C3.41559 22.1418 4.35989 22.3242 6.0721 22.3242C7.78432 22.3242 8.72861 22.1406 9.04658 21.7471C9.37174 21.3427 9.37174 20.3828 9.37174 19.0534C9.37174 16.0535 9.37174 15.7396 6.31947 15.7255ZM19.518 15.7255L19.2707 15.7249C16.1402 15.7249 15.9797 15.9496 15.9715 18.5771L15.972 19.6007C15.9777 20.6458 16.0175 21.4007 16.2962 21.7483C16.6142 22.1418 17.5585 22.3242 19.2707 22.3242C20.9829 22.3242 21.9272 22.1406 22.2451 21.7471C22.5703 21.3427 22.5703 20.3828 22.5703 19.0534C22.5703 16.0535 22.5703 15.7396 19.518 15.7255ZM6.0721 0.726562C10.9544 0.726562 11.1715 2.38238 11.1715 5.82601C11.1715 7.55142 11.1715 8.77889 10.4468 9.67759C9.61292 10.7131 8.09508 10.9255 6.0721 10.9255C4.04912 10.9255 2.53129 10.7131 1.69738 9.67759C0.972656 8.77889 0.972656 7.55262 0.972656 5.85601L1.87256 5.82601H0.972656C0.972656 2.38238 1.18983 0.726562 6.0721 0.726562ZM19.2707 0.726562C24.1529 0.726562 24.3701 2.38238 24.3701 5.82601C24.3701 7.55142 24.3701 8.77889 23.6454 9.67759C22.8115 10.7131 21.2937 10.9255 19.2707 10.9255C17.2477 10.9255 15.7299 10.7131 14.8959 9.67759C14.1712 8.77889 14.1712 7.55262 14.1712 5.85601L15.0711 5.82601H14.1712C14.1712 2.38238 14.3884 0.726562 19.2707 0.726562ZM6.31947 2.5269L6.0721 2.52637C2.94167 2.52637 2.78114 2.751 2.77291 5.37852L2.77341 6.40216C2.7791 7.4472 2.81891 8.20209 3.09763 8.54971C3.41559 8.94327 4.35989 9.12565 6.0721 9.12565C7.78432 9.12565 8.72861 8.94207 9.04658 8.54851C9.37174 8.14416 9.37174 7.18426 9.37174 5.85481C9.37174 2.85489 9.37174 2.54103 6.31947 2.5269ZM19.518 2.5269L19.2707 2.52637C16.1402 2.52637 15.9797 2.751 15.9715 5.37852L15.972 6.40216C15.9777 7.4472 16.0175 8.20209 16.2962 8.54971C16.6142 8.94327 17.5585 9.12565 19.2707 9.12565C20.9829 9.12565 21.9272 8.94207 22.2451 8.54851C22.5703 8.14416 22.5703 7.18426 22.5703 5.85481C22.5703 2.85489 22.5703 2.54103 19.518 2.5269Z" fill="#6A6D73"/>
</svg>
