<svg width="27" height="20" viewBox="0 0 27 20" fill="none" xmlns="http://www.w3.org/2000/svg">
<path d="M0.503906 14.5359C0.503906 15.2554 0.79086 15.9455 1.30164 16.4543C1.81242 16.9631 2.50519 17.2489 3.22754 17.2489H19.5693C20.2917 17.2489 20.9845 16.9631 21.4952 16.4543C22.006 15.9455 22.293 15.2554 22.293 14.5359V7.0749H0.503906V14.5359ZM3.7139 10.8538C3.7139 10.4684 3.86763 10.0987 4.14126 9.82609C4.41489 9.55352 4.78602 9.40039 5.17299 9.40039H7.50753C7.89451 9.40039 8.26563 9.55352 8.53927 9.82609C8.8129 10.0987 8.96662 10.4684 8.96662 10.8538V11.8228C8.96662 12.2083 8.8129 12.5779 8.53927 12.8505C8.26563 13.1231 7.89451 13.2762 7.50753 13.2762H5.17299C4.78602 13.2762 4.41489 13.1231 4.14126 12.8505C3.86763 12.5779 3.7139 12.2083 3.7139 11.8228V10.8538ZM19.5693 0.195312H3.22754C2.50519 0.195312 1.81242 0.481154 1.30164 0.989954C0.79086 1.49875 0.503906 2.18884 0.503906 2.90839V4.16803H22.293V2.90839C22.293 2.18884 22.006 1.49875 21.4952 0.989954C20.9845 0.481154 20.2917 0.195312 19.5693 0.195312Z" fill="#4D5159"/>
<circle cx="21.1143" cy="14.4619" r="5.00879" fill="#1E242B" stroke="#F5FFF1"/>
<path d="M23.2109 14.5673L19.248 14.6094" stroke="#F5FFF1" stroke-linecap="round"/>
<path d="M21.2511 16.5684L21.209 12.6055" stroke="#F5FFF1" stroke-linecap="round"/>
</svg>
