<svg width="21" height="20" viewBox="0 0 21 20" fill="none" xmlns="http://www.w3.org/2000/svg">
<path d="M19.9163 17.0014L11.4543 0.859436C11.323 0.600871 11.1227 0.383694 10.8756 0.231995C10.6285 0.0802951 10.3442 0 10.0543 0C9.76429 0 9.47999 0.0802951 9.23288 0.231995C8.98576 0.383694 8.78549 0.600871 8.65425 0.859436L0.190253 17.0014C0.0597457 17.2509 -0.00557202 17.5293 0.000372329 17.8108C0.00631667 18.0923 0.0833305 18.3677 0.224253 18.6114C0.361285 18.8526 0.55937 19.0535 0.798617 19.194C1.03786 19.3344 1.30985 19.4094 1.58725 19.4114H18.5162C18.794 19.4097 19.0664 19.3349 19.306 19.1945C19.5456 19.054 19.7441 18.8529 19.8813 18.6114C20.0223 18.3678 20.0995 18.0924 20.1056 17.8109C20.1118 17.5294 20.0466 17.251 19.9163 17.0014ZM10.0543 16.9084C9.85145 16.9138 9.65166 16.8586 9.48041 16.7498C9.30915 16.641 9.17422 16.4837 9.09287 16.2978C9.01151 16.112 8.98742 15.9061 9.02367 15.7065C9.05993 15.5069 9.15488 15.3226 9.2964 15.1773C9.43791 15.0319 9.61956 14.9321 9.81812 14.8905C10.0167 14.8489 10.2231 14.8674 10.4111 14.9438C10.5991 15.0201 10.76 15.1508 10.8733 15.319C10.9866 15.4873 11.0472 15.6856 11.0473 15.8884C11.0507 16.1553 10.9481 16.4127 10.7619 16.604C10.5757 16.7952 10.3212 16.9047 10.0543 16.9084ZM11.1313 6.65144L10.8463 12.8734C10.85 12.9801 10.8323 13.0865 10.7941 13.1862C10.7558 13.2859 10.6979 13.3769 10.6238 13.4537C10.5496 13.5305 10.4608 13.5917 10.3625 13.6334C10.2642 13.6751 10.1585 13.6966 10.0518 13.6966C9.94498 13.6966 9.8393 13.6751 9.74102 13.6334C9.64274 13.5917 9.55387 13.5305 9.47972 13.4537C9.40557 13.3769 9.34766 13.2859 9.30943 13.1862C9.27121 13.0865 9.25347 12.9801 9.25725 12.8734L8.97225 6.65343C8.96563 6.50549 8.98827 6.35769 9.0389 6.21852C9.08952 6.07935 9.16712 5.95155 9.26725 5.84244C9.36562 5.73501 9.48497 5.64889 9.61792 5.58938C9.75087 5.52987 9.8946 5.49824 10.0403 5.49644H10.0503C10.1968 5.49677 10.3417 5.52731 10.4759 5.58615C10.6101 5.64499 10.7307 5.73088 10.8303 5.83843C10.9318 5.94778 11.0107 6.07623 11.0622 6.21632C11.1137 6.3564 11.1368 6.50533 11.1303 6.65443L11.1313 6.65144Z" fill="#EF9400"/>
</svg>
