<svg width="16" height="19" viewBox="0 0 16 19" fill="none" xmlns="http://www.w3.org/2000/svg">
<path d="M7.82607 5.77416L4.42197 11.6702C4.18036 12.1056 4.13197 12.6259 4.28726 13.1189C4.44254 13.6119 4.78904 14.0379 5.25198 14.3052C5.71492 14.5725 6.25718 14.6595 6.76174 14.5475C7.26631 14.4355 7.69272 14.1335 7.94895 13.7065L12.4166 5.98161C12.6341 5.61588 12.7715 5.20755 12.8207 4.7803C12.87 4.35306 12.8301 3.91539 12.7034 3.49268C12.5766 3.06996 12.3656 2.6706 12.0826 2.31776C11.7995 1.96491 11.45 1.6656 11.0544 1.43716C10.6587 1.20872 10.2247 1.05571 9.77763 0.986995C9.33052 0.918278 8.87917 0.935222 8.44973 1.03685C8.02029 1.13847 7.62131 1.32275 7.27592 1.57901C6.93053 1.83527 6.6456 2.1584 6.43764 2.52968L1.94569 10.31C1.6381 10.8241 1.44344 11.3986 1.37303 11.9999C1.30261 12.6012 1.35786 13.2174 1.53554 13.8127C1.71322 14.408 2.00981 14.9705 2.40804 15.4675C2.80627 15.9645 3.29822 16.386 3.85527 16.7076C4.41232 17.0292 5.02336 17.2445 5.65287 17.3409C6.28238 17.4373 6.9178 17.4129 7.52218 17.2691C8.12656 17.1254 8.68785 16.8651 9.17342 16.5034C9.65898 16.1418 10.0591 15.686 10.3506 15.1625L14.5482 7.89214" stroke="#060C15" stroke-opacity="0.4" stroke-width="1.5" stroke-miterlimit="10" stroke-linecap="round"/>
</svg>
