<?xml version="1.0" standalone="no"?>
<!DOCTYPE svg PUBLIC "-//W3C//DTD SVG 20010904//EN"
 "http://www.w3.org/TR/2001/REC-SVG-20010904/DTD/svg10.dtd">
<svg version="1.0" xmlns="http://www.w3.org/2000/svg"
 width="512.000000pt" height="512.000000pt" viewBox="0 0 512.000000 512.000000"
 preserveAspectRatio="xMidYMid meet">

<g transform="translate(0.000000,512.000000) scale(0.100000,-0.100000)"
fill="#000000" stroke="none">
<path d="M1976 5110 c-307 -39 -578 -167 -795 -375 -200 -192 -323 -403 -393
-673 -64 -249 -42 -668 39 -732 50 -39 139 -18 163 40 11 27 10 46 -5 123 -97
507 123 997 564 1257 198 116 461 173 688 151 494 -50 902 -391 1028 -861 47
-177 53 -395 15 -555 -5 -22 -10 -57 -10 -78 0 -87 104 -129 171 -69 26 23 34
42 50 117 11 50 22 149 25 220 19 386 -127 759 -405 1035 -260 259 -573 394
-935 405 -72 2 -162 0 -200 -5z"/>
<path d="M1955 4565 c-409 -90 -699 -468 -672 -879 6 -94 20 -132 58 -152 47
-24 87 -18 125 20 l33 33 -1 119 c-1 142 15 214 75 329 57 111 154 206 268
263 107 53 181 72 290 72 299 0 549 -194 624 -485 9 -36 15 -103 15 -173 l0
-114 34 -34 c47 -47 95 -47 140 -1 29 28 34 41 40 103 4 39 2 110 -4 158 -45
360 -293 644 -638 732 -109 28 -284 32 -387 9z"/>
<path d="M2053 3935 c-118 -33 -197 -113 -228 -232 -13 -48 -15 -178 -16 -828
0 -754 0 -769 -18 -714 -35 109 -117 199 -230 253 -60 28 -75 31 -162 31 -87
0 -99 -2 -137 -28 -23 -15 -52 -46 -64 -70 -23 -42 -23 -46 -26 -502 -4 -612
10 -739 106 -964 68 -157 142 -264 274 -398 188 -190 427 -313 693 -358 86
-14 167 -16 575 -13 l475 4 100 27 c252 66 452 183 620 358 163 172 266 361
326 599 24 95 24 97 24 660 l0 565 -27 50 c-34 65 -100 128 -163 157 -70 32
-180 32 -250 0 -82 -38 -158 -124 -181 -207 -6 -21 -10 26 -14 150 -5 162 -8
184 -28 223 -35 66 -88 119 -150 149 -76 38 -191 40 -267 5 -82 -38 -158 -124
-181 -207 -6 -22 -10 3 -14 95 -5 109 -9 132 -32 176 -93 179 -329 230 -487
105 -44 -35 -74 -79 -102 -149 -18 -47 -18 -45 -19 380 0 404 -1 430 -20 482
-56 149 -230 242 -377 201z"/>
</g>
</svg>
