<svg width="65" height="66" viewBox="0 0 65 66" fill="none" xmlns="http://www.w3.org/2000/svg">
<path d="M64.1674 23.1375L58.2108 17.1809C57.7302 16.7068 57.0895 16.43 56.4149 16.405C55.7402 16.38 55.0808 16.6087 54.5664 17.046C53.7724 17.7218 52.7534 18.0747 51.7114 18.0348C50.6694 17.9948 49.6805 17.5648 48.9406 16.83C48.2062 16.0902 47.7764 15.1015 47.7364 14.0598C47.6964 13.0182 48.0491 11.9995 48.7246 11.2055C49.1619 10.6912 49.3905 10.0317 49.3655 9.35706C49.3406 8.68245 49.0637 8.04168 48.5896 7.5611L42.6277 1.5978C42.1238 1.09493 41.4411 0.8125 40.7292 0.8125C40.0174 0.8125 39.3346 1.09493 38.8308 1.5978L29.3351 11.0921C28.7488 11.6805 28.3067 12.3965 28.0434 13.1843C27.9921 13.3357 27.9066 13.4733 27.7935 13.5864C27.6805 13.6994 27.5429 13.7849 27.3914 13.8362C26.6034 14.0995 25.8872 14.5422 25.2993 15.1293L0.949364 39.4792C0.446492 39.983 0.164062 40.6658 0.164062 41.3777C0.164062 42.0895 0.446492 42.7723 0.949364 43.2761L6.91266 49.2327C7.39324 49.7068 8.03401 49.9836 8.70862 50.0086C9.38323 50.0336 10.0427 49.8049 10.5571 49.3676C11.3492 48.6863 12.3696 48.3295 13.4137 48.3687C14.4579 48.4079 15.4486 48.8402 16.1875 49.5791C16.9263 50.3179 17.3586 51.3086 17.3978 52.3528C17.437 53.3969 17.0802 54.4173 16.3989 55.2095C15.9616 55.7238 15.7329 56.3833 15.7579 57.0579C15.7829 57.7325 16.0598 58.3733 16.5339 58.8539L22.4904 64.8104C22.9942 65.3133 23.677 65.5957 24.3889 65.5957C25.1007 65.5957 25.7835 65.3133 26.2873 64.8104L50.6372 40.4605C51.224 39.8728 51.6666 39.1572 51.9303 38.3697C51.9814 38.2177 52.0669 38.0797 52.1803 37.9663C52.2936 37.853 52.4317 37.7675 52.5836 37.7164C53.3709 37.453 54.0865 37.0109 54.6744 36.4247L64.1687 26.929C64.6698 26.4252 64.9509 25.7435 64.9507 25.033C64.9504 24.3224 64.6688 23.6409 64.1674 23.1375ZM33.3426 19.1354C33.142 19.336 32.9039 19.4951 32.6419 19.6037C32.3798 19.7122 32.099 19.7681 31.8153 19.7681C31.5317 19.7681 31.2508 19.7122 30.9887 19.6037C30.7267 19.4951 30.4886 19.336 30.288 19.1354L28.7345 17.5818C28.3393 17.1748 28.1202 16.6286 28.1245 16.0613C28.1287 15.494 28.356 14.9512 28.7573 14.5501C29.1585 14.1491 29.7014 13.922 30.2687 13.918C30.836 13.9139 31.3821 14.1333 31.789 14.5286L33.3426 16.0809C33.5432 16.2814 33.7023 16.5195 33.8109 16.7816C33.9194 17.0436 33.9753 17.3245 33.9753 17.6081C33.9753 17.8918 33.9194 18.1727 33.8109 18.4347C33.7023 18.6968 33.5432 18.9349 33.3426 19.1354ZM39.2816 25.0744C38.8766 25.4791 38.3275 25.7065 37.755 25.7065C37.1825 25.7065 36.6334 25.4791 36.2284 25.0744L34.7436 23.5897C34.5431 23.3891 34.384 23.151 34.2754 22.8889C34.1669 22.6269 34.111 22.346 34.111 22.0624C34.111 21.7788 34.1669 21.4979 34.2754 21.2358C34.384 20.9738 34.5431 20.7357 34.7436 20.5351C35.1487 20.1301 35.6981 19.9025 36.2709 19.9025C36.5546 19.9025 36.8354 19.9584 37.0975 20.0669C37.3595 20.1755 37.5976 20.3346 37.7982 20.5351L39.2829 22.0199C39.4842 22.2204 39.644 22.4587 39.753 22.7211C39.862 22.9834 39.9182 23.2648 39.9184 23.5489C39.9185 23.833 39.8625 24.1144 39.7537 24.3769C39.6449 24.6393 39.4854 24.8778 39.2843 25.0785L39.2816 25.0744ZM45.2206 31.0134C45.02 31.214 44.7819 31.3731 44.5199 31.4817C44.2578 31.5903 43.977 31.6461 43.6933 31.6461C43.4097 31.6461 43.1288 31.5903 42.8667 31.4817C42.6047 31.3731 42.3666 31.214 42.1661 31.0134L40.6813 29.5287C40.2862 29.1216 40.067 28.5754 40.0713 28.0081C40.0756 27.4408 40.3029 26.898 40.7041 26.497C41.1054 26.0959 41.6483 25.8688 42.2156 25.8648C42.7829 25.8608 43.329 26.0802 43.7358 26.4755L45.2206 27.9602C45.4224 28.1604 45.5828 28.3985 45.6924 28.6608C45.802 28.9231 45.8588 29.2045 45.8594 29.4888C45.86 29.7731 45.8045 30.0547 45.696 30.3175C45.5876 30.5803 45.4283 30.8191 45.2273 31.0202L45.2206 31.0134ZM51.2176 37.0253C51.0171 37.2259 50.779 37.385 50.5169 37.4936C50.2549 37.6022 49.974 37.658 49.6904 37.658C49.4067 37.658 49.1258 37.6022 48.8638 37.4936C48.6017 37.385 48.3636 37.2259 48.1631 37.0253L46.619 35.4731C46.4142 35.2731 46.2511 35.0344 46.1394 34.7709C46.0276 34.5074 45.9694 34.2243 45.968 33.9381C45.9667 33.6519 46.0222 33.3682 46.1314 33.1037C46.2407 32.8391 46.4014 32.5989 46.6043 32.397C46.8071 32.1951 47.0481 32.0355 47.3132 31.9276C47.5783 31.8197 47.8622 31.7655 48.1485 31.7683C48.4347 31.771 48.7175 31.8306 48.9804 31.9437C49.2434 32.0567 49.4813 32.2209 49.6802 32.4266L51.2257 33.9775C51.4262 34.1782 51.5853 34.4163 51.6937 34.6784C51.8021 34.9405 51.8579 35.2214 51.8578 35.5051C51.8577 35.7887 51.8016 36.0696 51.693 36.3316C51.5843 36.5936 51.4251 36.8316 51.2244 37.0321L51.2176 37.0253Z" fill="#84FF50"/>
</svg>
