<svg width="24" height="24" viewBox="0 0 24 24" fill="none" xmlns="http://www.w3.org/2000/svg">
<path d="M22.396 10.0749C22.035 8.00973 21.077 6.09557 19.6402 4.56889C18.2034 3.04221 16.3508 1.96991 14.3113 1.48447C12.2718 0.99903 10.1348 1.12172 8.16431 1.83738C6.19379 2.55303 4.47611 3.83031 3.22347 5.51138C1.97084 7.19246 1.23814 9.20369 1.11591 11.2966C0.993681 13.3895 1.48727 15.4723 2.53569 17.2878C3.58412 19.1032 5.14144 20.5718 7.01525 21.512C8.88907 22.4521 10.9973 22.8228 13.0794 22.578" stroke="#060C15" stroke-opacity="0.6" stroke-width="1.5" stroke-linecap="round" stroke-linejoin="round"/>
<path d="M11.8252 5.96289V11.9236L13.6134 13.7118" stroke="#060C15" stroke-opacity="0.6" stroke-width="1.5" stroke-linecap="round" stroke-linejoin="round"/>
<path d="M22.5532 15.498H19.5729C19.0986 15.498 18.6438 15.6864 18.3084 16.0218C17.9731 16.3572 17.7847 16.812 17.7847 17.2863C17.7847 17.7605 17.9731 18.2154 18.3084 18.5507C18.6438 18.8861 19.0986 19.0745 19.5729 19.0745H20.765C21.2393 19.0745 21.6941 19.2629 22.0295 19.5982C22.3648 19.9336 22.5532 20.3884 22.5532 20.8627C22.5532 21.3369 22.3648 21.7918 22.0295 22.1271C21.6941 22.4625 21.2393 22.6509 20.765 22.6509H17.7847" stroke="#060C15" stroke-opacity="0.6" stroke-width="1.5" stroke-linecap="round" stroke-linejoin="round"/>
</svg>
