<svg width="21" height="22" viewBox="0 0 21 22" fill="none" xmlns="http://www.w3.org/2000/svg">
<path d="M19.7888 9.17059C19.4703 7.3484 18.625 5.65942 17.3572 4.31235C16.0894 2.96528 14.4548 2.01913 12.6553 1.59079C10.8557 1.16246 8.97011 1.27071 7.23141 1.90218C5.49271 2.53364 3.97709 3.66065 2.87182 5.14397C1.76655 6.62728 1.12005 8.40189 1.0122 10.2486C0.90435 12.0952 1.33987 13.9331 2.26495 15.5349C3.19004 17.1368 4.56415 18.4326 6.21753 19.2622C7.8709 20.0918 9.73109 20.4188 11.5683 20.2028" stroke="#383D44" stroke-width="1.5" stroke-linecap="round" stroke-linejoin="round"/>
<path d="M10.4619 5.54248V10.8019L12.0398 12.3798" stroke="#383D44" stroke-width="1.5" stroke-linecap="round" stroke-linejoin="round"/>
<path d="M19.9283 13.9561H17.2985C16.8801 13.9561 16.4787 14.1223 16.1828 14.4182C15.8869 14.7141 15.7207 15.1154 15.7207 15.5339C15.7207 15.9524 15.8869 16.3537 16.1828 16.6496C16.4787 16.9455 16.8801 17.1117 17.2985 17.1117H18.3504C18.7689 17.1117 19.1702 17.278 19.4661 17.5739C19.762 17.8698 19.9283 18.2711 19.9283 18.6896C19.9283 19.108 19.762 19.5094 19.4661 19.8053C19.1702 20.1012 18.7689 20.2674 18.3504 20.2674H15.7207" stroke="#383D44" stroke-width="1.5" stroke-linecap="round" stroke-linejoin="round"/>
</svg>
