<svg width="74" height="74" viewBox="0 0 74 74" fill="none" xmlns="http://www.w3.org/2000/svg">
<path d="M37.1774 0.394531C17.1043 0.394531 0.773132 16.7257 0.773132 36.7988C0.773132 56.872 17.1043 73.2031 37.1774 73.2031C57.2506 73.2031 73.5817 56.872 73.5817 36.7988C73.5817 16.7257 57.2506 0.394531 37.1774 0.394531ZM50.3582 46.0207C50.6292 46.2781 50.8459 46.5872 50.9956 46.9297C51.1452 47.2722 51.2248 47.6412 51.2295 48.015C51.2343 48.3887 51.1643 48.7597 51.0234 49.1059C50.8826 49.4521 50.6739 49.7667 50.4096 50.031C50.1453 50.2953 49.8307 50.504 49.4845 50.6448C49.1383 50.7856 48.7673 50.8557 48.3936 50.8509C48.0198 50.8462 47.6508 50.7666 47.3083 50.617C46.9658 50.4673 46.6567 50.2506 46.3993 49.9796L37.1774 40.7595L27.9556 49.9796C27.4262 50.4826 26.7212 50.7589 25.991 50.7496C25.2607 50.7402 24.5631 50.446 24.0467 49.9296C23.5303 49.4132 23.2361 48.7155 23.2267 47.9853C23.2174 47.2551 23.4936 46.5501 23.9966 46.0207L33.2167 36.7988L23.9966 27.577C23.4936 27.0476 23.2174 26.3426 23.2267 25.6124C23.2361 24.8821 23.5303 24.1845 24.0467 23.6681C24.5631 23.1517 25.2607 22.8575 25.991 22.8481C26.7212 22.8388 27.4262 23.115 27.9556 23.618L37.1774 32.8381L46.3993 23.618C46.9287 23.115 47.6337 22.8388 48.3639 22.8481C49.0941 22.8575 49.7918 23.1517 50.3082 23.6681C50.8246 24.1845 51.1188 24.8821 51.1282 25.6124C51.1375 26.3426 50.8612 27.0476 50.3582 27.577L41.1381 36.7988L50.3582 46.0207Z" fill="#FF4F4F"/>
</svg>
