<svg width="68" height="67" viewBox="0 0 68 67" fill="none" xmlns="http://www.w3.org/2000/svg">
<path d="M34.0004 0.345703C15.6349 0.345703 0.693359 15.2873 0.693359 33.6528C0.693359 52.0183 15.6349 66.9599 34.0004 66.9599C52.366 66.9599 67.3075 52.0183 67.3075 33.6528C67.3075 15.2873 52.366 0.345703 34.0004 0.345703ZM34.0004 14.0016C34.8568 14.0016 35.694 14.2556 36.406 14.7313C37.1181 15.2071 37.6731 15.8834 38.0008 16.6745C38.3285 17.4657 38.4142 18.3363 38.2472 19.1763C38.0801 20.0162 37.6677 20.7877 37.0622 21.3932C36.4566 21.9988 35.6851 22.4112 34.8452 22.5783C34.0053 22.7453 33.1346 22.6596 32.3435 22.3319C31.5523 22.0041 30.876 21.4492 30.4002 20.7371C29.9245 20.0251 29.6705 19.1879 29.6705 18.3315C29.6705 17.1832 30.1267 16.0818 30.9387 15.2698C31.7507 14.4578 32.8521 14.0016 34.0004 14.0016ZM41.9941 51.6386H27.339C26.6323 51.6386 25.9546 51.3579 25.4549 50.8582C24.9552 50.3585 24.6745 49.6807 24.6745 48.9741C24.6745 48.2674 24.9552 47.5896 25.4549 47.0899C25.9546 46.5902 26.6323 46.3095 27.339 46.3095H32.002V31.6544H29.3375C28.6308 31.6544 27.953 31.3736 27.4533 30.8739C26.9536 30.3742 26.6729 29.6965 26.6729 28.9898C26.6729 28.2831 26.9536 27.6054 27.4533 27.1057C27.953 26.606 28.6308 26.3252 29.3375 26.3252H34.6666C35.3733 26.3252 36.051 26.606 36.5507 27.1057C37.0504 27.6054 37.3312 28.2831 37.3312 28.9898V46.3095H41.9941C42.7008 46.3095 43.3786 46.5902 43.8783 47.0899C44.378 47.5896 44.6587 48.2674 44.6587 48.9741C44.6587 49.6807 44.378 50.3585 43.8783 50.8582C43.3786 51.3579 42.7008 51.6386 41.9941 51.6386Z" fill="#FF4F4F"/>
</svg>
