<svg width="20" height="20" viewBox="0 0 20 20" fill="none" xmlns="http://www.w3.org/2000/svg">
<path d="M19.2506 11.9742L16.3207 9.04435H9.48443C9.22541 9.04435 8.97701 8.94146 8.79386 8.75831C8.61071 8.57516 8.50781 8.32675 8.50781 8.06774V2.20806C8.50781 1.94904 8.61071 1.70064 8.79386 1.51749C8.97701 1.33434 9.22541 1.23145 9.48443 1.23145H18.2739C18.533 1.23145 18.7814 1.33434 18.9645 1.51749C19.1477 1.70064 19.2506 1.94904 19.2506 2.20806V11.9742Z" stroke="#383D44" stroke-width="1.5" stroke-linecap="round" stroke-linejoin="round"/>
<path d="M12.4146 12.9505V14.9037C12.4146 15.1627 12.3117 15.4111 12.1286 15.5942C11.9454 15.7774 11.697 15.8803 11.438 15.8803H4.60172L1.67188 18.8101V9.044C1.67188 8.78498 1.77477 8.53658 1.95792 8.35343C2.14107 8.17028 2.38947 8.06738 2.64849 8.06738H4.60172" stroke="#383D44" stroke-width="1.5" stroke-linecap="round" stroke-linejoin="round"/>
</svg>
