<svg width="22" height="23" viewBox="0 0 22 23" fill="none" xmlns="http://www.w3.org/2000/svg">
<mask id="mask0_417_22122" style="mask-type:alpha" maskUnits="userSpaceOnUse" x="0" y="0" width="22" height="23">
<rect x="0.30957" y="0.534668" width="20.8721" height="21.8354" fill="#D9D9D9"/>
</mask>
<g mask="url(#mask0_417_22122)">
<g clip-path="url(#clip0_417_22122)">
<path d="M12.8012 18.9894C12.7542 18.8979 12.6881 18.8177 12.6072 18.7541C12.5265 18.6905 12.4329 18.645 12.333 18.6208C12.0701 18.5512 11.7634 18.563 11.529 18.5458C9.31657 18.3919 7.23457 17.4424 5.66782 15.8727C4.27497 14.4876 3.36976 12.6876 3.08846 10.7435C3.02477 10.3004 3.02477 10.1903 3.02477 10.1903C3.02474 10.0424 2.97969 9.89805 2.89561 9.77642C2.81154 9.6548 2.69241 9.56166 2.5541 9.5094C2.41578 9.45713 2.26483 9.44823 2.12133 9.48386C1.97784 9.51949 1.84858 9.59798 1.75078 9.70887C1.75078 9.70887 1.39225 10.0993 1.22299 10.491C0.748292 11.5848 0.54585 12.7773 0.633018 13.9664C0.720186 15.1555 1.09437 16.3058 1.72348 17.3186C1.84179 17.5156 1.84179 17.6067 1.81539 17.8114C1.69119 18.4534 1.4737 19.5859 1.3604 20.1733C1.32289 20.3637 1.33684 20.5608 1.40083 20.7441C1.46481 20.9274 1.57649 21.0903 1.7244 21.2161L1.74532 21.2339C1.94098 21.3893 2.18343 21.4739 2.43327 21.4741C2.57381 21.4742 2.71298 21.4465 2.84277 21.3926L5.27744 20.4531C5.36126 20.4212 5.45387 20.4212 5.53769 20.4531C6.49636 20.8098 7.49417 20.9991 8.43964 20.9991C9.61768 21.0001 10.7815 20.7413 11.848 20.241C12.0964 20.1246 12.485 19.9981 12.7124 19.7351C12.7985 19.633 12.8528 19.5081 12.8686 19.3755C12.8844 19.243 12.8609 19.1087 12.8012 18.9894Z" fill="#363B42"/>
<path fill-rule="evenodd" clip-rule="evenodd" d="M1.90332 17.3586C1.90696 17.3504 1.90696 17.3445 1.90696 17.3414L1.90529 17.3493C1.90467 17.3526 1.90407 17.3556 1.90332 17.3586ZM18.7358 17.9979C18.8744 18.0548 19.0223 18.0856 19.1721 18.0888C19.3158 18.0891 19.4581 18.0609 19.5908 18.006C19.7235 17.9511 19.844 17.8706 19.9457 17.769C20.0472 17.6675 20.1277 17.5468 20.1826 17.4141C20.2375 17.2814 20.2656 17.1391 20.2655 16.9955C20.2633 16.8859 20.2462 16.777 20.2145 16.672L19.4984 14.1268C19.513 14.0942 19.5294 14.0625 19.5475 14.0318L19.5543 14.0195C19.5594 14.0121 19.5647 14.005 19.5701 13.9977L19.577 13.9885L19.6107 13.943L19.6193 13.9302C20.5168 12.5967 20.9966 11.0263 20.998 9.41899C21.0048 7.25595 20.1531 5.20575 18.5988 3.64649C16.9544 2.00032 14.7409 1.09034 12.3654 1.09034C10.3794 1.08844 8.45037 1.75373 6.88776 2.97946C5.36446 4.18202 4.30523 5.86321 3.90529 7.71139C3.78247 8.27306 3.72054 8.84632 3.72057 9.42126C3.7179 10.5247 3.93413 11.6177 4.35673 12.6369C4.77932 13.6562 5.3999 14.5815 6.18253 15.3594C7.78456 16.9623 9.93212 17.845 12.2289 17.845C13.1275 17.845 14.2473 17.557 14.5689 17.4687C15.1623 17.3059 15.7278 17.0933 15.7906 17.0697C15.8432 17.0499 15.8991 17.0397 15.9554 17.0397C16.0164 17.039 16.0769 17.0507 16.1332 17.0742L16.1523 17.082L18.7358 17.9979ZM9.19494 10.7454C9.78744 10.7454 10.2678 10.2651 10.2678 9.67258C10.2678 9.08007 9.78744 8.59976 9.19494 8.59976C8.60242 8.59976 8.12211 9.08007 8.12211 9.67258C8.12211 10.2651 8.60242 10.7454 9.19494 10.7454ZM13.4853 9.67258C13.4853 10.2651 13.005 10.7454 12.4125 10.7454C11.82 10.7454 11.3397 10.2651 11.3397 9.67258C11.3397 9.08007 11.82 8.59976 12.4125 8.59976C13.005 8.59976 13.4853 9.08007 13.4853 9.67258ZM15.6319 10.7454C16.2243 10.7454 16.7046 10.2651 16.7046 9.67258C16.7046 9.08007 16.2243 8.59976 15.6319 8.59976C15.0393 8.59976 14.559 9.08007 14.559 9.67258C14.559 10.2651 15.0393 10.7454 15.6319 10.7454Z" fill="#363B42"/>
</g>
</g>
<defs>
<clipPath id="clip0_417_22122">
<rect width="21" height="21" fill="white" transform="translate(0 1)"/>
</clipPath>
</defs>
</svg>
