<svg width="60" height="59" viewBox="0 0 60 59" fill="none" xmlns="http://www.w3.org/2000/svg">
<path d="M59.4258 29.5508C59.4258 45.7741 46.2741 58.9258 30.0508 58.9258C13.8274 58.9258 0.675781 45.7741 0.675781 29.5508C0.675781 13.3274 13.8274 0.175781 30.0508 0.175781C46.2741 0.175781 59.4258 13.3274 59.4258 29.5508Z" fill="#3DC5F4" fill-opacity="0.15"/>
<path d="M32.7013 38.4195C32.643 38.3063 32.5611 38.2069 32.4611 38.1282C32.361 38.0494 32.2452 37.9931 32.1214 37.9631C31.7957 37.8769 31.416 37.8915 31.1258 37.8701C28.3858 37.6796 25.8074 36.5037 23.8671 34.5597C22.1422 32.8444 21.0211 30.6152 20.6728 28.2077C20.5939 27.6588 20.5939 27.5225 20.5939 27.5225C20.5938 27.3394 20.538 27.1606 20.4339 27.01C20.3298 26.8594 20.1823 26.744 20.011 26.6793C19.8397 26.6146 19.6527 26.6035 19.475 26.6477C19.2973 26.6918 19.1373 26.789 19.0161 26.9263C19.0161 26.9263 18.5721 27.4098 18.3625 27.8949C17.7746 29.2495 17.5239 30.7263 17.6319 32.199C17.7398 33.6716 18.2032 35.0961 18.9823 36.3504C19.1288 36.5944 19.1288 36.7071 19.0962 36.9607C18.9423 37.7558 18.673 39.1582 18.5327 39.8857C18.4862 40.1216 18.5035 40.3656 18.5827 40.5926C18.662 40.8196 18.8003 41.0214 18.9835 41.1772L19.0094 41.1991C19.2517 41.3916 19.5519 41.4964 19.8613 41.4967C20.0354 41.4968 20.2077 41.4625 20.3685 41.3958L23.3836 40.2322C23.4874 40.1928 23.6021 40.1928 23.7059 40.2322C24.8932 40.674 26.1289 40.9084 27.2998 40.9084C28.7587 40.9098 30.2 40.5892 31.5208 39.9696C31.8284 39.8254 32.3096 39.6687 32.5914 39.3431C32.698 39.2167 32.7652 39.0619 32.7848 38.8978C32.8043 38.7336 32.7753 38.5673 32.7013 38.4195Z" fill="#060C15" fill-opacity="0.8"/>
<path fill-rule="evenodd" clip-rule="evenodd" d="M19.207 36.397C19.2115 36.3869 19.2115 36.3796 19.2115 36.3756L19.2095 36.3856C19.2087 36.3895 19.208 36.3934 19.207 36.397ZM40.0528 37.1887C40.2244 37.2592 40.4076 37.2974 40.5932 37.3014C40.771 37.3016 40.9472 37.2668 41.1116 37.1988C41.276 37.1308 41.4253 37.0311 41.5511 36.9053C41.6769 36.7796 41.7766 36.6302 41.8446 36.4658C41.9125 36.3014 41.9474 36.1253 41.9472 35.9474C41.9445 35.8116 41.9233 35.6768 41.8841 35.5468L40.9972 32.3947C41.0153 32.3544 41.0356 32.315 41.058 32.2769L41.0665 32.2617C41.0728 32.2527 41.0793 32.2439 41.086 32.235L41.086 32.235L41.086 32.2349L41.0947 32.2234L41.1363 32.167L41.1471 32.1513C42.2584 30.4999 42.8527 28.5549 42.8544 26.5644C42.8628 23.8857 41.808 21.3466 39.8832 19.4156C37.8468 17.377 35.1055 16.25 32.1636 16.25C29.7041 16.2477 27.3151 17.0716 25.3799 18.5896C23.4934 20.0788 22.1816 22.1609 21.6863 24.4497C21.5342 25.1453 21.4575 25.8552 21.4576 26.5672C21.4543 27.9337 21.722 29.2873 22.2454 30.5496C22.7687 31.8119 23.5373 32.9579 24.5065 33.9211C26.4905 35.9063 29.1501 36.9994 31.9945 36.9994C33.1074 36.9994 34.4941 36.6427 34.8925 36.5334C35.6273 36.3317 36.3277 36.0685 36.4054 36.0392C36.4706 36.0147 36.5397 36.0021 36.6094 36.0021C36.685 36.0012 36.7599 36.0158 36.8297 36.0449L36.8534 36.0545L40.0528 37.1887ZM28.2358 28.2002C28.9696 28.2002 29.5644 27.6053 29.5644 26.8716C29.5644 26.1378 28.9696 25.5429 28.2358 25.5429C27.502 25.5429 26.9072 26.1378 26.9072 26.8716C26.9072 27.6053 27.502 28.2002 28.2358 28.2002ZM33.5497 26.8716C33.5497 27.6053 32.9549 28.2002 32.2211 28.2002C31.4873 28.2002 30.8925 27.6053 30.8925 26.8716C30.8925 26.1378 31.4873 25.5429 32.2211 25.5429C32.9549 25.5429 33.5497 26.1378 33.5497 26.8716ZM36.2099 28.2002C36.9437 28.2002 37.5385 27.6053 37.5385 26.8716C37.5385 26.1378 36.9437 25.5429 36.2099 25.5429C35.4761 25.5429 34.8813 26.1378 34.8813 26.8716C34.8813 27.6053 35.4761 28.2002 36.2099 28.2002Z" fill="#060C15" fill-opacity="0.8"/>
</svg>
