<svg width="23" height="23" viewBox="0 0 23 23" fill="none" xmlns="http://www.w3.org/2000/svg">
<path d="M21.3948 13.5037L17.9937 10.1026H10.058C9.75732 10.1026 9.46897 9.98318 9.25636 9.77057C9.04376 9.55797 8.92432 9.26961 8.92432 8.96894V2.16688C8.92432 1.86621 9.04376 1.57786 9.25636 1.36525C9.46897 1.15264 9.75732 1.0332 10.058 1.0332H20.2611C20.5618 1.0332 20.8501 1.15264 21.0627 1.36525C21.2753 1.57786 21.3948 1.86621 21.3948 2.16688V13.5037Z" stroke="#060C15" stroke-opacity="0.6" stroke-width="1.5" stroke-linecap="round" stroke-linejoin="round"/>
<path d="M13.4592 14.6371V16.9045C13.4592 17.2052 13.3398 17.4935 13.1272 17.7061C12.9146 17.9187 12.6262 18.0382 12.3255 18.0382H4.3898L0.98877 21.4392V10.1024C0.98877 9.80176 1.10821 9.5134 1.32082 9.3008C1.53342 9.08819 1.82178 8.96875 2.12245 8.96875H4.3898" stroke="#060C15" stroke-opacity="0.6" stroke-width="1.5" stroke-linecap="round" stroke-linejoin="round"/>
</svg>
