<svg width="30" height="30" viewBox="0 0 30 30" fill="none" xmlns="http://www.w3.org/2000/svg">
<path d="M17.8763 26.3564C17.8094 26.2262 17.7152 26.1119 17.6001 26.0213C17.4851 25.9308 17.3519 25.866 17.2096 25.8315C16.8351 25.7324 16.3983 25.7493 16.0646 25.7246C12.9139 25.5056 9.94888 24.1533 7.71769 21.9179C5.73413 19.9454 4.44502 17.382 4.04444 14.6135C3.95372 13.9824 3.95372 13.8256 3.95372 13.8256C3.95368 13.615 3.88953 13.4095 3.76979 13.2363C3.65005 13.0631 3.48041 12.9304 3.28344 12.856C3.08647 12.7816 2.8715 12.7689 2.66715 12.8196C2.46279 12.8704 2.27873 12.9821 2.13945 13.1401C2.13945 13.1401 1.62886 13.696 1.38782 14.2539C0.711799 15.8115 0.423503 17.5098 0.547638 19.2032C0.671774 20.8966 1.20464 22.5347 2.10057 23.9771C2.26904 24.2577 2.26904 24.3873 2.23146 24.6788C2.05457 25.5931 1.74485 27.2059 1.5835 28.0424C1.53008 28.3136 1.54996 28.5943 1.64107 28.8553C1.73218 29.1163 1.89124 29.3484 2.10187 29.5275L2.13167 29.5527C2.4103 29.774 2.75557 29.8946 3.11138 29.8949C3.31151 29.895 3.5097 29.8556 3.69454 29.7789L7.16174 28.4409C7.28112 28.3955 7.413 28.3955 7.53237 28.4409C8.89761 28.9489 10.3186 29.2184 11.665 29.2184C13.3427 29.22 15 28.8514 16.5189 28.1389C16.8726 27.973 17.426 27.7929 17.75 27.4184C17.8726 27.2731 17.9499 27.0951 17.9724 26.9063C17.9948 26.7176 17.9614 26.5264 17.8763 26.3564Z" fill="#060C15"/>
<path fill-rule="evenodd" clip-rule="evenodd" d="M2.35254 24.0309C2.35772 24.0192 2.35772 24.0108 2.35772 24.0063L2.35535 24.0177L2.35534 24.0177C2.35446 24.0222 2.3536 24.0267 2.35254 24.0309ZM26.3236 24.9413C26.521 25.0223 26.7317 25.0663 26.945 25.0709C27.1495 25.0711 27.3521 25.031 27.5412 24.9529C27.7302 24.8747 27.9019 24.76 28.0466 24.6154C28.1912 24.4708 28.3059 24.299 28.384 24.11C28.4622 23.921 28.5023 23.7184 28.502 23.5138C28.499 23.3577 28.4746 23.2027 28.4295 23.0531L27.4096 19.4285C27.4304 19.3821 27.4538 19.3369 27.4796 19.2931L27.4893 19.2756C27.4965 19.2652 27.5041 19.2551 27.5117 19.2449L27.5118 19.2448L27.5118 19.2448L27.5217 19.2315L27.5696 19.1667L27.5819 19.1486C28.8599 17.2496 29.5433 15.013 29.5452 12.7241C29.555 9.64372 28.342 6.72403 26.1286 4.50349C23.7869 2.1592 20.6346 0.863287 17.2516 0.863287C14.4234 0.860585 11.6762 1.80803 9.45088 3.55359C7.28153 5.26614 5.77309 7.66033 5.20354 10.2923C5.02864 11.0922 4.94044 11.9086 4.94047 12.7273C4.93668 14.2987 5.24461 15.8552 5.84643 17.3068C6.44825 18.7583 7.33201 20.0761 8.44655 21.1838C10.728 23.4665 13.7863 24.7236 17.0572 24.7236C18.3369 24.7236 19.9315 24.3134 20.3897 24.1877C21.2346 23.9557 22.04 23.6531 22.1294 23.6194C22.2044 23.5913 22.2839 23.5768 22.364 23.5767C22.4509 23.5757 22.5371 23.5925 22.6173 23.6259L22.6445 23.6369L26.3236 24.9413ZM12.737 14.6205C13.5808 14.6205 14.2648 13.9364 14.2648 13.0927C14.2648 12.2489 13.5808 11.5648 12.737 11.5648C11.8932 11.5648 11.2092 12.2489 11.2092 13.0927C11.2092 13.9364 11.8932 14.6205 12.737 14.6205ZM18.8477 13.0927C18.8477 13.9364 18.1637 14.6205 17.3199 14.6205C16.4761 14.6205 15.7921 13.9364 15.7921 13.0927C15.7921 12.2489 16.4761 11.5648 17.3199 11.5648C18.1637 11.5648 18.8477 12.2489 18.8477 13.0927ZM21.905 14.6205C22.7488 14.6205 23.4328 13.9364 23.4328 13.0927C23.4328 12.2489 22.7488 11.5648 21.905 11.5648C21.0612 11.5648 20.3772 12.2489 20.3772 13.0927C20.3772 13.9364 21.0612 14.6205 21.905 14.6205Z" fill="#060C15"/>
</svg>
