<?xml version="1.0" standalone="no"?>
<!DOCTYPE svg PUBLIC "-//W3C//DTD SVG 20010904//EN"
 "http://www.w3.org/TR/2001/REC-SVG-20010904/DTD/svg10.dtd">
<svg version="1.0" xmlns="http://www.w3.org/2000/svg"
 width="87.000000pt" height="84.000000pt" viewBox="0 0 87.000000 84.000000"
 preserveAspectRatio="xMidYMid meet">

<g transform="translate(0.000000,84.000000) scale(0.100000,-0.100000)"
fill="#000000" stroke="none">
<path d="M415 787 c-11 -6 -45 -14 -75 -17 -51 -5 -55 -7 -53 -30 1 -14 6 -37
12 -52 l11 -28 140 0 140 0 15 37 c24 56 17 68 -39 71 -27 2 -59 10 -70 18
-25 17 -54 18 -81 1z"/>
<path d="M271 557 c-94 -97 -161 -234 -161 -330 0 -54 32 -117 73 -144 32 -22
41 -23 268 -23 216 0 237 2 267 20 57 35 73 74 70 165 -3 67 -9 91 -37 148
-19 37 -59 98 -90 135 l-57 67 -145 3 -146 3 -42 -44z m209 -73 c0 -8 16 -30
35 -48 19 -19 35 -38 35 -45 0 -16 -45 -13 -60 4 -16 19 -66 20 -73 1 -8 -19
9 -32 59 -45 54 -14 76 -40 72 -82 -2 -25 -11 -39 -35 -54 -20 -13 -32 -28
-33 -42 0 -19 -6 -23 -30 -23 -25 0 -30 4 -30 24 0 16 -7 27 -20 31 -25 8 -54
50 -45 65 9 15 36 12 56 -6 21 -19 65 -22 81 -6 16 16 1 30 -45 43 -68 17 -87
34 -87 76 0 37 23 73 47 73 7 0 13 11 13 25 0 21 5 25 30 25 21 0 30 -5 30
-16z"/>
</g>
</svg>
