<svg width="89" height="86" viewBox="0 0 89 86" fill="none" xmlns="http://www.w3.org/2000/svg">
<mask id="mask0_1078_35198" style="mask-type:alpha" maskUnits="userSpaceOnUse" x="0" y="0" width="89" height="86">
<rect x="0.208984" y="0.046875" width="88" height="85.3584" fill="#D9D9D9"/>
</mask>
<g mask="url(#mask0_1078_35198)">
<circle cx="46.3905" cy="44.8817" r="35.662" fill="#8E94C7" fill-opacity="0.34"/>
<mask id="mask1_1078_35198" style="mask-type:alpha" maskUnits="userSpaceOnUse" x="10" y="9" width="73" height="72">
<circle cx="46.5169" cy="45.0081" r="35.5364" fill="#D9D9D9"/>
</mask>
<g mask="url(#mask1_1078_35198)">
<path d="M73.0126 24.3684C73.0126 24.3684 74.8055 24.1497 74.9675 25.8636C75.1296 27.5774 74.5573 28.8946 73.4937 29.4642C73.4937 29.4642 73.2658 29.5761 72.7441 29.6676L73.0126 24.3735V24.3684Z" fill="#FFB69F"/>
<path d="M52.7282 24.3684C52.7282 24.3684 50.9353 24.1497 50.7733 25.8636C50.6112 27.5774 51.1835 28.8946 52.2471 29.4642C52.2471 29.4642 52.475 29.5761 52.9966 29.6676L52.7282 24.3735V24.3684Z" fill="#FFB69F"/>
<path d="M38.4062 57.9853C38.4062 57.9853 38.4062 50.7942 42.5998 49.3753C46.7934 47.9564 56.2694 42.5098 56.2694 42.5098H62.6812V57.9853H38.4062V57.9853Z" fill="#F49037"/>
<path d="M86.5601 57.9853C86.5601 57.9853 86.5601 50.7942 82.3666 49.3753C78.173 47.9564 68.7983 42.5098 68.7983 42.5098H62.2852V57.9853H86.5601V57.9853Z" fill="#F49037"/>
<path d="M57.8641 37.5352L57.2715 42.5089H67.6946L67.0463 37.5352H57.8641Z" fill="#FFB69F"/>
<path d="M62.483 45.485C65.3613 45.485 67.6946 44.4672 67.6946 43.2117C67.6946 41.9563 65.3613 40.9385 62.483 40.9385C59.6048 40.9385 57.2715 41.9563 57.2715 43.2117C57.2715 44.4672 59.6048 45.485 62.483 45.485Z" fill="#FFB69F"/>
<path d="M57.4688 40.8605C57.4688 40.8605 64.5846 41.5165 67.0916 38.3838V34.7832L58.0714 35.6528L57.4688 40.8605V40.8605Z" fill="#FF9988"/>
<path d="M62.9091 38.9795C68.6461 38.9795 73.2968 33.0094 73.2968 25.645C73.2968 18.2806 68.6461 12.3105 62.9091 12.3105C57.1722 12.3105 52.5215 18.2806 52.5215 25.645C52.5215 33.0094 57.1722 38.9795 62.9091 38.9795Z" fill="#FFB69F"/>
<path d="M71.9804 14.9963C71.9804 14.9963 71.9905 14.9709 71.9804 14.9556C71.636 14.1267 71.2156 9.96155 64.4593 9.33094C62.7272 9.1682 60.2506 9.45808 58.6805 10.2107C56.528 11.238 54.1223 11.828 51.9952 11.8229C51.904 11.8229 51.8685 11.9449 51.9496 11.9907L53.6108 13.318C53.6766 13.3536 53.6716 13.4503 53.6007 13.4808L51.514 14.1165C51.438 14.147 51.438 14.2589 51.514 14.2843C51.8533 14.3962 52.7143 14.7776 53.4943 15.0472C52.218 17.3153 52.5118 20.5752 52.5118 24.4911C52.5118 24.4911 52.4712 28.5494 53.8336 33.2028C55.3226 38.2884 58.5894 40.4701 63.1931 40.4853C68.0958 40.5057 70.6534 36.2846 71.3371 34.7844C72.3805 32.4857 73.2769 28.2138 73.282 25.6456C73.282 25.6456 75.166 19.1563 71.9702 14.9963H71.9804ZM67.8172 33.8385C66.8043 34.3572 67.3158 31.6567 65.3001 31.5449C64.6265 31.5042 62.3372 31.3465 60.4126 31.5093C58.949 31.6364 58.5944 32.9587 58.5286 33.63C58.4982 33.9198 58.3969 34.0521 58.1234 33.9503C57.5156 33.7266 56.2242 33.0044 55.6164 32.3331C54.9884 31.6415 53.8539 29.7751 53.7475 25.8337L53.859 20.204C53.859 20.204 56.1127 18.307 56.5027 16.9593C56.5027 16.9593 66.5713 18.5766 69.4885 16.9593C69.4885 16.9593 70.7091 19.3038 72.0411 20.0107C72.4514 20.2243 72.3805 22.8993 72.345 24.7454C72.3096 24.9946 72.2792 25.2794 72.264 25.615C71.9956 30.8888 68.82 33.3248 67.8121 33.8435L67.8172 33.8385Z" fill="#B54D4D"/>
<path d="M67.8179 26.7131C68.1564 26.7131 68.4307 26.235 68.4307 25.6451C68.4307 25.0553 68.1564 24.5771 67.8179 24.5771C67.4794 24.5771 67.2051 25.0553 67.2051 25.6451C67.2051 26.235 67.4794 26.7131 67.8179 26.7131Z" fill="#441D39"/>
<path d="M58.6245 26.4944C58.963 26.4944 59.2374 26.0162 59.2374 25.4264C59.2374 24.8365 58.963 24.3584 58.6245 24.3584C58.2861 24.3584 58.0117 24.8365 58.0117 25.4264C58.0117 26.0162 58.2861 26.4944 58.6245 26.4944Z" fill="#441D39"/>
<path d="M63.623 30.446H62.6556C62.2251 30.446 61.8453 30.2781 61.6427 29.9984C61.4958 29.8001 61.4553 29.5662 61.5262 29.3373C61.744 28.6355 62.0276 26.0164 62.0276 25.991C62.0428 25.8486 62.1643 25.752 62.3062 25.7672C62.4429 25.7825 62.5442 25.9096 62.529 26.0469C62.5189 26.1588 62.2352 28.7372 62.0073 29.4899C61.9871 29.5662 61.9972 29.6323 62.0479 29.7035C62.1542 29.8459 62.3923 29.9425 62.6556 29.9425H63.623C63.7648 29.9425 63.8762 30.0544 63.8762 30.1968C63.8762 30.3392 63.7648 30.451 63.623 30.451V30.446Z" fill="#FF9988"/>
<path d="M68.3535 28.386C69.3297 28.386 70.1211 28.2038 70.1211 27.9791C70.1211 27.7544 69.3297 27.5723 68.3535 27.5723C67.3773 27.5723 66.5859 27.7544 66.5859 27.9791C66.5859 28.2038 67.3773 28.386 68.3535 28.386Z" fill="#FF9988"/>
<path d="M58.0371 28.386C59.0133 28.386 59.8047 28.2038 59.8047 27.9791C59.8047 27.7544 59.0133 27.5723 58.0371 27.5723C57.0609 27.5723 56.2695 27.7544 56.2695 27.9791C56.2695 28.2038 57.0609 28.386 58.0371 28.386Z" fill="#FF9988"/>
<path d="M69.9649 23.1627C68.2784 22.6643 66.9869 22.9796 66.2019 23.0813C65.8676 23.122 65.7967 22.71 65.7967 22.71C65.7308 22.4303 66.1056 22.2371 66.369 22.1862C67.2553 22.0235 68.3898 21.9421 70.0713 22.527C70.3954 22.6388 70.4157 22.9135 70.4157 22.9135C70.3802 23.2186 70.1878 23.2237 69.9649 23.1576V23.1627Z" fill="#B54D4D"/>
<path d="M56.3855 23.1941C58.0619 22.6652 59.3585 22.9601 60.1435 23.0466C60.4778 23.0822 60.5436 22.6702 60.5436 22.6702C60.6044 22.3905 60.2245 22.2024 59.9612 22.1566C59.0698 22.0091 57.9353 21.943 56.269 22.5584C55.9449 22.6753 55.9297 22.9499 55.9297 22.9499C55.9702 23.2551 56.1627 23.2551 56.3804 23.189L56.3855 23.1941Z" fill="#B54D4D"/>
<path d="M62.8531 34.5763C61.6579 34.5763 60.7057 34.322 60.6449 34.3068C60.5082 34.2712 60.4322 34.1288 60.4677 33.9965C60.5031 33.8643 60.6449 33.7829 60.7766 33.8185C60.8019 33.8236 63.1317 34.4441 65.0107 33.7067C65.1424 33.6558 65.2892 33.7219 65.3399 33.8491C65.3905 33.9813 65.3247 34.1288 65.1981 34.1796C64.4232 34.4848 63.5926 34.5814 62.8582 34.5814L62.8531 34.5763Z" fill="#9B3D3D"/>
<path d="M57.4944 40.8867L61.5259 43.7753L59.576 48.4643L54.3594 43.5872L57.4944 40.8867Z" fill="#FFA242"/>
<path d="M61.5252 43.7754L61.7683 45.5096L60.8516 45.3926L61.5252 43.7754Z" fill="#F49037"/>
<path d="M63.8252 43.6836L63.4707 45.5093L64.4634 45.3415L63.8252 43.6836Z" fill="#F49037"/>
<path d="M63.8262 43.6837L67.5183 40.9629L70.9775 43.7498L65.8318 48.9117L63.8262 43.6837Z" fill="#FFA242"/>
<path d="M63.4662 46.1758H61.7695V57.9795H63.4662V46.1758Z" fill="white"/>
<path d="M61.7336 45.2658L61.769 46.3033C61.769 46.3033 62.5591 46.6491 63.4657 46.3033L63.491 45.3625L61.7285 45.2607L61.7336 45.2658Z" fill="#FFB69F"/>
<path d="M63.4662 48.668H61.7695V49.1765H63.4662V48.668Z" fill="#D6D6D6"/>
<path d="M63.4662 50.9609H61.7695V51.4695H63.4662V50.9609Z" fill="#D6D6D6"/>
<path d="M63.4662 53.2549H61.7695V53.7634H63.4662V53.2549Z" fill="#D6D6D6"/>
<path d="M63.4662 55.5479H61.7695V56.0564H63.4662V55.5479Z" fill="#D6D6D6"/>
<path d="M64.9105 51.4546C65.1567 51.4546 65.3562 51.2543 65.3562 51.0071C65.3562 50.7599 65.1567 50.5596 64.9105 50.5596C64.6644 50.5596 64.4648 50.7599 64.4648 51.0071C64.4648 51.2543 64.6644 51.4546 64.9105 51.4546Z" fill="#FFA242"/>
<path d="M64.9105 56.4478C65.1567 56.4478 65.3562 56.2474 65.3562 56.0003C65.3562 55.7531 65.1567 55.5527 64.9105 55.5527C64.6644 55.5527 64.4648 55.7531 64.4648 56.0003C64.4648 56.2474 64.6644 56.4478 64.9105 56.4478Z" fill="#FFA242"/>
<path d="M41.6427 40.0617C43.3849 35.7898 40.5538 35.3524 37.6061 33.1453C34.6585 30.9381 39.4598 29.9922 40.4424 27.724C41.4249 25.4559 39.6776 23.859 37.4998 22.6537C35.3169 21.4484 32.1464 16.7595 32.1464 16.7595L32.0046 16.6934C33.6506 20.0092 33.5797 23.7979 33.5544 24.3624C34.0811 24.393 35.0637 24.6116 35.1852 25.8627C35.3473 27.5766 34.775 28.8937 33.7114 29.4633C33.7114 29.4633 33.5088 29.5549 33.0783 29.6413C31.7564 35.0524 27.8212 38.9836 23.1667 38.9836C18.5123 38.9836 14.572 35.0524 13.2552 29.6311V29.6667C12.7335 29.5752 12.5056 29.4633 12.5056 29.4633C11.442 28.8937 10.8697 27.5766 11.0318 25.8627C11.1584 24.5099 12.303 24.3625 12.7791 24.3574C12.769 24.0421 12.7436 22.7656 12.9867 21.1382C12.1815 21.5349 9.76562 22.8469 9.8112 24.3574C9.87197 26.1729 10.3886 28.6649 8.06389 29.3413C5.7392 30.0176 5.65816 34.3658 6.63565 36.573C7.61313 38.7801 8.27154 40.1685 5.20234 41.5162C2.13315 42.8639 5.54674 45.427 5.21754 50.3499C4.88833 55.2728 9.36044 53.091 18.2641 51.4484C27.1678 49.8057 33.5645 51.9976 38.3658 51.4484C43.1621 50.8991 42.6202 49.3734 40.8729 47.1053C39.1255 44.8371 39.8903 44.3336 41.6376 40.0617H41.6427Z" fill="#441D39"/>
<path d="M24.6491 13.2407L32.0081 16.6938C30.6254 13.912 28.0323 11.4607 23.1702 11.5268C15.6846 11.42 13.5727 17.2837 12.9902 21.1386C13.1523 21.0573 13.2536 21.0115 13.2536 21.0115L24.6491 13.2356V13.2407Z" fill="#C1735C"/>
<path d="M42.6243 49.3744C38.4307 47.9555 27.9519 42.5088 27.9519 42.5088H17.5339C17.5339 42.5088 7.06014 47.9555 2.86152 49.3744C-1.33203 50.7932 -1.33203 57.9843 -1.33203 57.9843H46.8229C46.8229 57.9843 46.8229 50.7932 42.6294 49.3744H42.6243Z" fill="#4598C4"/>
<path d="M27.3093 37.5352H18.1271L17.4434 43.3022L22.8423 54.9228L28.0184 42.9971L27.3093 37.5352Z" fill="#C1735C"/>
<path d="M18.1407 37.3115L17.7305 40.8613C17.7305 40.8613 24.8463 41.5173 27.3533 38.3846V37.8506C26.072 38.5778 24.6589 38.9847 23.1649 38.9847C21.3416 38.9847 19.6297 38.3744 18.1407 37.3115Z" fill="#A5503C"/>
<path d="M35.1884 25.8637C35.0719 24.6126 34.0843 24.3939 33.5576 24.3634C33.5778 23.7989 33.6538 20.0101 32.0078 16.6943L24.6488 13.2412L13.2533 21.0171C13.2533 21.0171 13.152 21.0629 12.9899 21.1442C12.7418 22.7716 12.7671 24.0481 12.7823 24.3634C12.3062 24.3634 11.1616 24.516 11.035 25.8688C10.8729 27.5826 11.4452 28.8998 12.5088 29.4694C12.5088 29.4694 12.7367 29.5813 13.2584 29.6728V29.6372C14.0586 32.9327 15.8312 35.6738 18.1458 37.3165C19.6348 38.3793 21.3467 38.9896 23.1699 38.9896C24.659 38.9896 26.0771 38.5828 27.3584 37.8555C30.0782 36.3146 32.1851 33.3243 33.0815 29.6474C33.5171 29.5609 33.7146 29.4694 33.7146 29.4694C34.7782 28.8998 35.3505 27.5826 35.1884 25.8688V25.8637Z" fill="#C1735C"/>
<path d="M16.019 22.7461C17.7562 22.624 19.2351 23.0309 19.9847 23.2597C20.2126 23.3309 20.4506 23.2394 20.5468 23.0614C20.6481 22.8529 20.5215 22.6139 20.2683 22.5325C19.4174 22.268 17.8778 21.8459 16.171 22.2477C15.9076 22.3087 15.4366 22.5071 15.548 22.7257C15.6138 22.802 15.7911 22.7664 16.019 22.7512V22.7461Z" fill="#441D39"/>
<path d="M30.4192 22.8329C28.6871 22.6396 27.1981 22.9905 26.4384 23.194C26.2105 23.255 25.9724 23.1584 25.8863 22.9702C25.7901 22.7566 25.9269 22.5176 26.1852 22.4515C27.0462 22.2175 28.601 21.8565 30.2926 22.3243C30.5509 22.3955 31.0169 22.6142 30.8953 22.8278C30.8244 22.9041 30.6522 22.8583 30.4243 22.8278L30.4192 22.8329Z" fill="#441D39"/>
<path d="M28.0796 26.7121C28.4181 26.7121 28.6925 26.234 28.6925 25.6441C28.6925 25.0543 28.4181 24.5762 28.0796 24.5762C27.7412 24.5762 27.4668 25.0543 27.4668 25.6441C27.4668 26.234 27.7412 26.7121 28.0796 26.7121Z" fill="#441D39"/>
<path d="M18.8863 26.4944C19.2247 26.4944 19.4991 26.0162 19.4991 25.4264C19.4991 24.8365 19.2247 24.3584 18.8863 24.3584C18.5478 24.3584 18.2734 24.8365 18.2734 25.4264C18.2734 26.0162 18.5478 26.4944 18.8863 26.4944Z" fill="#441D39"/>
<path d="M23.8905 30.4461H22.9232C22.4927 30.4461 22.1128 30.2783 21.9103 29.9986C21.7634 29.8002 21.7229 29.5663 21.7938 29.3374C22.0166 28.6102 22.204 27.9135 22.204 27.9084C22.2395 27.7711 22.3762 27.6948 22.513 27.7304C22.6497 27.766 22.7307 27.9084 22.6902 28.0406C22.6902 28.0406 22.5028 28.7475 22.2749 29.4849C22.2547 29.5612 22.2648 29.6273 22.3154 29.6985C22.4218 29.846 22.6598 29.9375 22.9232 29.9375H23.8905C24.0324 29.9375 24.1438 30.0494 24.1438 30.1918C24.1438 30.3342 24.0324 30.4461 23.8905 30.4461V30.4461Z" fill="#A5503C"/>
<path d="M22.9624 33.6442C21.7824 33.6442 20.8859 33.4814 20.8201 33.4662C20.6833 33.4408 20.5922 33.3085 20.6175 33.1712C20.6428 33.0339 20.7745 32.9424 20.9113 32.9678C20.9366 32.9678 23.7627 33.4916 25.9709 32.6627C26.1026 32.6118 26.2494 32.6779 26.295 32.8101C26.3457 32.9424 26.2747 33.0898 26.1481 33.1356C25.0896 33.5323 23.9298 33.6442 22.9574 33.6442H22.9624Z" fill="#A5503C"/>
<path d="M28.5859 28.386C29.5621 28.386 30.3535 28.2038 30.3535 27.9791C30.3535 27.7544 29.5621 27.5723 28.5859 27.5723C27.6097 27.5723 26.8184 27.7544 26.8184 27.9791C26.8184 28.2038 27.6097 28.386 28.5859 28.386Z" fill="#AF5D4E"/>
<path d="M18.2734 28.386C19.2496 28.386 20.041 28.2038 20.041 27.9791C20.041 27.7544 19.2496 27.5723 18.2734 27.5723C17.2972 27.5723 16.5059 27.7544 16.5059 27.9791C16.5059 28.2038 17.2972 28.386 18.2734 28.386Z" fill="#AF5D4E"/>
<path d="M12.4125 21.4746L12.4429 21.7136L11.0045 23.2139L9.90039 26.4941C9.90039 26.4941 11.1919 30.6999 13.0304 33.3088C14.8638 35.9228 14.0281 31.9764 13.2532 29.6268C12.4783 27.2773 13.9268 27.2467 14.2661 25.6448C14.4789 24.6327 14.1041 23.7021 13.8002 23.1579C13.5318 22.2273 13.7698 21.1084 15.041 20.7626C18.0191 19.9438 16.0692 14.9854 16.0692 14.9854C14.3573 16.0889 12.8683 20.5439 12.4175 21.4695L12.4125 21.4746Z" fill="#441D39"/>
<path d="M35.2144 23.2139L34.161 23.2953C33.7305 21.0627 32.7834 16.6586 31.9274 16.2009C30.7727 15.5855 29.4609 16.5874 29.4609 16.5874C29.4609 16.5874 30.1193 20.1931 31.5628 21.0068C32.4187 21.4899 32.4136 22.5782 32.4339 23.3817C31.9376 25.9805 30.6511 28.8691 33.5532 31.478C36.7186 34.3209 37.4023 26.7128 37.4023 26.7128L35.2144 23.2139V23.2139Z" fill="#441D39"/>
<path d="M33.6346 12.3415C31.9988 9.6105 25.7084 8.25773 20.4716 9.3308L20.1221 8.14585C20.0563 7.92717 19.8283 7.80003 19.6055 7.86614C19.3877 7.93226 19.2611 8.16111 19.3269 8.38487L19.6612 9.52914C15.6145 10.592 11.4007 13.618 9.55212 17.422C7.6478 21.3379 12.4491 21.4244 12.4491 21.4244C16.5363 15.2352 32.1456 16.7609 32.1456 16.7609C33.0522 16.5676 35.3161 15.1589 33.6296 12.3466L33.6346 12.3415Z" fill="#FF7C59"/>
<path d="M15.1238 46.8112C15.0275 46.8112 14.9364 46.7603 14.8959 46.6688C14.8351 46.5417 14.8908 46.3891 15.0124 46.3281L16.9217 45.4076C17.0483 45.3465 17.2003 45.4025 17.2611 45.5296C17.3218 45.6568 17.2661 45.8093 17.1446 45.8704L15.2352 46.7909C15.1997 46.8061 15.1643 46.8163 15.1238 46.8163V46.8112Z" fill="#2A5E70"/>
<path d="M15.9949 49.8367C15.8986 49.8367 15.8075 49.7858 15.767 49.6943C15.7062 49.5672 15.7619 49.4146 15.8834 49.3536L17.7928 48.4331C17.9194 48.372 18.0714 48.428 18.1322 48.55C18.1929 48.6721 18.1372 48.8298 18.0157 48.8908L16.1063 49.8113C16.0708 49.8265 16.0354 49.8367 15.9949 49.8367Z" fill="#2A5E70"/>
<path d="M17.1042 53.4129C17.008 53.4129 16.9168 53.362 16.8763 53.2705C16.8156 53.1433 16.8713 52.9908 16.9928 52.9297L18.9022 52.0092C19.0288 51.9482 19.1808 52.0042 19.2415 52.1262C19.3023 52.2534 19.2466 52.4059 19.125 52.4669L17.2157 53.3874C17.1802 53.4027 17.1448 53.4129 17.1042 53.4129Z" fill="#2A5E70"/>
<path d="M30.0243 46.8114C29.9888 46.8114 29.9483 46.8012 29.9128 46.786L28.0035 45.8655C27.8768 45.8045 27.8262 45.6519 27.887 45.5247C27.9477 45.3976 28.0997 45.3417 28.2263 45.4027L30.1357 46.3232C30.2623 46.3842 30.3129 46.5368 30.2522 46.6639C30.2066 46.7555 30.1205 46.8063 30.0243 46.8063V46.8114Z" fill="#2A5E70"/>
<path d="M29.1532 49.8366C29.1177 49.8366 29.0772 49.8264 29.0417 49.8112L27.1324 48.8907C27.0057 48.8296 26.9551 48.6771 27.0159 48.5499C27.0766 48.4228 27.2286 48.3719 27.3552 48.433L29.2646 49.3535C29.3912 49.4145 29.4418 49.5671 29.3811 49.6942C29.3355 49.7857 29.2494 49.8366 29.1532 49.8366Z" fill="#2A5E70"/>
<path d="M28.0438 53.4128C28.0083 53.4128 27.9678 53.4026 27.9324 53.3873L26.023 52.4668C25.8964 52.4058 25.8457 52.2532 25.9065 52.1261C25.9673 51.999 26.1192 51.9481 26.2458 52.0091L28.1552 52.9296C28.2818 52.9907 28.3325 53.1432 28.2717 53.2704C28.2261 53.3619 28.14 53.4128 28.0438 53.4128Z" fill="#2A5E70"/>
<path d="M43.6304 56.3057H11.4844L19.3953 84.8102H43.6304V56.3057Z" fill="#4598C4"/>
<rect x="51.668" y="57.9385" width="34.9086" height="25.8675" fill="#F49037"/>
<path d="M61.7129 57.6875H63.4709V85.8153H61.7129V57.6875Z" fill="white"/>
<mask id="mask2_1078_35198" style="mask-type:alpha" maskUnits="userSpaceOnUse" x="61" y="57" width="3" height="29">
<rect x="61.7129" y="57.6875" width="1.75799" height="28.1278" fill="#D9D9D9"/>
</mask>
<g mask="url(#mask2_1078_35198)">
<path d="M62.4648 57.9385V83.6804" stroke="#EAEAEA" stroke-width="8" stroke-dasharray="3 7"/>
</g>
<path d="M62.7924 69.8734C59.5866 68.7931 51.5759 64.6465 51.5759 64.6465H43.6117C43.6117 64.6465 35.605 68.7931 32.3953 69.8734C29.1895 70.9536 29.1895 76.4282 29.1895 76.4282H66.0021C66.0021 76.4282 66.0021 70.9536 62.7963 69.8734H62.7924Z" fill="#424777"/>
<path fill-rule="evenodd" clip-rule="evenodd" d="M43.543 65.2499L44.0657 60.8594H51.0851L51.6272 65.0176L50.8835 65.039L49.0329 66.2957L48.1424 75.0613L46.6711 66.4041L45.256 65.2007L43.543 65.2499Z" fill="#FFC3B1"/>
<path d="M43.7637 63.3914C43.7637 63.3914 49.2035 63.8909 51.12 61.5059V58.7646L44.2244 59.4267L43.7637 63.3914V63.3914Z" fill="#FEA894"/>
<path d="M43.7052 63.8799L41.084 65.928L44.6189 69.3778L46.6709 66.4043L43.7052 63.8799Z" fill="#515882"/>
<path d="M49.0312 66.2962L51.4821 63.915L53.8709 65.8045L50.7077 69.2658L49.0312 66.2962Z" fill="#515882"/>
<path d="M45.982 38.3804C45.4748 37.126 43.082 36.3594 43.082 36.3594C43.6744 40.2815 45.9278 39.4374 45.9278 39.4374C45.9742 39.3445 46.0052 39.2516 46.0323 39.1625C47.7978 40.146 49.2691 36.5375 49.2691 36.5375C46.8105 36.7156 46.1368 37.6758 45.982 38.3804V38.3804Z" fill="#FF7C59"/>
<path fill-rule="evenodd" clip-rule="evenodd" d="M47.9206 61.9597C51.4765 61.9597 54.4865 58.9719 55.4982 54.8528C55.8309 54.7872 55.9777 54.7154 55.9777 54.7154C56.7908 54.2817 57.2283 53.2789 57.1044 51.9742C57.0114 50.995 56.2163 50.8444 55.8253 50.8302C55.4404 45.6823 52.0483 41.6562 47.9206 41.6562C43.7933 41.6562 40.4013 45.6818 40.0161 50.8292C39.6774 50.8243 38.745 50.9087 38.6438 51.9742C38.5199 53.2789 38.9574 54.2817 39.7705 54.7154C39.7705 54.7154 39.9447 54.8005 40.3435 54.8702L40.3425 54.8507C41.3537 58.9708 44.3641 61.9597 47.9206 61.9597Z" fill="#FFC3B1"/>
<path d="M47.9218 41.0597C39.404 40.9396 39.9809 50.8939 39.9809 50.8939L47.9218 51.4747L55.8628 50.8939C55.8628 50.8939 56.4397 40.9396 47.9218 41.0597V41.0597Z" fill="#FFC3B1"/>
<path d="M42.4771 49.7708C43.7857 49.5347 44.9434 49.7205 45.5319 49.8328C45.71 49.8676 45.8881 49.7824 45.9423 49.6353C46.0042 49.4688 45.8881 49.2985 45.6867 49.2598C45.0169 49.132 43.8128 48.9384 42.5506 49.3798C42.357 49.4495 42.0124 49.6392 42.117 49.7902C42.1751 49.8444 42.3028 49.7979 42.4771 49.767V49.7708Z" fill="black"/>
<path d="M53.4467 49.775C52.1381 49.5389 50.9804 49.7247 50.3919 49.837C50.2138 49.8718 50.0357 49.7828 49.9815 49.6356C49.9196 49.4692 50.0357 49.2949 50.2371 49.2562C50.9069 49.1246 52.111 48.931 53.3732 49.3801C53.5668 49.4498 53.9114 49.6395 53.8068 49.7944C53.7487 49.8486 53.621 49.8021 53.4467 49.7712V49.775Z" fill="black"/>
<path d="M51.6736 52.6203C51.9323 52.6203 52.142 52.2563 52.142 51.8072C52.142 51.3582 51.9323 50.9941 51.6736 50.9941C51.4148 50.9941 51.2051 51.3582 51.2051 51.8072C51.2051 52.2563 51.4148 52.6203 51.6736 52.6203Z" fill="black"/>
<path d="M44.6462 52.4543C44.905 52.4543 45.1147 52.0902 45.1147 51.6412C45.1147 51.1921 44.905 50.8281 44.6462 50.8281C44.3875 50.8281 44.1777 51.1921 44.1777 51.6412C44.1777 52.0902 44.3875 52.4543 44.6462 52.4543Z" fill="black"/>
<path d="M48.4707 55.4619H47.7312C47.4021 55.4619 47.1117 55.3341 46.9568 55.125C46.8446 54.974 46.8136 54.7959 46.8678 54.6217C47.0382 54.0642 47.1814 53.5376 47.1814 53.5337C47.2085 53.4292 47.313 53.3711 47.4176 53.3982C47.5221 53.4253 47.5841 53.5337 47.5531 53.6344C47.5531 53.6344 47.4098 54.1726 47.2356 54.734C47.2201 54.7882 47.2279 54.8424 47.2666 54.8966C47.3479 55.0089 47.5299 55.0786 47.7312 55.0786H48.4707C48.5791 55.0786 48.6643 55.1638 48.6643 55.2722C48.6643 55.3806 48.5791 55.4658 48.4707 55.4658V55.4619Z" fill="#FEA894"/>
<path d="M46.7825 57.987C46.4224 57.987 46.1862 57.9676 46.1591 57.9638C46.0507 57.956 45.9733 57.8592 45.981 57.7547C45.9887 57.6501 46.0817 57.5688 46.1901 57.5766C46.2133 57.5766 48.397 57.7547 50.0154 56.9571C50.1122 56.9106 50.2283 56.9494 50.2748 57.0461C50.3212 57.1429 50.2825 57.2591 50.1857 57.3056C49.001 57.8902 47.58 57.9831 46.7786 57.9831L46.7825 57.987Z" fill="#FEA894"/>
<path d="M52.0602 53.8939C52.8065 53.8939 53.4115 53.7552 53.4115 53.5842C53.4115 53.4131 52.8065 53.2744 52.0602 53.2744C51.314 53.2744 50.709 53.4131 50.709 53.5842C50.709 53.7552 51.314 53.8939 52.0602 53.8939Z" fill="#AF5D4E"/>
<path d="M44.1774 53.8939C44.9237 53.8939 45.5287 53.7552 45.5287 53.5842C45.5287 53.4131 44.9237 53.2744 44.1774 53.2744C43.4311 53.2744 42.8262 53.4131 42.8262 53.5842C42.8262 53.7552 43.4311 53.8939 44.1774 53.8939Z" fill="#AF5D4E"/>
<path d="M53.1016 44.7885C53.1016 44.7885 55.4478 49.0203 55.8583 50.8942C55.8583 50.8942 57.1282 45.2531 54.1353 42.2021L53.1016 44.7846V44.7885Z" fill="#FF7C59"/>
<path d="M39.9808 50.8942L40.8248 47.6729H39.7949L39.9808 50.8942Z" fill="#FF7C59"/>
<path d="M52.8339 40.5335C52.8339 40.5335 52.8339 40.5142 52.8339 40.5064C52.8339 39.6043 52.1021 38.8764 51.2039 38.8764C51.0064 38.8764 50.8244 38.9151 50.6502 38.981C50.1701 38.4738 49.419 38.1447 48.5672 38.1447C47.7812 38.1447 47.0766 38.4273 46.5926 38.8725C46.0854 38.5667 45.4582 38.3808 44.7806 38.3808C44.4941 38.3808 44.2192 38.4157 43.956 38.4738C43.5727 38.1408 43.0771 37.9395 42.5311 37.9395C41.6716 37.9395 40.9321 38.4389 40.5798 39.1629C40.3668 38.9848 40.0958 38.8764 39.7977 38.8764C39.1163 38.8764 38.5665 39.4301 38.5665 40.1076C38.5665 40.1812 38.5742 40.2509 38.5897 40.3206C37.2462 40.3399 36.1621 41.4356 36.1621 42.783C36.1621 43.6 36.5609 44.324 37.1765 44.7731C36.9481 45.1448 36.8164 45.5823 36.8164 46.0547C36.8164 47.4175 37.9199 48.521 39.2827 48.521C40.6456 48.521 41.7491 47.4175 41.7491 46.0547C41.7491 46.0276 41.7491 46.0004 41.7452 45.9733C42.0743 46.136 42.4421 46.2289 42.8331 46.2289C44.1379 46.2289 45.2027 45.2145 45.2917 43.9368C45.737 44.3898 46.3564 44.6686 47.0417 44.6686C48.06 44.6686 48.935 44.0491 49.3106 43.1663C49.5158 44.324 50.5225 45.2029 51.7382 45.2029C53.101 45.2029 54.2045 44.0994 54.2045 42.7366C54.2045 41.7725 53.6508 40.9401 52.8416 40.5335H52.8339Z" fill="black"/>
<path d="M29.1895 76.399L65.9816 76.2734V91.0908H29.1895V76.399Z" fill="#424777"/>
</g>
<mask id="mask3_1078_35198" style="mask-type:alpha" maskUnits="userSpaceOnUse" x="-1" y="-2" width="88" height="48">
<rect x="-0.578125" y="-1.8291" width="87.397" height="47.2145" fill="#D9D9D9"/>
</mask>
<g mask="url(#mask3_1078_35198)">
<path d="M73.2548 24.6204C73.2548 24.6204 75.0477 24.4017 75.2097 26.1155C75.3718 27.8294 74.7995 29.1466 73.7359 29.7161C73.7359 29.7161 73.508 29.828 72.9863 29.9196L73.2548 24.6255V24.6204Z" fill="#FFB69F"/>
<path d="M52.9704 24.6204C52.9704 24.6204 51.1775 24.4017 51.0154 26.1155C50.8534 27.8294 51.4257 29.1466 52.4893 29.7161C52.4893 29.7161 52.7172 29.828 53.2388 29.9196L52.9704 24.6255V24.6204Z" fill="#FFB69F"/>
<path d="M38.6484 58.2372C38.6484 58.2372 38.6484 51.0462 42.842 49.6273C47.0355 48.2084 56.5115 42.7617 56.5115 42.7617H62.9234V58.2372H38.6484V58.2372Z" fill="#F49037"/>
<path d="M86.8023 58.2372C86.8023 58.2372 86.8023 51.0462 82.6088 49.6273C78.4152 48.2084 69.0405 42.7617 69.0405 42.7617H62.5273V58.2372H86.8023V58.2372Z" fill="#F49037"/>
<path d="M58.1062 37.7871L57.5137 42.7608H67.9368L67.2885 37.7871H58.1062Z" fill="#FFB69F"/>
<path d="M62.7252 45.737C65.6035 45.737 67.9368 44.7192 67.9368 43.4637C67.9368 42.2082 65.6035 41.1904 62.7252 41.1904C59.847 41.1904 57.5137 42.2082 57.5137 43.4637C57.5137 44.7192 59.847 45.737 62.7252 45.737Z" fill="#FFB69F"/>
<path d="M57.7109 41.1124C57.7109 41.1124 64.8268 41.7685 67.3338 38.6358V35.0352L58.3136 35.9048L57.7109 41.1124V41.1124Z" fill="#FF9988"/>
<path d="M63.1513 39.2314C68.8883 39.2314 73.539 33.2614 73.539 25.897C73.539 18.5325 68.8883 12.5625 63.1513 12.5625C57.4144 12.5625 52.7637 18.5325 52.7637 25.897C52.7637 33.2614 57.4144 39.2314 63.1513 39.2314Z" fill="#FFB69F"/>
<path d="M72.2226 15.2483C72.2226 15.2483 72.2327 15.2228 72.2226 15.2076C71.8782 14.3786 71.4578 10.2135 64.7015 9.58289C62.9694 9.42015 60.4928 9.71003 58.9227 10.4627C56.7702 11.49 54.3645 12.0799 52.2373 12.0748C52.1462 12.0748 52.1107 12.1969 52.1918 12.2427L53.853 13.57C53.9188 13.6056 53.9137 13.7022 53.8428 13.7327L51.7562 14.3684C51.6802 14.399 51.6802 14.5108 51.7562 14.5363C52.0955 14.6481 52.9565 15.0296 53.7365 15.2991C52.4602 17.5673 52.7539 20.8272 52.7539 24.7431C52.7539 24.7431 52.7134 28.8014 54.0758 33.4547C55.5648 38.5403 58.8315 40.722 63.4353 40.7373C68.3379 40.7576 70.8956 36.5366 71.5793 35.0363C72.6227 32.7376 73.5191 28.4657 73.5242 25.8975C73.5242 25.8975 75.4082 19.4083 72.2124 15.2483H72.2226ZM68.0594 34.0904C67.0465 34.6091 67.558 31.9087 65.5422 31.7968C64.8686 31.7561 62.5794 31.5985 60.6548 31.7612C59.1911 31.8883 58.8366 33.2106 58.7708 33.8819C58.7404 34.1718 58.6391 34.304 58.3656 34.2023C57.7578 33.9785 56.4663 33.2564 55.8586 32.5851C55.2306 31.8934 54.0961 30.027 53.9897 26.0857L54.1011 20.4559C54.1011 20.4559 56.3549 18.559 56.7449 17.2113C56.7449 17.2113 66.8135 18.8285 69.7307 17.2113C69.7307 17.2113 70.9513 19.5558 72.2833 20.2627C72.6936 20.4763 72.6227 23.1513 72.5872 24.9974C72.5518 25.2465 72.5214 25.5313 72.5062 25.867C72.2377 31.1408 69.0622 33.5768 68.0543 34.0955L68.0594 34.0904Z" fill="#B54D4D"/>
<path d="M68.0601 26.9651C68.3985 26.9651 68.6729 26.4869 68.6729 25.8971C68.6729 25.3073 68.3985 24.8291 68.0601 24.8291C67.7216 24.8291 67.4473 25.3073 67.4473 25.8971C67.4473 26.4869 67.7216 26.9651 68.0601 26.9651Z" fill="#441D39"/>
<path d="M58.8667 26.7463C59.2052 26.7463 59.4796 26.2682 59.4796 25.6783C59.4796 25.0885 59.2052 24.6104 58.8667 24.6104C58.5283 24.6104 58.2539 25.0885 58.2539 25.6783C58.2539 26.2682 58.5283 26.7463 58.8667 26.7463Z" fill="#441D39"/>
<path d="M63.8652 30.6979H62.8978C62.4673 30.6979 62.0875 30.5301 61.8849 30.2504C61.738 30.052 61.6975 29.8181 61.7684 29.5893C61.9862 28.8874 62.2698 26.2684 62.2698 26.2429C62.285 26.1005 62.4065 26.0039 62.5483 26.0192C62.6851 26.0344 62.7864 26.1616 62.7712 26.2989C62.7611 26.4108 62.4774 28.9892 62.2495 29.7418C62.2293 29.8181 62.2394 29.8842 62.29 29.9554C62.3964 30.0978 62.6344 30.1944 62.8978 30.1944H63.8652C64.007 30.1944 64.1184 30.3063 64.1184 30.4487C64.1184 30.5911 64.007 30.703 63.8652 30.703V30.6979Z" fill="#FF9988"/>
<path d="M68.5957 28.6379C69.5719 28.6379 70.3633 28.4558 70.3633 28.2311C70.3633 28.0064 69.5719 27.8242 68.5957 27.8242C67.6195 27.8242 66.8281 28.0064 66.8281 28.2311C66.8281 28.4558 67.6195 28.6379 68.5957 28.6379Z" fill="#FF9988"/>
<path d="M58.2793 28.6379C59.2555 28.6379 60.0469 28.4558 60.0469 28.2311C60.0469 28.0064 59.2555 27.8242 58.2793 27.8242C57.3031 27.8242 56.5117 28.0064 56.5117 28.2311C56.5117 28.4558 57.3031 28.6379 58.2793 28.6379Z" fill="#FF9988"/>
<path d="M70.2071 23.4146C68.5206 22.9162 67.2291 23.2315 66.4441 23.3332C66.1098 23.3739 66.0389 22.962 66.0389 22.962C65.973 22.6823 66.3478 22.489 66.6112 22.4382C67.4975 22.2754 68.632 22.1941 70.3135 22.7789C70.6376 22.8908 70.6579 23.1654 70.6579 23.1654C70.6224 23.4706 70.43 23.4756 70.2071 23.4095V23.4146Z" fill="#B54D4D"/>
<path d="M56.6277 23.446C58.3041 22.9171 59.6007 23.2121 60.3857 23.2985C60.72 23.3341 60.7858 22.9222 60.7858 22.9222C60.8466 22.6425 60.4667 22.4543 60.2034 22.4085C59.312 22.2611 58.1775 22.195 56.5112 22.8103C56.1871 22.9273 56.1719 23.2019 56.1719 23.2019C56.2124 23.507 56.4048 23.507 56.6226 23.4409L56.6277 23.446Z" fill="#B54D4D"/>
<path d="M63.0953 34.8283C61.9 34.8283 60.9479 34.574 60.8871 34.5587C60.7504 34.5231 60.6744 34.3807 60.7098 34.2485C60.7453 34.1163 60.8871 34.0349 61.0188 34.0705C61.0441 34.0756 63.3739 34.696 65.2529 33.9586C65.3845 33.9078 65.5314 33.9739 65.5821 34.101C65.6327 34.2332 65.5669 34.3807 65.4403 34.4316C64.6654 34.7367 63.8348 34.8333 63.1004 34.8333L63.0953 34.8283Z" fill="#9B3D3D"/>
<path d="M57.7366 41.1387L61.7681 44.0273L59.8182 48.7162L54.6016 43.8391L57.7366 41.1387Z" fill="#FFA242"/>
<path d="M61.7674 44.0273L62.0105 45.7615L61.0938 45.6446L61.7674 44.0273Z" fill="#F49037"/>
<path d="M64.0674 43.9355L63.7129 45.7613L64.7056 45.5935L64.0674 43.9355Z" fill="#F49037"/>
<path d="M64.0684 43.9356L67.7605 41.2148L71.2197 44.0018L66.074 49.1636L64.0684 43.9356Z" fill="#FFA242"/>
<path d="M41.8849 40.3137C43.6271 36.0418 40.796 35.6044 37.8483 33.3972C34.9007 31.1901 39.702 30.2442 40.6845 27.976C41.6671 25.7078 39.9198 24.1109 37.742 22.9056C35.5591 21.7004 32.3886 17.0114 32.3886 17.0114L32.2468 16.9453C33.8928 20.2611 33.8219 24.0499 33.7966 24.6144C34.3233 24.6449 35.3059 24.8636 35.4274 26.1147C35.5895 27.8285 35.0172 29.1457 33.9536 29.7153C33.9536 29.7153 33.751 29.8068 33.3205 29.8933C31.9986 35.3043 28.0634 39.2355 23.4089 39.2355C18.7545 39.2355 14.8142 35.3043 13.4974 29.8831V29.9187C12.9757 29.8271 12.7478 29.7153 12.7478 29.7153C11.6842 29.1457 11.1119 27.8285 11.274 26.1147C11.4006 24.7619 12.5452 24.6144 13.0213 24.6093C13.0112 24.294 12.9858 23.0175 13.2289 21.3901C12.4237 21.7868 10.0078 23.0989 10.0534 24.6093C10.1142 26.4249 10.6308 28.9168 8.30607 29.5932C5.98139 30.2696 5.90035 34.6178 6.87783 36.8249C7.85532 39.0321 8.51372 40.4205 5.44453 41.7681C2.37534 43.1158 5.78893 45.679 5.45972 50.6018C5.13052 55.5247 9.60263 53.343 18.5063 51.7003C27.41 50.0577 33.8067 52.2496 38.608 51.7003C43.4043 51.1511 42.8624 49.6254 41.115 47.3572C39.3677 45.089 40.1325 44.5856 41.8798 40.3137H41.8849Z" fill="#441D39"/>
<path d="M24.8913 13.4926L32.2503 16.9458C30.8676 14.1639 28.2745 11.7127 23.4124 11.7788C15.9268 11.672 13.8149 17.5357 13.2324 21.3906C13.3945 21.3092 13.4958 21.2634 13.4958 21.2634L24.8913 13.4875V13.4926Z" fill="#C1735C"/>
<path d="M42.8665 49.6263C38.6729 48.2074 28.1941 42.7607 28.1941 42.7607H17.7761C17.7761 42.7607 7.30232 48.2074 3.10371 49.6263C-1.08984 51.0452 -1.08984 58.2362 -1.08984 58.2362H47.0651C47.0651 58.2362 47.0651 51.0452 42.8715 49.6263H42.8665Z" fill="#4598C4"/>
<path d="M27.5515 37.7871H18.3693L17.6855 43.5542L23.0845 55.1748L28.2606 43.2491L27.5515 37.7871Z" fill="#C1735C"/>
<path d="M18.3829 37.5635L17.9727 41.1132C17.9727 41.1132 25.0885 41.7693 27.5955 38.6365V38.1025C26.3142 38.8298 24.9011 39.2366 23.4071 39.2366C21.5838 39.2366 19.8719 38.6264 18.3829 37.5635Z" fill="#A5503C"/>
<path d="M35.4306 26.1156C35.3141 24.8646 34.3265 24.6459 33.7998 24.6154C33.82 24.0509 33.896 20.2621 32.25 16.9463L24.891 13.4932L13.4955 21.2691C13.4955 21.2691 13.3942 21.3148 13.2321 21.3962C12.984 23.0236 13.0093 24.3001 13.0245 24.6154C12.5484 24.6154 11.4038 24.7679 11.2772 26.1207C11.1151 27.8346 11.6874 29.1517 12.751 29.7213C12.751 29.7213 12.9789 29.8332 13.5006 29.9247V29.8892C14.3008 33.1846 16.0734 35.9258 18.388 37.5684C19.877 38.6313 21.5888 39.2416 23.4121 39.2416C24.9011 39.2416 26.3192 38.8347 27.6006 38.1075C30.3203 36.5665 32.4272 33.5762 33.3237 29.8993C33.7593 29.8129 33.9568 29.7213 33.9568 29.7213C35.0204 29.1517 35.5927 27.8346 35.4306 26.1207V26.1156Z" fill="#C1735C"/>
<path d="M16.2612 22.998C17.9984 22.876 19.4773 23.2828 20.2269 23.5117C20.4548 23.5829 20.6928 23.4913 20.789 23.3133C20.8903 23.1048 20.7637 22.8658 20.5105 22.7844C19.6596 22.52 18.1199 22.0979 16.4131 22.4997C16.1498 22.5607 15.6788 22.759 15.7902 22.9777C15.856 23.054 16.0333 23.0184 16.2612 23.0031V22.998Z" fill="#441D39"/>
<path d="M30.6614 23.0848C28.9293 22.8916 27.4403 23.2425 26.6806 23.4459C26.4527 23.507 26.2146 23.4103 26.1285 23.2222C26.0323 23.0086 26.169 22.7695 26.4273 22.7034C27.2883 22.4695 28.8432 22.1084 30.5348 22.5763C30.7931 22.6475 31.259 22.8662 31.1375 23.0798C31.0666 23.156 30.8944 23.1103 30.6665 23.0798L30.6614 23.0848Z" fill="#441D39"/>
<path d="M28.3218 26.9641C28.6603 26.9641 28.9346 26.4859 28.9346 25.8961C28.9346 25.3063 28.6603 24.8281 28.3218 24.8281C27.9834 24.8281 27.709 25.3063 27.709 25.8961C27.709 26.4859 27.9834 26.9641 28.3218 26.9641Z" fill="#441D39"/>
<path d="M19.1285 26.7463C19.4669 26.7463 19.7413 26.2682 19.7413 25.6783C19.7413 25.0885 19.4669 24.6104 19.1285 24.6104C18.79 24.6104 18.5156 25.0885 18.5156 25.6783C18.5156 26.2682 18.79 26.7463 19.1285 26.7463Z" fill="#441D39"/>
<path d="M24.1327 30.6981H23.1654C22.7349 30.6981 22.355 30.5302 22.1524 30.2505C22.0056 30.0522 21.9651 29.8182 22.036 29.5894C22.2588 28.8622 22.4462 28.1654 22.4462 28.1603C22.4816 28.023 22.6184 27.9467 22.7551 27.9823C22.8919 28.0179 22.9729 28.1603 22.9324 28.2926C22.9324 28.2926 22.745 28.9995 22.5171 29.7369C22.4968 29.8132 22.507 29.8793 22.5576 29.9505C22.664 30.098 22.902 30.1895 23.1654 30.1895H24.1327C24.2745 30.1895 24.386 30.3014 24.386 30.4438C24.386 30.5862 24.2745 30.6981 24.1327 30.6981V30.6981Z" fill="#A5503C"/>
<path d="M23.2046 33.8961C22.0246 33.8961 21.1281 33.7334 21.0623 33.7181C20.9255 33.6927 20.8344 33.5605 20.8597 33.4232C20.885 33.2859 21.0167 33.1943 21.1534 33.2197C21.1788 33.2197 24.0049 33.7436 26.2131 32.9146C26.3447 32.8638 26.4916 32.9299 26.5372 33.0621C26.5878 33.1943 26.5169 33.3418 26.3903 33.3876C25.3318 33.7842 24.172 33.8961 23.1996 33.8961H23.2046Z" fill="#A5503C"/>
<path d="M28.8281 28.6379C29.8043 28.6379 30.5957 28.4558 30.5957 28.2311C30.5957 28.0064 29.8043 27.8242 28.8281 27.8242C27.8519 27.8242 27.0605 28.0064 27.0605 28.2311C27.0605 28.4558 27.8519 28.6379 28.8281 28.6379Z" fill="#AF5D4E"/>
<path d="M18.5156 28.6379C19.4918 28.6379 20.2832 28.4558 20.2832 28.2311C20.2832 28.0064 19.4918 27.8242 18.5156 27.8242C17.5394 27.8242 16.748 28.0064 16.748 28.2311C16.748 28.4558 17.5394 28.6379 18.5156 28.6379Z" fill="#AF5D4E"/>
<path d="M12.6547 21.7265L12.685 21.9656L11.2467 23.4658L10.1426 26.746C10.1426 26.746 11.4341 30.9518 13.2725 33.5607C15.106 36.1747 14.2703 32.2283 13.4954 29.8788C12.7205 27.5292 14.169 27.4987 14.5083 25.8967C14.721 24.8847 14.3463 23.954 14.0424 23.4099C13.7739 22.4792 14.012 21.3604 15.2832 21.0146C18.2613 20.1958 16.3114 15.2373 16.3114 15.2373C14.5995 16.3409 13.1105 20.7959 12.6597 21.7214L12.6547 21.7265Z" fill="#441D39"/>
<path d="M35.4566 23.4659L34.4031 23.5472C33.9726 21.3147 33.0256 16.9105 32.1696 16.4528C31.0149 15.8375 29.7031 16.8393 29.7031 16.8393C29.7031 16.8393 30.3615 20.445 31.805 21.2587C32.6609 21.7418 32.6558 22.8302 32.6761 23.6337C32.1798 26.2324 30.8933 29.1211 33.7954 31.73C36.9608 34.5728 37.6445 26.9648 37.6445 26.9648L35.4566 23.4659V23.4659Z" fill="#441D39"/>
<path d="M33.8768 12.5934C32.2409 9.86246 25.9506 8.50969 20.7137 9.58275L20.3643 8.3978C20.2984 8.17912 20.0705 8.05198 19.8477 8.1181C19.6299 8.18421 19.5033 8.41306 19.5691 8.63683L19.9034 9.78109C15.8567 10.844 11.6429 13.8699 9.79431 17.6739C7.88999 21.5899 12.6913 21.6763 12.6913 21.6763C16.7785 15.4871 32.3878 17.0128 32.3878 17.0128C33.2944 16.8196 35.5583 15.4109 33.8718 12.5985L33.8768 12.5934Z" fill="#FF7C59"/>
<path d="M46.2242 38.6324C45.717 37.3779 43.3242 36.6113 43.3242 36.6113C43.9166 40.5334 46.17 39.6894 46.17 39.6894C46.2164 39.5965 46.2474 39.5035 46.2745 39.4145C48.04 40.3979 49.5113 36.7894 49.5113 36.7894C47.0527 36.9675 46.379 37.9277 46.2242 38.6324V38.6324Z" fill="#FF7C59"/>
<path fill-rule="evenodd" clip-rule="evenodd" d="M48.1628 62.2117C51.7187 62.2117 54.7287 59.2238 55.7404 55.1048C56.0731 55.0391 56.2199 54.9673 56.2199 54.9673C57.033 54.5337 57.4705 53.5309 57.3466 52.2261C57.2536 51.2469 56.4585 51.0963 56.0674 51.0822C55.6826 45.9343 52.2905 41.9082 48.1628 41.9082C44.0354 41.9082 40.6435 45.9337 40.2583 51.0811C39.9196 51.0763 38.9872 51.1607 38.886 52.2261C38.7621 53.5309 39.1996 54.5337 40.0127 54.9673C40.0127 54.9673 40.1869 55.0525 40.5857 55.1222L40.5847 55.1026C41.5959 59.2228 44.6063 62.2117 48.1628 62.2117Z" fill="#FFC3B1"/>
<path d="M48.164 41.3116C39.6462 41.1916 40.2231 51.1459 40.2231 51.1459L48.164 51.7266L56.105 51.1459C56.105 51.1459 56.6819 41.1916 48.164 41.3116V41.3116Z" fill="#FFC3B1"/>
<path d="M53.3438 45.0404C53.3438 45.0404 55.69 49.2723 56.1004 51.1462C56.1004 51.1462 57.3704 45.505 54.3775 42.4541L53.3438 45.0366V45.0404Z" fill="#FF7C59"/>
<path d="M53.0761 40.7855C53.0761 40.7855 53.0761 40.7661 53.0761 40.7584C53.0761 39.8563 52.3443 39.1284 51.4461 39.1284C51.2486 39.1284 51.0666 39.1671 50.8924 39.2329C50.4123 38.7257 49.6612 38.3966 48.8094 38.3966C48.0234 38.3966 47.3188 38.6792 46.8348 39.1245C46.3276 38.8186 45.7004 38.6328 45.0228 38.6328C44.7363 38.6328 44.4614 38.6676 44.1981 38.7257C43.8148 38.3927 43.3193 38.1914 42.7733 38.1914C41.9138 38.1914 41.1743 38.6909 40.822 39.4149C40.609 39.2368 40.338 39.1284 40.0399 39.1284C39.3584 39.1284 38.8087 39.682 38.8087 40.3596C38.8087 40.4332 38.8164 40.5028 38.8319 40.5725C37.4884 40.5919 36.4043 41.6876 36.4043 43.035C36.4043 43.8519 36.8031 44.5759 37.4187 45.0251C37.1903 45.3967 37.0586 45.8343 37.0586 46.3066C37.0586 47.6695 38.1621 48.7729 39.5249 48.7729C40.8878 48.7729 41.9912 47.6695 41.9912 46.3066C41.9912 46.2795 41.9912 46.2524 41.9874 46.2253C42.3165 46.3879 42.6843 46.4808 43.0753 46.4808C44.3801 46.4808 45.4448 45.4664 45.5339 44.1888C45.9791 44.6418 46.5986 44.9205 47.2839 44.9205C48.3022 44.9205 49.1772 44.301 49.5528 43.4183C49.758 44.5759 50.7646 45.4548 51.9804 45.4548C53.3432 45.4548 54.4467 44.3514 54.4467 42.9885C54.4467 42.0244 53.893 41.192 53.0838 40.7855H53.0761Z" fill="black"/>
</g>
</g>
</svg>
