<svg width="86" height="86" viewBox="0 0 86 86" fill="none" xmlns="http://www.w3.org/2000/svg">
<path d="M76.7359 23.1384C76.7359 20.5244 75.7271 18.0174 73.9316 16.1691C72.136 14.3207 69.7007 13.2823 67.1614 13.2823H64.7678V10.8876C64.7678 9.56163 63.7775 8.42357 62.4894 8.35735C62.1658 8.3413 61.8424 8.39305 61.5387 8.50948C61.2351 8.62591 60.9576 8.80458 60.723 9.03468C60.4884 9.26477 60.3017 9.5415 60.1741 9.84808C60.0465 10.1547 59.9807 10.4847 59.9806 10.8183V13.2823H26.4701V10.8876C26.4701 9.56163 25.4798 8.42357 24.1917 8.35735C23.8681 8.3413 23.5446 8.39305 23.241 8.50948C22.9374 8.62591 22.6599 8.80458 22.4253 9.03468C22.1907 9.26477 22.004 9.5415 21.8764 9.84808C21.7488 10.1547 21.683 10.4847 21.6829 10.8183V13.2823H19.2893C16.75 13.2823 14.3147 14.3207 12.5192 16.1691C10.7236 18.0174 9.71489 20.5244 9.71489 23.1384V24.9864C9.71489 25.1497 9.77794 25.3064 9.89016 25.4219C10.0024 25.5375 10.1546 25.6024 10.3133 25.6024H76.1375C76.2962 25.6024 76.4484 25.5375 76.5606 25.4219C76.6728 25.3064 76.7359 25.1497 76.7359 24.9864V23.1384ZM9.71489 67.4906C9.71489 70.1046 10.7236 72.6115 12.5192 74.4599C14.3147 76.3083 16.75 77.3467 19.2893 77.3467H67.1614C69.7007 77.3467 72.136 76.3083 73.9316 74.4599C75.7271 72.6115 76.7359 70.1046 76.7359 67.4906V30.9924C76.7359 30.8699 76.6886 30.7524 76.6044 30.6657C76.5203 30.5791 76.4061 30.5304 76.2871 30.5304H10.1637C10.0447 30.5304 9.93051 30.5791 9.84634 30.6657C9.76217 30.7524 9.71489 30.8699 9.71489 30.9924V67.4906ZM61.1774 35.4584C61.8875 35.4584 62.5817 35.6752 63.1722 36.0813C63.7626 36.4874 64.2228 37.0647 64.4945 37.74C64.7663 38.4154 64.8374 39.1586 64.6988 39.8755C64.5603 40.5925 64.2184 41.251 63.7162 41.7679C63.2141 42.2848 62.5744 42.6368 61.8779 42.7795C61.1814 42.9221 60.4595 42.8489 59.8034 42.5691C59.1474 42.2894 58.5866 41.8157 58.1921 41.2078C57.7976 40.6 57.587 39.8855 57.587 39.1545C57.587 38.1742 57.9653 37.2341 58.6386 36.541C59.312 35.8478 60.2252 35.4584 61.1774 35.4584ZM61.1774 47.7785C61.8875 47.7785 62.5817 47.9953 63.1722 48.4014C63.7626 48.8075 64.2228 49.3848 64.4945 50.0601C64.7663 50.7355 64.8374 51.4786 64.6988 52.1956C64.5603 52.9125 64.2184 53.5711 63.7162 54.088C63.2141 54.6049 62.5744 54.9569 61.8779 55.0995C61.1814 55.2421 60.4595 55.1689 59.8034 54.8892C59.1474 54.6095 58.5866 54.1357 58.1921 53.5279C57.7976 52.9201 57.587 52.2055 57.587 51.4745C57.587 50.4943 57.9653 49.5542 58.6386 48.861C59.312 48.1679 60.2252 47.7785 61.1774 47.7785ZM49.2094 35.4584C49.9195 35.4584 50.6137 35.6752 51.2041 36.0813C51.7946 36.4874 52.2547 37.0647 52.5265 37.74C52.7982 38.4154 52.8694 39.1586 52.7308 39.8755C52.5923 40.5925 52.2503 41.251 51.7482 41.7679C51.2461 42.2848 50.6063 42.6368 49.9098 42.7795C49.2134 42.9221 48.4915 42.8489 47.8354 42.5691C47.1793 42.2894 46.6186 41.8157 46.2241 41.2078C45.8296 40.6 45.619 39.8855 45.619 39.1545C45.619 38.1742 45.9973 37.2341 46.6706 36.541C47.3439 35.8478 48.2572 35.4584 49.2094 35.4584ZM49.2094 47.7785C49.9195 47.7785 50.6137 47.9953 51.2041 48.4014C51.7946 48.8075 52.2547 49.3848 52.5265 50.0601C52.7982 50.7355 52.8694 51.4786 52.7308 52.1956C52.5923 52.9125 52.2503 53.5711 51.7482 54.088C51.2461 54.6049 50.6063 54.9569 49.9098 55.0995C49.2134 55.2421 48.4915 55.1689 47.8354 54.8892C47.1793 54.6095 46.6186 54.1357 46.2241 53.5279C45.8296 52.9201 45.619 52.2055 45.619 51.4745C45.619 50.4943 45.9973 49.5542 46.6706 48.861C47.3439 48.1679 48.2572 47.7785 49.2094 47.7785ZM49.2094 60.0986C49.9195 60.0986 50.6137 60.3153 51.2041 60.7215C51.7946 61.1276 52.2547 61.7048 52.5265 62.3802C52.7982 63.0556 52.8694 63.7987 52.7308 64.5157C52.5923 65.2326 52.2503 65.8912 51.7482 66.4081C51.2461 66.925 50.6063 67.277 49.9098 67.4196C49.2134 67.5622 48.4915 67.489 47.8354 67.2093C47.1793 66.9295 46.6186 66.4558 46.2241 65.848C45.8296 65.2402 45.619 64.5256 45.619 63.7946C45.619 62.8144 45.9973 61.8743 46.6706 61.1811C47.3439 60.488 48.2572 60.0986 49.2094 60.0986ZM37.2414 47.7785C37.9515 47.7785 38.6456 47.9953 39.2361 48.4014C39.8265 48.8075 40.2867 49.3848 40.5585 50.0601C40.8302 50.7355 40.9013 51.4786 40.7628 52.1956C40.6243 52.9125 40.2823 53.5711 39.7802 54.088C39.278 54.6049 38.6383 54.9569 37.9418 55.0995C37.2453 55.2421 36.5234 55.1689 35.8674 54.8892C35.2113 54.6095 34.6506 54.1357 34.256 53.5279C33.8615 52.9201 33.651 52.2055 33.651 51.4745C33.651 50.4943 34.0292 49.5542 34.7026 48.861C35.3759 48.1679 36.2891 47.7785 37.2414 47.7785ZM37.2414 60.0986C37.9515 60.0986 38.6456 60.3153 39.2361 60.7215C39.8265 61.1276 40.2867 61.7048 40.5585 62.3802C40.8302 63.0556 40.9013 63.7987 40.7628 64.5157C40.6243 65.2326 40.2823 65.8912 39.7802 66.4081C39.278 66.925 38.6383 67.277 37.9418 67.4196C37.2453 67.5622 36.5234 67.489 35.8674 67.2093C35.2113 66.9295 34.6506 66.4558 34.256 65.848C33.8615 65.2402 33.651 64.5256 33.651 63.7946C33.651 62.8144 34.0292 61.8743 34.7026 61.1811C35.3759 60.488 36.2891 60.0986 37.2414 60.0986ZM25.2733 47.7785C25.9834 47.7785 26.6776 47.9953 27.2681 48.4014C27.8585 48.8075 28.3187 49.3848 28.5904 50.0601C28.8622 50.7355 28.9333 51.4786 28.7948 52.1956C28.6562 52.9125 28.3143 53.5711 27.8121 54.088C27.31 54.6049 26.6703 54.9569 25.9738 55.0995C25.2773 55.2421 24.5554 55.1689 23.8993 54.8892C23.2433 54.6095 22.6825 54.1357 22.288 53.5279C21.8935 52.9201 21.6829 52.2055 21.6829 51.4745C21.6829 50.4943 22.0612 49.5542 22.7345 48.861C23.4079 48.1679 24.3211 47.7785 25.2733 47.7785ZM25.2733 60.0986C25.9834 60.0986 26.6776 60.3153 27.2681 60.7215C27.8585 61.1276 28.3187 61.7048 28.5904 62.3802C28.8622 63.0556 28.9333 63.7987 28.7948 64.5157C28.6562 65.2326 28.3143 65.8912 27.8121 66.4081C27.31 66.925 26.6703 67.277 25.9738 67.4196C25.2773 67.5622 24.5554 67.489 23.8993 67.2093C23.2433 66.9295 22.6825 66.4558 22.288 65.848C21.8935 65.2402 21.6829 64.5256 21.6829 63.7946C21.6829 62.8144 22.0612 61.8743 22.7345 61.1811C23.4079 60.488 24.3211 60.0986 25.2733 60.0986Z" fill="#060C15"/>
</svg>
