<svg width="25" height="28" viewBox="0 0 25 28" fill="none" xmlns="http://www.w3.org/2000/svg">
<path fill-rule="evenodd" clip-rule="evenodd" d="M17.7045 0.585938C18.2282 0.585938 18.6532 1.01095 18.6532 1.53463L18.6538 2.60704C20.5007 2.73367 22.0346 3.36629 23.1203 4.45419C24.3055 5.64448 24.9291 7.35592 24.9228 9.40888V20.9488C24.9228 25.1635 22.2462 27.7819 17.9392 27.7819H7.24046C2.93341 27.7819 0.256836 25.1268 0.256836 20.8526V9.40635C0.256836 5.43095 2.64381 2.87916 6.53677 2.60747L6.53755 1.53463C6.53755 1.01095 6.96256 0.585938 7.48624 0.585938C8.00991 0.585938 8.43493 1.01095 8.43493 1.53463L8.43455 2.58325H16.7552L16.7558 1.53463C16.7558 1.01095 17.1808 0.585938 17.7045 0.585938ZM23.0254 11.8488H2.15422V20.8526C2.15422 24.0984 3.96052 25.8845 7.24046 25.8845H17.9392C21.2191 25.8845 23.0255 24.1313 23.0255 20.9488L23.0254 11.8488ZM18.2202 19.808C18.7439 19.808 19.1689 20.2331 19.1689 20.7567C19.1689 21.2804 18.7439 21.7054 18.2202 21.7054C17.6965 21.7054 17.2665 21.2804 17.2665 20.7567C17.2665 20.2331 17.6852 19.808 18.2088 19.808H18.2202ZM12.6071 19.808C13.1308 19.808 13.5558 20.2331 13.5558 20.7567C13.5558 21.2804 13.1308 21.7054 12.6071 21.7054C12.0835 21.7054 11.6534 21.2804 11.6534 20.7567C11.6534 20.2331 12.0721 19.808 12.5958 19.808H12.6071ZM6.98229 19.808C7.50597 19.808 7.93098 20.2331 7.93098 20.7567C7.93098 21.2804 7.50597 21.7054 6.98229 21.7054C6.45861 21.7054 6.02728 21.2804 6.02728 20.7567C6.02728 20.2331 6.44723 19.808 6.97091 19.808H6.98229ZM18.2202 14.8917C18.7439 14.8917 19.1689 15.3167 19.1689 15.8404C19.1689 16.364 18.7439 16.7891 18.2202 16.7891C17.6965 16.7891 17.2665 16.364 17.2665 15.8404C17.2665 15.3167 17.6852 14.8917 18.2088 14.8917H18.2202ZM12.6071 14.8917C13.1308 14.8917 13.5558 15.3167 13.5558 15.8404C13.5558 16.364 13.1308 16.7891 12.6071 16.7891C12.0835 16.7891 11.6534 16.364 11.6534 15.8404C11.6534 15.3167 12.0721 14.8917 12.5958 14.8917H12.6071ZM6.98229 14.8917C7.50597 14.8917 7.93098 15.3167 7.93098 15.8404C7.93098 16.364 7.50597 16.7891 6.98229 16.7891C6.45861 16.7891 6.02728 16.364 6.02728 15.8404C6.02728 15.3167 6.44723 14.8917 6.97091 14.8917H6.98229ZM16.7552 4.48063H8.43455L8.43493 5.69748C8.43493 6.22116 8.00991 6.64617 7.48624 6.64617C6.96256 6.64617 6.53755 6.22116 6.53755 5.69748L6.53687 4.50934C3.70316 4.74739 2.15422 6.46511 2.15422 9.40635V9.95141H23.0254L23.0255 9.40635C23.0305 7.84418 22.6105 6.62985 21.7769 5.79501C21.0452 5.06111 19.9755 4.62281 18.6543 4.50995L18.6532 5.69748C18.6532 6.22116 18.2282 6.64617 17.7045 6.64617C17.1808 6.64617 16.7558 6.22116 16.7558 5.69748L16.7552 4.48063Z" fill="#6A6D73"/>
</svg>
