<svg width="15" height="17" viewBox="0 0 15 17" fill="none" xmlns="http://www.w3.org/2000/svg">
<path d="M13.1126 5.85771C13.2721 5.85771 13.4168 5.92731 13.5312 6.0449C13.6378 6.1705 13.6914 6.3265 13.6759 6.4913C13.6759 6.5457 13.2495 11.9376 13.006 14.2072C12.8535 15.6 11.9556 16.4456 10.6088 16.4688C9.57327 16.492 8.56103 16.5 7.56436 16.5C6.50622 16.5 5.47143 16.492 4.46698 16.4688C3.16531 16.4376 2.26667 15.5768 2.12196 14.2072C1.87143 11.9296 1.45284 6.5457 1.44506 6.4913C1.43728 6.3265 1.49019 6.1705 1.59756 6.0449C1.70337 5.92731 1.85587 5.85771 2.01615 5.85771H13.1126ZM9.21311 0.5C9.92035 0.5 10.5521 0.993595 10.735 1.69759L10.8657 2.28158C10.9715 2.75758 11.3838 3.09437 11.8585 3.09437H14.191C14.5022 3.09437 14.7613 3.35277 14.7613 3.68157V3.98557C14.7613 4.30636 14.5022 4.57276 14.191 4.57276H0.932411C0.620416 4.57276 0.361328 4.30636 0.361328 3.98557V3.68157C0.361328 3.35277 0.620416 3.09437 0.932411 3.09437H3.26498C3.73881 3.09437 4.15117 2.75758 4.25776 2.28238L4.37991 1.73679C4.56976 0.993595 5.19452 0.5 5.90954 0.5H9.21311Z" fill="#FF4851"/>
</svg>
