<svg width="24" height="23" viewBox="0 0 24 23" fill="none" xmlns="http://www.w3.org/2000/svg">
<path d="M22.6213 7.92207L20.5602 5.861C20.3939 5.69696 20.1722 5.60117 19.9388 5.59252C19.7053 5.58388 19.4771 5.663 19.2992 5.8143C19.0244 6.04817 18.6718 6.17028 18.3113 6.15644C17.9507 6.1426 17.6086 5.99381 17.3525 5.73957C17.0984 5.48358 16.9497 5.14149 16.9359 4.78105C16.9221 4.42062 17.0441 4.06813 17.2778 3.7934C17.4291 3.61544 17.5082 3.38724 17.4996 3.15382C17.4909 2.92039 17.3952 2.69868 17.2311 2.53239L15.1682 0.468992C14.9938 0.294991 14.7576 0.197266 14.5113 0.197266C14.265 0.197266 14.0287 0.294991 13.8544 0.468992L10.5687 3.75417C10.3659 3.95775 10.2129 4.20553 10.1218 4.47809C10.104 4.53049 10.0745 4.5781 10.0353 4.61723C9.99621 4.65635 9.9486 4.68593 9.8962 4.70367C9.62352 4.7948 9.37572 4.94796 9.17228 5.1511L0.746824 13.5766C0.572823 13.7509 0.475098 13.9871 0.475098 14.2335C0.475098 14.4798 0.572823 14.716 0.746824 14.8903L2.81022 16.9514C2.97651 17.1155 3.19822 17.2112 3.43165 17.2199C3.66508 17.2285 3.89327 17.1494 4.07124 16.9981C4.34534 16.7624 4.69841 16.6389 5.05969 16.6525C5.42098 16.666 5.7638 16.8156 6.01945 17.0713C6.2751 17.3269 6.42469 17.6697 6.43826 18.031C6.45182 18.3923 6.32836 18.7454 6.0926 19.0195C5.9413 19.1974 5.86218 19.4256 5.87082 19.6591C5.87947 19.8925 5.97526 20.1142 6.1393 20.2805L8.20037 22.3416C8.3747 22.5156 8.61095 22.6133 8.85726 22.6133C9.10357 22.6133 9.33982 22.5156 9.51416 22.3416L17.9396 13.9161C18.1426 13.7128 18.2958 13.4651 18.387 13.1926C18.4047 13.1401 18.4343 13.0923 18.4735 13.0531C18.5127 13.0139 18.5605 12.9843 18.6131 12.9666C18.8855 12.8755 19.1331 12.7225 19.3365 12.5196L22.6217 9.23399C22.7951 9.05967 22.8924 8.82379 22.8923 8.57793C22.8922 8.33208 22.7947 8.09626 22.6213 7.92207ZM11.9554 6.53728C11.886 6.60669 11.8036 6.66175 11.7129 6.69931C11.6223 6.73688 11.5251 6.75621 11.4269 6.75621C11.3288 6.75621 11.2316 6.73688 11.1409 6.69931C11.0503 6.66175 10.9679 6.60669 10.8985 6.53728L10.3609 5.99972C10.2242 5.85887 10.1484 5.66988 10.1498 5.47359C10.1513 5.2773 10.23 5.08947 10.3688 4.9507C10.5076 4.81193 10.6955 4.73336 10.8918 4.73196C11.0881 4.73057 11.277 4.80648 11.4178 4.94327L11.9554 5.48036C12.0248 5.54976 12.0799 5.63214 12.1174 5.72282C12.155 5.81349 12.1743 5.91068 12.1743 6.00882C12.1743 6.10697 12.155 6.20416 12.1174 6.29483C12.0799 6.3855 12.0248 6.46789 11.9554 6.53728ZM14.0104 8.59227C13.8703 8.73231 13.6803 8.81097 13.4822 8.81097C13.2841 8.81097 13.0941 8.73231 12.9539 8.59227L12.4402 8.07853C12.3708 8.00913 12.3157 7.92674 12.2782 7.83607C12.2406 7.74539 12.2213 7.64821 12.2213 7.55007C12.2213 7.45192 12.2406 7.35474 12.2782 7.26407C12.3157 7.17339 12.3708 7.091 12.4402 7.02161C12.5803 6.88145 12.7704 6.80271 12.9686 6.80271C13.0668 6.80271 13.164 6.82204 13.2546 6.8596C13.3453 6.89716 13.4277 6.95221 13.4971 7.02161L14.0108 7.53535C14.0805 7.60474 14.1358 7.68719 14.1735 7.77798C14.2112 7.86876 14.2307 7.9661 14.2307 8.06442C14.2308 8.16273 14.2114 8.26009 14.1738 8.35091C14.1361 8.44173 14.0809 8.52422 14.0113 8.59367L14.0104 8.59227ZM16.0654 10.6473C15.996 10.7167 15.9136 10.7717 15.8229 10.8093C15.7322 10.8469 15.6351 10.8662 15.5369 10.8662C15.4388 10.8662 15.3416 10.8469 15.2509 10.8093C15.1602 10.7717 15.0778 10.7167 15.0085 10.6473L14.4947 10.1335C14.358 9.99267 14.2822 9.80368 14.2836 9.60739C14.2851 9.4111 14.3638 9.22327 14.5026 9.0845C14.6414 8.94573 14.8293 8.86715 15.0256 8.86576C15.2219 8.86437 15.4108 8.94027 15.5516 9.07706L16.0654 9.59081C16.1352 9.66008 16.1907 9.74247 16.2286 9.83323C16.2666 9.92399 16.2862 10.0213 16.2864 10.1197C16.2866 10.2181 16.2674 10.3155 16.2299 10.4065C16.1924 10.4974 16.1372 10.58 16.0677 10.6496L16.0654 10.6473ZM18.1404 12.7275C18.0711 12.7969 17.9887 12.8519 17.898 12.8895C17.8073 12.9271 17.7101 12.9464 17.612 12.9464C17.5138 12.9464 17.4167 12.9271 17.326 12.8895C17.2353 12.8519 17.1529 12.7969 17.0835 12.7275L16.5492 12.1904C16.4784 12.1212 16.422 12.0386 16.3833 11.9474C16.3446 11.8562 16.3245 11.7583 16.324 11.6593C16.3235 11.5602 16.3427 11.4621 16.3805 11.3705C16.4183 11.279 16.4739 11.1959 16.5441 11.126C16.6143 11.0561 16.6977 11.0009 16.7895 10.9636C16.8812 10.9262 16.9794 10.9075 17.0785 10.9084C17.1775 10.9094 17.2754 10.93 17.3663 10.9691C17.4573 11.0082 17.5396 11.0651 17.6085 11.1363L18.1432 11.6729C18.2126 11.7423 18.2676 11.8247 18.3052 11.9154C18.3427 12.0061 18.362 12.1033 18.3619 12.2014C18.3619 12.2996 18.3425 12.3968 18.3049 12.4874C18.2673 12.5781 18.2122 12.6604 18.1428 12.7298L18.1404 12.7275Z" fill="black"/>
<circle cx="17.2932" cy="15.7468" r="5.85227" fill="#84FF50" stroke="black"/>
<path d="M17.314 13.1016L17.3161 18.6803M17.3161 18.6803L15.0659 16.7767M17.3161 18.6803L19.4268 16.8806" stroke="black" stroke-linecap="round" stroke-linejoin="round"/>
</svg>
