<svg width="86" height="86" viewBox="0 0 86 86" fill="none" xmlns="http://www.w3.org/2000/svg">
<path d="M42.5669 8.50977C23.6019 8.50977 8.2261 23.8855 8.2261 42.8506C8.2261 61.8156 23.6019 77.1914 42.5669 77.1914C61.532 77.1914 76.9077 61.8156 76.9077 42.8506C76.9077 23.8855 61.532 8.50977 42.5669 8.50977ZM58.4165 48.1338H42.5669C41.8663 48.1338 41.1944 47.8555 40.699 47.3601C40.2036 46.8647 39.9253 46.1928 39.9253 45.4922V21.7178C39.9253 21.0172 40.2036 20.3453 40.699 19.8499C41.1944 19.3545 41.8663 19.0762 42.5669 19.0762C43.2675 19.0762 43.9394 19.3545 44.4348 19.8499C44.9302 20.3453 45.2085 21.0172 45.2085 21.7178V42.8506H58.4165C59.1171 42.8506 59.789 43.1289 60.2844 43.6243C60.7798 44.1197 61.0581 44.7916 61.0581 45.4922C61.0581 46.1928 60.7798 46.8647 60.2844 47.3601C59.789 47.8555 59.1171 48.1338 58.4165 48.1338Z" fill="#060C15"/>
</svg>
