<svg width="17" height="17" viewBox="0 0 17 17" fill="none" xmlns="http://www.w3.org/2000/svg">
<path d="M15.5779 14.8283C16.0827 14.8283 16.4932 15.2442 16.4932 15.7555C16.4932 16.2677 16.0827 16.6826 15.5779 16.6826H10.4047C9.89998 16.6826 9.48947 16.2677 9.48947 15.7555C9.48947 15.2442 9.89998 14.8283 10.4047 14.8283H15.5779ZM11.9903 1.00834L13.3266 2.06989C13.8746 2.49841 14.24 3.06327 14.3649 3.65735C14.5092 4.31084 14.3553 4.95264 13.9227 5.50777L5.96243 15.8019C5.5971 16.2694 5.05872 16.5323 4.48189 16.5421L1.30932 16.581C1.13627 16.581 0.992061 16.4642 0.953605 16.2986L0.232566 13.1724C0.107586 12.5978 0.232566 12.0037 0.597893 11.546L6.24123 4.24169C6.33737 4.12483 6.51042 4.10632 6.62578 4.193L9.00041 6.08237C9.15423 6.20898 9.36573 6.27715 9.58685 6.24793C10.0579 6.1895 10.3752 5.76098 10.3271 5.30325C10.2983 5.06951 10.1829 4.87473 10.0291 4.72864C9.98102 4.68969 7.72176 2.87823 7.72176 2.87823C7.57756 2.76136 7.54872 2.5471 7.66408 2.40199L8.55817 1.24207C9.38496 0.18052 10.827 0.0831293 11.9903 1.00834Z" fill="#F9AA34"/>
</svg>
