<svg width="19" height="18" viewBox="0 0 19 18" fill="none" xmlns="http://www.w3.org/2000/svg">
<path d="M9.62543 0C14.5472 0 18.537 3.9898 18.537 8.91156C18.537 13.8324 14.5472 17.8222 9.62543 17.8222C4.70367 17.8222 0.713867 13.8324 0.713867 8.91156C0.713867 3.9898 4.70367 0 9.62543 0ZM9.62543 1.33647C8.6238 1.3256 7.62996 1.5135 6.70143 1.88929C5.77291 2.26508 4.92813 2.8213 4.216 3.52575C3.50387 4.2302 2.93852 5.06889 2.55269 5.99329C2.16685 6.91768 1.96818 7.90943 1.96818 8.91111C1.96818 9.9128 2.16685 10.9045 2.55269 11.8289C2.93852 12.7533 3.50387 13.592 4.216 14.2965C4.92813 15.0009 5.77291 15.5571 6.70143 15.9329C7.62996 16.3087 8.6238 16.4966 9.62543 16.4858C11.6141 16.4553 13.511 15.6438 14.9066 14.2267C16.3021 12.8096 17.0843 10.9005 17.0843 8.91156C17.0843 6.92264 16.3021 5.01351 14.9066 3.59639C13.511 2.17927 11.6141 1.36786 9.62543 1.33736V1.33647ZM6.47315 11.3912C6.84802 11.8687 7.32666 12.2547 7.87281 12.5199C8.41896 12.7851 9.0183 12.9226 9.62543 12.9219C10.2318 12.9225 10.8304 12.7854 11.376 12.5209C11.9217 12.2563 12.4 11.8712 12.775 11.3947C12.8849 11.2557 13.0455 11.1659 13.2216 11.1453C13.3976 11.1247 13.5746 11.1748 13.7137 11.2847C13.8527 11.3946 13.9425 11.5552 13.9631 11.7312C13.9837 11.9072 13.9336 12.0843 13.8237 12.2233C13.3236 12.8582 12.6859 13.3713 11.9587 13.7238C11.2314 14.0763 10.4336 14.2591 9.62543 14.2583C8.8162 14.259 8.01742 14.0756 7.28947 13.7222C6.56153 13.3687 5.92348 12.8543 5.42358 12.218C5.31861 12.0784 5.27246 11.9033 5.29499 11.7301C5.31752 11.557 5.40694 11.3995 5.54412 11.2914C5.6813 11.1834 5.85533 11.1333 6.02896 11.1519C6.20259 11.1706 6.36203 11.2564 6.47315 11.3912ZM6.95249 6.01499C7.10134 6.01078 7.24952 6.03646 7.38827 6.09051C7.52702 6.14457 7.65352 6.22589 7.7603 6.32969C7.86707 6.43348 7.95194 6.55763 8.0099 6.6948C8.06785 6.83197 8.09771 6.97936 8.09771 7.12827C8.09771 7.27717 8.06785 7.42457 8.0099 7.56174C7.95194 7.6989 7.86707 7.82305 7.7603 7.92685C7.65352 8.03064 7.52702 8.11197 7.38827 8.16602C7.24952 8.22008 7.10134 8.24576 6.95249 8.24154C6.66269 8.23335 6.3875 8.11246 6.18541 7.90457C5.98333 7.69669 5.87027 7.41819 5.87027 7.12827C5.87027 6.83834 5.98333 6.55985 6.18541 6.35196C6.3875 6.14408 6.66269 6.02319 6.95249 6.01499ZM12.2984 6.01499C12.4472 6.01078 12.5954 6.03646 12.7341 6.09051C12.8729 6.14457 12.9994 6.22589 13.1062 6.32969C13.2129 6.43348 13.2978 6.55763 13.3558 6.6948C13.4137 6.83197 13.4436 6.97936 13.4436 7.12827C13.4436 7.27717 13.4137 7.42457 13.3558 7.56174C13.2978 7.6989 13.2129 7.82305 13.1062 7.92685C12.9994 8.03064 12.8729 8.11197 12.7341 8.16602C12.5954 8.22008 12.4472 8.24576 12.2984 8.24154C12.0086 8.23335 11.7334 8.11246 11.5313 7.90457C11.3292 7.69669 11.2161 7.41819 11.2161 7.12827C11.2161 6.83834 11.3292 6.55985 11.5313 6.35196C11.7334 6.14408 12.0086 6.02319 12.2984 6.01499Z" fill="#060C15" fill-opacity="0.4"/>
</svg>
