<svg width="12" height="19" viewBox="0 0 12 19" fill="none" xmlns="http://www.w3.org/2000/svg">
<path d="M8.72228 4.32006H10.6592C10.873 4.32006 11.0466 4.14274 11.0466 3.92425V1.25771C11.0466 1.05031 10.8905 0.877741 10.6883 0.863097C10.0719 0.818371 8.86794 0.757812 8.00214 0.757812C5.62321 0.757812 4.07368 2.21437 4.07368 4.86152V7.4865H1.36199C1.14816 7.4865 0.974609 7.66382 0.974609 7.8823V10.6529C0.974609 10.8714 1.14816 11.0487 1.36199 11.0487H4.07368V18.569C4.07368 18.7875 4.24723 18.9648 4.46106 18.9648H7.17275C7.38658 18.9648 7.56013 18.7875 7.56013 18.569V11.0487H10.3578C10.5554 11.0487 10.7212 10.8972 10.7429 10.6965L11.0443 7.92584C11.0698 7.69153 10.8901 7.4865 10.6592 7.4865H7.56013V5.50747C7.56013 4.85162 8.08039 4.32006 8.72228 4.32006Z" fill="#060C15"/>
</svg>
