<svg width="89" height="86" viewBox="0 0 89 86" fill="none" xmlns="http://www.w3.org/2000/svg">
<mask id="mask0_1078_35199" style="mask-type:alpha" maskUnits="userSpaceOnUse" x="0" y="0" width="89" height="86">
<rect x="0.208984" y="0.046875" width="88" height="85.3584" fill="#D1CCCC"/>
</mask>
<g mask="url(#mask0_1078_35199)">
<circle cx="44.7004" cy="44.8567" r="34.9778" fill="#4598C4" fill-opacity="0.12"/>
<mask id="mask1_1078_35199" style="mask-type:alpha" maskUnits="userSpaceOnUse" x="9" y="9" width="71" height="71">
<circle cx="44.7043" cy="44.8586" r="34.9778" fill="#D9D9D9"/>
</mask>
<g mask="url(#mask1_1078_35199)">
<path d="M59.6647 10.1436C59.6647 10.1436 53.0314 11.5779 53.515 20.2886C53.9986 28.9994 52.4434 31.4559 52.4434 31.4559L54.147 30.9833L59.6592 34.7589L74.5197 31.7857L76.8498 32.4781L77.5698 30.8514C77.5698 30.8514 78.3886 31.7307 79.202 31.7802C79.202 31.7802 78.4436 27.8672 78.5865 26.1196C78.8887 22.4595 77.1301 17.1341 77.1301 17.1341L59.6537 10.1436H59.6647Z" fill="#441D39"/>
<path d="M86.8914 51.0319C83.1433 49.7734 74.7844 45.5636 71.9431 44.1128C71.7232 44.0029 71.5419 43.9039 71.3935 43.8325C71.1297 43.6951 70.9758 43.6182 70.9758 43.6182H59.6711C59.6711 43.6182 59.5227 43.6951 59.2535 43.8325C59.1051 43.9094 58.9182 44.0029 58.7039 44.1128C58.2862 44.3271 57.7531 44.5964 57.1321 44.9097C53.5104 46.7342 46.954 49.9602 43.7555 51.0319C39.2051 52.5652 39.2051 60.3361 39.2051 60.3361H91.4419C91.4419 60.3361 91.4419 52.5652 86.8914 51.0319V51.0319Z" fill="#FDEBD9"/>
<path d="M70.2653 38.2373H60.3071L59.6641 43.6121C59.6641 44.6673 62.1976 45.5246 65.3192 45.5246C68.4407 45.5246 70.9742 44.6673 70.9742 43.6121L70.2708 38.2373H70.2653Z" fill="#C1735C"/>
<path d="M55.9599 19.5959C55.9599 19.5959 56.3226 16.6392 58.8287 16.0896C58.8287 16.0896 76.4534 16.0896 72.9197 16.0896C72.9197 16.0896 75.2114 16.0896 75.6895 19.3871C75.761 19.8817 76.4919 24.9542 76.4479 26.9492C76.4205 28.2297 76.9206 27.5537 76.9206 27.5537C76.9206 27.5537 77.4592 25.5093 77.5471 22.8274C77.712 17.7164 77.047 8.92871 66.2699 8.92871C55.4928 8.92871 54.498 15.3972 54.498 23.7397L54.8937 27.845C54.9102 28.0098 55.0476 28.1307 55.2125 28.1307C55.5257 28.1307 55.9544 19.5959 55.9544 19.5959H55.9599Z" fill="#C1735C"/>
<path d="M75.3167 18.5299C75.5261 18.5299 75.6959 18.3601 75.6959 18.1507C75.6959 17.9413 75.5261 17.7715 75.3167 17.7715C75.1073 17.7715 74.9375 17.9413 74.9375 18.1507C74.9375 18.3601 75.1073 18.5299 75.3167 18.5299Z" fill="#FF9988"/>
<path d="M59.8789 41.8311C59.8789 41.8311 67.6004 42.54 70.3208 39.1546V35.2637L60.5329 36.2034L59.8789 41.8311V41.8311Z" fill="#A5503C"/>
<path fill-rule="evenodd" clip-rule="evenodd" d="M66.1331 39.798C71.3592 39.798 75.7546 35.2581 77.0309 29.0994C77.2685 29.035 77.3769 28.982 77.3769 28.982C78.531 28.3674 79.152 26.9462 78.9762 25.097C78.8548 23.8208 77.8907 23.5377 77.3048 23.4848C76.5676 16.4491 71.8468 11.0225 66.1331 11.0225C60.3015 11.0225 55.5043 16.6752 54.9209 23.9222C54.6442 23.9173 52.9982 23.9595 52.9378 25.663C52.8719 27.5232 53.5808 28.9006 54.7679 29.4438C54.7679 29.4438 54.9462 29.5173 55.342 29.5799C56.7424 35.4928 61.0439 39.798 66.1331 39.798Z" fill="#C1735C"/>
<path d="M71.1005 26.5426C71.4678 26.5426 71.7655 26.0259 71.7655 25.3885C71.7655 24.7511 71.4678 24.2344 71.1005 24.2344C70.7333 24.2344 70.4355 24.7511 70.4355 25.3885C70.4355 26.0259 70.7333 26.5426 71.1005 26.5426Z" fill="#441D39"/>
<path d="M61.1259 26.3062C61.4932 26.3062 61.7909 25.7895 61.7909 25.1521C61.7909 24.5148 61.4932 23.998 61.1259 23.998C60.7587 23.998 60.4609 24.5148 60.4609 25.1521C60.4609 25.7895 60.7587 26.3062 61.1259 26.3062Z" fill="#441D39"/>
<path d="M66.5563 30.5764H65.5066C65.0394 30.5764 64.6273 30.3951 64.4074 30.0983C64.2481 29.884 64.2041 29.6312 64.281 29.3839C64.5174 28.6145 64.8416 26.5261 64.8471 26.5041C64.8691 26.3557 65.012 26.2568 65.1604 26.2733C65.3087 26.2953 65.4132 26.4381 65.3912 26.5865C65.3802 26.6745 65.0559 28.7409 64.8086 29.5432C64.7866 29.6202 64.7976 29.6971 64.8526 29.774C64.968 29.9334 65.2263 30.0323 65.5121 30.0323H66.5618C66.7156 30.0323 66.8365 30.1533 66.8365 30.3071C66.8365 30.461 66.7156 30.5819 66.5618 30.5819L66.5563 30.5764Z" fill="#A5503C"/>
<path d="M71.6895 28.351C72.7488 28.351 73.6075 28.1542 73.6075 27.9113C73.6075 27.6685 72.7488 27.4717 71.6895 27.4717C70.6302 27.4717 69.7715 27.6685 69.7715 27.9113C69.7715 28.1542 70.6302 28.351 71.6895 28.351Z" fill="#AF5D4E"/>
<path d="M60.4942 28.351C61.5535 28.351 62.4122 28.1542 62.4122 27.9113C62.4122 27.6685 61.5535 27.4717 60.4942 27.4717C59.4349 27.4717 58.5762 27.6685 58.5762 27.9113C58.5762 28.1542 59.4349 28.351 60.4942 28.351Z" fill="#AF5D4E"/>
<path d="M73.4658 22.5809C71.6082 22.1577 70.2288 22.5809 69.388 22.7458C69.0307 22.8172 68.9208 22.3721 68.9208 22.3721C68.8329 22.0753 69.2231 21.839 69.5089 21.773C70.4596 21.5367 71.6797 21.3718 73.5372 21.8939C73.8945 21.9928 73.9329 22.2896 73.9329 22.2896C73.9109 22.6194 73.7076 22.6413 73.4658 22.5809V22.5809Z" fill="#441D39"/>
<path d="M58.6475 22.5029C60.5216 22.1511 61.8845 22.6348 62.7199 22.8271C63.0771 22.9095 63.198 22.4754 63.198 22.4754C63.2969 22.1841 62.9177 21.9313 62.6374 21.8489C61.6977 21.5796 60.4831 21.3652 58.6036 21.8104C58.2409 21.8983 58.1914 22.1896 58.1914 22.1896C58.1969 22.5193 58.4002 22.5468 58.6475 22.5029V22.5029Z" fill="#441D39"/>
<path d="M65.7206 34.7533C64.4181 34.7533 63.3904 34.4785 63.319 34.462C63.1706 34.4235 63.0881 34.2697 63.1266 34.1268C63.1651 33.9784 63.319 33.896 63.4618 33.9344C63.4893 33.9399 66.0173 34.6104 68.0563 33.8135C68.1991 33.7586 68.3585 33.83 68.4135 33.9674C68.4684 34.1103 68.397 34.2697 68.2596 34.3246C67.4188 34.6544 66.5175 34.7588 65.7206 34.7588V34.7533Z" fill="#A5503C"/>
<path d="M73.8888 9.86357C66.3487 3.90072 59.6659 10.1439 59.6659 10.1439C53.0546 11.3529 53.9943 21.1133 54.1537 22.1575C54.3131 23.1962 54.5164 23.9161 54.5164 23.9161C54.6593 23.9216 54.7912 23.9161 54.9176 23.8886L55.4782 27.9115C55.5167 28.0544 55.731 28.0654 55.7805 27.9115C55.8299 27.8566 55.9838 25.5044 56.1322 23.0478C57.3852 21.1957 57.3302 16.8596 59.6659 14.9196C60.809 13.9689 62.4138 14.7163 62.4138 14.7163C62.4138 14.7163 63.6119 12.6004 66.4641 13.8315C69.0306 14.9361 72.1852 21.8992 75.664 23.5534C75.8013 25.8176 75.9387 27.862 75.9827 27.917C76.0322 28.0709 76.2465 28.0599 76.285 27.917L76.8455 23.8996L78.4393 23.0698C78.4393 23.0698 79.1592 13.1555 73.8778 9.86907L73.8888 9.86357Z" fill="#441D39"/>
<path d="M86.8901 51.0318C84.9117 50.3669 81.6472 48.8775 78.5861 47.4102L70.0458 50.4383V58.6104H69.4962V50.6306L67.7266 51.2572V60.3306H91.4406C91.4406 60.3306 91.4406 52.5596 86.8901 51.0263V51.0318Z" fill="#4598C4"/>
<path d="M74.4973 44.2169C71.7934 43.2881 67.7266 51.2569 67.7266 51.2569L69.4962 50.6304V58.6102H70.0458V50.4381L78.5861 47.4099L78.6191 47.3989C78.6191 47.3989 77.2067 45.1457 74.5028 44.2169H74.4973Z" fill="#2B7FA5"/>
<path d="M61.2916 50.6684L60.0221 58.3899L59.4781 58.3019L60.764 50.4815L52.0698 47.3984C49.0032 48.8713 45.7278 50.3661 43.7438 51.0311C39.1934 52.5644 39.1934 60.3354 39.1934 60.3354H62.8414L62.9623 51.2619L61.2916 50.6684V50.6684Z" fill="#4598C4"/>
<path d="M56.1925 44.2173C53.4941 45.1406 52.0817 47.3883 52.0762 47.3993L60.7704 50.4824L59.4844 58.3028L60.0285 58.3907L61.298 50.6692L62.9687 51.2628C62.9687 51.2628 58.8964 43.294 56.198 44.2228L56.1925 44.2173Z" fill="#2B7FA5"/>
<path d="M29.2376 8.89291C29.5557 8.96865 29.8739 9.004 30.197 8.9737C31.7927 8.83736 37.221 8.77677 39.5641 13.9476C42.3211 20.0475 43.8209 21.6987 41.897 28.7884C39.9731 35.878 41.5082 35.6104 42.5029 39.2208L42.5332 39.3269C43.0685 41.271 41.493 43.1494 39.4782 42.9828L35.6254 42.6546C35.3476 42.6293 35.0649 42.6495 34.7922 42.7051C32.6007 43.1595 22.1328 45.2349 18.1184 44.1846C16.7449 43.8261 15.5683 43.3918 14.5887 42.9575C12.9122 42.2153 12.3871 40.1247 13.4273 38.6149C13.8666 37.9837 14.21 37.2919 14.2807 36.6304C14.4928 34.5904 13.0738 32.7523 13.6343 29.2933C14.5685 23.5014 16.3409 24.0367 16.654 20.4212C16.8358 18.3508 19.9514 6.67613 29.2326 8.89291H29.2376Z" fill="#EB3F3A"/>
<path d="M29.2376 8.89291C29.5557 8.96865 29.8739 9.004 30.197 8.9737C31.7927 8.83736 37.221 8.77677 39.5641 13.9476C42.3211 20.0475 43.8209 21.6987 41.897 28.7884C39.9731 35.878 41.5082 35.6104 42.5029 39.2208L42.5332 39.3269C43.0685 41.271 41.493 43.1494 39.4782 42.9828L35.6254 42.6546C35.3476 42.6293 35.0649 42.6495 34.7922 42.7051C32.6007 43.1595 22.1328 45.2349 18.1184 44.1846C16.7449 43.8261 15.5683 43.3918 14.5887 42.9575C12.9122 42.2153 12.3871 40.1247 13.4273 38.6149C13.8666 37.9837 14.21 37.2919 14.2807 36.6304C14.4928 34.5904 13.0738 32.7523 13.6343 29.2933C14.5685 23.5014 16.3409 24.0367 16.654 20.4212C16.8358 18.3508 19.9514 6.67613 29.2326 8.89291H29.2376Z" fill="#EB3F3A"/>
<path d="M49.265 46.8766C45.0839 45.4677 34.6363 40.0596 34.6363 40.0596L33.9899 35.1211H24.84L24.2492 40.0596C24.2492 40.0596 13.8066 45.4677 9.62053 46.8766C5.4344 48.2854 5.43945 55.4256 5.43945 55.4256H53.4511C53.4511 55.4256 53.4511 48.2854 49.27 46.8766H49.265Z" fill="#FFB69F"/>
<path d="M29.446 41.6207C32.3157 41.6207 34.6421 40.9221 34.6421 40.0603C34.6421 39.1986 32.3157 38.5 29.446 38.5C26.5763 38.5 24.25 39.1986 24.25 40.0603C24.25 40.9221 26.5763 41.6207 29.446 41.6207Z" fill="#FFB69F"/>
<path d="M24.4453 38.423C24.4453 38.423 31.54 39.0744 34.0396 35.9638V32.3887L25.0462 33.2522L24.4453 38.423V38.423Z" fill="#FF9988"/>
<path d="M29.8704 36.5553C35.5903 36.5553 40.2272 30.6275 40.2272 23.3153C40.2272 16.003 35.5903 10.0752 29.8704 10.0752C24.1505 10.0752 19.5137 16.003 19.5137 23.3153C19.5137 30.6275 24.1505 36.5553 29.8704 36.5553Z" fill="#FFB69F"/>
<path d="M39.8985 22.0471C39.8985 22.0471 41.686 21.8299 41.8476 23.5316C42.0092 25.2334 41.4386 26.5412 40.3782 27.1068C40.3782 27.1068 40.151 27.2179 39.6309 27.3087L39.8985 22.0521V22.0471Z" fill="#FFB69F"/>
<path d="M19.7204 22.0471C19.7204 22.0471 17.9328 21.8299 17.7712 23.5316C17.6096 25.2334 18.1802 26.5412 19.2407 27.1068C19.2407 27.1068 19.4679 27.2179 19.988 27.3087L19.7204 22.0521V22.0471Z" fill="#FFB69F"/>
<path d="M19.5127 22.1686C19.5127 22.1686 18.7603 9.97889 29.8694 10.1253V22.8806L19.5127 22.1686V22.1686Z" fill="#FFB69F"/>
<path d="M40.222 22.1686C40.222 22.1686 40.9744 9.97889 29.8652 10.1253V22.8806L40.222 22.1686V22.1686Z" fill="#FFB69F"/>
<path d="M22.7702 20.6588C24.477 20.3508 25.9868 20.5931 26.7544 20.7396C26.9866 20.785 27.2189 20.6739 27.2896 20.4821C27.3704 20.2649 27.2189 20.0427 26.9563 19.9922C26.0828 19.8256 24.5123 19.5731 22.8662 20.1488C22.6137 20.2397 22.1643 20.4871 22.3006 20.684C22.3763 20.7547 22.543 20.6941 22.7702 20.6537V20.6588Z" fill="#EB3F3A"/>
<path d="M37.0763 20.6641C35.3695 20.3561 33.8597 20.5985 33.0922 20.7449C32.8599 20.7903 32.6276 20.6742 32.5569 20.4823C32.4761 20.2652 32.6276 20.0379 32.8902 19.9874C33.7638 19.8158 35.3342 19.5633 36.9804 20.149C37.2329 20.2399 37.6823 20.4874 37.5459 20.6893C37.4702 20.76 37.3035 20.6994 37.0763 20.659V20.6641Z" fill="#EB3F3A"/>
<path d="M34.7633 24.3747C35.1008 24.3747 35.3743 23.9 35.3743 23.3143C35.3743 22.7287 35.1008 22.2539 34.7633 22.2539C34.4259 22.2539 34.1523 22.7287 34.1523 23.3143C34.1523 23.9 34.4259 24.3747 34.7633 24.3747Z" fill="#441D39"/>
<path d="M25.5973 24.1579C25.9348 24.1579 26.2083 23.6832 26.2083 23.0975C26.2083 22.5119 25.9348 22.0371 25.5973 22.0371C25.2599 22.0371 24.9863 22.5119 24.9863 23.0975C24.9863 23.6832 25.2599 24.1579 25.5973 24.1579Z" fill="#441D39"/>
<path d="M30.5815 28.0821H29.617C29.1878 28.0821 28.8091 27.9155 28.6071 27.6377C28.4606 27.4408 28.4202 27.2085 28.4909 26.9813C28.7131 26.2541 28.9 25.5623 28.9 25.5623C28.9353 25.426 29.0767 25.3503 29.208 25.3856C29.3443 25.421 29.4251 25.5623 29.3847 25.6936C29.3847 25.6936 29.1979 26.3955 28.9706 27.1277C28.9505 27.2035 28.9605 27.2691 29.011 27.3398C29.1171 27.4812 29.3544 27.5771 29.617 27.5771H30.5815C30.7229 27.5771 30.834 27.6882 30.834 27.8296C30.834 27.971 30.7229 28.0821 30.5815 28.0821V28.0821Z" fill="#FF9988"/>
<path d="M28.3893 31.3688C27.9197 31.3688 27.6117 31.3435 27.5763 31.3385C27.44 31.3284 27.334 31.2021 27.3491 31.0658C27.3592 30.9244 27.4854 30.8284 27.6218 30.8335C27.6521 30.8335 30.5001 31.0658 32.6108 30.0256C32.737 29.965 32.8885 30.0155 32.9491 30.1417C33.0097 30.2679 32.9592 30.4194 32.833 30.48C31.2878 31.2425 29.4346 31.3637 28.3944 31.3637L28.3893 31.3688Z" fill="#FF9988"/>
<path d="M35.2682 26.0365C36.2415 26.0365 37.0305 25.8556 37.0305 25.6325C37.0305 25.4094 36.2415 25.2285 35.2682 25.2285C34.2949 25.2285 33.5059 25.4094 33.5059 25.6325C33.5059 25.8556 34.2949 26.0365 35.2682 26.0365Z" fill="#FF9988"/>
<path d="M24.9869 26.0365C25.9602 26.0365 26.7492 25.8556 26.7492 25.6325C26.7492 25.4094 25.9602 25.2285 24.9869 25.2285C24.0136 25.2285 23.2246 25.4094 23.2246 25.6325C23.2246 25.8556 24.0136 26.0365 24.9869 26.0365Z" fill="#FF9988"/>
<path d="M34.6403 40.0601C34.6403 40.0601 34.4939 38.3635 34.403 38.2574C32.1256 38.9795 27.8284 38.8987 24.4805 38.1211C24.4805 38.1211 24.1927 39.2522 19.9864 42.2163L13.7854 45.1703L13.2148 55.4261H45.0981L44.0376 44.726L34.6454 40.0601H34.6403Z" fill="#1C2642"/>
<path d="M33.3179 9.68626C33.3028 9.66102 33.2927 9.63072 33.2775 9.61052C32.9493 9.06516 27.8947 8.84298 27.4755 8.97427C27.1372 9.08031 22.7794 11.59 21.1231 12.5494C20.7141 12.7867 20.401 13.1553 20.2395 13.5997L16.8764 22.7193C16.7956 22.9364 16.7552 23.1687 16.7502 23.406L16.6189 41.7967C16.6138 42.8369 16.0533 43.5237 17.0885 43.6297L21.6432 44.1498C22.638 44.2508 23.552 43.6146 23.8045 42.6501L24.158 40.6454C24.2791 40.1808 24.1378 39.8173 24.1933 39.2517C24.3852 37.3631 21.3049 33.0053 21.7442 31.6823C22.2896 30.0362 23.0369 28.2739 23.1682 26.0419C23.2995 23.81 21.8553 19.8713 23.8903 15.0843C25.5264 11.2365 29.3237 12.004 30.7477 12.4534C30.8537 12.4888 30.9648 12.509 31.0759 12.5241C31.0759 12.5241 39.2563 15.059 39.4684 24.1584C39.4684 24.1584 39.8016 24.6735 40.0137 24.0675C41.4731 19.8612 39.5795 10.5901 33.3129 9.69131L33.3179 9.68626Z" fill="#EB3F3A"/>
<path d="M40.2106 26.5461C40.4002 26.5461 40.5539 26.3924 40.5539 26.2027C40.5539 26.0131 40.4002 25.8594 40.2106 25.8594C40.0209 25.8594 39.8672 26.0131 39.8672 26.2027C39.8672 26.3924 40.0209 26.5461 40.2106 26.5461Z" fill="white"/>
<path d="M52.7179 84.0244C52.7179 84.0244 82.5608 78.8119 86.824 52.4951L49.1367 60.886L52.7179 84.0244Z" fill="#4598C4"/>
<rect x="44.9492" y="54.957" width="8.37496" height="38.1799" fill="#FFB69F"/>
<rect x="5.53711" y="54.957" width="8.37496" height="38.1799" fill="#FFB69F"/>
<path d="M13.248 54.957H45.0721L44.9489 92.1517H13.4197L13.248 54.957Z" fill="#1C2642"/>
</g>
<mask id="mask2_1078_35199" style="mask-type:alpha" maskUnits="userSpaceOnUse" x="5" y="0" width="85" height="47">
<rect x="5.53516" y="0.519531" width="84.2422" height="45.8159" fill="#D9D9D9"/>
</mask>
<g mask="url(#mask2_1078_35199)">
<path d="M59.6628 10.1416C59.6628 10.1416 53.0294 11.576 53.5131 20.2867C53.9967 28.9974 52.4414 31.454 52.4414 31.454L54.1451 30.9814L59.6573 34.7569L74.5177 31.7837L76.8479 32.4762L77.5678 30.8495C77.5678 30.8495 78.3867 31.7288 79.2001 31.7782C79.2001 31.7782 78.4416 27.8653 78.5845 26.1176C78.8868 22.4575 77.1282 17.1322 77.1282 17.1322L59.6518 10.1416H59.6628Z" fill="#441D39"/>
<path d="M86.8895 51.0299C83.1414 49.7714 74.7824 45.5617 71.9411 44.1108C71.7213 44.0009 71.5399 43.902 71.3915 43.8305C71.1277 43.6932 70.9739 43.6162 70.9739 43.6162H59.6692C59.6692 43.6162 59.5208 43.6932 59.2515 43.8305C59.1031 43.9075 58.9163 44.0009 58.7019 44.1108C58.2843 44.3252 57.7512 44.5945 57.1302 44.9077C53.5085 46.7323 46.9521 49.9583 43.7536 51.0299C39.2031 52.5632 39.2031 60.3342 39.2031 60.3342H91.4399C91.4399 60.3342 91.4399 52.5632 86.8895 51.0299V51.0299Z" fill="#FDEBD9"/>
<path d="M70.2633 38.2354H60.3051L59.6621 43.6102C59.6621 44.6653 62.1956 45.5227 65.3172 45.5227C68.4388 45.5227 70.9723 44.6653 70.9723 43.6102L70.2688 38.2354H70.2633Z" fill="#C1735C"/>
<path d="M55.958 19.5939C55.958 19.5939 56.3207 16.6372 58.8267 16.0877C58.8267 16.0877 76.4515 16.0877 72.9177 16.0877C72.9177 16.0877 75.2095 16.0877 75.6876 19.3851C75.759 19.8797 76.49 24.9523 76.446 26.9472C76.4185 28.2277 76.9186 27.5517 76.9186 27.5517C76.9186 27.5517 77.4572 25.5073 77.5451 22.8254C77.71 17.7144 77.045 8.92676 66.2679 8.92676C55.4908 8.92676 54.4961 15.3952 54.4961 23.7377L54.8918 27.843C54.9083 28.0079 55.0457 28.1288 55.2105 28.1288C55.5238 28.1288 55.9525 19.5939 55.9525 19.5939H55.958Z" fill="#C1735C"/>
<path d="M75.3148 18.5279C75.5242 18.5279 75.694 18.3582 75.694 18.1487C75.694 17.9393 75.5242 17.7695 75.3148 17.7695C75.1053 17.7695 74.9355 17.9393 74.9355 18.1487C74.9355 18.3582 75.1053 18.5279 75.3148 18.5279Z" fill="#FF9988"/>
<path d="M59.877 41.8291C59.877 41.8291 67.5984 42.538 70.3188 39.1527V35.2617L60.5309 36.2015L59.877 41.8291V41.8291Z" fill="#A5503C"/>
<path fill-rule="evenodd" clip-rule="evenodd" d="M66.1312 39.796C71.3573 39.796 75.7527 35.2561 77.0289 29.0975C77.2665 29.033 77.375 28.9801 77.375 28.9801C78.5291 28.3655 79.1501 26.9443 78.9742 25.095C78.8529 23.8189 77.8887 23.5358 77.3028 23.4829C76.5656 16.4471 71.8449 11.0205 66.1312 11.0205C60.2996 11.0205 55.5023 16.6733 54.919 23.9203C54.6422 23.9153 52.9963 23.9575 52.9359 25.6611C52.8699 27.5213 53.5789 28.8986 54.7659 29.4418C54.7659 29.4418 54.9443 29.5154 55.3401 29.578C56.7404 35.4908 61.0419 39.796 66.1312 39.796Z" fill="#C1735C"/>
<path d="M71.0986 26.5406C71.4658 26.5406 71.7636 26.0239 71.7636 25.3865C71.7636 24.7491 71.4658 24.2324 71.0986 24.2324C70.7313 24.2324 70.4336 24.7491 70.4336 25.3865C70.4336 26.0239 70.7313 26.5406 71.0986 26.5406Z" fill="#441D39"/>
<path d="M61.124 26.3043C61.4912 26.3043 61.7889 25.7876 61.7889 25.1502C61.7889 24.5128 61.4912 23.9961 61.124 23.9961C60.7567 23.9961 60.459 24.5128 60.459 25.1502C60.459 25.7876 60.7567 26.3043 61.124 26.3043Z" fill="#441D39"/>
<path d="M66.5543 30.5745H65.5046C65.0375 30.5745 64.6253 30.3931 64.4055 30.0963C64.2461 29.882 64.2021 29.6292 64.2791 29.3819C64.5154 28.6125 64.8397 26.5241 64.8451 26.5021C64.8671 26.3538 65.01 26.2548 65.1584 26.2713C65.3068 26.2933 65.4112 26.4362 65.3892 26.5846C65.3782 26.6725 65.054 28.7389 64.8067 29.5413C64.7847 29.6182 64.7957 29.6952 64.8506 29.7721C64.9661 29.9315 65.2244 30.0304 65.5101 30.0304H66.5598C66.7137 30.0304 66.8346 30.1513 66.8346 30.3052C66.8346 30.4591 66.7137 30.58 66.5598 30.58L66.5543 30.5745Z" fill="#A5503C"/>
<path d="M71.6875 28.349C72.7468 28.349 73.6055 28.1522 73.6055 27.9094C73.6055 27.6666 72.7468 27.4697 71.6875 27.4697C70.6283 27.4697 69.7695 27.6666 69.7695 27.9094C69.7695 28.1522 70.6283 28.349 71.6875 28.349Z" fill="#AF5D4E"/>
<path d="M60.4922 28.349C61.5515 28.349 62.4102 28.1522 62.4102 27.9094C62.4102 27.6666 61.5515 27.4697 60.4922 27.4697C59.4329 27.4697 58.5742 27.6666 58.5742 27.9094C58.5742 28.1522 59.4329 28.349 60.4922 28.349Z" fill="#AF5D4E"/>
<path d="M73.4638 22.5789C71.6063 22.1558 70.2269 22.5789 69.386 22.7438C69.0288 22.8153 68.9189 22.3701 68.9189 22.3701C68.8309 22.0733 69.2211 21.837 69.5069 21.7711C70.4577 21.5347 71.6777 21.3699 73.5353 21.892C73.8925 21.9909 73.931 22.2877 73.931 22.2877C73.909 22.6174 73.7056 22.6394 73.4638 22.5789V22.5789Z" fill="#441D39"/>
<path d="M58.6456 22.5009C60.5196 22.1492 61.8826 22.6328 62.7179 22.8252C63.0751 22.9076 63.196 22.4734 63.196 22.4734C63.295 22.1822 62.9158 21.9294 62.6355 21.8469C61.6957 21.5776 60.4812 21.3633 58.6016 21.8084C58.2389 21.8964 58.1895 22.1877 58.1895 22.1877C58.1949 22.5174 58.3983 22.5449 58.6456 22.5009V22.5009Z" fill="#441D39"/>
<path d="M65.7186 34.7513C64.4161 34.7513 63.3884 34.4765 63.317 34.4601C63.1686 34.4216 63.0862 34.2677 63.1246 34.1248C63.1631 33.9764 63.317 33.894 63.4599 33.9325C63.4874 33.938 66.0154 34.6084 68.0543 33.8116C68.1972 33.7566 68.3566 33.8281 68.4115 33.9654C68.4665 34.1083 68.395 34.2677 68.2576 34.3227C67.4168 34.6524 66.5155 34.7568 65.7186 34.7568V34.7513Z" fill="#A5503C"/>
<path d="M73.8869 9.86162C66.3468 3.89877 59.664 10.1419 59.664 10.1419C53.0526 11.351 53.9924 21.1114 54.1518 22.1555C54.3111 23.1942 54.5145 23.9142 54.5145 23.9142C54.6574 23.9197 54.7893 23.9142 54.9157 23.8867L55.4762 27.9096C55.5147 28.0524 55.729 28.0634 55.7785 27.9096C55.828 27.8546 55.9818 25.5024 56.1302 23.0458C57.3833 21.1938 57.3283 16.8577 59.664 14.9177C60.8071 13.9669 62.4118 14.7143 62.4118 14.7143C62.4118 14.7143 63.6099 12.5985 66.4622 13.8295C69.0287 14.9342 72.1832 21.8972 75.662 23.5515C75.7994 25.8157 75.9368 27.8601 75.9808 27.9151C76.0302 28.0689 76.2446 28.0579 76.283 27.9151L76.8436 23.8977L78.4373 23.0678C78.4373 23.0678 79.1573 13.1536 73.8759 9.86712L73.8869 9.86162Z" fill="#441D39"/>
<path d="M74.4953 44.215C71.7914 43.2862 67.7246 51.255 67.7246 51.255L69.4942 50.6285V58.6082H70.0438V50.4361L78.5841 47.408L78.6171 47.397C78.6171 47.397 77.2047 45.1437 74.5008 44.215H74.4953Z" fill="#2B7FA5"/>
<path d="M56.1905 44.2153C53.4921 45.1386 52.0797 47.3863 52.0742 47.3973L60.7684 50.4804L59.4824 58.3008L60.0265 58.3888L61.296 50.6673L62.9667 51.2608C62.9667 51.2608 58.8944 43.292 56.196 44.2208L56.1905 44.2153Z" fill="#2B7FA5"/>
<path d="M29.2337 8.89095C29.5518 8.9667 29.87 9.00205 30.1931 8.97175C31.7888 8.83541 37.2171 8.77481 39.5601 13.9456C42.3172 20.0455 43.817 21.6968 41.8931 28.7864C39.9692 35.876 41.5042 35.6084 42.499 39.2189L42.5293 39.3249C43.0646 41.269 41.4891 43.1475 39.4743 42.9808L35.6215 42.6526C35.3437 42.6274 35.061 42.6476 34.7883 42.7031C32.5967 43.1576 22.1289 45.233 18.1145 44.1826C16.741 43.8241 15.5644 43.3899 14.5848 42.9556C12.9083 42.2133 12.3832 40.1228 13.4234 38.6129C13.8627 37.9817 14.2061 37.2899 14.2768 36.6284C14.4889 34.5884 13.0699 32.7503 13.6304 29.2914C14.5646 23.4995 16.337 24.0347 16.6501 20.4192C16.8319 18.3489 19.9475 6.67418 29.2287 8.89095H29.2337Z" fill="#EB3F3A"/>
<path d="M29.2337 8.89095C29.5518 8.9667 29.87 9.00205 30.1931 8.97175C31.7888 8.83541 37.2171 8.77481 39.5601 13.9456C42.3172 20.0455 43.817 21.6968 41.8931 28.7864C39.9692 35.876 41.5042 35.6084 42.499 39.2189L42.5293 39.3249C43.0646 41.269 41.4891 43.1475 39.4743 42.9808L35.6215 42.6526C35.3437 42.6274 35.061 42.6476 34.7883 42.7031C32.5967 43.1576 22.1289 45.233 18.1145 44.1826C16.741 43.8241 15.5644 43.3899 14.5848 42.9556C12.9083 42.2133 12.3832 40.1228 13.4234 38.6129C13.8627 37.9817 14.2061 37.2899 14.2768 36.6284C14.4889 34.5884 13.0699 32.7503 13.6304 29.2914C14.5646 23.4995 16.337 24.0347 16.6501 20.4192C16.8319 18.3489 19.9475 6.67418 29.2287 8.89095H29.2337Z" fill="#EB3F3A"/>
<path d="M49.2611 46.8746C45.08 45.4658 34.6324 40.0577 34.6324 40.0577L33.986 35.1191H24.8361L24.2453 40.0577C24.2453 40.0577 13.8027 45.4658 9.61662 46.8746C5.4305 48.2835 5.43555 55.4236 5.43555 55.4236H53.4472C53.4472 55.4236 53.4472 48.2835 49.2661 46.8746H49.2611Z" fill="#FFB69F"/>
<path d="M29.4421 41.6187C32.3118 41.6187 34.6382 40.9201 34.6382 40.0584C34.6382 39.1966 32.3118 38.498 29.4421 38.498C26.5724 38.498 24.2461 39.1966 24.2461 40.0584C24.2461 40.9201 26.5724 41.6187 29.4421 41.6187Z" fill="#FFB69F"/>
<path d="M24.4414 38.421C24.4414 38.421 31.5361 39.0724 34.0357 35.9618V32.3867L25.0423 33.2502L24.4414 38.421V38.421Z" fill="#FF9988"/>
<path d="M29.8665 36.5534C35.5864 36.5534 40.2232 30.6256 40.2232 23.3133C40.2232 16.001 35.5864 10.0732 29.8665 10.0732C24.1466 10.0732 19.5098 16.001 19.5098 23.3133C19.5098 30.6256 24.1466 36.5534 29.8665 36.5534Z" fill="#FFB69F"/>
<path d="M39.8946 22.0451C39.8946 22.0451 41.6821 21.828 41.8437 23.5297C42.0053 25.2314 41.4347 26.5393 40.3743 27.1048C40.3743 27.1048 40.1471 27.2159 39.627 27.3068L39.8946 22.0502V22.0451Z" fill="#FFB69F"/>
<path d="M19.7165 22.0451C19.7165 22.0451 17.9289 21.828 17.7673 23.5297C17.6057 25.2314 18.1763 26.5393 19.2367 27.1048C19.2367 27.1048 19.464 27.2159 19.9841 27.3068L19.7165 22.0502V22.0451Z" fill="#FFB69F"/>
<path d="M19.5088 22.1667C19.5088 22.1667 18.7564 9.97694 29.8655 10.1234V22.8787L19.5088 22.1667V22.1667Z" fill="#FFB69F"/>
<path d="M40.2181 22.1667C40.2181 22.1667 40.9705 9.97694 29.8613 10.1234V22.8787L40.2181 22.1667V22.1667Z" fill="#FFB69F"/>
<path d="M22.7663 20.6568C24.4731 20.3488 25.9829 20.5912 26.7504 20.7376C26.9827 20.7831 27.215 20.672 27.2857 20.4801C27.3665 20.263 27.215 20.0408 26.9524 19.9903C26.0788 19.8237 24.5084 19.5712 22.8622 20.1468C22.6098 20.2377 22.1604 20.4851 22.2967 20.6821C22.3724 20.7528 22.5391 20.6922 22.7663 20.6518V20.6568Z" fill="#EB3F3A"/>
<path d="M37.0724 20.6621C35.3656 20.3541 33.8558 20.5965 33.0883 20.7429C32.856 20.7884 32.6237 20.6722 32.553 20.4804C32.4722 20.2632 32.6237 20.036 32.8863 19.9855C33.7599 19.8138 35.3303 19.5613 36.9765 20.1471C37.2289 20.238 37.6784 20.4854 37.542 20.6874C37.4663 20.7581 37.2996 20.6975 37.0724 20.6571V20.6621Z" fill="#EB3F3A"/>
<path d="M34.7594 24.3728C35.0969 24.3728 35.3704 23.898 35.3704 23.3124C35.3704 22.7267 35.0969 22.252 34.7594 22.252C34.422 22.252 34.1484 22.7267 34.1484 23.3124C34.1484 23.898 34.422 24.3728 34.7594 24.3728Z" fill="#441D39"/>
<path d="M25.5934 24.156C25.9309 24.156 26.2044 23.6812 26.2044 23.0956C26.2044 22.5099 25.9309 22.0352 25.5934 22.0352C25.256 22.0352 24.9824 22.5099 24.9824 23.0956C24.9824 23.6812 25.256 24.156 25.5934 24.156Z" fill="#441D39"/>
<path d="M30.5776 28.0801H29.6131C29.1839 28.0801 28.8052 27.9135 28.6032 27.6358C28.4567 27.4388 28.4163 27.2066 28.487 26.9793C28.7092 26.2522 28.896 25.5604 28.896 25.5604C28.9314 25.424 29.0728 25.3483 29.2041 25.3837C29.3404 25.419 29.4212 25.5604 29.3808 25.6917C29.3808 25.6917 29.194 26.3936 28.9667 27.1258C28.9465 27.2015 28.9566 27.2672 29.0071 27.3378C29.1132 27.4792 29.3505 27.5752 29.6131 27.5752H30.5776C30.719 27.5752 30.83 27.6863 30.83 27.8277C30.83 27.969 30.719 28.0801 30.5776 28.0801V28.0801Z" fill="#FF9988"/>
<path d="M28.3854 31.3668C27.9158 31.3668 27.6078 31.3415 27.5724 31.3365C27.4361 31.3264 27.33 31.2002 27.3452 31.0638C27.3553 30.9224 27.4815 30.8265 27.6179 30.8315C27.6482 30.8315 30.4961 31.0638 32.6069 30.0236C32.7331 29.963 32.8846 30.0135 32.9452 30.1397C33.0058 30.266 32.9553 30.4175 32.8291 30.4781C31.2839 31.2406 29.4307 31.3617 28.3905 31.3617L28.3854 31.3668Z" fill="#FF9988"/>
<path d="M35.2643 26.0345C36.2376 26.0345 37.0266 25.8536 37.0266 25.6305C37.0266 25.4074 36.2376 25.2266 35.2643 25.2266C34.291 25.2266 33.502 25.4074 33.502 25.6305C33.502 25.8536 34.291 26.0345 35.2643 26.0345Z" fill="#FF9988"/>
<path d="M24.983 26.0345C25.9563 26.0345 26.7453 25.8536 26.7453 25.6305C26.7453 25.4074 25.9563 25.2266 24.983 25.2266C24.0097 25.2266 23.2207 25.4074 23.2207 25.6305C23.2207 25.8536 24.0097 26.0345 24.983 26.0345Z" fill="#FF9988"/>
<path d="M34.6364 40.0582C34.6364 40.0582 34.49 38.3615 34.3991 38.2555C32.1217 38.9776 27.8245 38.8968 24.4766 38.1191C24.4766 38.1191 24.1888 39.2503 19.9825 42.2144L13.7815 45.1684L13.2109 55.4241H45.0941L44.0337 44.724L34.6415 40.0582H34.6364Z" fill="#1C2642"/>
<path d="M33.314 9.68431C33.2989 9.65906 33.2888 9.62877 33.2736 9.60857C32.9454 9.06321 27.8908 8.84103 27.4716 8.97232C27.1333 9.07836 22.7755 11.588 21.1192 12.5474C20.7102 12.7848 20.3971 13.1534 20.2356 13.5978L16.8725 22.7173C16.7917 22.9345 16.7513 23.1668 16.7463 23.4041L16.615 41.7948C16.6099 42.835 16.0494 43.5217 17.0846 43.6278L21.6393 44.1479C22.6341 44.2489 23.5481 43.6126 23.8006 42.6481L24.154 40.6434C24.2752 40.1789 24.1338 39.8153 24.1894 39.2497C24.3813 37.3612 21.301 33.0034 21.7403 31.6804C22.2857 30.0342 23.033 28.2719 23.1643 26.04C23.2956 23.8081 21.8514 19.8694 23.8864 15.0823C25.5225 11.2345 29.3198 12.0021 30.7438 12.4515C30.8498 12.4868 30.9609 12.507 31.072 12.5222C31.072 12.5222 39.2524 15.0571 39.4645 24.1565C39.4645 24.1565 39.7977 24.6715 40.0098 24.0656C41.4691 19.8593 39.5755 10.5882 33.309 9.68936L33.314 9.68431Z" fill="#EB3F3A"/>
<path d="M40.2067 26.5442C40.3963 26.5442 40.55 26.3904 40.55 26.2008C40.55 26.0112 40.3963 25.8574 40.2067 25.8574C40.017 25.8574 39.8633 26.0112 39.8633 26.2008C39.8633 26.3904 40.017 26.5442 40.2067 26.5442Z" fill="white"/>
</g>
</g>
</svg>
