<svg width="21" height="20" viewBox="0 0 21 20" fill="none" xmlns="http://www.w3.org/2000/svg">
<path d="M6.22168 6.125H14.7004" stroke="#383D44" stroke-width="1.5" stroke-linecap="round" stroke-linejoin="round"/>
<path d="M6.22168 10.3643H12.5807" stroke="#383D44" stroke-width="1.5" stroke-linecap="round" stroke-linejoin="round"/>
<path d="M16.8215 0.825684C17.6647 0.825684 18.4734 1.16067 19.0697 1.75694C19.666 2.35322 20.001 3.16195 20.001 4.00521V12.4839C20.001 13.3272 19.666 14.1359 19.0697 14.7322C18.4734 15.3285 17.6647 15.6635 16.8215 15.6635H11.5222L6.22304 18.843V15.6635H4.10335C3.26009 15.6635 2.45137 15.3285 1.85509 14.7322C1.25881 14.1359 0.923828 13.3272 0.923828 12.4839V4.00521C0.923828 3.16195 1.25881 2.35322 1.85509 1.75694C2.45137 1.16067 3.26009 0.825684 4.10335 0.825684H16.8215Z" stroke="#383D44" stroke-width="1.5" stroke-linecap="round" stroke-linejoin="round"/>
</svg>
