<svg width="26" height="24" viewBox="0 0 26 24" fill="none" xmlns="http://www.w3.org/2000/svg">
<path d="M8.05322 7.17236H18.194" stroke="#060C15" stroke-opacity="0.6" stroke-width="1.5" stroke-linecap="round" stroke-linejoin="round"/>
<path d="M8.05322 12.2422H15.6588" stroke="#060C15" stroke-opacity="0.6" stroke-width="1.5" stroke-linecap="round" stroke-linejoin="round"/>
<path d="M20.7307 0.833984C21.7393 0.833984 22.7066 1.23463 23.4197 1.9478C24.1329 2.66096 24.5335 3.62821 24.5335 4.63677V14.7775C24.5335 15.7861 24.1329 16.7534 23.4197 17.4665C22.7066 18.1797 21.7393 18.5803 20.7307 18.5803H14.3928L8.05478 22.3831V18.5803H5.51959C4.51102 18.5803 3.54377 18.1797 2.83061 17.4665C2.11745 16.7534 1.7168 15.7861 1.7168 14.7775V4.63677C1.7168 3.62821 2.11745 2.66096 2.83061 1.9478C3.54377 1.23463 4.51102 0.833984 5.51959 0.833984H20.7307Z" stroke="#060C15" stroke-opacity="0.6" stroke-width="1.5" stroke-linecap="round" stroke-linejoin="round"/>
</svg>
