<svg width="20" height="13" viewBox="0 0 20 13" fill="none" xmlns="http://www.w3.org/2000/svg">
<path d="M1.56269 8.0823L0.467115 5.65547C0.31057 5.3087 0.388988 4.90096 0.66299 4.637L1.01172 4.30105C1.1865 4.13266 1.45697 4.11412 1.6531 4.25706L3.5967 5.67358C3.68233 5.73599 3.79454 5.7486 3.89189 5.70674L14.5688 1.11634C15.6832 0.637189 16.9549 0.689688 18.0261 1.25907L18.7856 1.66276C19.1304 1.84607 19.1414 2.33631 18.8051 2.53484L14.1751 5.26782C13.8419 5.46447 13.5729 5.75353 13.4008 6.09996L10.4986 11.9389C10.3191 12.3 10.0017 12.5737 9.6181 12.6981L9.13822 12.8537C8.93187 12.9206 8.72489 12.7532 8.74727 12.5374L9.27417 7.45662L4.00109 9.1623C3.03185 9.47582 1.98183 9.01075 1.56269 8.0823Z" fill="#6F7278"/>
<path d="M9.56139 2.3686L6.2378 3.92782L4.16923 2.48311C3.92892 2.31527 3.94478 1.95451 4.19888 1.80841L4.56737 1.59652C5.03224 1.32922 5.58498 1.2598 6.10151 1.40383L9.56139 2.3686Z" fill="#6F7278"/>
</svg>
