<svg width="89" height="86" viewBox="0 0 89 86" fill="none" xmlns="http://www.w3.org/2000/svg">
<mask id="mask0_1078_35200" style="mask-type:alpha" maskUnits="userSpaceOnUse" x="0" y="0" width="89" height="86">
<rect x="0.191406" y="0.568359" width="88" height="85.3584" fill="#D1CCCC"/>
</mask>
<g mask="url(#mask0_1078_35200)">
<circle cx="44.7001" cy="44.0712" r="36.1278" fill="#CC272F" fill-opacity="0.14"/>
<mask id="mask1_1078_35200" style="mask-type:alpha" maskUnits="userSpaceOnUse" x="8" y="7" width="73" height="74">
<circle cx="44.4442" cy="43.8729" r="36.1278" fill="#D9D9D9"/>
</mask>
<g mask="url(#mask1_1078_35200)">
<path d="M55.9915 82.3519C55.9915 82.3519 82.3528 76.1548 86.1187 44.8672L52.8281 54.843L55.9915 82.3519Z" fill="#4598C4"/>
<path d="M39.5221 83.7019C39.5221 83.7019 7.99757 82.6404 2.23828 46.7012L56.4968 58.0744V81.6705C56.4968 81.6705 57.1031 84.7634 39.5221 83.7019Z" fill="#A5503C"/>
<path d="M55.1359 12.0059C55.1359 12.0059 49.5212 13.22 49.9305 20.5931C50.3399 27.9662 49.0234 30.0455 49.0234 30.0455L50.4655 29.6455L55.1312 32.8412L67.7097 30.3246L69.6821 30.9108L70.2914 29.5338C70.2914 29.5338 70.9846 30.2781 71.673 30.32C71.673 30.32 71.0311 27.0079 71.152 25.5286C71.4079 22.4305 69.9193 17.9229 69.9193 17.9229L55.1266 12.0059H55.1359Z" fill="#441D39"/>
<path d="M78.182 46.6161C75.0095 45.5508 67.9341 41.9876 65.5291 40.7595C65.343 40.6664 65.1895 40.5827 65.0639 40.5222C64.8406 40.4059 64.7104 40.3408 64.7104 40.3408H55.1416C55.1416 40.3408 55.016 40.4059 54.7881 40.5222C54.6625 40.5874 54.5043 40.6664 54.3229 40.7595C53.9694 40.9409 53.5182 41.1688 52.9925 41.434C49.927 42.9784 44.3774 45.709 41.67 46.6161C37.8184 47.9139 37.8184 54.4916 37.8184 54.4916H82.0337C82.0337 54.4916 82.0337 47.9139 78.182 46.6161V46.6161Z" fill="#FDEBD9"/>
<path d="M64.11 35.7861H55.681L55.1367 40.3356C55.1367 41.2287 57.2812 41.9544 59.9234 41.9544C62.5656 41.9544 64.7101 41.2287 64.7101 40.3356L64.1147 35.7861H64.11Z" fill="#C1735C"/>
<path d="M52.001 20.0067C52.001 20.0067 52.3081 17.504 54.4293 17.0388C54.4293 17.0388 69.3476 17.0388 66.3565 17.0388C66.3565 17.0388 68.2963 17.0388 68.701 19.8299C68.7615 20.2486 69.3802 24.5422 69.3429 26.2308C69.3197 27.3146 69.743 26.7425 69.743 26.7425C69.743 26.7425 70.1989 25.012 70.2733 22.7419C70.4128 18.4158 69.85 10.9775 60.7278 10.9775C51.6056 10.9775 50.7637 16.4527 50.7637 23.5141L51.0986 26.989C51.1126 27.1286 51.2289 27.2309 51.3684 27.2309C51.6336 27.2309 51.9964 20.0067 51.9964 20.0067H52.001Z" fill="#C1735C"/>
<path d="M68.3854 19.1048C68.5627 19.1048 68.7064 18.9611 68.7064 18.7839C68.7064 18.6066 68.5627 18.4629 68.3854 18.4629C68.2082 18.4629 68.0645 18.6066 68.0645 18.7839C68.0645 18.9611 68.2082 19.1048 68.3854 19.1048Z" fill="#FF9988"/>
<path d="M55.3184 38.8284C55.3184 38.8284 61.8541 39.4285 64.1568 36.563V33.2695L55.8719 34.065L55.3184 38.8284V38.8284Z" fill="#A5503C"/>
<path fill-rule="evenodd" clip-rule="evenodd" d="M60.6101 37.1068C65.0337 37.1068 68.7541 33.264 69.8344 28.051C70.0355 27.9965 70.1273 27.9517 70.1273 27.9517C71.1042 27.4315 71.6298 26.2285 71.481 24.6633C71.3783 23.583 70.5622 23.3434 70.0662 23.2986C69.4423 17.3433 65.4464 12.75 60.6101 12.75C55.674 12.75 51.6134 17.5347 51.1197 23.6689C50.8854 23.6647 49.4922 23.7004 49.4411 25.1424C49.3853 26.7169 49.9853 27.8827 50.9901 28.3426C50.9901 28.3426 51.1411 28.4048 51.4761 28.4578C52.6614 33.4627 56.3024 37.1068 60.6101 37.1068Z" fill="#C1735C"/>
<path d="M64.8168 25.8864C65.1276 25.8864 65.3796 25.449 65.3796 24.9095C65.3796 24.37 65.1276 23.9326 64.8168 23.9326C64.5059 23.9326 64.2539 24.37 64.2539 24.9095C64.2539 25.449 64.5059 25.8864 64.8168 25.8864Z" fill="#441D39"/>
<path d="M56.3734 25.6872C56.6843 25.6872 56.9363 25.2498 56.9363 24.7103C56.9363 24.1708 56.6843 23.7334 56.3734 23.7334C56.0626 23.7334 55.8105 24.1708 55.8105 24.7103C55.8105 25.2498 56.0626 25.6872 56.3734 25.6872Z" fill="#441D39"/>
<path d="M60.9707 29.3011H60.0823C59.6869 29.3011 59.338 29.1476 59.1519 28.8964C59.017 28.715 58.9798 28.501 59.0449 28.2917C59.2449 27.6404 59.5194 25.8727 59.524 25.8541C59.5426 25.7285 59.6636 25.6448 59.7892 25.6587C59.9148 25.6773 60.0032 25.7983 59.9846 25.9239C59.9753 25.9983 59.7008 27.7474 59.4915 28.4266C59.4729 28.4917 59.4822 28.5568 59.5287 28.6219C59.6264 28.7568 59.845 28.8406 60.0869 28.8406H60.9754C61.1057 28.8406 61.208 28.9429 61.208 29.0732C61.208 29.2034 61.1057 29.3057 60.9754 29.3057L60.9707 29.3011Z" fill="#A5503C"/>
<path d="M65.3149 27.4171C66.2115 27.4171 66.9384 27.2505 66.9384 27.045C66.9384 26.8395 66.2115 26.6729 65.3149 26.6729C64.4183 26.6729 63.6914 26.8395 63.6914 27.045C63.6914 27.2505 64.4183 27.4171 65.3149 27.4171Z" fill="#AF5D4E"/>
<path d="M55.8383 27.4171C56.7349 27.4171 57.4618 27.2505 57.4618 27.045C57.4618 26.8395 56.7349 26.6729 55.8383 26.6729C54.9417 26.6729 54.2148 26.8395 54.2148 27.045C54.2148 27.2505 54.9417 27.4171 55.8383 27.4171Z" fill="#AF5D4E"/>
<path d="M66.8167 22.5337C65.2444 22.1755 64.0768 22.5337 63.3651 22.6733C63.0627 22.7338 62.9697 22.357 62.9697 22.357C62.8952 22.1058 63.2255 21.9057 63.4674 21.8499C64.2722 21.6499 65.3049 21.5103 66.8772 21.9523C67.1795 22.036 67.2121 22.2872 67.2121 22.2872C67.1935 22.5663 67.0214 22.5849 66.8167 22.5337V22.5337Z" fill="#441D39"/>
<path d="M54.2767 22.4675C55.863 22.1697 57.0166 22.5791 57.7237 22.7419C58.0261 22.8117 58.1284 22.4442 58.1284 22.4442C58.2121 22.1977 57.8912 21.9837 57.6539 21.9139C56.8585 21.686 55.8304 21.5045 54.2395 21.8813C53.9325 21.9558 53.8906 22.2023 53.8906 22.2023C53.8953 22.4814 54.0674 22.5047 54.2767 22.4675V22.4675Z" fill="#441D39"/>
<path d="M60.2622 32.8366C59.1597 32.8366 58.2898 32.604 58.2294 32.59C58.1038 32.5575 58.034 32.4272 58.0666 32.3063C58.0991 32.1807 58.2294 32.1109 58.3503 32.1435C58.3736 32.1481 60.5134 32.7156 62.2392 32.0411C62.3602 31.9946 62.4951 32.0551 62.5416 32.1714C62.5881 32.2923 62.5276 32.4272 62.4113 32.4737C61.6996 32.7529 60.9367 32.8412 60.2622 32.8412V32.8366Z" fill="#A5503C"/>
<path d="M67.1753 11.7692C60.793 6.72204 55.1365 12.0065 55.1365 12.0065C49.5403 13.0299 50.3358 21.2915 50.4707 22.1753C50.6056 23.0545 50.7777 23.6639 50.7777 23.6639C50.8987 23.6685 51.0103 23.6639 51.1173 23.6406L51.5918 27.0457C51.6244 27.1667 51.8058 27.176 51.8476 27.0457C51.8895 26.9992 52.0198 25.0082 52.1454 22.9289C53.206 21.3612 53.1594 17.691 55.1365 16.0489C56.104 15.2441 57.4624 15.8768 57.4624 15.8768C57.4624 15.8768 58.4764 14.0858 60.8907 15.1278C63.0631 16.0628 65.7332 21.9567 68.6778 23.3569C68.7941 25.2734 68.9104 27.0039 68.9476 27.0504C68.9895 27.1806 69.1709 27.1713 69.2035 27.0504L69.678 23.6499L71.027 22.9475C71.027 22.9475 71.6364 14.5557 67.166 11.7739L67.1753 11.7692Z" fill="#441D39"/>
<path d="M78.1817 46.6163C76.5071 46.0534 73.7439 44.7928 71.1529 43.5508L63.924 46.1139V53.0311H63.4588V46.2767L61.9609 46.807V54.4871H82.0334C82.0334 54.4871 82.0334 47.9095 78.1817 46.6117V46.6163Z" fill="#4598C4"/>
<path d="M67.692 40.8479C65.4033 40.0618 61.9609 46.8069 61.9609 46.8069L63.4588 46.2766V53.031H63.924V46.1138L71.1529 43.5506L71.1808 43.5413C71.1808 43.5413 69.9853 41.6341 67.6966 40.8479H67.692Z" fill="#2B7FA5"/>
<path d="M56.5135 46.3079L55.4389 52.8436L54.9784 52.7692L56.0669 46.1497L48.7077 43.54C46.112 44.7867 43.3396 46.052 41.6603 46.6149C37.8086 47.9127 37.8086 54.4904 37.8086 54.4904H57.8253L57.9276 46.8103L56.5135 46.3079V46.3079Z" fill="#4598C4"/>
<path d="M52.1971 40.8472C49.9131 41.6287 48.7175 43.5313 48.7129 43.5406L56.072 46.1502L54.9835 52.7697L55.444 52.8442L56.5186 46.3084L57.9327 46.8108C57.9327 46.8108 54.4858 40.0657 52.2017 40.8518L52.1971 40.8472Z" fill="#2B7FA5"/>
<path d="M18.1588 22.942C17.4039 30.6768 16.2191 33.5051 15.5789 34.5084C15.4165 34.7568 15.5742 35.0913 15.8656 35.1295L28.9512 36.8446L29.7443 10.1765C29.7443 10.1765 19.5491 8.63337 18.1588 22.942Z" fill="#441D39"/>
<path d="M44.3641 34.5084C43.7191 33.5051 42.5343 30.6768 41.7842 22.942C40.394 8.63334 29.9121 10.1669 29.9121 10.1669L30.9966 36.8398L44.0822 35.1247C44.3784 35.0865 44.5313 34.7568 44.3689 34.5036L44.3641 34.5084Z" fill="#441D39"/>
<path d="M25.2778 35.1387L24.6328 40.5564L34.6083 40.2697L33.9394 35.1387H25.2778Z" fill="#FFC7A4"/>
<path d="M24.9043 38.2628C24.9043 38.2628 31.6167 38.8791 33.9816 35.9362V32.5537L25.4728 33.3707L24.9043 38.2628V38.2628Z" fill="#F2B594"/>
<path d="M41.3732 24.174C41.2585 22.9605 40.2696 22.779 39.7871 22.7646C39.3141 16.4105 34.8375 10.1807 29.7495 10.1807C24.6614 10.1807 20.763 16.4105 20.29 22.7646C19.8744 22.7599 18.7182 22.8602 18.594 24.1788C18.4411 25.7888 18.981 27.0262 19.9842 27.5613C19.9842 27.5613 20.1992 27.6664 20.6913 27.7524V27.7189C21.9335 32.8118 25.6504 36.5048 30.0409 36.5048C34.4315 36.5048 38.1436 32.8165 39.3905 27.7285C39.8014 27.6473 39.9877 27.5613 39.9877 27.5613C40.991 27.0262 41.5308 25.7888 41.378 24.1788L41.3732 24.174Z" fill="#FFC7A4"/>
<path d="M23.3178 21.4568C24.9326 21.1653 26.361 21.3946 27.0872 21.5332C27.307 21.5762 27.5268 21.4711 27.5936 21.2895C27.6701 21.0841 27.5268 20.8739 27.2783 20.8261C26.4518 20.6685 24.966 20.4296 23.4085 20.9742C23.1697 21.0602 22.7445 21.2943 22.8735 21.4806C22.9451 21.5475 23.1028 21.4902 23.3178 21.452V21.4568Z" fill="#441D39"/>
<path d="M36.8433 21.4568C35.2285 21.1653 33.8001 21.3946 33.0739 21.5332C32.8541 21.5762 32.6343 21.4711 32.5675 21.2895C32.491 21.0841 32.6344 20.8739 32.8828 20.8261C33.7093 20.6685 35.1951 20.4296 36.7526 20.9742C36.9914 21.0602 37.4166 21.2943 37.2877 21.4806C37.216 21.5475 37.0583 21.4902 36.8433 21.452V21.4568Z" fill="#441D39"/>
<path d="M34.666 24.7663C34.9852 24.7663 35.2441 24.3171 35.2441 23.763C35.2441 23.2089 34.9852 22.7598 34.666 22.7598C34.3467 22.7598 34.0879 23.2089 34.0879 23.763C34.0879 24.3171 34.3467 24.7663 34.666 24.7663Z" fill="#441D39"/>
<path d="M25.9941 24.7663C26.3134 24.7663 26.5722 24.3171 26.5722 23.763C26.5722 23.2089 26.3134 22.7598 25.9941 22.7598C25.6748 22.7598 25.416 23.2089 25.416 23.763C25.416 24.3171 25.6748 24.7663 25.9941 24.7663Z" fill="#441D39"/>
<path d="M30.7134 28.4783H29.8009C29.3184 28.4783 28.9266 28.3302 28.7737 28.0865C28.6877 27.9528 28.6782 27.7999 28.7451 27.6566C28.9553 27.2122 29.1273 26.7823 29.1273 26.7823C29.175 26.6581 29.3184 26.6007 29.4378 26.6533C29.562 26.701 29.6194 26.8444 29.5668 26.9638C29.5668 26.9638 29.39 27.4033 29.175 27.862C29.1989 27.8763 29.3948 28.0005 29.8009 28.0005H30.7134C30.8472 28.0005 30.9523 28.1056 30.9523 28.2394C30.9523 28.3732 30.8472 28.4783 30.7134 28.4783Z" fill="#EDA07E"/>
<path d="M29.839 31.4841C28.7259 31.4841 27.8802 31.3312 27.8181 31.3169C27.6891 31.293 27.6031 31.1688 27.627 31.0398C27.6509 30.9108 27.7799 30.8248 27.9041 30.8487C27.9328 30.8487 30.5939 31.3407 32.6769 30.562C32.8011 30.5142 32.9396 30.5763 32.9826 30.7006C33.0304 30.8248 32.9683 30.9633 32.8441 31.0063C31.8456 31.379 30.7515 31.4841 29.8342 31.4841H29.839Z" fill="#EDA07E"/>
<path d="M35.142 26.5437C36.0628 26.5437 36.8093 26.3726 36.8093 26.1615C36.8093 25.9504 36.0628 25.7793 35.142 25.7793C34.2211 25.7793 33.4746 25.9504 33.4746 26.1615C33.4746 26.3726 34.2211 26.5437 35.142 26.5437Z" fill="#EAA281"/>
<path d="M25.4154 26.5437C26.3363 26.5437 27.0828 26.3726 27.0828 26.1615C27.0828 25.9504 26.3363 25.7793 25.4154 25.7793C24.4945 25.7793 23.748 25.9504 23.748 26.1615C23.748 26.3726 24.4945 26.5437 25.4154 26.5437Z" fill="#EAA281"/>
<path d="M20.677 19.7119L20.1992 19.6832C20.6674 11.7239 28.0869 10.5916 28.1633 10.582L28.2302 11.055C28.2302 11.055 26.4243 11.3225 24.6089 12.5217C22.1867 14.1222 20.8681 16.5396 20.677 19.7119V19.7119Z" fill="#30132B"/>
<path d="M29.9121 10.1719V14.314C29.9121 14.314 36.9589 13.2773 39.835 22.7654C39.835 22.7654 41.789 9.99988 29.9121 10.1767V10.1719Z" fill="#441D39"/>
<path d="M29.745 10.1755V14.3176C29.745 14.3176 23.1186 13.4529 20.2425 22.9411C20.2425 22.9411 17.8681 10.0035 29.745 10.1755V10.1755Z" fill="#441D39"/>
<path d="M48.386 46.2609C45.1516 45.1716 37.9662 41.5598 35.4437 40.2699C35.4437 40.2555 35.4437 40.2412 35.4341 40.2269L34.8799 38.4448C34.8035 38.1964 34.5742 38.0244 34.3114 38.0244H24.7325C24.4458 38.0244 24.2022 38.2251 24.1496 38.5069L23.4521 40.203C23.433 40.2937 23.4378 40.3797 23.4569 40.461C20.6668 41.8799 13.9687 45.2241 10.8777 46.2656C6.92188 47.5986 6.92188 54.354 6.92188 54.354H52.3465C52.3465 54.354 52.3465 47.5986 48.3907 46.2656L48.386 46.2609Z" fill="#A5503C"/>
<path d="M20.3999 29.6164C20.2614 29.6164 20.1992 29.6164 20.1754 29.3584H20.1658C20.1658 29.3584 20.1658 29.301 20.1658 29.2342C20.1562 29.0144 20.1563 28.6752 20.1563 28.1353C20.1563 27.5955 20.1562 27.2563 20.1658 27.0365C20.1658 26.9696 20.1658 26.9266 20.1658 26.9123H20.1754C20.204 26.6543 20.2614 26.6543 20.3999 26.6543C20.5385 26.6543 20.6006 26.6543 20.6244 26.9123H20.634C20.634 26.9123 20.634 26.9696 20.634 27.0365C20.6436 27.2563 20.6436 27.5955 20.6436 28.1353C20.6436 28.6752 20.6436 29.0144 20.634 29.2342C20.634 29.301 20.634 29.344 20.634 29.3584H20.6244C20.5958 29.6164 20.5385 29.6164 20.3999 29.6164Z" fill="#FFA33A"/>
<path d="M39.9956 29.6164C39.8571 29.6164 39.795 29.6164 39.7711 29.3584H39.7615C39.7615 29.3584 39.7615 29.301 39.7615 29.2342C39.752 29.0144 39.752 28.6752 39.752 28.1353C39.752 27.5955 39.752 27.2563 39.7615 27.0365C39.7615 26.9696 39.7615 26.9266 39.7615 26.9123H39.7711C39.7997 26.6543 39.8571 26.6543 39.9956 26.6543C40.1342 26.6543 40.1963 26.6543 40.2202 26.9123H40.2297C40.2297 26.9123 40.2297 26.9696 40.2297 27.0365C40.2393 27.2563 40.2393 27.5955 40.2393 28.1353C40.2393 28.6752 40.2393 29.0144 40.2297 29.2342C40.2297 29.301 40.2297 29.344 40.2297 29.3584H40.2202C40.1915 29.6164 40.1342 29.6164 39.9956 29.6164Z" fill="#FFA33A"/>
<path d="M25.3825 41.6418C25.3825 41.6418 25.3538 41.6418 25.3442 41.6418C25.2152 41.6179 25.1245 41.4984 25.1484 41.3647L25.5114 39.2435C25.5353 39.1145 25.6595 39.0285 25.7885 39.0476C25.9175 39.0715 26.0083 39.1909 25.9844 39.3247L25.6213 41.4459C25.6022 41.5606 25.5019 41.6465 25.3872 41.6465L25.3825 41.6418Z" fill="#2579AD"/>
<path d="M33.476 41.6407C33.3614 41.6407 33.261 41.5595 33.2419 41.44L32.8788 39.3188C32.8549 39.1898 32.9457 39.0656 33.0747 39.0417C33.2037 39.0226 33.3279 39.1086 33.3518 39.2376L33.7149 41.3588C33.7388 41.4878 33.648 41.612 33.519 41.6359C33.5047 41.6359 33.4903 41.6359 33.4808 41.6359L33.476 41.6407Z" fill="#2579AD"/>
<path d="M29.6393 41.8425C29.5055 41.8425 29.4004 41.7374 29.4004 41.6036V39.4537C29.4004 39.3199 29.5055 39.2148 29.6393 39.2148C29.773 39.2148 29.8781 39.3199 29.8781 39.4537V41.6036C29.8781 41.7374 29.773 41.8425 29.6393 41.8425Z" fill="#2579AD"/>
<path d="M53.5349 37.5593C53.5349 37.5593 55.0331 37.3766 55.1685 38.8087C55.3039 40.2409 54.8257 41.3416 53.9369 41.8176C53.9369 41.8176 53.7465 41.911 53.3105 41.9875L53.5349 37.5636V37.5593Z" fill="#FFB69F"/>
<path d="M36.5841 37.5593C36.5841 37.5593 35.0859 37.3766 34.9504 38.8087C34.815 40.2409 35.2932 41.3416 36.182 41.8176C36.182 41.8176 36.3725 41.911 36.8084 41.9875L36.5841 37.5636V37.5593Z" fill="#FFB69F"/>
<path d="M24.6152 65.6507C24.6152 65.6507 24.6152 59.6416 28.1195 58.4559C31.6238 57.2702 39.5424 52.7188 39.5424 52.7188H44.9004V65.6507H24.6152V65.6507Z" fill="#391315"/>
<path d="M64.8555 65.6507C64.8555 65.6507 64.8555 59.6416 61.3512 58.4559C57.8469 57.2702 50.013 52.7188 50.013 52.7188H44.5703V65.6507H64.8555V65.6507Z" fill="#391315"/>
<path d="M40.876 48.5625L40.3809 52.7188H49.0908L48.5491 48.5625H40.876Z" fill="#FFB69F"/>
<path d="M44.7358 55.2055C47.141 55.2055 49.0908 54.355 49.0908 53.3059C49.0908 52.2567 47.141 51.4062 44.7358 51.4062C42.3307 51.4062 40.3809 52.2567 40.3809 53.3059C40.3809 54.355 42.3307 55.2055 44.7358 55.2055Z" fill="#FFB69F"/>
<path d="M40.5449 51.3411C40.5449 51.3411 46.4912 51.8894 48.5862 49.2715V46.2627L41.0486 46.9894L40.5449 51.3411V51.3411Z" fill="#FF9988"/>
<path d="M45.0905 49.7691C49.8845 49.7691 53.7709 44.7802 53.7709 38.6262C53.7709 32.4722 49.8845 27.4834 45.0905 27.4834C40.2965 27.4834 36.4102 32.4722 36.4102 38.6262C36.4102 44.7802 40.2965 49.7691 45.0905 49.7691Z" fill="#FFB69F"/>
<path d="M52.6716 29.7279C52.6716 29.7279 52.6801 29.7066 52.6716 29.6939C52.3838 29.0012 52.0326 25.5206 46.3867 24.9937C44.9393 24.8577 42.8697 25.0999 41.5577 25.7289C39.759 26.5873 37.7487 27.0803 35.9712 27.076C35.895 27.076 35.8654 27.178 35.9331 27.2163L37.3213 28.3255C37.3763 28.3552 37.372 28.4359 37.3128 28.4614L35.5691 28.9927C35.5056 29.0182 35.5056 29.1117 35.5691 29.1329C35.8527 29.2264 36.5721 29.5451 37.2239 29.7704C36.1574 31.6658 36.4029 34.3898 36.4029 37.6621C36.4029 37.6621 36.369 41.0534 37.5075 44.942C38.7518 49.1917 41.4816 51.0148 45.3287 51.0276C49.4255 51.0446 51.5628 47.5173 52.1341 46.2636C53.006 44.3427 53.7551 40.773 53.7593 38.6268C53.7593 38.6268 55.3337 33.2042 52.6632 29.7279H52.6716ZM49.1927 45.4732C48.3463 45.9066 48.7737 43.65 47.0893 43.5565C46.5264 43.5225 44.6134 43.3908 43.0052 43.5268C41.782 43.633 41.4858 44.738 41.4308 45.2989C41.4054 45.5412 41.3207 45.6517 41.0922 45.5667C40.5843 45.3797 39.5051 44.7762 38.9972 44.2152C38.4724 43.6373 37.5244 42.0776 37.4355 38.7841L37.5286 34.0796C37.5286 34.0796 39.412 32.4945 39.7379 31.3683C39.7379 31.3683 48.1516 32.7197 50.5894 31.3683C50.5894 31.3683 51.6093 33.3274 52.7224 33.9181C53.0652 34.0966 53.006 36.332 52.9764 37.8746C52.9467 38.0829 52.9213 38.3209 52.9086 38.6013C52.6843 43.0083 50.0307 45.0439 49.1885 45.4774L49.1927 45.4732Z" fill="#B54D4D"/>
<path d="M49.1918 39.5183C49.4746 39.5183 49.7039 39.1187 49.7039 38.6258C49.7039 38.133 49.4746 37.7334 49.1918 37.7334C48.909 37.7334 48.6797 38.133 48.6797 38.6258C48.6797 39.1187 48.909 39.5183 49.1918 39.5183Z" fill="#441D39"/>
<path d="M41.5101 39.3357C41.793 39.3357 42.0223 38.9361 42.0223 38.4432C42.0223 37.9503 41.793 37.5508 41.5101 37.5508C41.2273 37.5508 40.998 37.9503 40.998 38.4432C40.998 38.9361 41.2273 39.3357 41.5101 39.3357Z" fill="#441D39"/>
<path d="M45.6868 42.6386H44.8785C44.5187 42.6386 44.2013 42.4984 44.032 42.2646C43.9093 42.0989 43.8754 41.9034 43.9347 41.7122C44.1167 41.1257 44.3537 38.9371 44.3537 38.9158C44.3664 38.7969 44.4679 38.7161 44.5864 38.7289C44.7007 38.7416 44.7853 38.8479 44.7727 38.9626C44.7642 39.0561 44.5272 41.2107 44.3367 41.8397C44.3198 41.9034 44.3283 41.9587 44.3706 42.0182C44.4595 42.1372 44.6584 42.2179 44.8785 42.2179H45.6868C45.8053 42.2179 45.8984 42.3114 45.8984 42.4304C45.8984 42.5494 45.8053 42.6429 45.6868 42.6429V42.6386Z" fill="#FF9988"/>
<path d="M49.6411 40.9173C50.4569 40.9173 51.1182 40.765 51.1182 40.5773C51.1182 40.3895 50.4569 40.2373 49.6411 40.2373C48.8254 40.2373 48.1641 40.3895 48.1641 40.5773C48.1641 40.765 48.8254 40.9173 49.6411 40.9173Z" fill="#FF9988"/>
<path d="M41.02 40.9173C41.8358 40.9173 42.4971 40.765 42.4971 40.5773C42.4971 40.3895 41.8358 40.2373 41.02 40.2373C40.2043 40.2373 39.543 40.3895 39.543 40.5773C39.543 40.765 40.2043 40.9173 41.02 40.9173Z" fill="#FF9988"/>
<path d="M50.9856 36.552C49.5763 36.1355 48.497 36.399 47.841 36.484C47.5617 36.518 47.5025 36.1737 47.5025 36.1737C47.4474 35.94 47.7606 35.7785 47.9807 35.736C48.7214 35.6 49.6694 35.532 51.0745 36.0208C51.3454 36.1143 51.3623 36.3437 51.3623 36.3437C51.3327 36.5987 51.1718 36.603 50.9856 36.5477V36.552Z" fill="#B54D4D"/>
<path d="M39.6387 36.5784C41.0396 36.1364 42.123 36.3829 42.779 36.4552C43.0584 36.4849 43.1134 36.1407 43.1134 36.1407C43.1642 35.9069 42.8468 35.7497 42.6267 35.7115C41.8818 35.5882 40.9338 35.533 39.5414 36.0472C39.2705 36.1449 39.2578 36.3744 39.2578 36.3744C39.2917 36.6294 39.4525 36.6294 39.6345 36.5742L39.6387 36.5784Z" fill="#B54D4D"/>
<path d="M45.0436 46.0897C44.0448 46.0897 43.2491 45.8772 43.1983 45.8645C43.0841 45.8347 43.0206 45.7157 43.0502 45.6052C43.0798 45.4948 43.1983 45.4268 43.3084 45.4565C43.3295 45.4608 45.2764 45.9792 46.8466 45.363C46.9566 45.3205 47.0793 45.3758 47.1216 45.482C47.164 45.5925 47.1089 45.7157 47.0031 45.7582C46.3556 46.0132 45.6615 46.094 45.0478 46.094L45.0436 46.0897Z" fill="#9B3D3D"/>
<path d="M40.567 51.3623L43.9359 53.7762L42.3065 57.6944L37.9473 53.6189L40.567 51.3623Z" fill="#CC272F"/>
<path d="M43.9359 53.7764L44.1391 55.2255L43.373 55.1278L43.9359 53.7764Z" fill="#391315"/>
<path d="M45.8568 53.7002L45.5605 55.2259L46.3901 55.0856L45.8568 53.7002Z" fill="#391315"/>
<path d="M45.8574 53.7004L48.9427 51.4268L51.8334 53.7556L47.5334 58.0691L45.8574 53.7004Z" fill="#CC272F"/>
<path d="M45.5565 55.7822H44.1387V65.6459H45.5565V55.7822Z" fill="white"/>
<path d="M44.1097 55.0228L44.1393 55.8898C44.1393 55.8898 44.7996 56.1787 45.5571 55.8898L45.5783 55.1036L44.1055 55.0186L44.1097 55.0228Z" fill="#FFB69F"/>
<path d="M45.5565 57.8652H44.1387V58.2902H45.5565V57.8652Z" fill="#D6D6D6"/>
<path d="M45.5565 59.7812H44.1387V60.2062H45.5565V59.7812Z" fill="#D6D6D6"/>
<path d="M45.5565 61.6982H44.1387V62.1232H45.5565V61.6982Z" fill="#D6D6D6"/>
<path d="M45.5565 63.6152H44.1387V64.0402H45.5565V63.6152Z" fill="#D6D6D6"/>
<path d="M46.7631 60.1942C46.9688 60.1942 47.1355 60.0268 47.1355 59.8203C47.1355 59.6137 46.9688 59.4463 46.7631 59.4463C46.5574 59.4463 46.3906 59.6137 46.3906 59.8203C46.3906 60.0268 46.5574 60.1942 46.7631 60.1942Z" fill="#CC272F"/>
<path d="M46.7631 64.3671C46.9688 64.3671 47.1355 64.1997 47.1355 63.9931C47.1355 63.7866 46.9688 63.6191 46.7631 63.6191C46.5574 63.6191 46.3906 63.7866 46.3906 63.9931C46.3906 64.1997 46.5574 64.3671 46.7631 64.3671Z" fill="#CC272F"/>
<rect x="24.5684" y="65.6094" width="40.2939" height="21.616" fill="#391315"/>
<path d="M44.084 65.3984H45.553V88.9032H44.084V65.3984Z" fill="white"/>
<mask id="mask2_1078_35200" style="mask-type:alpha" maskUnits="userSpaceOnUse" x="44" y="65" width="2" height="24">
<rect x="44.084" y="65.3975" width="1.46905" height="23.5048" fill="#D9D9D9"/>
</mask>
<g mask="url(#mask2_1078_35200)">
<path d="M44.7148 65.6074V87.1185" stroke="#EAEAEA" stroke-width="8" stroke-dasharray="3 7"/>
</g>
</g>
<mask id="mask3_1078_35200" style="mask-type:alpha" maskUnits="userSpaceOnUse" x="2" y="-4" width="85" height="39">
<rect x="2.21094" y="-3.70312" width="83.959" height="38.4176" fill="#D9D9D9"/>
</mask>
<g mask="url(#mask3_1078_35200)">
<path d="M55.1359 12.0068C55.1359 12.0068 49.5212 13.221 49.9305 20.594C50.3399 27.9671 49.0234 30.0465 49.0234 30.0465L50.4655 29.6464L55.1312 32.8422L67.7097 30.3256L69.6821 30.9117L70.2914 29.5348C70.2914 29.5348 70.9846 30.2791 71.673 30.321C71.673 30.321 71.0311 27.0089 71.152 25.5296C71.4079 22.4315 69.9193 17.9239 69.9193 17.9239L55.1266 12.0068H55.1359Z" fill="#441D39"/>
<path d="M52.001 20.0076C52.001 20.0076 52.3081 17.505 54.4293 17.0398C54.4293 17.0398 69.3476 17.0398 66.3565 17.0398C66.3565 17.0398 68.2963 17.0398 68.701 19.8309C68.7615 20.2495 69.3802 24.5431 69.3429 26.2318C69.3197 27.3156 69.743 26.7434 69.743 26.7434C69.743 26.7434 70.1989 25.013 70.2733 22.7429C70.4128 18.4167 69.85 10.9785 60.7278 10.9785C51.6056 10.9785 50.7637 16.4537 50.7637 23.5151L51.0986 26.99C51.1126 27.1295 51.2289 27.2319 51.3684 27.2319C51.6336 27.2319 51.9964 20.0076 51.9964 20.0076H52.001Z" fill="#C1735C"/>
<path d="M68.3854 19.1058C68.5627 19.1058 68.7064 18.9621 68.7064 18.7848C68.7064 18.6076 68.5627 18.4639 68.3854 18.4639C68.2082 18.4639 68.0645 18.6076 68.0645 18.7848C68.0645 18.9621 68.2082 19.1058 68.3854 19.1058Z" fill="#FF9988"/>
<path d="M55.3184 38.8294C55.3184 38.8294 61.8541 39.4295 64.1568 36.564V33.2705L55.8719 34.066L55.3184 38.8294V38.8294Z" fill="#A5503C"/>
<path fill-rule="evenodd" clip-rule="evenodd" d="M60.6101 37.1077C65.0337 37.1077 68.7541 33.265 69.8344 28.052C70.0355 27.9975 70.1273 27.9527 70.1273 27.9527C71.1042 27.4325 71.6298 26.2295 71.481 24.6642C71.3783 23.584 70.5622 23.3444 70.0662 23.2996C69.4423 17.3443 65.4464 12.751 60.6101 12.751C55.674 12.751 51.6134 17.5357 51.1197 23.6699C50.8854 23.6657 49.4922 23.7014 49.4411 25.1433C49.3853 26.7179 49.9853 27.8837 50.9901 28.3435C50.9901 28.3435 51.1411 28.4058 51.4761 28.4587C52.6614 33.4636 56.3024 37.1077 60.6101 37.1077Z" fill="#C1735C"/>
<path d="M64.8168 25.8873C65.1276 25.8873 65.3796 25.45 65.3796 24.9105C65.3796 24.371 65.1276 23.9336 64.8168 23.9336C64.5059 23.9336 64.2539 24.371 64.2539 24.9105C64.2539 25.45 64.5059 25.8873 64.8168 25.8873Z" fill="#441D39"/>
<path d="M56.3734 25.6881C56.6843 25.6881 56.9363 25.2508 56.9363 24.7113C56.9363 24.1717 56.6843 23.7344 56.3734 23.7344C56.0626 23.7344 55.8105 24.1717 55.8105 24.7113C55.8105 25.2508 56.0626 25.6881 56.3734 25.6881Z" fill="#441D39"/>
<path d="M60.9707 29.3021H60.0823C59.6869 29.3021 59.338 29.1486 59.1519 28.8974C59.017 28.7159 58.9798 28.502 59.0449 28.2926C59.2449 27.6414 59.5194 25.8737 59.524 25.8551C59.5426 25.7295 59.6636 25.6458 59.7892 25.6597C59.9148 25.6783 60.0032 25.7993 59.9846 25.9249C59.9753 25.9993 59.7008 27.7484 59.4915 28.4275C59.4729 28.4927 59.4822 28.5578 59.5287 28.6229C59.6264 28.7578 59.845 28.8415 60.0869 28.8415H60.9754C61.1057 28.8415 61.208 28.9439 61.208 29.0741C61.208 29.2044 61.1057 29.3067 60.9754 29.3067L60.9707 29.3021Z" fill="#A5503C"/>
<path d="M65.3149 27.4181C66.2115 27.4181 66.9384 27.2515 66.9384 27.046C66.9384 26.8404 66.2115 26.6738 65.3149 26.6738C64.4183 26.6738 63.6914 26.8404 63.6914 27.046C63.6914 27.2515 64.4183 27.4181 65.3149 27.4181Z" fill="#AF5D4E"/>
<path d="M55.8383 27.4181C56.7349 27.4181 57.4618 27.2515 57.4618 27.046C57.4618 26.8404 56.7349 26.6738 55.8383 26.6738C54.9417 26.6738 54.2148 26.8404 54.2148 27.046C54.2148 27.2515 54.9417 27.4181 55.8383 27.4181Z" fill="#AF5D4E"/>
<path d="M66.8167 22.5347C65.2444 22.1765 64.0768 22.5347 63.3651 22.6743C63.0627 22.7347 62.9697 22.3579 62.9697 22.3579C62.8952 22.1067 63.2255 21.9067 63.4674 21.8509C64.2722 21.6509 65.3049 21.5113 66.8772 21.9532C67.1795 22.037 67.2121 22.2882 67.2121 22.2882C67.1935 22.5673 67.0214 22.5859 66.8167 22.5347V22.5347Z" fill="#441D39"/>
<path d="M54.2767 22.4684C55.863 22.1707 57.0166 22.5801 57.7237 22.7429C58.0261 22.8127 58.1284 22.4452 58.1284 22.4452C58.2121 22.1986 57.8912 21.9847 57.6539 21.9149C56.8585 21.6869 55.8304 21.5055 54.2395 21.8823C53.9325 21.9567 53.8906 22.2033 53.8906 22.2033C53.8953 22.4824 54.0674 22.5057 54.2767 22.4684V22.4684Z" fill="#441D39"/>
<path d="M60.2622 32.8376C59.1597 32.8376 58.2898 32.605 58.2294 32.591C58.1038 32.5585 58.034 32.4282 58.0666 32.3073C58.0991 32.1817 58.2294 32.1119 58.3503 32.1444C58.3736 32.1491 60.5134 32.7166 62.2392 32.0421C62.3602 31.9956 62.4951 32.0561 62.5416 32.1724C62.5881 32.2933 62.5276 32.4282 62.4113 32.4747C61.6996 32.7538 60.9367 32.8422 60.2622 32.8422V32.8376Z" fill="#A5503C"/>
<path d="M67.1753 11.7702C60.793 6.72302 55.1365 12.0075 55.1365 12.0075C49.5403 13.0309 50.3358 21.2924 50.4707 22.1763C50.6056 23.0555 50.7777 23.6649 50.7777 23.6649C50.8987 23.6695 51.0103 23.6649 51.1173 23.6416L51.5918 27.0467C51.6244 27.1677 51.8058 27.177 51.8476 27.0467C51.8895 27.0002 52.0198 25.0092 52.1454 22.9299C53.206 21.3622 53.1594 17.6919 55.1365 16.0499C56.104 15.2451 57.4624 15.8777 57.4624 15.8777C57.4624 15.8777 58.4764 14.0868 60.8907 15.1288C63.0631 16.0638 65.7332 21.9576 68.6778 23.3578C68.7941 25.2744 68.9104 27.0048 68.9476 27.0514C68.9895 27.1816 69.1709 27.1723 69.2035 27.0514L69.678 23.6509L71.027 22.9485C71.027 22.9485 71.6364 14.5566 67.166 11.7749L67.1753 11.7702Z" fill="#441D39"/>
<path d="M18.1588 22.943C17.4039 30.6778 16.2191 33.5061 15.5789 34.5094C15.4165 34.7578 15.5742 35.0922 15.8656 35.1305L28.9512 36.8456L29.7443 10.1775C29.7443 10.1775 19.5491 8.63434 18.1588 22.943Z" fill="#441D39"/>
<path d="M44.3641 34.5094C43.7191 33.5061 42.5343 30.6778 41.7842 22.943C40.394 8.63432 29.9121 10.1679 29.9121 10.1679L30.9966 36.8408L44.0822 35.1257C44.3784 35.0874 44.5313 34.7578 44.3689 34.5046L44.3641 34.5094Z" fill="#441D39"/>
<path d="M24.9043 38.2638C24.9043 38.2638 31.6167 38.8801 33.9816 35.9372V32.5547L25.4728 33.3716L24.9043 38.2638V38.2638Z" fill="#F2B594"/>
<path d="M41.3732 24.175C41.2585 22.9615 40.2696 22.78 39.7871 22.7656C39.3141 16.4115 34.8375 10.1816 29.7495 10.1816C24.6614 10.1816 20.763 16.4115 20.29 22.7656C19.8744 22.7608 18.7182 22.8612 18.594 24.1798C18.4411 25.7898 18.981 27.0272 19.9842 27.5623C19.9842 27.5623 20.1992 27.6674 20.6913 27.7534V27.7199C21.9335 32.8127 25.6504 36.5058 30.0409 36.5058C34.4315 36.5058 38.1436 32.8175 39.3905 27.7295C39.8014 27.6482 39.9877 27.5623 39.9877 27.5623C40.991 27.0272 41.5308 25.7898 41.378 24.1798L41.3732 24.175Z" fill="#FFC7A4"/>
<path d="M23.3178 21.4577C24.9326 21.1663 26.361 21.3956 27.0872 21.5342C27.307 21.5772 27.5268 21.4721 27.5936 21.2905C27.6701 21.0851 27.5268 20.8749 27.2783 20.8271C26.4518 20.6694 24.966 20.4306 23.4085 20.9752C23.1697 21.0612 22.7445 21.2953 22.8735 21.4816C22.9451 21.5485 23.1028 21.4912 23.3178 21.453V21.4577Z" fill="#441D39"/>
<path d="M36.8433 21.4577C35.2285 21.1663 33.8001 21.3956 33.0739 21.5342C32.8541 21.5772 32.6343 21.4721 32.5675 21.2905C32.491 21.0851 32.6344 20.8749 32.8828 20.8271C33.7093 20.6694 35.1951 20.4306 36.7526 20.9752C36.9914 21.0612 37.4166 21.2953 37.2877 21.4816C37.216 21.5485 37.0583 21.4912 36.8433 21.453V21.4577Z" fill="#441D39"/>
<path d="M34.666 24.7673C34.9852 24.7673 35.2441 24.3181 35.2441 23.764C35.2441 23.2099 34.9852 22.7607 34.666 22.7607C34.3467 22.7607 34.0879 23.2099 34.0879 23.764C34.0879 24.3181 34.3467 24.7673 34.666 24.7673Z" fill="#441D39"/>
<path d="M25.9941 24.7673C26.3134 24.7673 26.5722 24.3181 26.5722 23.764C26.5722 23.2099 26.3134 22.7607 25.9941 22.7607C25.6748 22.7607 25.416 23.2099 25.416 23.764C25.416 24.3181 25.6748 24.7673 25.9941 24.7673Z" fill="#441D39"/>
<path d="M30.7134 28.4793H29.8009C29.3184 28.4793 28.9266 28.3312 28.7737 28.0875C28.6877 27.9537 28.6782 27.8009 28.7451 27.6575C28.9553 27.2132 29.1273 26.7832 29.1273 26.7832C29.175 26.659 29.3184 26.6017 29.4378 26.6542C29.562 26.702 29.6194 26.8454 29.5668 26.9648C29.5668 26.9648 29.39 27.4043 29.175 27.863C29.1989 27.8773 29.3948 28.0015 29.8009 28.0015H30.7134C30.8472 28.0015 30.9523 28.1066 30.9523 28.2404C30.9523 28.3742 30.8472 28.4793 30.7134 28.4793Z" fill="#EDA07E"/>
<path d="M29.839 31.485C28.7259 31.485 27.8802 31.3322 27.8181 31.3178C27.6891 31.2939 27.6031 31.1697 27.627 31.0407C27.6509 30.9117 27.7799 30.8257 27.9041 30.8496C27.9328 30.8496 30.5939 31.3417 32.6769 30.563C32.8011 30.5152 32.9396 30.5773 32.9826 30.7015C33.0304 30.8257 32.9683 30.9643 32.8441 31.0073C31.8456 31.3799 30.7515 31.485 29.8342 31.485H29.839Z" fill="#EDA07E"/>
<path d="M35.142 26.5447C36.0628 26.5447 36.8093 26.3736 36.8093 26.1625C36.8093 25.9514 36.0628 25.7803 35.142 25.7803C34.2211 25.7803 33.4746 25.9514 33.4746 26.1625C33.4746 26.3736 34.2211 26.5447 35.142 26.5447Z" fill="#EAA281"/>
<path d="M25.4154 26.5447C26.3363 26.5447 27.0828 26.3736 27.0828 26.1625C27.0828 25.9514 26.3363 25.7803 25.4154 25.7803C24.4945 25.7803 23.748 25.9514 23.748 26.1625C23.748 26.3736 24.4945 26.5447 25.4154 26.5447Z" fill="#EAA281"/>
<path d="M20.677 19.7128L20.1992 19.6842C20.6674 11.7248 28.0869 10.5926 28.1633 10.583L28.2302 11.056C28.2302 11.056 26.4243 11.3235 24.6089 12.5227C22.1867 14.1231 20.8681 16.5406 20.677 19.7128V19.7128Z" fill="#30132B"/>
<path d="M29.9121 10.1729V14.315C29.9121 14.315 36.9589 13.2782 39.835 22.7664C39.835 22.7664 41.789 10.0009 29.9121 10.1776V10.1729Z" fill="#441D39"/>
<path d="M29.745 10.1765V14.3186C29.745 14.3186 23.1186 13.4539 20.2425 22.942C20.2425 22.942 17.8681 10.0045 29.745 10.1765V10.1765Z" fill="#441D39"/>
<path d="M20.3999 29.6173C20.2614 29.6173 20.1992 29.6173 20.1754 29.3593H20.1658C20.1658 29.3593 20.1658 29.302 20.1658 29.2351C20.1562 29.0154 20.1563 28.6762 20.1563 28.1363C20.1563 27.5964 20.1562 27.2572 20.1658 27.0375C20.1658 26.9706 20.1658 26.9276 20.1658 26.9133H20.1754C20.204 26.6553 20.2614 26.6553 20.3999 26.6553C20.5385 26.6553 20.6006 26.6553 20.6244 26.9133H20.634C20.634 26.9133 20.634 26.9706 20.634 27.0375C20.6436 27.2572 20.6436 27.5964 20.6436 28.1363C20.6436 28.6762 20.6436 29.0154 20.634 29.2351C20.634 29.302 20.634 29.345 20.634 29.3593H20.6244C20.5958 29.6173 20.5385 29.6173 20.3999 29.6173Z" fill="#FFA33A"/>
<path d="M39.9956 29.6173C39.8571 29.6173 39.795 29.6173 39.7711 29.3593H39.7615C39.7615 29.3593 39.7615 29.302 39.7615 29.2351C39.752 29.0154 39.752 28.6762 39.752 28.1363C39.752 27.5964 39.752 27.2572 39.7615 27.0375C39.7615 26.9706 39.7615 26.9276 39.7615 26.9133H39.7711C39.7997 26.6553 39.8571 26.6553 39.9956 26.6553C40.1342 26.6553 40.1963 26.6553 40.2202 26.9133H40.2297C40.2297 26.9133 40.2297 26.9706 40.2297 27.0375C40.2393 27.2572 40.2393 27.5964 40.2393 28.1363C40.2393 28.6762 40.2393 29.0154 40.2297 29.2351C40.2297 29.302 40.2297 29.345 40.2297 29.3593H40.2202C40.1915 29.6173 40.1342 29.6173 39.9956 29.6173Z" fill="#FFA33A"/>
<path d="M45.0905 49.77C49.8845 49.77 53.7709 44.7812 53.7709 38.6272C53.7709 32.4732 49.8845 27.4844 45.0905 27.4844C40.2965 27.4844 36.4102 32.4732 36.4102 38.6272C36.4102 44.7812 40.2965 49.77 45.0905 49.77Z" fill="#FFB69F"/>
<path d="M52.6716 29.7288C52.6716 29.7288 52.6801 29.7076 52.6716 29.6948C52.3838 29.0021 52.0326 25.5216 46.3867 24.9946C44.9393 24.8586 42.8697 25.1009 41.5577 25.7298C39.759 26.5883 37.7487 27.0813 35.9712 27.077C35.895 27.077 35.8654 27.179 35.9331 27.2172L37.3213 28.3264C37.3763 28.3562 37.372 28.4369 37.3128 28.4624L35.5691 28.9936C35.5056 29.0191 35.5056 29.1126 35.5691 29.1339C35.8527 29.2274 36.5721 29.5461 37.2239 29.7713C36.1574 31.6667 36.4029 34.3908 36.4029 37.6631C36.4029 37.6631 36.369 41.0544 37.5075 44.9429C38.7518 49.1927 41.4816 51.0158 45.3287 51.0286C49.4255 51.0456 51.5628 47.5183 52.1341 46.2646C53.006 44.3437 53.7551 40.7739 53.7593 38.6278C53.7593 38.6278 55.3337 33.2051 52.6632 29.7288H52.6716ZM49.1927 45.4741C48.3463 45.9076 48.7737 43.651 47.0893 43.5575C46.5264 43.5235 44.6134 43.3918 43.0052 43.5278C41.782 43.634 41.4858 44.7389 41.4308 45.2999C41.4054 45.5421 41.3207 45.6526 41.0922 45.5676C40.5843 45.3807 39.5051 44.7772 38.9972 44.2162C38.4724 43.6383 37.5244 42.0786 37.4355 38.785L37.5286 34.0806C37.5286 34.0806 39.412 32.4954 39.7379 31.3692C39.7379 31.3692 48.1516 32.7207 50.5894 31.3692C50.5894 31.3692 51.6093 33.3284 52.7224 33.9191C53.0652 34.0976 53.006 36.3329 52.9764 37.8756C52.9467 38.0838 52.9213 38.3218 52.9086 38.6023C52.6843 43.0093 50.0307 45.0449 49.1885 45.4784L49.1927 45.4741Z" fill="#B54D4D"/>
</g>
</g>
</svg>
