<svg width="18" height="17" viewBox="0 0 18 17" fill="none" xmlns="http://www.w3.org/2000/svg">
<g clip-path="url(#clip0_496_11992)">
<path d="M8.60156 0.270508C3.8517 0.270508 0.601562 2.65877 0.601562 5.60384V6.13717C0.601562 6.43211 0.840496 6.67051 1.1349 6.67051H16.0682C16.3632 6.67051 16.6016 6.43211 16.6016 6.13717V5.60384C16.6016 2.65877 13.3557 0.270508 8.60156 0.270508ZM0.601562 15.2038C0.601562 15.7932 1.07943 16.2705 1.66823 16.2705H15.5349C16.1237 16.2705 16.6016 15.7932 16.6016 15.2038V14.1372H0.601562V15.2038Z" fill="#DDAF6D"/>
<path d="M1.13503 12.0039H16.0684C16.6572 12.0039 17.135 12.4818 17.135 13.0706C17.135 13.6599 16.6572 14.1372 16.0684 14.1372H1.13503C0.546226 14.1372 0.0683594 13.6599 0.0683594 13.0706C0.0683594 12.4818 0.546226 12.0039 1.13503 12.0039Z" fill="#BB6F39"/>
<path d="M1.13525 9.87012H16.0686V12.0035H15.0019L13.4019 13.6035L11.8041 12.0035H1.13525V9.87012Z" fill="#EFC75E"/>
<path d="M1.13525 6.6709H16.0686V8.2709H1.13525V6.6709Z" fill="#BF392C"/>
<path d="M1.1349 6.67051H2.20156C1.90716 6.67051 1.66823 6.43211 1.66823 6.13717V5.60384C1.66823 2.77077 4.67943 0.459841 9.1349 0.287574C8.95783 0.280641 8.7829 0.270508 8.60156 0.270508C3.8517 0.270508 0.601562 2.65877 0.601562 5.60384V6.13717C0.601562 6.43211 0.840496 6.67051 1.1349 6.67051Z" fill="#C69D63"/>
<path d="M1.66823 15.2034V14.1367H0.601562V15.2034C0.601562 15.7927 1.07943 16.2701 1.66823 16.2701H2.7349C2.1461 16.2701 1.66823 15.7927 1.66823 15.2034Z" fill="#C69D63"/>
<path d="M2.20192 6.6709H1.13525V8.2709H2.20192V6.6709Z" fill="#AE3C30"/>
<path d="M1.16459 9.87012H1.13525V10.9096V12.0035H2.20192V10.9096C1.67979 10.804 1.27072 10.3923 1.16459 9.87012Z" fill="#D7B354"/>
<path d="M16.0684 8.29771V8.27051H1.13503V8.29771C0.526493 8.42144 0.0683594 8.95851 0.0683594 9.60384C0.0683594 10.3404 0.665159 10.9372 1.40169 10.9372C2.04703 10.9372 2.58463 10.4801 2.70836 9.87051H4.86836C4.86836 10.4593 5.46516 10.9372 6.20169 10.9372C6.93823 10.9372 7.53503 10.4593 7.53503 9.87051H9.66836C9.66836 10.4593 10.2652 10.9372 11.0017 10.9372C11.7382 10.9372 12.335 10.4593 12.335 9.87051H14.4956C14.6188 10.4801 15.1564 10.9372 15.8017 10.9372C16.5382 10.9372 17.135 10.3404 17.135 9.60384C17.135 8.95851 16.6774 8.42144 16.0684 8.29771Z" fill="#3DB39E"/>
<path d="M0.115293 9.93611C0.129159 9.99051 0.144093 10.0438 0.164359 10.0956C0.176093 10.1249 0.190493 10.1521 0.204359 10.1804C0.226226 10.2257 0.249159 10.27 0.275826 10.3121C0.293426 10.3398 0.312626 10.3665 0.331826 10.3926C0.360626 10.431 0.390493 10.4684 0.423026 10.5036C0.445426 10.5281 0.468359 10.5521 0.492893 10.575C0.528093 10.6081 0.565426 10.6374 0.603826 10.6662C0.629959 10.686 0.656093 10.7068 0.683826 10.7244C0.726493 10.7516 0.771826 10.7745 0.817693 10.7969C0.844893 10.8102 0.871026 10.8262 0.899293 10.8374C0.961159 10.8625 1.02623 10.8817 1.09236 10.8972C1.10729 10.9014 1.12063 10.9068 1.13503 10.91C1.22143 10.9276 1.31049 10.9372 1.40169 10.9372C1.59156 10.9372 1.77076 10.8934 1.93449 10.822C1.46463 10.6156 1.13503 10.1494 1.13503 9.60384C1.13503 8.95851 1.59316 8.42144 2.20169 8.29771V8.27051H1.13503V8.29771C0.526493 8.42144 0.0683594 8.95851 0.0683594 9.60384C0.0683594 9.69077 0.0779594 9.77504 0.0939594 9.85771C0.0992927 9.88437 0.108359 9.90997 0.115293 9.93611Z" fill="#37A18E"/>
<path d="M1.13503 13.0706C1.13503 12.4818 1.61289 12.0039 2.20169 12.0039H1.13503C0.546226 12.0039 0.0683594 12.4818 0.0683594 13.0706C0.0683594 13.6599 0.546226 14.1372 1.13503 14.1372H2.20169C1.61289 14.1372 1.13503 13.6599 1.13503 13.0706Z" fill="#A86433"/>
</g>
<defs>
<clipPath id="clip0_496_11992">
<rect width="17.0667" height="16" fill="white" transform="translate(0.0683594 0.270508)"/>
</clipPath>
</defs>
</svg>
