<svg width="24" height="24" viewBox="0 0 24 24" fill="none" xmlns="http://www.w3.org/2000/svg">
<path d="M21.4386 7.4021L14.2473 1.80878C13.6163 1.31782 12.8395 1.05127 12.0399 1.05127C11.2404 1.05127 10.4636 1.31782 9.83255 1.80878L2.63998 7.4021C2.20773 7.73824 1.85802 8.16872 1.61754 8.66066C1.37706 9.1526 1.25218 9.69299 1.25244 10.2406V19.9493C1.25244 20.6646 1.53658 21.3505 2.04234 21.8563C2.5481 22.3621 3.23406 22.6462 3.94932 22.6462H20.1306C20.8458 22.6462 21.5318 22.3621 22.0375 21.8563C22.5433 21.3505 22.8274 20.6646 22.8274 19.9493V10.2406C22.8274 9.1308 22.315 8.08306 21.4386 7.4021Z" stroke="#66696F" stroke-width="1.5" stroke-linecap="round" stroke-linejoin="round"/>
<path d="M17.3954 15.8843C14.4154 17.6817 9.58526 17.6817 6.60791 15.8843" stroke="#66696F" stroke-width="1.5" stroke-linecap="round" stroke-linejoin="round"/>
</svg>
