<?xml version="1.0" standalone="no"?>
<!DOCTYPE svg PUBLIC "-//W3C//DTD SVG 20010904//EN"
 "http://www.w3.org/TR/2001/REC-SVG-20010904/DTD/svg10.dtd">
<svg version="1.0" xmlns="http://www.w3.org/2000/svg"
 width="512.000000pt" height="512.000000pt" viewBox="0 0 512.000000 512.000000"
 preserveAspectRatio="xMidYMid meet">

<g transform="translate(0.000000,512.000000) scale(0.100000,-0.100000)"
fill="#000000" stroke="none">
<path d="M2375 4825 c-181 -28 -351 -92 -500 -189 -110 -71 -292 -253 -350
-349 l-40 -66 -515 -1 c-515 0 -516 0 -560 -22 -33 -17 -51 -35 -67 -68 -22
-43 -23 -54 -23 -310 0 -297 6 -324 71 -371 l34 -24 2137 0 2137 0 28 21 c15
11 38 36 51 54 22 32 22 39 22 317 0 265 -1 286 -20 323 -13 26 -34 47 -60 60
-38 19 -58 20 -559 20 l-519 0 -58 87 c-70 104 -192 230 -294 302 -260 183
-607 265 -915 216z"/>
<path d="M640 1738 c0 -1308 1 -1365 19 -1404 10 -23 34 -52 52 -65 l34 -24
697 0 c691 0 697 0 725 21 15 11 38 36 51 54 21 32 22 41 22 256 l0 224 320 0
320 0 0 -213 c0 -201 1 -215 23 -257 14 -30 36 -53 62 -67 l40 -23 687 3 c679
2 687 2 715 23 15 11 38 36 51 54 l22 33 0 1373 0 1374 -1920 0 -1920 0 0
-1362z m1151 967 c16 -9 34 -27 39 -41 6 -14 10 -124 10 -245 l0 -221 -29 -29
-29 -29 -246 0 c-158 0 -254 4 -269 11 -48 22 -52 45 -52 286 l0 225 33 29 32
29 241 0 c197 0 245 -3 270 -15z m1051 -14 l33 -29 0 -225 c0 -241 -4 -264
-52 -286 -15 -7 -111 -11 -269 -11 l-246 0 -29 29 -29 29 0 229 c0 245 3 263
54 283 11 5 130 9 263 9 l243 1 32 -29z m1017 14 c48 -24 52 -51 49 -294 l-3
-223 -28 -24 c-28 -24 -28 -24 -281 -24 -340 0 -319 -21 -314 318 l3 204 33
29 32 29 241 0 c190 0 246 -3 268 -15z m-2043 -908 c24 -28 24 -29 24 -258 l0
-231 -29 -29 -29 -29 -246 0 c-158 0 -254 4 -269 11 -48 22 -52 45 -52 286 l0
225 33 29 33 30 256 -3 255 -3 24 -28z m1026 4 l33 -29 0 -232 0 -232 -33 -29
-32 -29 -251 0 -251 0 -29 29 -29 29 0 229 c0 245 3 263 54 283 11 5 130 9
263 9 l243 1 32 -29z m1017 14 c48 -24 52 -51 49 -294 l-3 -223 -28 -24 c-28
-24 -29 -24 -273 -24 -272 0 -293 4 -313 61 -7 19 -11 111 -11 231 0 215 7
254 53 276 14 7 114 11 260 11 190 1 244 -2 266 -14z"/>
</g>
</svg>
