<svg width="20" height="20" viewBox="0 0 20 20" fill="none" xmlns="http://www.w3.org/2000/svg">
<path d="M10 0C8.02219 0 6.08879 0.58649 4.4443 1.6853C2.79981 2.78412 1.51809 4.3459 0.761209 6.17316C0.00433286 8.00042 -0.1937 10.0111 0.192152 11.9509C0.578004 13.8907 1.53041 15.6725 2.92894 17.0711C4.32746 18.4696 6.10929 19.422 8.0491 19.8078C9.98891 20.1937 11.9996 19.9957 13.8268 19.2388C15.6541 18.4819 17.2159 17.2002 18.3147 15.5557C19.4135 13.9112 20 11.9778 20 10C19.9969 7.34878 18.9424 4.80704 17.0677 2.93234C15.193 1.05765 12.6512 0.00308769 10 0ZM10 15.38C9.80987 15.38 9.62401 15.3236 9.4659 15.218C9.3078 15.1124 9.18454 14.9624 9.1117 14.7867C9.03887 14.6111 9.01972 14.4178 9.0567 14.2313C9.09367 14.0448 9.18509 13.8735 9.31942 13.7389C9.45374 13.6044 9.62494 13.5126 9.81137 13.4753C9.99781 13.4381 10.1911 13.4569 10.3669 13.5294C10.5426 13.6019 10.6929 13.7249 10.7988 13.8828C10.9047 14.0408 10.9613 14.2265 10.9617 14.4167C10.9619 14.5431 10.9372 14.6683 10.8889 14.7852C10.8407 14.9021 10.7699 15.0083 10.6806 15.0977C10.5913 15.1872 10.4852 15.2582 10.3684 15.3066C10.2516 15.3551 10.1264 15.38 10 15.38ZM11.0442 5.71333L10.7683 11.5783C10.7683 11.7823 10.6873 11.978 10.5431 12.1222C10.3988 12.2665 10.2032 12.3475 9.99917 12.3475C9.79517 12.3475 9.59953 12.2665 9.45529 12.1222C9.31104 11.978 9.23 11.7823 9.23 11.5783L8.95417 5.71583C8.94855 5.5752 8.9714 5.43488 9.02134 5.3033C9.07128 5.17171 9.14729 5.05157 9.2448 4.95008C9.34232 4.8486 9.45933 4.76785 9.58881 4.71269C9.7183 4.65754 9.85759 4.62911 9.99834 4.62911C10.1391 4.62911 10.2784 4.65754 10.4079 4.71269C10.5373 4.76785 10.6544 4.8486 10.7519 4.95008C10.8494 5.05157 10.9254 5.17171 10.9753 5.3033C11.0253 5.43488 11.0481 5.5752 11.0425 5.71583L11.0442 5.71333Z" fill="#0167D7"/>
</svg>
