<svg width="19" height="20" viewBox="0 0 19 20" fill="none" xmlns="http://www.w3.org/2000/svg">
<path fill-rule="evenodd" clip-rule="evenodd" d="M0.441406 5.7539C0.441406 2.99248 2.67998 0.753906 5.44141 0.753906H13.8945C16.656 0.753906 18.8945 2.99248 18.8945 5.75391V14.2039C18.8945 16.9653 16.656 19.2039 13.8945 19.2039H5.44141C2.67998 19.2039 0.441406 16.9653 0.441406 14.2039V5.7539ZM12.9487 9.86594C12.9487 11.6774 11.4802 13.1459 9.66867 13.1459C7.85718 13.1459 6.38867 11.6774 6.38867 9.86594C6.38867 8.05444 7.85718 6.58594 9.66867 6.58594C11.4802 6.58594 12.9487 8.05444 12.9487 9.86594ZM14.5865 5.74748C15.251 5.74748 15.7897 5.20882 15.7897 4.54436C15.7897 3.87989 15.251 3.34123 14.5865 3.34123C13.9221 3.34123 13.3834 3.87989 13.3834 4.54436C13.3834 5.20882 13.9221 5.74748 14.5865 5.74748Z" fill="#060C15"/>
</svg>
