<?xml version="1.0" standalone="no"?>
<!DOCTYPE svg PUBLIC "-//W3C//DTD SVG 20010904//EN"
 "http://www.w3.org/TR/2001/REC-SVG-20010904/DTD/svg10.dtd">
<svg version="1.0" xmlns="http://www.w3.org/2000/svg"
 width="80.000000pt" height="80.000000pt" viewBox="0 0 80.000000 80.000000"
 preserveAspectRatio="xMidYMid meet">

<g transform="translate(0.000000,80.000000) scale(0.100000,-0.100000)"
fill="#000000" stroke="none">
<path d="M260 724 l-39 -36 -35 27 c-19 15 -43 25 -53 23 -17 -3 -18 -26 -21
-371 l-2 -367 25 0 c14 0 39 10 55 22 l30 22 23 -22 c31 -29 98 -30 139 -1
l29 21 23 -21 c30 -28 97 -28 138 0 l29 21 24 -22 c15 -14 33 -20 51 -18 l29
3 3 345 c1 190 0 355 -3 368 -7 30 -42 29 -76 -4 l-28 -27 -42 37 c-24 20 -49
36 -56 36 -7 0 -31 -16 -53 -36 l-39 -36 -44 36 c-24 20 -49 36 -56 36 -6 0
-29 -16 -51 -36z m168 -246 c-6 -18 -200 -18 -205 0 -4 9 21 12 102 12 81 0
106 -3 103 -12z m170 -110 c-4 -10 -53 -14 -191 -16 -162 -2 -187 0 -187 13 0
13 27 15 191 15 148 0 190 -3 187 -12z m0 -115 c3 -10 -39 -13 -187 -13 -164
0 -191 2 -191 15 0 13 25 15 187 13 138 -2 187 -6 191 -15z"/>
</g>
</svg>
