<svg width="14" height="16" viewBox="0 0 14 16" fill="none" xmlns="http://www.w3.org/2000/svg">
<path d="M7.16943 9.55936V5.86688L12.3763 3.50033C12.4637 3.46064 12.5379 3.39659 12.59 3.31584C12.642 3.2351 12.6697 3.14108 12.6697 3.04502C12.6697 2.94897 12.642 2.85494 12.59 2.7742C12.5379 2.69345 12.4637 2.62941 12.3763 2.58971L6.8763 0.0897265C6.80013 0.0551088 6.71649 0.0401593 6.63305 0.0462475C6.5496 0.0523357 6.46902 0.079267 6.39868 0.124574C6.32834 0.169881 6.27049 0.232115 6.23044 0.305574C6.19039 0.379033 6.16941 0.461368 6.16943 0.545036V9.55936C6.3361 9.54998 6.50276 9.54519 6.66943 9.54498C6.8361 9.54478 7.00276 9.54957 7.16943 9.55936Z" fill="#84FF50"/>
<path d="M13.1482 13.8418C12.8807 12.5027 12.051 11.3812 10.7488 10.598C9.73318 9.98711 8.47787 9.61992 7.16913 9.54492V12.0371C7.16913 12.1697 7.11645 12.2969 7.02268 12.3906C6.92892 12.4844 6.80174 12.5371 6.66913 12.5371C6.53652 12.5371 6.40935 12.4844 6.31558 12.3906C6.22181 12.2969 6.16913 12.1697 6.16913 12.0371V9.54492C4.86039 9.61992 3.60509 9.98711 2.58947 10.598C1.28729 11.3812 0.457605 12.5027 0.190107 13.8418C0.158864 13.9889 0.160711 14.1412 0.195516 14.2875C0.230321 14.4339 0.297213 14.5707 0.391355 14.688C0.579479 14.9199 0.856665 15.0449 1.16916 15.0449H12.1691C12.4816 15.0449 12.7591 14.9183 12.9472 14.688C13.0413 14.5707 13.1081 14.4339 13.1429 14.2875C13.1776 14.1411 13.1794 13.9889 13.1482 13.8418Z" fill="#84FF50"/>
</svg>
