<svg width="13" height="13" viewBox="0 0 13 13" fill="none" xmlns="http://www.w3.org/2000/svg">
<path d="M6.47559 12.1364C6.28199 12.1362 6.09295 12.0777 5.93306 11.9685C3.56433 10.3605 2.53865 9.258 1.97292 8.56869C0.767302 7.09934 0.190114 5.59082 0.206389 3.95721C0.225378 2.08519 1.72727 0.5625 3.55438 0.5625C4.88297 0.5625 5.80315 1.31089 6.33905 1.93419C6.35603 1.95373 6.377 1.96941 6.40056 1.98015C6.42411 1.99089 6.4497 1.99645 6.47559 1.99645C6.50147 1.99645 6.52706 1.99089 6.55062 1.98015C6.57417 1.96941 6.59515 1.95373 6.61212 1.93419C7.14802 1.31028 8.0682 0.5625 9.39679 0.5625C11.2239 0.5625 12.7258 2.08519 12.7448 3.95751C12.7611 5.59142 12.1833 7.09995 10.9783 8.56899C10.4125 9.2583 9.38684 10.3608 7.01811 11.9688C6.85818 12.0779 6.66915 12.1362 6.47559 12.1364Z" fill="white"/>
</svg>
