<?xml version="1.0" standalone="no"?>
<!DOCTYPE svg PUBLIC "-//W3C//DTD SVG 20010904//EN"
 "http://www.w3.org/TR/2001/REC-SVG-20010904/DTD/svg10.dtd">
<svg version="1.0" xmlns="http://www.w3.org/2000/svg"
 width="512.000000pt" height="527.000000pt" viewBox="0 0 512.000000 527.000000"
 preserveAspectRatio="xMidYMid meet">

<g transform="translate(0.000000,527.000000) scale(0.100000,-0.100000)"
fill="#000000" stroke="none">
<path d="M3275 3880 c-169 -27 -343 -116 -455 -232 -67 -70 -67 -156 0 -219
69 -65 147 -60 230 15 203 183 505 173 701 -23 77 -78 113 -146 137 -259 13
-66 14 -93 5 -154 -14 -98 -45 -176 -98 -245 -24 -32 -193 -207 -377 -389
-349 -347 -384 -375 -503 -410 -78 -22 -202 -22 -280 0 -160 47 -285 165 -342
326 -30 86 -32 220 -3 312 20 64 81 170 114 197 49 40 61 139 26 197 -22 34
-90 74 -128 74 -62 0 -126 -51 -201 -160 -82 -119 -123 -228 -141 -373 -30
-251 62 -503 246 -678 105 -99 198 -152 341 -195 77 -24 105 -27 223 -27 118
0 146 3 223 27 94 28 165 61 237 109 55 36 767 742 820 813 193 257 211 628
43 908 -46 77 -160 196 -237 248 -76 52 -184 101 -267 122 -83 20 -235 28
-314 16z"/>
<path d="M2130 3493 c-132 -17 -281 -76 -386 -154 -64 -46 -657 -631 -755
-744 -278 -320 -273 -779 11 -1088 160 -173 362 -262 600 -262 132 0 225 19
336 70 129 59 250 155 273 218 45 119 -76 242 -194 197 -15 -6 -51 -30 -80
-54 -99 -81 -199 -116 -330 -116 -142 0 -249 43 -352 143 -109 105 -160 237
-150 392 6 102 27 168 76 241 22 33 198 216 393 410 382 381 402 396 540 429
226 53 465 -61 564 -269 89 -188 64 -395 -68 -556 -58 -71 -68 -91 -68 -135 0
-101 85 -169 186 -151 72 14 189 157 252 308 35 83 62 219 62 308 0 86 -26
220 -60 304 -94 238 -304 422 -554 486 -79 20 -231 32 -296 23z"/>
</g>
</svg>
