<svg width="42" height="42" viewBox="0 0 42 42" fill="none" xmlns="http://www.w3.org/2000/svg">
<rect width="42" height="42" rx="20.5" fill="white"/>
<path d="M20.4881 9.99023C15.9695 9.99023 12.293 13.4227 12.293 17.6402C12.293 19.6487 13.2308 22.3197 15.0803 25.5792C16.5657 28.1962 18.2841 30.5627 19.1779 31.7402C19.3289 31.9414 19.5264 32.105 19.7543 32.2178C19.9822 32.3306 20.2341 32.3894 20.4896 32.3894C20.7451 32.3894 20.9971 32.3306 21.225 32.2178C21.4529 32.105 21.6503 31.9414 21.8014 31.7402C22.6936 30.5627 24.4136 28.1962 25.8989 25.5792C27.7454 22.3207 28.6832 19.6497 28.6832 17.6402C28.6832 13.4227 25.0067 9.99023 20.4881 9.99023ZM20.4881 21.1902C19.8398 21.1902 19.206 21.0026 18.6669 20.6509C18.1278 20.2993 17.7077 19.7995 17.4596 19.2148C17.2115 18.6301 17.1465 17.9867 17.273 17.3659C17.3995 16.7452 17.7117 16.175 18.1702 15.7275C18.6286 15.28 19.2127 14.9752 19.8486 14.8517C20.4845 14.7282 21.1436 14.7916 21.7425 15.0338C22.3415 15.276 22.8535 15.6862 23.2137 16.2124C23.5739 16.7386 23.7661 17.3573 23.7661 17.9902C23.7652 18.8386 23.4195 19.652 22.805 20.252C22.1904 20.8519 21.3572 21.1893 20.4881 21.1902Z" fill="#FF3A44"/>
</svg>
