<svg width="15" height="21" viewBox="0 0 15 21" fill="none" xmlns="http://www.w3.org/2000/svg">
<path d="M7.43164 0.927734C3.94661 0.927734 1.11914 3.63783 1.11914 6.97567C1.11914 10.8163 5.32747 16.9027 6.87272 19.0049C6.93686 19.0936 7.02093 19.1658 7.11807 19.2156C7.2152 19.2654 7.32265 19.2914 7.43164 19.2914C7.54063 19.2914 7.64808 19.2654 7.74522 19.2156C7.84235 19.1658 7.92642 19.0936 7.99056 19.0049C9.53581 16.9036 13.7441 10.8194 13.7441 6.97567C13.7441 3.63783 10.9167 0.927734 7.43164 0.927734Z" stroke="#4E5259" stroke-width="1.5" stroke-linecap="round" stroke-linejoin="round"/>
<path d="M7.43217 9.53524C8.69992 9.53524 9.72763 8.50753 9.72763 7.23979C9.72763 5.97205 8.69992 4.94434 7.43217 4.94434C6.16443 4.94434 5.13672 5.97205 5.13672 7.23979C5.13672 8.50753 6.16443 9.53524 7.43217 9.53524Z" stroke="#4E5259" stroke-width="1.5" stroke-linecap="round" stroke-linejoin="round"/>
</svg>
