<svg width="26" height="35" viewBox="0 0 26 35" fill="none" xmlns="http://www.w3.org/2000/svg">
<path d="M13.0859 0.142578C6.19375 0.142578 0.585938 5.35282 0.585938 11.7546C0.585938 14.8033 2.01641 18.8577 4.8375 23.8053C7.10312 27.7777 9.72422 31.3699 11.0875 33.1572C11.3179 33.4626 11.6191 33.711 11.9667 33.8822C12.3143 34.0534 12.6985 34.1426 13.0883 34.1426C13.478 34.1426 13.8623 34.0534 14.2099 33.8822C14.5575 33.711 14.8587 33.4626 15.0891 33.1572C16.45 31.3699 19.0734 27.7777 21.3391 23.8053C24.1555 18.8592 25.5859 14.8049 25.5859 11.7546C25.5859 5.35282 19.9781 0.142578 13.0859 0.142578ZM13.0859 17.1432C12.097 17.1432 11.1303 16.8583 10.3081 16.3246C9.48584 15.7909 8.84498 15.0323 8.46654 14.1447C8.0881 13.2571 7.98908 12.2805 8.18201 11.3383C8.37494 10.396 8.85114 9.53055 9.5504 8.85124C10.2497 8.17193 11.1406 7.70932 12.1105 7.5219C13.0804 7.33448 14.0857 7.43067 14.9994 7.79831C15.913 8.16595 16.6939 8.78852 17.2433 9.5873C17.7927 10.3861 18.0859 11.3252 18.0859 12.2859C18.0845 13.5737 17.5572 14.8084 16.6199 15.719C15.6825 16.6296 14.4116 17.1418 13.0859 17.1432Z" fill="#FF5A62"/>
</svg>
