<svg width="28" height="28" viewBox="0 0 28 28" fill="none" xmlns="http://www.w3.org/2000/svg">
<path d="M12.1255 15.8756L18.8137 9.1405" stroke="#6A6D73" stroke-width="2.2" stroke-linecap="round" stroke-linejoin="round"/>
<path d="M25.5579 1.30869C26.3561 1.02519 27.1232 1.80043 26.8313 2.59561L18.3573 25.6809C18.2953 25.8143 18.1963 25.927 18.0722 26.0058C17.948 26.0846 17.8038 26.126 17.6568 26.1253C17.5097 26.1245 17.366 26.0815 17.2426 26.0014C17.1193 25.9214 17.0215 25.8076 16.961 25.6736L12.273 16.1728C12.1772 15.9787 12.0211 15.821 11.8281 15.7232L2.37725 10.9354C2.24389 10.8734 2.13113 10.7745 2.05236 10.6503C1.97359 10.5261 1.93213 10.3819 1.9329 10.2349C1.93367 10.0878 1.97665 9.94411 2.05672 9.82077C2.1368 9.69743 2.2506 9.59967 2.3846 9.53912L25.5579 1.30869Z" stroke="#6A6D73" stroke-width="2.2" stroke-linecap="round" stroke-linejoin="round"/>
</svg>
