<svg width="41" height="36" viewBox="0 0 41 36" fill="none" xmlns="http://www.w3.org/2000/svg">
<path d="M11.0444 17.9805C11.0444 17.5693 11.2077 17.1749 11.4985 16.8842C11.7893 16.5934 12.1836 16.43 12.5948 16.43H26.5487V6.35227C26.5487 3.25142 23.2743 0.925781 20.3469 0.925781H5.6179C4.17918 0.92732 2.79982 1.49953 1.78249 2.51686C0.765158 3.53419 0.192945 4.91355 0.191406 6.35227V29.6087C0.192945 31.0474 0.765158 32.4267 1.78249 33.4441C2.79982 34.4614 4.17918 35.0336 5.6179 35.0352H21.1222C22.5609 35.0336 23.9402 34.4614 24.9576 33.4441C25.9749 32.4267 26.5471 31.0474 26.5487 29.6087V19.5309H12.5948C12.1836 19.5309 11.7893 19.3675 11.4985 19.0768C11.2077 18.786 11.0444 18.3917 11.0444 17.9805ZM40.048 16.8845L32.2959 9.13238C32.0028 8.85389 31.6124 8.70093 31.2081 8.70611C30.8039 8.71128 30.4176 8.87419 30.1317 9.16009C29.8458 9.44599 29.6829 9.83227 29.6777 10.2366C29.6725 10.6408 29.8255 11.0312 30.104 11.3243L35.2087 16.43H26.5487V19.5309H35.2087L30.104 24.6366C29.9539 24.7792 29.834 24.9503 29.7511 25.1399C29.6683 25.3296 29.6242 25.5339 29.6216 25.7408C29.6189 25.9477 29.6577 26.1531 29.7357 26.3448C29.8137 26.5365 29.9292 26.7107 30.0755 26.857C30.2219 27.0033 30.396 27.1189 30.5877 27.1968C30.7794 27.2748 30.9848 27.3136 31.1917 27.311C31.3986 27.3083 31.6029 27.2643 31.7926 27.1814C31.9822 27.0986 32.1533 26.9786 32.2959 26.8286L40.048 19.0764C40.3386 18.7857 40.5018 18.3915 40.5018 17.9805C40.5018 17.5694 40.3386 17.1752 40.048 16.8845Z" fill="#FF4343"/>
</svg>
