<svg width="14" height="14" viewBox="0 0 14 14" fill="none" xmlns="http://www.w3.org/2000/svg">
<path d="M0.864592 2.83102C0.721457 2.91474 0.60252 3.03601 0.519934 3.18243C0.437348 3.32886 0.394075 3.49519 0.394536 3.66443V12.529C0.394016 12.6941 0.43515 12.8566 0.513929 13.0006C0.592707 13.1445 0.706441 13.2651 0.844044 13.3504C0.981647 13.4358 1.13842 13.483 1.29909 13.4876C1.45976 13.4921 1.61883 13.4538 1.76081 13.3764C1.77331 13.3696 1.78552 13.3624 1.79744 13.3543L4.24335 11.7099C4.27583 11.6881 4.3025 11.6584 4.32093 11.6233C4.33936 11.5883 4.34897 11.549 4.34888 11.5092V0.832944C4.34899 0.789412 4.33754 0.746674 4.31575 0.709344C4.29395 0.672013 4.26265 0.641509 4.22522 0.621124C4.18779 0.600739 4.14565 0.591248 4.10335 0.593676C4.06105 0.596103 4.0202 0.610357 3.98521 0.634898L0.864592 2.83102ZM5.63753 0.619664C5.60247 0.596243 5.56191 0.582972 5.52012 0.581247C5.47833 0.579523 5.43687 0.589409 5.40009 0.609865C5.36331 0.63032 5.33258 0.660589 5.31113 0.697482C5.28969 0.734375 5.27832 0.776528 5.27823 0.819502V11.5002C5.27814 11.5401 5.28774 11.5793 5.30617 11.6144C5.3246 11.6494 5.35127 11.6792 5.38375 11.701L8.17444 13.5655C8.20952 13.589 8.25014 13.6024 8.292 13.6041C8.33385 13.6059 8.37539 13.596 8.41223 13.5755C8.44906 13.555 8.47982 13.5246 8.50126 13.4876C8.5227 13.4507 8.53402 13.4084 8.53403 13.3654V2.69152C8.53414 2.6516 8.52451 2.61228 8.50603 2.57717C8.48754 2.54205 8.46079 2.51225 8.42821 2.49049L5.63753 0.619664ZM12.968 0.833541C12.8309 0.747328 12.6742 0.699535 12.5136 0.694923C12.3529 0.69031 12.1939 0.729041 12.0523 0.807254C12.0398 0.813866 12.0277 0.821248 12.016 0.829359L9.56978 2.47227C9.5373 2.49404 9.51063 2.5238 9.4922 2.55886C9.47377 2.59392 9.46416 2.63316 9.46425 2.673V13.3507C9.4641 13.3943 9.47554 13.4371 9.49735 13.4745C9.51916 13.5119 9.5505 13.5424 9.58798 13.5628C9.62546 13.5832 9.66765 13.5927 9.70999 13.5902C9.75233 13.5877 9.79321 13.5734 9.82821 13.5488L12.9407 11.3544C13.0856 11.2714 13.2062 11.1501 13.29 11.003C13.3739 10.8559 13.418 10.6885 13.4177 10.5181V1.67621C13.4196 1.50786 13.3793 1.34185 13.3005 1.19424C13.2217 1.04662 13.1072 0.922384 12.968 0.833541Z" fill="#84FF50"/>
</svg>
