<svg width="36" height="23" viewBox="0 0 36 23" fill="none" xmlns="http://www.w3.org/2000/svg">
<path d="M13.3945 2.32812H23.0083V19.6043H13.3945V2.32812Z" fill="#FF5F00"/>
<path d="M18.1861 19.705C16.2522 21.2327 13.8596 22.0636 11.395 22.0636C8.9305 22.0636 6.53793 21.2327 4.60396 19.705C-0.156598 15.9508 -0.981078 9.0537 2.77203 4.29314C6.52626 -0.499779 13.4233 -1.32314 18.1839 2.43109C16.8829 3.46424 15.8315 4.7773 15.1078 6.27267C14.384 7.76805 14.0066 9.40729 14.0035 11.0686C14.0038 12.7305 14.3802 14.3707 15.1046 15.8664C15.8289 17.362 16.8824 18.6744 18.1861 19.705Z" fill="#EB001B"/>
<path fill-rule="evenodd" clip-rule="evenodd" d="M35.9813 11.0729C35.982 12.5159 35.6983 13.9449 35.1464 15.2782C34.5945 16.6115 33.7852 17.8229 32.7648 18.8432C31.7444 19.8635 30.5329 20.6727 29.1996 21.2244C27.8662 21.7762 26.4372 22.0598 24.9942 22.0589C22.535 22.0644 20.1465 21.2361 18.2187 19.7093C22.9793 15.9551 23.8038 9.05798 20.0518 4.29742C19.4995 3.62356 18.8893 2.98205 18.1875 2.43425C22.9481 -1.32109 29.8764 -0.497727 33.6016 4.26507C35.1459 6.19772 35.9853 8.59903 35.9813 11.0729Z" fill="#F79E1B"/>
</svg>
