<svg width="39" height="10" viewBox="0 0 39 10" fill="none" xmlns="http://www.w3.org/2000/svg">
<path d="M19.2412 9.18359C21.6612 9.18359 23.623 7.22178 23.623 4.80176C23.623 2.38174 21.6612 0.419922 19.2412 0.419922C16.8212 0.419922 14.8594 2.38174 14.8594 4.80176C14.8594 7.22178 16.8212 9.18359 19.2412 9.18359Z" fill="white"/>
<path d="M34.0312 9.18359C36.4513 9.18359 38.4131 7.22178 38.4131 4.80176C38.4131 2.38174 36.4513 0.419922 34.0312 0.419922C31.6112 0.419922 29.6494 2.38174 29.6494 4.80176C29.6494 7.22178 31.6112 9.18359 34.0312 9.18359Z" fill="white"/>
<path d="M4.4541 9.18359C6.87412 9.18359 8.83594 7.22178 8.83594 4.80176C8.83594 2.38174 6.87412 0.419922 4.4541 0.419922C2.03408 0.419922 0.0722656 2.38174 0.0722656 4.80176C0.0722656 7.22178 2.03408 9.18359 4.4541 9.18359Z" fill="white"/>
</svg>
