<svg width="60" height="60" viewBox="0 0 60 60" fill="none" xmlns="http://www.w3.org/2000/svg">
<path d="M59.668 30.168C59.668 46.3913 46.5163 59.543 30.293 59.543C14.0696 59.543 0.917969 46.3913 0.917969 30.168C0.917969 13.9446 14.0696 0.792969 30.293 0.792969C46.5163 0.792969 59.668 13.9446 59.668 30.168Z" fill="#FA6C9F" fill-opacity="0.2"/>
<path d="M34.6356 19.3739C33.5543 18.2713 32.0439 17.6641 30.3769 17.6641C28.701 17.6641 27.1856 18.2676 26.1092 19.3634C25.0212 20.4713 24.4911 21.977 24.6156 23.6028C24.8623 26.8105 27.4468 29.4199 30.3769 29.4199C33.307 29.4199 35.887 26.811 36.1377 23.6039C36.2638 21.9927 35.7303 20.4902 34.6356 19.3739ZM40.1569 41.1756H20.5969C20.3408 41.1788 20.0873 41.128 19.8547 41.0269C19.6221 40.9259 19.4162 40.7772 19.2521 40.5915C18.8909 40.1837 18.7453 39.6269 18.8531 39.0638C19.3221 36.6066 20.7858 34.5425 23.0863 33.0935C25.1301 31.8072 27.7191 31.0993 30.3769 31.0993C33.0347 31.0993 35.6237 31.8077 37.6675 33.0935C39.968 34.542 41.4317 36.6061 41.9007 39.0633C42.0085 39.6264 41.8629 40.1832 41.5017 40.591C41.3376 40.7767 41.1318 40.9256 40.8992 41.0267C40.6666 41.1278 40.413 41.1787 40.1569 41.1756Z" fill="#060C15" fill-opacity="0.8"/>
</svg>
