<svg width="27" height="21" viewBox="0 0 27 21" fill="none" xmlns="http://www.w3.org/2000/svg">
<path d="M0.490234 17.2344C0.490234 18.0957 0.833726 18.9218 1.44515 19.5308C2.05656 20.1399 2.88583 20.4821 3.7505 20.4821H23.3121C24.1768 20.4821 25.0061 20.1399 25.6175 19.5308C26.2289 18.9218 26.5724 18.0957 26.5724 17.2344V8.30343H0.490234V17.2344ZM4.3327 12.8269C4.3327 12.3655 4.51671 11.923 4.84425 11.5967C5.1718 11.2704 5.61605 11.0871 6.07927 11.0871H8.87379C9.33701 11.0871 9.78125 11.2704 10.1088 11.5967C10.4363 11.923 10.6204 12.3655 10.6204 12.8269V13.9868C10.6204 14.4482 10.4363 14.8907 10.1088 15.217C9.78125 15.5433 9.33701 15.7266 8.87379 15.7266H6.07927C5.61605 15.7266 5.1718 15.5433 4.84425 15.217C4.51671 14.8907 4.3327 14.4482 4.3327 13.9868V12.8269ZM23.3121 0.0683594H3.7505C2.88583 0.0683594 2.05656 0.41052 1.44515 1.01957C0.833726 1.62862 0.490234 2.45467 0.490234 3.31599V4.82382H26.5724V3.31599C26.5724 2.45467 26.2289 1.62862 25.6175 1.01957C25.0061 0.41052 24.1768 0.0683594 23.3121 0.0683594Z" fill="#4D5159"/>
</svg>
