<svg width="26" height="25" viewBox="0 0 26 25" fill="none" xmlns="http://www.w3.org/2000/svg">
<path d="M14.7191 12.5165C17.5303 12.5165 20.014 9.86928 20.2573 6.61501C20.3782 4.98016 19.8654 3.45554 18.8131 2.32286C17.772 1.20402 16.3166 0.587891 14.7191 0.587891C13.1087 0.587891 11.6523 1.20029 10.6186 2.31221C9.57327 3.43637 9.06364 4.96418 9.1808 6.61395C9.4199 9.86874 11.9031 12.5165 14.7191 12.5165ZM25.7626 22.3021C25.3131 19.8089 23.9099 17.7144 21.7053 16.2447C19.7472 14.9395 17.2661 14.2205 14.7191 14.2205C12.172 14.2205 9.69096 14.9395 7.73286 16.2441C5.52821 17.7139 4.12501 19.8083 3.67555 22.3016C3.57278 22.873 3.7123 23.438 4.05844 23.8518C4.21544 24.0404 4.41257 24.1915 4.63543 24.2941C4.8583 24.3967 5.10128 24.4483 5.34662 24.445H24.0915C24.337 24.4485 24.5801 24.3971 24.8032 24.2946C25.0263 24.192 25.2236 24.0409 25.3808 23.8523C25.7258 23.4386 25.8654 22.8735 25.7626 22.3021ZM4.9206 14.2205V12.0904H7.0507C7.27667 12.0904 7.49339 12.0007 7.65318 11.8409C7.81297 11.6811 7.90274 11.4644 7.90274 11.2384C7.90274 11.0124 7.81297 10.7957 7.65318 10.6359C7.49339 10.4761 7.27667 10.3864 7.0507 10.3864H4.9206V8.25626C4.9206 8.03028 4.83083 7.81356 4.67104 7.65377C4.51125 7.49398 4.29453 7.40422 4.06856 7.40422C3.84258 7.40422 3.62586 7.49398 3.46607 7.65377C3.30629 7.81356 3.21652 8.03028 3.21652 8.25626V10.3864H1.08642C0.86044 10.3864 0.64372 10.4761 0.483932 10.6359C0.324143 10.7957 0.234375 11.0124 0.234375 11.2384C0.234375 11.4644 0.324143 11.6811 0.483932 11.8409C0.64372 12.0007 0.86044 12.0904 1.08642 12.0904H3.21652V14.2205C3.21652 14.4465 3.30629 14.6632 3.46607 14.823C3.62586 14.9828 3.84258 15.0726 4.06856 15.0726C4.29453 15.0726 4.51125 14.9828 4.67104 14.823C4.83083 14.6632 4.9206 14.4465 4.9206 14.2205Z" fill="#4D5159"/>
</svg>
