<svg width="27" height="24" viewBox="0 0 27 24" fill="none" xmlns="http://www.w3.org/2000/svg">
<path d="M13.4465 23.9092C13.0568 23.9087 12.6763 23.791 12.3544 23.5713C7.58627 20.3344 5.52161 18.1151 4.38281 16.7275C1.95594 13.7698 0.794083 10.7332 0.826846 7.44477C0.865069 3.67646 3.88833 0.611328 7.56625 0.611328C10.2406 0.611328 12.093 2.1178 13.1717 3.37249C13.2059 3.41184 13.2481 3.44339 13.2955 3.46501C13.3429 3.48663 13.3944 3.49782 13.4465 3.49782C13.4986 3.49782 13.5502 3.48663 13.5976 3.46501C13.645 3.44339 13.6872 3.41184 13.7214 3.37249C14.8001 2.11659 16.6524 0.611328 19.3268 0.611328C23.0047 0.611328 26.028 3.67646 26.0662 7.44538C26.099 10.7344 24.9359 13.771 22.5103 16.7281C21.3715 18.1157 19.3068 20.3351 14.5386 23.5719C14.2167 23.7914 13.8362 23.9089 13.4465 23.9092Z" fill="#4D5159"/>
</svg>
