<svg width="23" height="23" viewBox="0 0 23 23" fill="none" xmlns="http://www.w3.org/2000/svg">
<path d="M15.228 1.98746C14.1909 0.929992 12.7424 0.347656 11.1437 0.347656C9.53639 0.347656 8.08311 0.926469 7.05084 1.97739C6.00738 3.03989 5.49897 4.4839 5.61834 6.04317C5.85496 9.11944 8.33358 11.6219 11.1437 11.6219C13.9538 11.6219 16.4281 9.11994 16.6685 6.04418C16.7895 4.499 16.2779 3.05801 15.228 1.98746ZM20.5231 22.8962H1.76425C1.51871 22.8992 1.27555 22.8505 1.05246 22.7536C0.829366 22.6567 0.631951 22.514 0.474578 22.336C0.128178 21.9449 -0.0114472 21.4109 0.0919397 20.8708C0.541726 18.5143 1.94544 16.5348 4.15174 15.1451C6.11183 13.9115 8.59471 13.2325 11.1437 13.2325C13.6926 13.2325 16.1755 13.912 18.1356 15.1451C20.3419 16.5343 21.7456 18.5138 22.1954 20.8703C22.2988 21.4104 22.1592 21.9444 21.8128 22.3355C21.6555 22.5136 21.4581 22.6564 21.235 22.7534C21.0119 22.8503 20.7687 22.8991 20.5231 22.8962Z" fill="#4D5159"/>
</svg>
