<svg width="21" height="25" viewBox="0 0 21 25" fill="none" xmlns="http://www.w3.org/2000/svg">
<path d="M1.44873 20.364V12.8837C1.44873 10.8998 2.2835 8.9971 3.76939 7.59426C5.25529 6.19143 7.27059 5.40332 9.37196 5.40332H12.013C14.1144 5.40332 16.1297 6.19143 17.6156 7.59426C19.1015 8.9971 19.9363 10.8998 19.9363 12.8837V20.364C19.9363 21.356 19.5189 22.3073 18.7759 23.0087C18.033 23.7101 17.0253 24.1042 15.9747 24.1042H5.41035C4.35966 24.1042 3.35201 23.7101 2.60906 23.0087C1.86611 22.3073 1.44873 21.356 1.44873 20.364Z" fill="white" stroke="#66696F" stroke-width="1.5" stroke-linecap="round" stroke-linejoin="round"/>
<path d="M8.0498 4.87598V3.80534C8.0498 3.23744 8.32806 2.69279 8.82336 2.29123C9.31866 1.88966 9.99042 1.66406 10.6909 1.66406C11.3913 1.66406 12.0631 1.88966 12.5584 2.29123C13.0537 2.69279 13.332 3.23744 13.332 3.80534V4.87598" fill="white"/>
<path d="M8.0498 4.87598V3.80534C8.0498 3.23744 8.32806 2.69279 8.82336 2.29123C9.31866 1.88966 9.99042 1.66406 10.6909 1.66406C11.3913 1.66406 12.0631 1.88966 12.5584 2.29123C13.0537 2.69279 13.332 3.23744 13.332 3.80534V4.87598" stroke="#66696F" stroke-width="1.5" stroke-linecap="round" stroke-linejoin="round"/>
<path d="M6.72949 23.1719V18.8076C6.72949 18.2289 7.00775 17.6738 7.50305 17.2646C7.99834 16.8554 8.67011 16.6255 9.37057 16.6255H12.0116C12.7121 16.6255 13.3839 16.8554 13.8792 17.2646C14.3745 17.6738 14.6527 18.2289 14.6527 18.8076V23.1719" fill="white"/>
<path d="M6.72949 23.1719V18.8076C6.72949 18.2289 7.00775 17.6738 7.50305 17.2646C7.99834 16.8554 8.67011 16.6255 9.37057 16.6255H12.0116C12.7121 16.6255 13.3839 16.8554 13.8792 17.2646C14.3745 17.6738 14.6527 18.2289 14.6527 18.8076V23.1719" stroke="#66696F" stroke-width="1.5" stroke-linecap="round" stroke-linejoin="round"/>
<path d="M9.37451 10.3926H12.0156Z" fill="white"/>
<path d="M9.37451 10.3926H12.0156" stroke="#66696F" stroke-width="1.5" stroke-linecap="round" stroke-linejoin="round"/>
</svg>
