<svg width="21" height="23" viewBox="0 0 21 23" fill="none" xmlns="http://www.w3.org/2000/svg">
<g clip-path="url(#clip0_417_22116)">
<path d="M20.0742 16.022C19.9879 15.9238 19.9031 15.8257 19.8198 15.7309C18.6755 14.4248 17.9832 13.6365 17.9832 9.93902C17.9832 8.02475 17.4979 6.45406 16.5414 5.27605C15.836 4.40579 14.8826 3.74561 13.6259 3.25772C13.6097 3.24923 13.5953 3.23809 13.5833 3.22483C13.1313 1.79649 11.8943 0.839844 10.4993 0.839844C9.10427 0.839844 7.86788 1.79649 7.41587 3.22336C7.4038 3.23613 7.38956 3.24692 7.37374 3.25526C4.44114 4.3945 3.01593 6.58021 3.01593 9.93755C3.01593 13.6365 2.32466 14.4248 1.17929 15.7295C1.09607 15.8242 1.01128 15.9204 0.924937 16.0205C0.701898 16.2743 0.560584 16.5832 0.51772 16.9104C0.474856 17.2376 0.532235 17.5696 0.683068 17.8671C1.004 18.5052 1.68799 18.9013 2.46874 18.9013H18.5356C19.3127 18.9013 19.992 18.5056 20.314 17.8705C20.4655 17.573 20.5234 17.2407 20.4809 16.9131C20.4384 16.5855 20.2973 16.2762 20.0742 16.022ZM10.4993 22.8294C11.2509 22.8289 11.9884 22.6363 12.6335 22.2723C13.2785 21.9082 13.8071 21.3862 14.1632 20.7615C14.18 20.7316 14.1883 20.6981 14.1873 20.6642C14.1863 20.6304 14.176 20.5974 14.1575 20.5684C14.1389 20.5394 14.1128 20.5154 14.0815 20.4987C14.0503 20.4821 14.015 20.4734 13.9791 20.4734H7.02056C6.98463 20.4733 6.94928 20.482 6.91795 20.4986C6.88662 20.5152 6.86038 20.5391 6.84179 20.5681C6.8232 20.5972 6.81288 20.6302 6.81185 20.6641C6.81082 20.698 6.81911 20.7316 6.8359 20.7615C7.19196 21.3861 7.72049 21.9081 8.36545 22.2721C9.01042 22.6362 9.74776 22.8288 10.4993 22.8294Z" fill="#363B42"/>
</g>
<defs>
<clipPath id="clip0_417_22116">
<rect width="21" height="23" fill="white"/>
</clipPath>
</defs>
</svg>
