<svg width="19" height="20" viewBox="0 0 19 20" fill="none" xmlns="http://www.w3.org/2000/svg">
<path d="M7.43877 2.78965C7.43877 2.25323 7.65186 1.73879 8.03116 1.35948C8.41047 0.98018 8.92491 0.76709 9.46133 0.76709C9.99775 0.76709 10.5122 0.98018 10.8915 1.35948C11.2708 1.73879 11.4839 2.25323 11.4839 2.78965C12.6453 3.3388 13.6353 4.19363 14.3479 5.26253C15.0605 6.33142 15.4688 7.57409 15.529 8.85732V11.8912C15.6051 12.5199 15.8278 13.1219 16.1791 13.6489C16.5304 14.1758 17.0005 14.6129 17.5516 14.925H1.37109C1.92218 14.6129 2.39229 14.1758 2.74359 13.6489C3.09489 13.1219 3.31755 12.5199 3.39365 11.8912V8.85732C3.45388 7.57409 3.86218 6.33142 4.57478 5.26253C5.28737 4.19363 6.27741 3.3388 7.43877 2.78965Z" stroke="#383D44" stroke-width="1.5" stroke-linecap="round" stroke-linejoin="round"/>
<path d="M6.42773 14.9253V15.9366C6.42773 16.7412 6.74737 17.5129 7.31632 18.0818C7.88528 18.6508 8.65695 18.9704 9.46157 18.9704C10.2662 18.9704 11.0379 18.6508 11.6068 18.0818C12.1758 17.5129 12.4954 16.7412 12.4954 15.9366V14.9253" stroke="#383D44" stroke-width="1.5" stroke-linecap="round" stroke-linejoin="round"/>
</svg>
