<svg width="26" height="26" viewBox="0 0 26 26" fill="none" xmlns="http://www.w3.org/2000/svg">
<path d="M0.3125 23.1327C0.3125 23.8116 0.583256 24.4627 1.06521 24.9428C1.54716 25.4229 2.20082 25.6926 2.8824 25.6926H18.3018C18.9834 25.6926 19.637 25.4229 20.119 24.9428C20.6009 24.4627 20.8717 23.8116 20.8717 23.1327V16.0928H0.3125V23.1327ZM3.34131 19.6585C3.34131 19.2947 3.48636 18.9459 3.74455 18.6887C4.00273 18.4316 4.35291 18.2871 4.71804 18.2871H6.92081C7.28594 18.2871 7.63612 18.4316 7.89431 18.6887C8.1525 18.9459 8.29754 19.2947 8.29754 19.6585V20.5727C8.29754 20.9364 8.1525 21.2853 7.89431 21.5424C7.63612 21.7996 7.28594 21.9441 6.92081 21.9441H4.71804C4.35291 21.9441 4.00273 21.7996 3.74455 21.5424C3.48636 21.2853 3.34131 20.9364 3.34131 20.5727V19.6585ZM18.3018 9.60156H2.8824C2.20082 9.60156 1.54716 9.87127 1.06521 10.3514C0.583256 10.8314 0.3125 11.4826 0.3125 12.1615V13.35H20.8717V12.1615C20.8717 11.4826 20.6009 10.8314 20.119 10.3514C19.637 9.87127 18.9834 9.60156 18.3018 9.60156Z" fill="#4D5159"/>
<path fill-rule="evenodd" clip-rule="evenodd" d="M6.27919 4.48297C5.22471 4.81183 4.63648 5.93324 4.96533 6.98772L5.50712 8.72499H18.9823C19.6639 8.72499 20.3175 8.9947 20.7995 9.47478C21.2814 9.95486 21.5522 10.606 21.5522 11.2849L21.5597 13.8449L24.0665 13.0631C25.121 12.7342 25.7093 11.6128 25.3804 10.5583L22.556 1.50185C22.2272 0.447369 21.1058 -0.140868 20.0513 0.187984L6.27919 4.48297Z" fill="#4D5159"/>
</svg>
