<svg width="55" height="54" viewBox="0 0 55 54" fill="none" xmlns="http://www.w3.org/2000/svg">
<path d="M27.45 0.00976562C12.5531 0.00976562 0.475571 11.94 0.475571 26.6552C0.475571 41.3704 12.5531 53.3006 27.45 53.3006C42.3468 53.3006 54.4244 41.3704 54.4244 26.6552C54.4244 11.94 42.3468 0.00976562 27.45 0.00976562ZM39.8997 30.7545H27.45C26.8997 30.7545 26.3719 30.5386 25.9828 30.1542C25.5936 29.7698 25.375 29.2485 25.375 28.7049V10.258C25.375 9.71441 25.5936 9.19308 25.9828 8.80869C26.3719 8.42431 26.8997 8.20836 27.45 8.20836C28.0003 8.20836 28.5281 8.42431 28.9172 8.80869C29.3063 9.19308 29.5249 9.71441 29.5249 10.258V26.6552H39.8997C40.45 26.6552 40.9778 26.8711 41.3669 27.2555C41.756 27.6399 41.9746 28.1613 41.9746 28.7049C41.9746 29.2485 41.756 29.7698 41.3669 30.1542C40.9778 30.5386 40.45 30.7545 39.8997 30.7545Z" fill="#DEAE10"/>
</svg>
