<svg width="31" height="24" viewBox="0 0 31 24" fill="none" xmlns="http://www.w3.org/2000/svg">
<path fill-rule="evenodd" clip-rule="evenodd" d="M15.2977 14.6244L15.4539 14.6245L15.8033 14.6257C18.4739 14.6433 24.5769 14.913 24.5769 19.0496C24.5769 23.1591 18.6866 23.4271 15.8449 23.4445L14.7921 23.4445C12.1214 23.427 6.01716 23.1575 6.01716 19.0261C6.01716 14.9115 12.1214 14.6432 14.7921 14.6257L15.1415 14.6245C15.1957 14.6244 15.2478 14.6244 15.2977 14.6244ZM15.2977 16.6994C12.011 16.6994 8.09211 17.1033 8.09211 19.0261C8.09211 20.9054 11.7771 21.3448 14.9973 21.3697L15.2977 21.3708C18.5844 21.3708 22.502 20.9683 22.502 19.0496C22.502 17.1075 18.5844 16.6994 15.2977 16.6994ZM26.2999 14.0631C29.6517 14.5652 30.3558 16.1394 30.3558 17.372C30.3558 18.1245 30.0598 19.4981 28.0816 20.252C27.9599 20.2976 27.8354 20.3198 27.7123 20.3198C27.2945 20.3198 26.9003 20.0652 26.7426 19.6516C26.5379 19.1163 26.8076 18.5159 27.343 18.3126C28.2808 17.9557 28.2808 17.5615 28.2808 17.372C28.2808 16.7661 27.5103 16.3428 25.9915 16.1159C25.4257 16.0302 25.0342 15.5031 25.1186 14.9346C25.203 14.3674 25.7286 13.9898 26.2999 14.0631ZM5.47546 14.9346C5.55984 15.5031 5.16837 16.0302 4.6026 16.1159C3.08373 16.3428 2.31323 16.7661 2.31323 17.372C2.31323 17.5615 2.31323 17.9543 3.25249 18.3126C3.78783 18.5159 4.05757 19.1163 3.85285 19.6516C3.69515 20.0652 3.30091 20.3198 2.88315 20.3198C2.76004 20.3198 2.63554 20.2976 2.51381 20.252C0.534308 19.4967 0.238281 18.1231 0.238281 17.372C0.238281 16.1408 0.942382 14.5652 4.2955 14.0631C4.86681 13.9912 5.38969 14.3674 5.47546 14.9346ZM15.2977 0.21875C18.7836 0.21875 21.618 3.05452 21.618 6.53905C21.618 10.0236 18.7836 12.8594 15.2977 12.8594H15.2604C13.5727 12.8538 11.9916 12.1926 10.8075 10.9974C9.62066 9.80364 8.97189 8.21838 8.97875 6.5349C8.97875 3.05452 11.8132 0.21875 15.2977 0.21875ZM15.2977 2.2937C12.9572 2.2937 11.0537 4.19851 11.0537 6.53905C11.0496 7.67336 11.484 8.73435 12.2794 9.53528C13.0748 10.3362 14.1344 10.7803 15.2631 10.7844L15.2977 11.8219V10.7844C17.6383 10.7844 19.5431 8.88098 19.5431 6.53905C19.5431 4.19851 17.6383 2.2937 15.2977 2.2937ZM23.859 1.57369C26.2908 1.97347 28.0573 4.05395 28.0573 6.52038C28.0518 9.0034 26.1968 11.1337 23.7414 11.4781C23.693 11.485 23.6446 11.4878 23.5975 11.4878C23.0885 11.4878 22.6444 11.1129 22.5711 10.5942C22.4923 10.0257 22.8865 9.50139 23.4551 9.42254C24.8937 9.22058 25.9796 7.97284 25.9823 6.51761C25.9823 5.07483 24.9476 3.85476 23.5214 3.62098C22.9571 3.5283 22.5739 2.99434 22.6666 2.42857C22.7606 1.8628 23.2904 1.48378 23.859 1.57369ZM7.92888 2.42857C8.02156 2.99434 7.63839 3.5283 7.074 3.62098C5.64782 3.85476 4.61311 5.07483 4.61311 6.52038C4.61587 7.97284 5.70177 9.22196 7.13902 9.42254C7.70755 9.50139 8.10179 10.0257 8.02294 10.5942C7.94963 11.1129 7.50559 11.4878 6.99654 11.4878C6.9495 11.4878 6.90109 11.485 6.85267 11.4781C4.39731 11.1337 2.54369 9.0034 2.53816 6.52314C2.53816 4.05395 4.30463 1.97347 6.73647 1.57369C7.31884 1.4824 7.83482 1.86557 7.92888 2.42857Z" fill="#6A6D73"/>
</svg>
