<svg width="19" height="17" viewBox="0 0 19 17" fill="none" xmlns="http://www.w3.org/2000/svg">
<path d="M15.4871 1.39062H3.15457C2.13291 1.39062 1.30469 2.28665 1.30469 3.39195V14.0657C1.30469 15.171 2.13291 16.067 3.15457 16.067H15.4871C16.5088 16.067 17.337 15.171 17.337 14.0657V3.39195C17.337 2.28665 16.5088 1.39062 15.4871 1.39062Z" stroke="#9B9EA1" stroke-width="1.5" stroke-linejoin="round"/>
<path d="M12.4032 6.72898C13.0843 6.72898 13.6364 6.13163 13.6364 5.39477C13.6364 4.6579 13.0843 4.06055 12.4032 4.06055C11.7221 4.06055 11.1699 4.6579 11.1699 5.39477C11.1699 6.13163 11.7221 6.72898 12.4032 6.72898Z" stroke="#9B9EA1" stroke-width="1.5" stroke-miterlimit="10"/>
<path d="M11.1707 12.0581L7.67675 8.28521C7.45442 8.04473 7.15559 7.90519 6.84134 7.89512C6.52709 7.88504 6.22114 8.00519 5.98604 8.23101L1.30469 12.734M8.08758 16.0695L12.841 10.927C13.0584 10.6913 13.3494 10.5521 13.6568 10.5367C13.9642 10.5212 14.2658 10.6307 14.5024 10.8436L17.337 13.4011" stroke="#9B9EA1" stroke-width="1.5" stroke-linecap="round" stroke-linejoin="round"/>
</svg>
