<svg width="60" height="60" viewBox="0 0 60 60" fill="none" xmlns="http://www.w3.org/2000/svg">
<path d="M59.4102 29.7852C59.4102 46.0085 46.2585 59.1602 30.0352 59.1602C13.8118 59.1602 0.660156 46.0085 0.660156 29.7852C0.660156 13.5618 13.8118 0.410156 30.0352 0.410156C46.2585 0.410156 59.4102 13.5618 59.4102 29.7852Z" fill="#93B1FF" fill-opacity="0.15"/>
<path d="M15.8418 37.2913C15.8418 38.2065 16.2054 39.0843 16.8525 39.7314C17.4997 40.3786 18.3775 40.7422 19.2927 40.7422H39.9981C40.9134 40.7422 41.7911 40.3786 42.4383 39.7314C43.0855 39.0843 43.449 38.2065 43.449 37.2913V27.8013H15.8418V37.2913ZM19.9089 32.6079C19.9089 32.1176 20.1037 31.6474 20.4504 31.3007C20.7971 30.954 21.2673 30.7592 21.7576 30.7592H24.7156C25.2059 30.7592 25.6761 30.954 26.0228 31.3007C26.3695 31.6474 26.5643 32.1176 26.5643 32.6079V33.8404C26.5643 34.3307 26.3695 34.8009 26.0228 35.1476C25.6761 35.4943 25.2059 35.6891 24.7156 35.6891H21.7576C21.2673 35.6891 20.7971 35.4943 20.4504 35.1476C20.1037 34.8009 19.9089 34.3307 19.9089 33.8404V32.6079ZM39.9981 19.0508H19.2927C18.3775 19.0508 17.4997 19.4144 16.8525 20.0615C16.2054 20.7087 15.8418 21.5864 15.8418 22.5017V24.1039H43.449V22.5017C43.449 21.5864 43.0855 20.7087 42.4383 20.0615C41.7911 19.4144 40.9134 19.0508 39.9981 19.0508Z" fill="#060C15" fill-opacity="0.8"/>
</svg>
