<svg width="143" height="143" viewBox="0 0 143 143" fill="none" xmlns="http://www.w3.org/2000/svg">
<circle cx="71.4746" cy="71.8584" r="70.5654" fill="black" stroke="white"/>
<path d="M85.8528 70.812C82.3251 70.812 78.914 69.2369 76.2442 66.3783C73.6481 63.59 72.0627 59.8718 71.783 55.9117C71.4844 51.6873 72.773 47.8026 75.4103 44.9715C78.0475 42.1404 81.7348 40.6133 85.8528 40.6133C89.9417 40.6133 93.6393 42.1678 96.268 44.9921C98.9224 47.8438 100.214 51.7216 99.9158 55.91C99.6293 59.8753 98.0456 63.5918 95.4547 66.3766C92.7917 69.2369 89.3823 70.812 85.8528 70.812ZM108.473 101.011H63.2347C62.5074 101.015 61.7888 100.852 61.1344 100.534C60.48 100.217 59.9071 99.7535 59.4599 99.1799C58.9854 98.5581 58.6578 97.8371 58.5015 97.0708C58.3452 96.3044 58.3643 95.5127 58.5573 94.7548C60.0021 88.9535 63.5813 84.1423 68.9072 80.8428C73.6344 77.9156 79.6518 76.3027 85.8528 76.3027C92.1757 76.3027 98.0353 77.8469 102.79 80.7724C108.128 84.0548 111.712 88.8935 113.15 94.7651C113.341 95.5235 113.358 96.3153 113.2 97.0812C113.042 97.8471 112.713 98.5675 112.237 99.1885C111.79 99.7594 111.219 100.22 110.566 100.536C109.914 100.852 109.198 101.014 108.473 101.011ZM53.4235 71.4983C47.3855 71.4983 42.0767 65.8841 41.5843 58.9847C41.3406 55.4501 42.4422 52.1814 44.6728 49.7844C46.8793 47.4114 49.9919 46.104 53.4235 46.104C56.8552 46.104 59.9437 47.4183 62.1623 49.805C64.41 52.2209 65.5082 55.4827 65.2508 58.9882C64.7584 65.8858 59.4513 71.4983 53.4235 71.4983ZM64.6897 76.8946C61.6716 75.419 57.7543 74.6812 53.4253 74.6812C48.3704 74.6812 43.4614 75.999 39.6008 78.3908C35.2237 81.107 32.2793 85.062 31.0902 89.8372C30.9162 90.524 30.8998 91.2413 31.0421 91.9354C31.1844 92.6295 31.4818 93.2824 31.9121 93.8454C32.3204 94.3695 32.8434 94.793 33.441 95.0833C34.0386 95.3737 34.6948 95.5231 35.3592 95.52H54.405C54.7265 95.52 55.0377 95.4071 55.2845 95.2011C55.5313 94.9951 55.6979 94.709 55.7554 94.3927C55.7742 94.2846 55.7983 94.1765 55.8257 94.0701C57.2807 88.226 60.6901 83.2878 65.7278 79.688C65.9131 79.5545 66.0621 79.3768 66.1614 79.1711C66.2607 78.9654 66.307 78.7381 66.2963 78.51C66.2856 78.2818 66.2181 78.0599 66.0999 77.8645C65.9818 77.669 65.8167 77.5061 65.6197 77.3905C65.3503 77.2327 65.0415 77.0662 64.6897 76.8946Z" fill="#84FF50"/>
</svg>
