<svg width="143" height="144" viewBox="0 0 143 144" fill="none" xmlns="http://www.w3.org/2000/svg">
<circle cx="71.4907" cy="72.103" r="70.8101" fill="black" stroke="white"/>
<path d="M83.2252 45.7224C80.5141 42.7954 76.7276 41.1836 72.5482 41.1836C68.3465 41.1836 64.5475 42.7857 61.849 45.6945C59.1212 48.6354 57.7922 52.6323 58.1042 56.9483C58.7228 65.4631 65.2022 72.3897 72.5482 72.3897C79.8942 72.3897 86.3625 65.4645 86.9908 56.951C87.307 52.6741 85.9696 48.6856 83.2252 45.7224ZM97.0673 103.596H48.0291C47.3873 103.604 46.7516 103.469 46.1684 103.201C45.5852 102.933 45.0691 102.538 44.6578 102.045C43.7522 100.963 43.3872 99.4847 43.6575 97.9899C44.8333 91.4672 48.5028 85.9881 54.2704 82.1416C59.3943 78.7271 65.8849 76.8477 72.5482 76.8477C79.2116 76.8477 85.7022 78.7285 90.8261 82.1416C96.5936 85.9867 100.263 91.4658 101.439 97.9885C101.709 99.4833 101.344 100.961 100.439 102.044C100.027 102.537 99.5114 102.932 98.9282 103.2C98.345 103.469 97.7093 103.604 97.0673 103.596Z" fill="#84FF50"/>
</svg>
