<svg width="20" height="21" viewBox="0 0 20 21" fill="none" xmlns="http://www.w3.org/2000/svg">
<path d="M8.12105 1.62891C6.67479 1.62891 5.261 2.05777 4.05847 2.86128C2.85594 3.66478 1.91869 4.80683 1.36522 6.14301C0.811762 7.47918 0.666951 8.94947 0.949104 10.368C1.23126 11.7864 1.9277 13.0894 2.95037 14.112C3.97303 15.1347 5.27599 15.8312 6.69446 16.1133C8.11294 16.3955 9.58323 16.2507 10.9194 15.6972C12.2556 15.1437 13.3976 14.2065 14.2011 13.0039C15.0046 11.8014 15.4335 10.3876 15.4335 8.94136C15.4334 7.00202 14.6629 5.14214 13.2916 3.77081C11.9203 2.39949 10.0604 1.62903 8.12105 1.62891Z" stroke="white" stroke-width="1.5" stroke-miterlimit="10"/>
<path d="M13.5767 14.3975L18.6836 19.5044" stroke="white" stroke-width="1.5" stroke-miterlimit="10" stroke-linecap="round"/>
</svg>
