<svg width="38" height="38" viewBox="0 0 38 38" fill="none" xmlns="http://www.w3.org/2000/svg">
<path d="M15.8201 2.82422C13.1848 2.82422 10.6088 3.60566 8.41766 5.06971C6.22655 6.53376 4.51878 8.61468 3.51033 11.0493C2.50187 13.484 2.23801 16.163 2.75212 18.7475C3.26622 21.3321 4.53521 23.7062 6.3986 25.5696C8.26198 27.433 10.6361 28.702 13.2207 29.2161C15.8053 29.7302 18.4843 29.4664 20.9189 28.4579C23.3535 27.4494 25.4345 25.7417 26.8985 23.5506C28.3626 21.3595 29.144 18.7834 29.144 16.1482C29.1438 12.6145 27.7399 9.22564 25.2413 6.72696C22.7426 4.22829 19.3537 2.82444 15.8201 2.82422Z" stroke="white" stroke-width="4" stroke-miterlimit="10"/>
<path d="M25.7607 26.0938L35.066 35.3991" stroke="white" stroke-width="4" stroke-miterlimit="10" stroke-linecap="round"/>
</svg>
