<svg width="20" height="18" viewBox="0 0 20 18" fill="none" xmlns="http://www.w3.org/2000/svg">
<path d="M13.1906 5.44544L8.41842 10.0853C8.36356 10.1387 8.32371 10.2055 8.30289 10.2792C8.28206 10.3528 8.28099 10.4306 8.29978 10.5048L9.89356 16.7776C10.0337 17.3592 10.8158 17.4639 11.1032 16.9391L19.5295 1.55411C19.5879 1.44761 19.6155 1.32695 19.6092 1.20566C19.6028 1.08437 19.5628 0.967249 19.4936 0.867433C19.4245 0.767616 19.3288 0.689052 19.2175 0.640554C19.1061 0.592056 18.9834 0.575541 18.8632 0.59286L1.49972 3.08469C0.907431 3.16969 0.731538 3.93956 1.22647 4.27411L6.54186 7.9672C6.60471 8.01103 6.67801 8.03751 6.75437 8.04398C6.83072 8.05044 6.90744 8.03666 6.97677 8.00402L12.9957 5.16273C13.0329 5.14553 13.075 5.14201 13.1146 5.15278C13.1542 5.16356 13.1887 5.18795 13.2121 5.22166C13.2354 5.25537 13.2462 5.29624 13.2424 5.33708C13.2386 5.37792 13.2205 5.41611 13.1913 5.44494L13.1906 5.44544Z" fill="#060C15"/>
</svg>
