<svg width="25" height="26" viewBox="0 0 25 26" fill="none" xmlns="http://www.w3.org/2000/svg">
<path d="M12.6884 15.6208C14.1461 15.6208 15.3279 14.4391 15.3279 12.9813C15.3279 11.5236 14.1461 10.3418 12.6884 10.3418C11.2306 10.3418 10.0488 11.5236 10.0488 12.9813C10.0488 14.4391 11.2306 15.6208 12.6884 15.6208Z" fill="#4D5159"/>
<path d="M24.4743 15.4032L24.4485 15.3823L22.713 14.0213C22.6031 13.9344 22.5154 13.8226 22.4571 13.6952C22.3988 13.5678 22.3715 13.4283 22.3776 13.2883V12.6526C22.372 12.5135 22.3996 12.3751 22.458 12.2487C22.5164 12.1223 22.604 12.0116 22.7135 11.9257L24.4485 10.5641L24.4743 10.5432C24.7419 10.3203 24.9214 10.0095 24.9809 9.66637C25.0403 9.32323 24.9758 8.97014 24.7988 8.67024L22.4501 4.60647C22.4474 4.60263 22.445 4.59859 22.443 4.59437C22.265 4.29861 21.9891 4.07452 21.6631 3.96101C21.3372 3.8475 20.9817 3.85173 20.6586 3.97298L20.6393 3.98013L18.5992 4.80113C18.4704 4.8532 18.3311 4.87392 18.1928 4.86158C18.0544 4.84925 17.921 4.80422 17.8035 4.7302C17.6231 4.61655 17.4398 4.50914 17.2536 4.40795C17.1328 4.34248 17.0292 4.24954 16.9509 4.13664C16.8727 4.02373 16.8221 3.89402 16.8032 3.75797L16.4958 1.58091L16.4892 1.54132C16.4223 1.20412 16.2413 0.90023 15.9768 0.680722C15.7122 0.461213 15.3801 0.339465 15.0364 0.335938H10.3336C9.98502 0.337053 9.64799 0.461159 9.38192 0.686392C9.11584 0.911624 8.93779 1.22353 8.87913 1.56717L8.87418 1.59796L8.56789 3.77942C8.5491 3.91508 8.4989 4.04448 8.42128 4.15732C8.34367 4.27017 8.24078 4.36333 8.12082 4.4294C7.93404 4.53 7.75064 4.63674 7.57092 4.74944C7.4536 4.82301 7.32051 4.8677 7.18257 4.87984C7.04463 4.89198 6.90577 4.87123 6.77741 4.81928L4.73563 3.99443L4.71638 3.98673C4.39274 3.86535 4.03679 3.86127 3.71046 3.97521C3.38413 4.08914 3.10807 4.31388 2.9303 4.61032L2.92315 4.62242L0.571227 8.68893C0.393956 8.98914 0.329255 9.34262 0.388694 9.68616C0.448133 10.0297 0.627837 10.3409 0.895669 10.5641L0.921515 10.585L2.657 11.946C2.76691 12.0329 2.85462 12.1447 2.91293 12.2721C2.97124 12.3996 2.99849 12.539 2.99244 12.679V13.3147C2.99795 13.4538 2.97036 13.5923 2.91195 13.7186C2.85355 13.845 2.76598 13.9557 2.65645 14.0417L0.921515 15.4032L0.895669 15.4241C0.628102 15.647 0.448544 15.9578 0.389105 16.301C0.329666 16.6441 0.394222 16.9972 0.571227 17.2971L2.91985 21.3609C2.92256 21.3647 2.92495 21.3687 2.927 21.3729C3.10496 21.6687 3.38089 21.8928 3.70686 22.0063C4.03283 22.1198 4.38826 22.1156 4.71143 21.9943L4.73068 21.9872L6.76916 21.1662C6.89793 21.1141 7.03722 21.0934 7.17557 21.1057C7.31391 21.1181 7.44734 21.1631 7.56487 21.2371C7.74524 21.3511 7.92854 21.4586 8.11477 21.5594C8.23552 21.6248 8.33918 21.7178 8.41741 21.8307C8.49564 21.9436 8.54625 22.0733 8.56514 22.2093L8.87088 24.3864L8.87748 24.426C8.94452 24.7637 9.12595 25.0681 9.3912 25.2876C9.65645 25.5072 9.98929 25.6286 10.3336 25.6314H15.0364C15.385 25.6303 15.722 25.5062 15.9881 25.2809C16.2541 25.0557 16.4322 24.7438 16.4909 24.4002L16.4958 24.3694L16.8021 22.1879C16.8212 22.052 16.8718 21.9224 16.9499 21.8096C17.028 21.6967 17.1314 21.6037 17.2519 21.5379C17.44 21.4367 17.6237 21.3295 17.8018 21.2179C17.9191 21.1443 18.0522 21.0996 18.1902 21.0875C18.3281 21.0753 18.467 21.0961 18.5953 21.148L20.6371 21.9701L20.6564 21.9778C20.98 22.0994 21.336 22.1036 21.6624 21.9897C21.9888 21.8757 22.2648 21.6508 22.4424 21.3543C22.4446 21.3501 22.447 21.3461 22.4496 21.3422L24.7982 17.2789C24.9758 16.9788 25.0407 16.6252 24.9814 16.2815C24.9221 15.9378 24.7423 15.6265 24.4743 15.4032ZM17.0793 13.1904C17.0392 14.042 16.7526 14.8636 16.2543 15.5553C15.756 16.247 15.0674 16.779 14.2723 17.0866C13.4773 17.3942 12.6099 17.4642 11.7758 17.288C10.9417 17.1119 10.1768 16.6971 9.57401 16.0943C8.97123 15.4915 8.5566 14.7265 8.38054 13.8923C8.20447 13.0582 8.27456 12.1909 8.58228 11.3959C8.89 10.6008 9.42208 9.91233 10.1138 9.41409C10.8056 8.91585 11.6272 8.62934 12.4788 8.5894C13.0901 8.56248 13.7004 8.66308 14.2708 8.88478C14.8412 9.10649 15.3592 9.44446 15.7919 9.8772C16.2245 10.3099 16.5624 10.828 16.7841 11.3984C17.0057 11.9688 17.1062 12.5791 17.0793 13.1904Z" fill="#4D5159"/>
</svg>
