<svg width="23" height="20" viewBox="0 0 23 20" fill="none" xmlns="http://www.w3.org/2000/svg">
<path d="M1.54133 19.7782C1.37475 19.7222 1.23024 19.6168 1.12794 19.4768C1.02565 19.3367 0.970681 19.169 0.970703 18.997C0.970703 15.2231 1.74705 12.2049 3.27912 10.0257C5.13009 7.39272 8.04986 5.97503 11.9707 5.79898V1.65019C11.9708 1.48844 12.0194 1.33025 12.1107 1.19526C12.2019 1.06026 12.3318 0.954386 12.4841 0.890776C12.6365 0.827167 12.8046 0.808618 12.9676 0.83743C13.1307 0.866243 13.2814 0.941149 13.4013 1.05286L22.709 9.72628C22.7917 9.80341 22.8576 9.89611 22.9025 9.99878C22.9475 10.1014 22.9707 10.212 22.9707 10.3236C22.9707 10.4353 22.9475 10.5458 22.9025 10.6485C22.8576 10.7511 22.7917 10.8438 22.709 10.9209L13.4013 19.5944C13.2814 19.7061 13.1307 19.781 12.9676 19.8098C12.8046 19.8386 12.6365 19.8201 12.4841 19.7565C12.3318 19.6928 12.2019 19.587 12.1107 19.452C12.0194 19.317 11.9708 19.1588 11.9707 18.997V14.8787C9.59093 14.9489 7.79284 15.3253 6.36125 16.0476C4.81437 16.8282 3.69268 17.9944 2.48374 19.5066C2.37528 19.6422 2.22618 19.7413 2.05723 19.7902C1.88829 19.8391 1.70793 19.8352 1.54133 19.7792V19.7782Z" fill="#060C15"/>
</svg>
