<svg width="89" height="86" viewBox="0 0 89 86" fill="none" xmlns="http://www.w3.org/2000/svg">
<mask id="mask0_1078_35197" style="mask-type:alpha" maskUnits="userSpaceOnUse" x="0" y="0" width="89" height="86">
<rect x="0.251953" y="0.046875" width="88" height="85.3584" fill="#D9D9D9"/>
</mask>
<g mask="url(#mask0_1078_35197)">
<circle cx="44.2511" cy="46.2121" r="34.8527" fill="#F49037" fill-opacity="0.2"/>
<mask id="mask1_1078_35197" style="mask-type:alpha" maskUnits="userSpaceOnUse" x="9" y="11" width="71" height="70">
<circle cx="44.2511" cy="45.964" r="34.8527" fill="#FF9C79"/>
</mask>
<g mask="url(#mask1_1078_35197)">
<path d="M57.6679 22.5666C57.6679 22.5666 59.833 22.3025 60.0287 24.3722C60.2245 26.4418 59.5333 28.0324 58.2489 28.7203C58.2489 28.7203 57.9737 28.8554 57.3438 28.9659L57.6679 22.5727V22.5666Z" fill="#FFB69F"/>
<path d="M33.1729 22.5666C33.1729 22.5666 31.0078 22.3025 30.8121 24.3722C30.6164 26.4418 31.3075 28.0324 32.5919 28.7203C32.5919 28.7203 32.8671 28.8554 33.4971 28.9659L33.1729 22.5727V22.5666Z" fill="#FFB69F"/>
<path d="M15.877 63.162C15.877 63.162 15.877 54.478 20.9411 52.7645C26.0053 51.0511 37.4486 44.4736 37.4486 44.4736H45.1916V63.162H15.877V63.162Z" fill="#F49037"/>
<path d="M74.0295 63.162C74.0295 63.162 74.0295 54.478 68.9653 52.7645C63.9012 51.0511 52.5802 44.4736 52.5802 44.4736H44.7148V63.162H74.0295V63.162Z" fill="#F49037"/>
<path d="M39.3757 38.4668L38.6602 44.4731H51.2472L50.4643 38.4668H39.3757Z" fill="#FFB69F"/>
<path d="M44.9537 48.0666C48.4295 48.0666 51.2472 46.8375 51.2472 45.3214C51.2472 43.8052 48.4295 42.5762 44.9537 42.5762C41.4779 42.5762 38.6602 43.8052 38.6602 45.3214C38.6602 46.8375 41.4779 48.0666 44.9537 48.0666Z" fill="#FFB69F"/>
<path d="M38.8984 42.4835C38.8984 42.4835 47.4916 43.2758 50.5191 39.4927V35.1445L39.6263 36.1947L38.8984 42.4835V42.4835Z" fill="#FF9988"/>
<path d="M45.4661 40.2114C52.3941 40.2114 58.0103 33.002 58.0103 24.1087C58.0103 15.2153 52.3941 8.00586 45.4661 8.00586C38.5381 8.00586 32.9219 15.2153 32.9219 24.1087C32.9219 33.002 38.5381 40.2114 45.4661 40.2114Z" fill="#FFB69F"/>
<path d="M56.4209 11.249C56.4209 11.249 56.4331 11.2182 56.4209 11.1998C56.005 10.1988 55.4973 5.16895 47.3384 4.40742C45.2467 4.21089 42.2559 4.56095 40.3599 5.46988C37.7605 6.71045 34.8553 7.42285 32.2866 7.41671C32.1765 7.41671 32.1337 7.5641 32.2315 7.61938L34.2376 9.22229C34.3171 9.26528 34.311 9.38196 34.2254 9.41881L31.7055 10.1865C31.6138 10.2233 31.6138 10.3584 31.7055 10.3892C32.1153 10.5243 33.1551 10.9849 34.0969 11.3104C32.5557 14.0494 32.9104 17.9861 32.9104 22.715C32.9104 22.715 32.8615 27.6158 34.5067 33.2352C36.3049 39.3766 40.2498 42.0113 45.8093 42.0297C51.7298 42.0543 54.8184 36.9569 55.6441 35.1452C56.904 32.3693 57.9866 27.2105 57.9927 24.1091C57.9927 24.1091 60.2679 16.2726 56.4086 11.249H56.4209ZM51.3934 34.0029C50.1702 34.6293 50.7879 31.3682 48.3537 31.2331C47.5402 31.184 44.7757 30.9936 42.4516 31.1901C40.684 31.3437 40.2559 32.9404 40.1764 33.7511C40.1397 34.1012 40.0174 34.2608 39.6871 34.138C38.9532 33.8678 37.3935 32.9957 36.6596 32.185C35.9012 31.3498 34.5312 29.0959 34.4027 24.3363L34.5373 17.5378C34.5373 17.5378 37.259 15.247 37.7299 13.6195C37.7299 13.6195 49.8888 15.5725 53.4117 13.6195C53.4117 13.6195 54.8857 16.4507 56.4942 17.3044C56.9896 17.5623 56.904 20.7927 56.8612 23.022C56.8184 23.323 56.7817 23.6669 56.7634 24.0722C56.4392 30.4409 52.6044 33.3826 51.3873 34.009L51.3934 34.0029Z" fill="#B54D4D"/>
<path d="M51.3943 25.3978C51.8031 25.3978 52.1344 24.8203 52.1344 24.1081C52.1344 23.3958 51.8031 22.8184 51.3943 22.8184C50.9856 22.8184 50.6543 23.3958 50.6543 24.1081C50.6543 24.8203 50.9856 25.3978 51.3943 25.3978Z" fill="#441D39"/>
<path d="M40.2928 25.1341C40.7015 25.1341 41.0328 24.5567 41.0328 23.8444C41.0328 23.1321 40.7015 22.5547 40.2928 22.5547C39.8841 22.5547 39.5527 23.1321 39.5527 23.8444C39.5527 24.5567 39.8841 25.1341 40.2928 25.1341Z" fill="#441D39"/>
<path d="M46.329 29.9059H45.1608C44.641 29.9059 44.1822 29.7033 43.9376 29.3655C43.7602 29.126 43.7113 28.8435 43.7969 28.5671C44.0599 27.7196 44.4024 24.5567 44.4024 24.526C44.4208 24.3541 44.5676 24.2374 44.7388 24.2558C44.9039 24.2742 45.0263 24.4278 45.0079 24.5936C44.9957 24.7287 44.6532 27.8424 44.378 28.7513C44.3535 28.8435 44.3657 28.9233 44.4269 29.0093C44.5553 29.1812 44.8428 29.2979 45.1608 29.2979H46.329C46.5003 29.2979 46.6348 29.433 46.6348 29.605C46.6348 29.7769 46.5003 29.9121 46.329 29.9121V29.9059Z" fill="#FF9988"/>
<path d="M52.0408 27.4182C53.2197 27.4182 54.1753 27.1982 54.1753 26.9269C54.1753 26.6555 53.2197 26.4355 52.0408 26.4355C50.8619 26.4355 49.9062 26.6555 49.9062 26.9269C49.9062 27.1982 50.8619 27.4182 52.0408 27.4182Z" fill="#FF9988"/>
<path d="M39.5838 27.4182C40.7626 27.4182 41.7183 27.1982 41.7183 26.9269C41.7183 26.6555 40.7626 26.4355 39.5838 26.4355C38.4049 26.4355 37.4492 26.6555 37.4492 26.9269C37.4492 27.1982 38.4049 27.4182 39.5838 27.4182Z" fill="#FF9988"/>
<path d="M53.9862 21.1107C51.9495 20.5089 50.3899 20.8897 49.4419 21.0125C49.0382 21.0616 48.9526 20.5642 48.9526 20.5642C48.8731 20.2264 49.3257 19.993 49.6437 19.9316C50.714 19.7351 52.084 19.6368 54.1146 20.3431C54.506 20.4782 54.5305 20.8098 54.5305 20.8098C54.4877 21.1783 54.2553 21.1844 53.9862 21.1046V21.1107Z" fill="#B54D4D"/>
<path d="M37.5895 21.1489C39.614 20.5102 41.1797 20.8664 42.1277 20.9708C42.5314 21.0138 42.6109 20.5164 42.6109 20.5164C42.6843 20.1786 42.2255 19.9514 41.9075 19.8961C40.8311 19.718 39.4611 19.6382 37.4488 20.3813C37.0574 20.5225 37.0391 20.8542 37.0391 20.8542C37.088 21.2226 37.3204 21.2226 37.5834 21.1428L37.5895 21.1489Z" fill="#B54D4D"/>
<path d="M45.399 34.8932C43.9556 34.8932 42.8057 34.5862 42.7324 34.5677C42.5672 34.5247 42.4755 34.3528 42.5183 34.1931C42.5611 34.0334 42.7324 33.9352 42.8914 33.9782C42.922 33.9843 45.7354 34.7336 48.0045 33.843C48.1635 33.7816 48.3409 33.8615 48.402 34.015C48.4632 34.1747 48.3837 34.3528 48.2308 34.4142C47.295 34.7827 46.2919 34.8994 45.4051 34.8994L45.399 34.8932Z" fill="#9B3D3D"/>
<path d="M38.9285 42.5137L43.7969 46.002L41.4422 51.6644L35.1426 45.7748L38.9285 42.5137Z" fill="#FFA242"/>
<path d="M43.7978 46.002L44.0914 48.0962L42.9844 47.9549L43.7978 46.002Z" fill="#F49037"/>
<path d="M46.5746 45.8926L46.1465 48.0973L47.3452 47.8947L46.5746 45.8926Z" fill="#F49037"/>
<path d="M46.5742 45.8921L51.0329 42.6064L55.2102 45.9719L48.9962 52.2055L46.5742 45.8921Z" fill="#FFA242"/>
<path d="M46.1388 48.9014H44.0898V63.1556H46.1388V48.9014Z" fill="white"/>
<path d="M44.0471 47.803L44.0899 49.0559C44.0899 49.0559 45.0441 49.4735 46.1389 49.0559L46.1694 47.9197L44.041 47.7969L44.0471 47.803Z" fill="#FFB69F"/>
<path d="M46.1388 51.9111H44.0898V52.5253H46.1388V51.9111Z" fill="#D6D6D6"/>
<path d="M46.1388 54.6807H44.0898V55.2948H46.1388V54.6807Z" fill="#D6D6D6"/>
<path d="M46.1388 57.4502H44.0898V58.0643H46.1388V57.4502Z" fill="#D6D6D6"/>
<path d="M46.1388 60.2197H44.0898V60.8339H46.1388V60.2197Z" fill="#D6D6D6"/>
<path d="M47.882 55.2772C48.1792 55.2772 48.4202 55.0352 48.4202 54.7367C48.4202 54.4383 48.1792 54.1963 47.882 54.1963C47.5847 54.1963 47.3438 54.4383 47.3438 54.7367C47.3438 55.0352 47.5847 55.2772 47.882 55.2772Z" fill="#FFA242"/>
<path d="M47.882 61.3065C48.1792 61.3065 48.4202 61.0645 48.4202 60.766C48.4202 60.4676 48.1792 60.2256 47.882 60.2256C47.5847 60.2256 47.3438 60.4676 47.3438 60.766C47.3438 61.0645 47.5847 61.3065 47.882 61.3065Z" fill="#FFA242"/>
<rect x="15.8125" y="63.1055" width="58.2297" height="31.2378" fill="#F49037"/>
<path d="M44.0176 62.8008H46.1405V96.7681H44.0176V62.8008Z" fill="white"/>
<mask id="mask2_1078_35197" style="mask-type:alpha" maskUnits="userSpaceOnUse" x="44" y="62" width="3" height="35">
<rect x="44.0176" y="62.8008" width="2.12296" height="33.9673" fill="#D9D9D9"/>
</mask>
<g mask="url(#mask2_1078_35197)">
<path d="M44.9277 63.1045V94.1907" stroke="#FF9C79" stroke-width="8" stroke-dasharray="3 7"/>
</g>
</g>
<mask id="mask3_1078_35197" style="mask-type:alpha" maskUnits="userSpaceOnUse" x="9" y="-4" width="65" height="54">
<rect x="9.39844" y="-3.61328" width="64.5511" height="52.7699" fill="#D9D9D9"/>
</mask>
<g mask="url(#mask3_1078_35197)">
<path d="M57.6679 22.5666C57.6679 22.5666 59.833 22.3025 60.0287 24.3722C60.2245 26.4418 59.5333 28.0324 58.2489 28.7203C58.2489 28.7203 57.9737 28.8554 57.3438 28.9659L57.6679 22.5727V22.5666Z" fill="#FFB69F"/>
<path d="M33.1729 22.5666C33.1729 22.5666 31.0078 22.3025 30.8121 24.3722C30.6164 26.4418 31.3075 28.0324 32.5919 28.7203C32.5919 28.7203 32.8671 28.8554 33.4971 28.9659L33.1729 22.5727V22.5666Z" fill="#FFB69F"/>
<path d="M15.877 63.162C15.877 63.162 15.877 54.478 20.9411 52.7645C26.0053 51.0511 37.4486 44.4736 37.4486 44.4736H45.1916V63.162H15.877V63.162Z" fill="#F49037"/>
<path d="M74.0295 63.162C74.0295 63.162 74.0295 54.478 68.9653 52.7645C63.9012 51.0511 52.5802 44.4736 52.5802 44.4736H44.7148V63.162H74.0295V63.162Z" fill="#F49037"/>
<path d="M39.3757 38.4668L38.6602 44.4731H51.2472L50.4643 38.4668H39.3757Z" fill="#FFB69F"/>
<path d="M44.9537 48.0666C48.4295 48.0666 51.2472 46.8375 51.2472 45.3214C51.2472 43.8052 48.4295 42.5762 44.9537 42.5762C41.4779 42.5762 38.6602 43.8052 38.6602 45.3214C38.6602 46.8375 41.4779 48.0666 44.9537 48.0666Z" fill="#FFB69F"/>
<path d="M38.8984 42.4835C38.8984 42.4835 47.4916 43.2758 50.5191 39.4927V35.1445L39.6263 36.1947L38.8984 42.4835V42.4835Z" fill="#FF9988"/>
<path d="M45.4661 40.2114C52.3941 40.2114 58.0103 33.002 58.0103 24.1087C58.0103 15.2153 52.3941 8.00586 45.4661 8.00586C38.5381 8.00586 32.9219 15.2153 32.9219 24.1087C32.9219 33.002 38.5381 40.2114 45.4661 40.2114Z" fill="#FFB69F"/>
<path d="M56.4209 11.249C56.4209 11.249 56.4331 11.2182 56.4209 11.1998C56.005 10.1988 55.4973 5.16895 47.3384 4.40742C45.2467 4.21089 42.2559 4.56095 40.3599 5.46988C37.7605 6.71045 34.8553 7.42285 32.2866 7.41671C32.1765 7.41671 32.1337 7.5641 32.2315 7.61938L34.2376 9.22229C34.3171 9.26528 34.311 9.38196 34.2254 9.41881L31.7055 10.1865C31.6138 10.2233 31.6138 10.3584 31.7055 10.3892C32.1153 10.5243 33.1551 10.9849 34.0969 11.3104C32.5557 14.0494 32.9104 17.9861 32.9104 22.715C32.9104 22.715 32.8615 27.6158 34.5067 33.2352C36.3049 39.3766 40.2498 42.0113 45.8093 42.0297C51.7298 42.0543 54.8184 36.9569 55.6441 35.1452C56.904 32.3693 57.9866 27.2105 57.9927 24.1091C57.9927 24.1091 60.2679 16.2726 56.4086 11.249H56.4209ZM51.3934 34.0029C50.1702 34.6293 50.7879 31.3682 48.3537 31.2331C47.5402 31.184 44.7757 30.9936 42.4516 31.1901C40.684 31.3437 40.2559 32.9404 40.1764 33.7511C40.1397 34.1012 40.0174 34.2608 39.6871 34.138C38.9532 33.8678 37.3935 32.9957 36.6596 32.185C35.9012 31.3498 34.5312 29.0959 34.4027 24.3363L34.5373 17.5378C34.5373 17.5378 37.259 15.247 37.7299 13.6195C37.7299 13.6195 49.8888 15.5725 53.4117 13.6195C53.4117 13.6195 54.8857 16.4507 56.4942 17.3044C56.9896 17.5623 56.904 20.7927 56.8612 23.022C56.8184 23.323 56.7817 23.6669 56.7634 24.0722C56.4392 30.4409 52.6044 33.3826 51.3873 34.009L51.3934 34.0029Z" fill="#B54D4D"/>
<path d="M51.3943 25.3978C51.8031 25.3978 52.1344 24.8203 52.1344 24.1081C52.1344 23.3958 51.8031 22.8184 51.3943 22.8184C50.9856 22.8184 50.6543 23.3958 50.6543 24.1081C50.6543 24.8203 50.9856 25.3978 51.3943 25.3978Z" fill="#441D39"/>
<path d="M40.2928 25.1341C40.7015 25.1341 41.0328 24.5567 41.0328 23.8444C41.0328 23.1321 40.7015 22.5547 40.2928 22.5547C39.8841 22.5547 39.5527 23.1321 39.5527 23.8444C39.5527 24.5567 39.8841 25.1341 40.2928 25.1341Z" fill="#441D39"/>
<path d="M46.329 29.9059H45.1608C44.641 29.9059 44.1822 29.7033 43.9376 29.3655C43.7602 29.126 43.7113 28.8435 43.7969 28.5671C44.0599 27.7196 44.4024 24.5567 44.4024 24.526C44.4208 24.3541 44.5676 24.2374 44.7388 24.2558C44.9039 24.2742 45.0263 24.4278 45.0079 24.5936C44.9957 24.7287 44.6532 27.8424 44.378 28.7513C44.3535 28.8435 44.3657 28.9233 44.4269 29.0093C44.5553 29.1812 44.8428 29.2979 45.1608 29.2979H46.329C46.5003 29.2979 46.6348 29.433 46.6348 29.605C46.6348 29.7769 46.5003 29.9121 46.329 29.9121V29.9059Z" fill="#FF9988"/>
<path d="M52.0408 27.4182C53.2197 27.4182 54.1753 27.1982 54.1753 26.9269C54.1753 26.6555 53.2197 26.4355 52.0408 26.4355C50.8619 26.4355 49.9062 26.6555 49.9062 26.9269C49.9062 27.1982 50.8619 27.4182 52.0408 27.4182Z" fill="#FF9988"/>
<path d="M39.5838 27.4182C40.7626 27.4182 41.7183 27.1982 41.7183 26.9269C41.7183 26.6555 40.7626 26.4355 39.5838 26.4355C38.4049 26.4355 37.4492 26.6555 37.4492 26.9269C37.4492 27.1982 38.4049 27.4182 39.5838 27.4182Z" fill="#FF9988"/>
<path d="M53.9862 21.1107C51.9495 20.5089 50.3899 20.8897 49.4419 21.0125C49.0382 21.0616 48.9526 20.5642 48.9526 20.5642C48.8731 20.2264 49.3257 19.993 49.6437 19.9316C50.714 19.7351 52.084 19.6368 54.1146 20.3431C54.506 20.4782 54.5305 20.8098 54.5305 20.8098C54.4877 21.1783 54.2553 21.1844 53.9862 21.1046V21.1107Z" fill="#B54D4D"/>
<path d="M37.5895 21.1489C39.614 20.5102 41.1797 20.8664 42.1277 20.9708C42.5314 21.0138 42.6109 20.5164 42.6109 20.5164C42.6843 20.1786 42.2255 19.9514 41.9075 19.8961C40.8311 19.718 39.4611 19.6382 37.4488 20.3813C37.0574 20.5225 37.0391 20.8542 37.0391 20.8542C37.088 21.2226 37.3204 21.2226 37.5834 21.1428L37.5895 21.1489Z" fill="#B54D4D"/>
<path d="M45.399 34.8932C43.9556 34.8932 42.8057 34.5862 42.7324 34.5677C42.5672 34.5247 42.4755 34.3528 42.5183 34.1931C42.5611 34.0334 42.7324 33.9352 42.8914 33.9782C42.922 33.9843 45.7354 34.7336 48.0045 33.843C48.1635 33.7816 48.3409 33.8615 48.402 34.015C48.4632 34.1747 48.3837 34.3528 48.2308 34.4142C47.295 34.7827 46.2919 34.8994 45.4051 34.8994L45.399 34.8932Z" fill="#9B3D3D"/>
<path d="M38.9285 42.5137L43.7969 46.002L41.4422 51.6644L35.1426 45.7748L38.9285 42.5137Z" fill="#FFA242"/>
<path d="M43.7978 46.002L44.0914 48.0962L42.9844 47.9549L43.7978 46.002Z" fill="#F49037"/>
<path d="M46.5746 45.8926L46.1465 48.0973L47.3452 47.8947L46.5746 45.8926Z" fill="#F49037"/>
<path d="M46.5742 45.8921L51.0329 42.6064L55.2102 45.9719L48.9962 52.2055L46.5742 45.8921Z" fill="#FFA242"/>
<path d="M46.1388 48.9014H44.0898V63.1556H46.1388V48.9014Z" fill="white"/>
<path d="M44.0471 47.803L44.0899 49.0559C44.0899 49.0559 45.0441 49.4735 46.1389 49.0559L46.1694 47.9197L44.041 47.7969L44.0471 47.803Z" fill="#FFB69F"/>
</g>
</g>
</svg>
