<svg width="178" height="164" viewBox="0 0 178 164" fill="none" xmlns="http://www.w3.org/2000/svg">
<path d="M140.169 163.982C138.92 163.987 137.702 163.603 136.687 162.884L88.9907 128.757L41.2945 162.884C40.2755 163.614 39.0478 164.004 37.789 164C36.5302 163.995 35.3055 163.596 34.2919 162.859C33.2783 162.122 32.5283 161.087 32.1505 159.902C31.7726 158.717 31.7864 157.444 32.1899 156.267L50.7922 101.887L2.58043 69.2565C1.53613 68.5505 0.747949 67.5334 0.331055 66.3538C-0.0858394 65.1742 -0.109603 63.8939 0.263237 62.7001C0.636077 61.5062 1.38598 60.4613 2.40338 59.718C3.42078 58.9747 4.65235 58.572 5.91816 58.5687H65.3966L83.3463 4.0501C83.7329 2.87307 84.4874 1.84715 85.5015 1.11954C86.5155 0.391921 87.737 0 88.9907 0C90.2445 0 91.466 0.391921 92.48 1.11954C93.4941 1.84715 94.2486 2.87307 94.6352 4.0501L112.585 58.587H172.063C173.331 58.5864 174.565 58.9863 175.585 59.7282C176.606 60.47 177.359 61.5149 177.734 62.7096C178.109 63.9044 178.087 65.1864 177.67 66.3678C177.254 67.5492 176.465 68.5679 175.42 69.2748L127.189 101.887L145.78 156.252C146.082 157.132 146.166 158.07 146.028 158.989C145.889 159.908 145.531 160.781 144.982 161.537C144.434 162.292 143.712 162.908 142.875 163.333C142.038 163.758 141.111 163.981 140.169 163.982Z" fill="#FFA500"/>
</svg>
