<svg width="19" height="19" viewBox="0 0 19 19" fill="none" xmlns="http://www.w3.org/2000/svg">
<path fill-rule="evenodd" clip-rule="evenodd" d="M9.34375 18.5566C14.2782 18.5566 18.2783 14.5565 18.2783 9.62207C18.2783 4.68764 14.2782 0.6875 9.34375 0.6875C4.40932 0.6875 0.40918 4.68764 0.40918 9.62207C0.40918 14.5565 4.40932 18.5566 9.34375 18.5566ZM13.4628 8.40197C13.7593 8.11265 13.765 7.63782 13.4757 7.34139C13.1864 7.04496 12.7116 7.03919 12.4151 7.3285L8.21707 11.4258C8.1183 11.5222 7.96009 11.5203 7.86364 11.4216L6.10579 9.62245C5.81631 9.32617 5.34147 9.32066 5.0452 9.61013C4.74892 9.89961 4.74341 10.3744 5.03289 10.6707L6.79074 12.4699C7.46592 13.1609 8.57336 13.1741 9.26477 12.4993L13.4628 8.40197Z" fill="#50B026"/>
</svg>
