<svg width="22" height="22" viewBox="0 0 22 22" fill="none" xmlns="http://www.w3.org/2000/svg">
<path d="M10.778 0C8.64616 0.000197777 6.56225 0.632542 4.78978 1.81707C3.01732 3.00161 1.63591 4.68512 0.820222 6.65475C0.004538 8.62437 -0.208781 10.7916 0.207242 12.8825C0.623265 14.9733 1.64995 16.8939 3.15746 18.4013C4.66497 19.9086 6.5856 20.9351 8.6765 21.351C10.7674 21.7668 12.9346 21.5533 14.9042 20.7374C16.8737 19.9215 18.5571 18.54 19.7415 16.7674C20.9258 14.9948 21.558 12.9108 21.558 10.779C21.5546 7.92111 20.4177 5.18128 18.3968 3.16054C16.3758 1.1398 13.6359 0.00317571 10.778 0ZM16.388 7.167L9.42301 15.459C9.34698 15.5508 9.25207 15.6251 9.14473 15.6768C9.03739 15.7286 8.92015 15.7566 8.801 15.759H8.787C8.67079 15.7589 8.55589 15.7344 8.44977 15.687C8.34365 15.6396 8.24867 15.5705 8.17101 15.484L5.18601 12.167C5.11043 12.0866 5.05168 11.9919 5.01319 11.8884C4.9747 11.785 4.95725 11.6749 4.96186 11.5647C4.96647 11.4544 4.99305 11.3462 5.04004 11.2463C5.08703 11.1465 5.15349 11.057 5.23551 10.9832C5.31753 10.9093 5.41347 10.8526 5.5177 10.8164C5.62193 10.7801 5.73235 10.765 5.84249 10.772C5.95263 10.7789 6.06027 10.8078 6.15909 10.8569C6.25792 10.9061 6.34594 10.9744 6.418 11.058L8.765 13.666L15.119 6.1C15.1891 6.01661 15.2749 5.94784 15.3715 5.89761C15.4681 5.84738 15.5737 5.81667 15.6822 5.80725C15.7907 5.79782 15.9 5.80986 16.0039 5.84267C16.1077 5.87549 16.2041 5.92844 16.2875 5.9985C16.3709 6.06856 16.4397 6.15436 16.4899 6.251C16.5401 6.34764 16.5708 6.45322 16.5803 6.56173C16.5897 6.67023 16.5776 6.77953 16.5448 6.88338C16.512 6.98724 16.4581 7.08361 16.388 7.167Z" fill="#5DD72A"/>
</svg>
