<svg width="416" height="416" viewBox="0 0 416 416" fill="none" xmlns="http://www.w3.org/2000/svg">
<path d="M208 0C93.13 0 0 93.13 0 208C0 322.87 93.13 416 208 416C322.87 416 416 322.87 416 208C416 93.13 322.87 0 208 0ZM304 240H208C203.757 240 199.687 238.314 196.686 235.314C193.686 232.313 192 228.243 192 224V80C192 75.7565 193.686 71.6869 196.686 68.6863C199.687 65.6857 203.757 64 208 64C212.243 64 216.313 65.6857 219.314 68.6863C222.314 71.6869 224 75.7565 224 80V208H304C308.243 208 312.313 209.686 315.314 212.686C318.314 215.687 320 219.757 320 224C320 228.243 318.314 232.313 315.314 235.314C312.313 238.314 308.243 240 304 240Z" fill="#3D4148"/>
</svg>
