<svg width="77" height="55" viewBox="0 0 77 55" fill="none" xmlns="http://www.w3.org/2000/svg">
<path d="M51.2382 27.3035C47.9729 27.3035 44.8156 25.9008 42.3444 23.3551C39.9415 20.872 38.4741 17.5608 38.2152 14.0341C37.9388 10.2721 39.1316 6.81261 41.5726 4.29135C44.0136 1.7701 47.4266 0.410156 51.2382 0.410156C55.0228 0.410156 58.4453 1.79455 60.8783 4.30969C63.3352 6.84928 64.5311 10.3026 64.2548 14.0325C63.9896 17.5638 62.5237 20.8735 60.1255 23.3535C57.6607 25.9008 54.505 27.3035 51.2382 27.3035ZM72.175 54.1968H30.3029C29.6297 54.2003 28.9647 54.0551 28.3589 53.7725C27.7532 53.4898 27.2229 53.0772 26.809 52.5664C26.3698 52.0127 26.0666 51.3706 25.9219 50.6881C25.7773 50.0057 25.7949 49.3006 25.9736 48.6256C27.3108 43.4594 30.6237 39.1748 35.5534 36.2364C39.9288 33.6295 45.4985 32.1932 51.2382 32.1932C57.0906 32.1932 62.5141 33.5684 66.915 36.1737C71.8557 39.0968 75.1734 43.4059 76.5043 48.6348C76.6808 49.3103 76.6965 50.0153 76.5502 50.6974C76.4039 51.3795 76.0994 52.021 75.6594 52.5741C75.2458 53.0825 74.7168 53.4931 74.1128 53.7744C73.5089 54.0556 72.846 54.2002 72.175 54.1968ZM21.2218 27.9147C15.633 27.9147 10.7193 22.915 10.2634 16.7708C10.0379 13.623 11.0575 10.7121 13.1221 8.57748C15.1645 6.46421 18.0455 5.29986 21.2218 5.29986C24.3981 5.29986 27.2568 6.47033 29.3103 8.59582C31.3908 10.7473 32.4073 13.6521 32.169 16.7738C31.7132 22.9165 26.801 27.9147 21.2218 27.9147ZM31.6497 32.7204C28.8561 31.4063 25.2303 30.7492 21.2234 30.7492C16.5446 30.7492 12.0009 31.9227 8.42753 34.0528C4.37611 36.4717 1.65082 39.9938 0.550218 44.2463C0.389154 44.858 0.37392 45.4968 0.505656 46.1149C0.637392 46.733 0.912687 47.3145 1.31095 47.8158C1.68885 48.2826 2.17298 48.6597 2.72611 48.9183C3.27924 49.1768 3.88663 49.3098 4.50158 49.3071H22.1302C22.4278 49.3071 22.7159 49.2066 22.9443 49.0231C23.1727 48.8397 23.3269 48.5849 23.3801 48.3032C23.3976 48.207 23.4198 48.1107 23.4452 48.016C24.792 42.8115 27.9477 38.4138 32.6105 35.208C32.782 35.0891 32.92 34.9308 33.0119 34.7476C33.1038 34.5644 33.1467 34.3621 33.1367 34.1589C33.1268 33.9557 33.0643 33.7581 32.955 33.5841C32.8456 33.41 32.6928 33.2649 32.5105 33.162C32.2612 33.0214 31.9753 32.8732 31.6497 32.7204Z" fill="#404B5A"/>
</svg>
