<?xml version="1.0" standalone="no"?>
<!DOCTYPE svg PUBLIC "-//W3C//DTD SVG 20010904//EN"
 "http://www.w3.org/TR/2001/REC-SVG-20010904/DTD/svg10.dtd">
<svg version="1.0" xmlns="http://www.w3.org/2000/svg"
 width="512.000000pt" height="512.000000pt" viewBox="0 0 512.000000 512.000000"
 preserveAspectRatio="xMidYMid meet">

<g transform="translate(0.000000,512.000000) scale(0.100000,-0.100000)"
fill="#000000" stroke="none">
<path d="M607 4967 c-11 -7 -24 -44 -35 -95 l-17 -84 31 -26 c18 -15 51 -42
74 -61 133 -107 114 -320 -35 -411 -16 -10 -57 -23 -90 -30 -75 -15 -91 -29
-104 -91 -22 -99 -17 -114 47 -161 64 -47 75 -58 101 -108 58 -110 19 -255
-87 -325 -21 -14 -65 -30 -97 -36 -77 -14 -99 -38 -115 -122 -15 -79 -11 -88
66 -141 146 -103 154 -307 17 -412 -36 -28 -66 -38 -171 -60 -28 -6 -49 -51
-58 -127 -7 -59 4 -92 34 -101 10 -4 812 -166 1783 -360 970 -195 1834 -369
1919 -386 85 -18 166 -32 178 -32 36 -1 63 33 78 98 20 83 12 107 -47 144 -95
62 -134 136 -127 244 7 119 98 214 219 231 70 10 88 28 101 105 14 82 7 110
-32 134 -101 59 -144 128 -144 231 0 80 22 133 78 187 36 35 113 68 157 68 46
0 69 29 85 105 18 86 12 102 -53 145 -111 73 -154 207 -102 320 38 84 102 132
201 150 67 13 83 29 97 97 15 77 14 118 -4 133 -13 10 -798 172 -1675 345 -96
19 -635 127 -1198 240 -563 113 -1031 205 -1041 205 -9 0 -25 -6 -34 -13z
m838 -607 c55 -52 58 -31 -90 -765 -74 -372 -142 -690 -150 -706 -41 -78 -169
-77 -210 1 -8 16 -15 45 -15 64 0 19 29 180 65 358 36 178 79 393 96 478 53
273 90 454 101 495 10 43 40 82 73 96 34 15 104 3 130 -21z m989 -345 c269
-52 491 -97 494 -99 5 -5 -44 -275 -51 -282 -2 -2 -70 9 -152 26 -200 40 -191
41 -204 -22 -6 -29 -56 -287 -112 -573 -55 -286 -102 -522 -104 -524 -5 -5
-301 51 -315 59 -8 5 21 178 100 580 61 315 108 575 106 578 -3 2 -78 19 -166
37 -88 18 -163 35 -167 38 -3 4 7 69 22 146 23 115 30 138 44 135 9 -2 236
-46 505 -99z m1234 -95 c36 -22 52 -54 52 -104 0 -48 -258 -1325 -275 -1364
-18 -38 -68 -72 -110 -72 -44 0 -94 35 -111 77 -15 35 -13 49 40 317 135 685
217 1083 229 1105 29 58 115 78 175 41z"/>
<path d="M4430 2528 c-25 -92 -99 -159 -198 -178 -72 -13 -84 -20 -101 -55
-20 -41 -5 -73 56 -115 118 -81 145 -169 107 -340 -20 -85 -58 -141 -126 -183
-90 -56 -37 -64 -1408 213 -1084 218 -1990 400 -1997 400 -2 0 -3 -24 -3 -52
-1 -145 -112 -248 -267 -248 -39 0 -79 -3 -88 -6 -22 -9 -75 -116 -75 -152 0
-16 9 -37 19 -46 24 -22 13 -17 786 -373 352 -162 696 -321 765 -353 69 -32
213 -99 320 -148 107 -49 402 -185 655 -302 253 -117 512 -236 575 -265 63
-28 199 -91 302 -138 176 -81 227 -97 254 -79 17 10 74 128 74 151 0 11 -23
46 -50 77 -102 116 -104 248 -6 352 52 57 100 75 193 77 97 2 109 9 147 96 32
70 30 83 -29 150 -28 30 -50 68 -60 101 -19 65 -19 81 1 149 33 110 158 191
269 175 65 -10 88 6 125 85 36 79 35 92 -19 148 -57 60 -76 104 -75 186 0 53
5 80 21 111 48 90 165 154 254 139 65 -11 92 7 128 84 35 77 38 101 14 124
-15 13 -534 257 -547 257 -3 0 -10 -19 -16 -42z"/>
</g>
</svg>
