<?xml version="1.0" standalone="no"?>
<!DOCTYPE svg PUBLIC "-//W3C//DTD SVG 20010904//EN"
 "http://www.w3.org/TR/2001/REC-SVG-20010904/DTD/svg10.dtd">
<svg version="1.0" xmlns="http://www.w3.org/2000/svg"
 width="206.000000pt" height="207.000000pt" viewBox="0 0 206.000000 207.000000"
 preserveAspectRatio="xMidYMid meet">

<g transform="translate(0.000000,207.000000) scale(0.100000,-0.100000)"
fill="#000000" stroke="none">
<path d="M729 1977 c-55 -37 -79 -81 -79 -148 l0 -58 -62 -33 c-136 -71 -254
-221 -293 -373 -21 -82 -22 -1129 -1 -1188 29 -80 106 -147 188 -162 l37 -7 3
324 c3 314 4 324 26 365 12 24 41 55 64 70 l42 28 377 0 377 0 43 -30 c82 -58
84 -66 87 -433 l3 -324 37 7 c51 9 116 49 146 88 57 75 56 60 56 655 0 602 0
604 -62 732 -40 83 -169 214 -245 249 -50 23 -53 27 -53 60 0 54 -18 107 -47
141 -49 59 -57 60 -346 60 -258 0 -265 -1 -298 -23z m562 -67 c24 -13 49 -61
49 -96 0 -23 -3 -25 -22 -19 -37 12 -458 17 -523 7 -34 -6 -64 -6 -69 -1 -14
13 11 86 37 104 18 12 62 15 265 15 148 0 251 -4 263 -10z m104 -625 l0 -30
-361 -3 c-329 -2 -362 -1 -368 14 -4 9 -4 25 -1 36 6 17 22 18 368 16 l362 -3
0 -30z"/>
<path d="M119 831 c-77 -48 -83 -72 -87 -316 -2 -135 1 -224 8 -248 21 -73 99
-137 166 -137 23 0 25 3 18 23 -4 12 -10 176 -11 365 l-4 342 -22 0 c-13 0
-43 -13 -68 -29z"/>
<path d="M1847 518 c-1 -189 -7 -354 -12 -367 -8 -23 -7 -24 34 -18 60 8 107
43 137 104 25 51 25 52 22 275 l-3 225 -28 41 c-27 42 -89 82 -126 82 -20 0
-20 -8 -24 -342z"/>
<path d="M665 716 c-64 -28 -65 -31 -65 -386 l0 -320 430 0 430 0 0 320 c0
356 0 359 -67 386 -46 20 -684 19 -728 0z m619 -209 c8 -12 8 -22 0 -35 -10
-15 -35 -17 -249 -20 -244 -2 -265 0 -265 37 0 39 16 41 264 39 215 -3 240 -5
250 -21z"/>
</g>
</svg>
