<svg width="19" height="20" viewBox="0 0 19 20" fill="none" xmlns="http://www.w3.org/2000/svg">
<path d="M13.3725 5.61858L13.3725 5.61847C13.4582 4.52326 13.0978 3.52349 12.3701 2.7814C11.6483 2.04544 10.6255 1.62354 9.46152 1.62354C8.28729 1.62354 7.2613 2.0445 6.54542 2.77329L13.3725 5.61858ZM13.3725 5.61858C13.1955 7.88294 11.381 9.63032 9.46152 9.63032C7.54141 9.63032 5.72442 7.88206 5.55021 5.61891L13.3725 5.61858ZM17.3795 19.1371V19.1371C17.4817 19.1384 17.5817 19.118 17.6718 19.0788C17.7617 19.0397 17.8376 18.9838 17.8959 18.9178L17.8966 18.917C18.0255 18.7715 18.0901 18.5605 18.044 18.3199L18.044 18.3195C17.7073 16.5557 16.6592 15.0573 14.9579 13.986L17.3795 19.1371ZM17.3795 19.1371H17.3705M17.3795 19.1371H17.3705M17.3705 19.1371H1.55252V19.137M17.3705 19.1371L1.55252 19.137M1.55252 19.137L1.54331 19.1372M1.55252 19.137L1.54331 19.1372M1.54331 19.1372C1.44112 19.1384 1.34114 19.118 1.25111 19.0789C1.16118 19.0399 1.08524 18.9839 1.02695 18.918L1.02646 18.9174M1.54331 19.1372L1.02646 18.9174M1.02646 18.9174C0.897574 18.7719 0.832932 18.5609 0.879 18.3203L0.879077 18.3199M1.02646 18.9174L0.879077 18.3199M0.879077 18.3199C1.21572 16.5561 2.26381 15.0576 3.96521 13.9859M0.879077 18.3199L3.96521 13.9859M3.96521 13.9859C5.48644 13.0285 7.43873 12.4884 9.46152 12.4884C11.4841 12.4884 13.4364 13.0288 14.9577 13.9859L3.96521 13.9859ZM5.55019 5.61864C5.46517 4.50729 5.82585 3.50602 6.54537 2.77333L5.55019 5.61864Z" stroke="#060C15" stroke-opacity="0.8" stroke-width="1.5"/>
</svg>
