<svg width="20" height="20" viewBox="0 0 20 20" fill="none" xmlns="http://www.w3.org/2000/svg">
<path d="M14.2367 4.84026L14.2367 4.84015C14.3225 3.74494 13.962 2.74517 13.2343 2.00308C12.5125 1.26712 11.4898 0.845215 10.3258 0.845215C9.15155 0.845215 8.12556 1.26618 7.40968 1.99497L14.2367 4.84026ZM14.2367 4.84026C14.0598 7.10462 12.2453 8.852 10.3258 8.852C8.40567 8.852 6.58867 7.10374 6.41447 4.84059L14.2367 4.84026ZM18.2438 18.3588V18.3588H18.2348H2.41677V18.3587L2.40756 18.3588C2.30537 18.3601 2.2054 18.3397 2.11538 18.3006C2.02544 18.2616 1.94949 18.2056 1.89121 18.1397L1.89071 18.1391C1.76183 17.9936 1.69719 17.7826 1.74326 17.542L1.74333 17.5416C2.07999 15.7777 3.12816 14.2792 4.82969 13.2075C6.35089 12.2501 8.30309 11.7101 10.3258 11.7101C12.3483 11.7101 14.3006 12.2505 15.822 13.2075C17.5234 14.2788 18.5716 15.7773 18.9082 17.5411L18.9083 17.5415C18.9544 17.7822 18.8897 17.9932 18.7608 18.1387L18.7601 18.1395C18.7019 18.2054 18.6259 18.2614 18.536 18.3005C18.446 18.3397 18.346 18.3601 18.2438 18.3588ZM6.41445 4.84032C6.32943 3.72897 6.6901 2.72769 7.40963 1.99501L6.41445 4.84032Z" stroke="#060C15" stroke-opacity="0.8" stroke-width="1.5"/>
</svg>
