<svg width="21" height="15" viewBox="0 0 21 15" fill="none" xmlns="http://www.w3.org/2000/svg">
<path d="M16.6634 4.21675C16.5448 5.86277 15.3238 7.13077 13.9922 7.13077C12.6607 7.13077 11.4376 5.86317 11.321 4.21675C11.1996 2.50436 12.3883 1.30273 13.9922 1.30273C15.5961 1.30273 16.7848 2.53553 16.6634 4.21675Z" stroke="#4E5259" stroke-width="1.5" stroke-linecap="round" stroke-linejoin="round"/>
<path d="M13.99 9.7207C11.3524 9.7207 8.81598 11.0308 8.18057 13.5822C8.09638 13.9197 8.30805 14.2536 8.6549 14.2536H19.3255C19.6723 14.2536 19.8828 13.9197 19.7998 13.5822C19.1644 10.9899 16.628 9.7207 13.99 9.7207Z" stroke="#4E5259" stroke-width="1.5" stroke-miterlimit="10"/>
<path d="M8.48625 4.94263C8.39154 6.25718 7.40482 7.29246 6.3412 7.29246C5.27759 7.29246 4.28925 6.25758 4.19616 4.94263C4.09943 3.57507 5.05985 2.59766 6.3412 2.59766C7.62256 2.59766 8.58298 3.60016 8.48625 4.94263Z" stroke="#4E5259" stroke-width="1.5" stroke-linecap="round" stroke-linejoin="round"/>
<path d="M8.73011 9.8013C7.99958 9.46659 7.19499 9.33789 6.34223 9.33789C4.23766 9.33789 2.20999 10.3841 1.70206 12.4219C1.63528 12.6914 1.80446 12.9582 2.08129 12.9582H6.62554" stroke="#4E5259" stroke-width="1.5" stroke-miterlimit="10" stroke-linecap="round"/>
</svg>
