<svg width="265" height="265" viewBox="0 0 265 265" fill="none" xmlns="http://www.w3.org/2000/svg">
<path d="M61.5562 15.2651H57.5867L58.4112 14.1516V26.0176H56.1672V14.1516L57.0342 15.2651H53.0307V13.4801H61.5562V15.2651ZM62.2651 26.0176V16.9906H64.5006V19.9911L63.9821 19.7021C64.0387 19.3111 64.1436 18.9427 64.2966 18.5971C64.4496 18.2457 64.6536 17.9397 64.9086 17.6791C65.1636 17.4127 65.4724 17.2059 65.8351 17.0586C66.1977 16.9112 66.6114 16.8376 67.0761 16.8376C67.4444 16.8376 67.7334 16.8659 67.9431 16.9226C68.1584 16.9736 68.2916 17.0161 68.3426 17.0501L67.9346 19.0986C67.8779 19.0589 67.7617 19.0107 67.5861 18.9541C67.4161 18.8917 67.1866 18.8606 66.8976 18.8606C66.4386 18.8606 66.0532 18.9399 65.7416 19.0986C65.4356 19.2516 65.1919 19.4612 65.0106 19.7276C64.8292 19.9882 64.6989 20.2772 64.6196 20.5946C64.5402 20.9062 64.5006 21.2179 64.5006 21.5296V26.0176H62.2651ZM72.6804 26.2046C72.006 26.2046 71.4139 26.0997 70.9039 25.8901C70.3939 25.6747 69.9944 25.3659 69.7054 24.9636C69.4164 24.5612 69.2719 24.0767 69.2719 23.5101C69.2719 22.8924 69.439 22.3852 69.7734 21.9886C70.1134 21.5862 70.5695 21.2774 71.1419 21.0621C71.7142 20.8411 72.3489 20.6994 73.0459 20.6371C74.0772 20.5351 74.7969 20.4387 75.2049 20.3481C75.6185 20.2517 75.8254 20.0987 75.8254 19.8891C75.8254 19.8834 75.8254 19.8806 75.8254 19.8806C75.8254 19.8749 75.8254 19.8721 75.8254 19.8721C75.8254 19.4754 75.6469 19.1694 75.2899 18.9541C74.9329 18.7387 74.4285 18.6311 73.7769 18.6311C73.0912 18.6311 72.5642 18.7529 72.1959 18.9966C71.8332 19.2346 71.6519 19.6142 71.6519 20.1356H69.4419C69.4419 19.4272 69.6289 18.8294 70.0029 18.3421C70.3825 17.8491 70.901 17.4751 71.5584 17.2201C72.2157 16.9651 72.9609 16.8376 73.7939 16.8376C74.5702 16.8376 75.2814 16.9537 75.9274 17.1861C76.5734 17.4184 77.0919 17.7697 77.4829 18.2401C77.8739 18.7104 78.0694 19.2969 78.0694 19.9996C78.0694 20.1186 78.0694 20.2376 78.0694 20.3566C78.0694 20.4756 78.0694 20.5946 78.0694 20.7136V24.1136C78.0694 24.3289 78.075 24.5414 78.0864 24.7511C78.1034 24.9551 78.1345 25.1392 78.1799 25.3036C78.2365 25.4849 78.3045 25.6379 78.3839 25.7626C78.4632 25.8872 78.5255 25.9722 78.5709 26.0176H76.3609C76.3212 25.9779 76.2645 25.9014 76.1909 25.7881C76.1229 25.6691 76.0605 25.5331 76.0039 25.3801C75.9472 25.2101 75.9047 25.0287 75.8764 24.8361C75.848 24.6377 75.8339 24.4196 75.8339 24.1816L76.2759 24.4876C76.1059 24.8332 75.8452 25.1364 75.4939 25.3971C75.1482 25.6521 74.7345 25.8504 74.2529 25.9921C73.7712 26.1337 73.247 26.2046 72.6804 26.2046ZM73.2244 24.4451C73.689 24.4451 74.1197 24.3657 74.5164 24.2071C74.913 24.0484 75.2332 23.8047 75.4769 23.4761C75.7205 23.1417 75.8424 22.7139 75.8424 22.1926V20.9856L76.3864 21.5976C76.0237 21.7336 75.5874 21.8469 75.0774 21.9376C74.5674 22.0226 74.0517 22.0906 73.5304 22.1416C72.8617 22.2039 72.3574 22.3201 72.0174 22.4901C71.683 22.6601 71.5159 22.9377 71.5159 23.3231C71.5159 23.6971 71.6575 23.9776 71.9409 24.1646C72.2242 24.3516 72.652 24.4451 73.2244 24.4451ZM87.5523 16.9906L84.7218 26.0176H81.7213L78.8228 16.9906H81.1348L83.4043 25.2356H83.0473L85.2403 16.9906H87.5523ZM89.4115 22.2266V20.6371H95.727L95.472 21.0621C95.472 21.0281 95.472 20.9912 95.472 20.9516C95.472 20.9062 95.472 20.8694 95.472 20.8411C95.472 20.4501 95.3842 20.0846 95.2085 19.7446C95.0329 19.3989 94.7665 19.1212 94.4095 18.9116C94.0525 18.6962 93.5992 18.5886 93.0495 18.5886C92.5055 18.5886 92.0324 18.7047 91.63 18.9371C91.2334 19.1637 90.9245 19.4924 90.7035 19.9231C90.4882 20.3537 90.3805 20.8694 90.3805 21.4701C90.3805 22.0877 90.4854 22.6204 90.695 23.0681C90.9047 23.5101 91.2107 23.8501 91.613 24.0881C92.021 24.3204 92.5169 24.4366 93.1005 24.4366C93.4972 24.4366 93.84 24.3997 94.129 24.3261C94.418 24.2524 94.6532 24.1532 94.8345 24.0286C95.0215 23.8982 95.1604 23.7594 95.251 23.6121C95.3474 23.4647 95.404 23.3174 95.421 23.1701H97.648C97.614 23.5497 97.4865 23.9209 97.2655 24.2836C97.0502 24.6406 96.747 24.9664 96.356 25.2611C95.965 25.5501 95.489 25.7824 94.928 25.9581C94.3727 26.1281 93.738 26.2131 93.024 26.2131C92.055 26.2131 91.2079 26.0147 90.4825 25.6181C89.7572 25.2214 89.1905 24.6689 88.7825 23.9606C88.3802 23.2522 88.179 22.4419 88.179 21.5296C88.179 20.5946 88.383 19.7757 88.791 19.0731C89.2047 18.3704 89.777 17.8236 90.508 17.4326C91.239 17.0359 92.0777 16.8376 93.024 16.8376C93.9987 16.8376 94.8402 17.0359 95.5485 17.4326C96.2625 17.8292 96.8122 18.3817 97.1975 19.0901C97.5829 19.7927 97.7755 20.6116 97.7755 21.5466C97.7755 21.6656 97.7727 21.7931 97.767 21.9291C97.7614 22.0651 97.7529 22.1642 97.7415 22.2266H89.4115ZM101.948 12.7321V26.0176H99.7461V12.7321H101.948ZM106.563 12.7321V26.0176H104.361V12.7321H106.563ZM109.682 22.2266V20.6371H115.998L115.743 21.0621C115.743 21.0281 115.743 20.9912 115.743 20.9516C115.743 20.9062 115.743 20.8694 115.743 20.8411C115.743 20.4501 115.655 20.0846 115.479 19.7446C115.303 19.3989 115.037 19.1212 114.68 18.9116C114.323 18.6962 113.87 18.5886 113.32 18.5886C112.776 18.5886 112.303 18.7047 111.901 18.9371C111.504 19.1637 111.195 19.4924 110.974 19.9231C110.759 20.3537 110.651 20.8694 110.651 21.4701C110.651 22.0877 110.756 22.6204 110.966 23.0681C111.175 23.5101 111.481 23.8501 111.884 24.0881C112.292 24.3204 112.787 24.4366 113.371 24.4366C113.768 24.4366 114.111 24.3997 114.4 24.3261C114.689 24.2524 114.924 24.1532 115.105 24.0286C115.292 23.8982 115.431 23.7594 115.522 23.6121C115.618 23.4647 115.675 23.3174 115.692 23.1701H117.919C117.885 23.5497 117.757 23.9209 117.536 24.2836C117.321 24.6406 117.018 24.9664 116.627 25.2611C116.236 25.5501 115.76 25.7824 115.199 25.9581C114.643 26.1281 114.009 26.2131 113.295 26.2131C112.326 26.2131 111.478 26.0147 110.753 25.6181C110.028 25.2214 109.461 24.6689 109.053 23.9606C108.651 23.2522 108.45 22.4419 108.45 21.5296C108.45 20.5946 108.654 19.7757 109.062 19.0731C109.475 18.3704 110.048 17.8236 110.779 17.4326C111.51 17.0359 112.348 16.8376 113.295 16.8376C114.269 16.8376 115.111 17.0359 115.819 17.4326C116.533 17.8292 117.083 18.3817 117.468 19.0901C117.853 19.7927 118.046 20.6116 118.046 21.5466C118.046 21.6656 118.043 21.7931 118.038 21.9291C118.032 22.0651 118.023 22.1642 118.012 22.2266H109.682ZM119.889 26.0176V16.9906H122.125V19.9911L121.606 19.7021C121.663 19.3111 121.768 18.9427 121.921 18.5971C122.074 18.2457 122.278 17.9397 122.533 17.6791C122.788 17.4127 123.096 17.2059 123.459 17.0586C123.822 16.9112 124.235 16.8376 124.7 16.8376C125.068 16.8376 125.357 16.8659 125.567 16.9226C125.782 16.9736 125.916 17.0161 125.967 17.0501L125.559 19.0986C125.502 19.0589 125.386 19.0107 125.21 18.9541C125.04 18.8917 124.811 18.8606 124.522 18.8606C124.063 18.8606 123.677 18.9399 123.366 19.0986C123.06 19.2516 122.816 19.4612 122.635 19.7276C122.453 19.9882 122.323 20.2772 122.244 20.5946C122.164 20.9062 122.125 21.2179 122.125 21.5296V26.0176H119.889ZM136.106 13.4546V26.0176H133.879V15.6221C133.822 15.6787 133.672 15.7552 133.428 15.8516C133.19 15.9422 132.901 16.0301 132.561 16.1151C132.227 16.1944 131.879 16.2511 131.516 16.2851V14.4661C131.879 14.4207 132.227 14.3414 132.561 14.2281C132.901 14.1147 133.193 13.9901 133.437 13.8541C133.681 13.7124 133.845 13.5792 133.93 13.4546H136.106Z" fill="#060C15"/>
<circle cx="132.663" cy="132.583" r="132.288" fill="#060C15"/>
<path d="M136.53 131.142C150.942 131.142 163.674 117.572 164.922 100.889C165.542 92.5079 162.913 84.692 157.518 78.8854C152.181 73.1498 144.72 69.9912 136.53 69.9912C128.275 69.9912 120.808 73.1307 115.51 78.8308C110.151 84.5938 107.538 92.426 108.139 100.883C109.364 117.569 122.094 131.142 136.53 131.142ZM193.144 181.308C190.84 168.526 183.647 157.789 172.345 150.255C162.307 143.564 149.588 139.878 136.53 139.878C123.473 139.878 110.754 143.564 100.716 150.252C89.4139 157.787 82.2205 168.524 79.9164 181.305C79.3895 184.235 80.1047 187.131 81.8792 189.252C82.6841 190.219 83.6946 190.994 84.8371 191.52C85.9797 192.046 87.2253 192.31 88.483 192.293H184.578C185.836 192.311 187.082 192.048 188.226 191.522C189.369 190.996 190.381 190.222 191.187 189.255C192.956 187.134 193.671 184.237 193.144 181.308ZM86.299 139.878V128.958H97.2189C98.3773 128.958 99.4883 128.498 100.307 127.679C101.127 126.86 101.587 125.749 101.587 124.59C101.587 123.432 101.127 122.321 100.307 121.502C99.4883 120.683 98.3773 120.222 97.2189 120.222H86.299V109.303C86.299 108.144 85.8388 107.033 85.0197 106.214C84.2005 105.395 83.0895 104.935 81.9311 104.935C80.7726 104.935 79.6616 105.395 78.8425 106.214C78.0233 107.033 77.5632 108.144 77.5632 109.303V120.222H66.6433C65.4849 120.222 64.3739 120.683 63.5547 121.502C62.7356 122.321 62.2754 123.432 62.2754 124.59C62.2754 125.749 62.7356 126.86 63.5547 127.679C64.3739 128.498 65.4849 128.958 66.6433 128.958H77.5632V139.878C77.5632 141.037 78.0233 142.148 78.8425 142.967C79.6616 143.786 80.7726 144.246 81.9311 144.246C83.0895 144.246 84.2005 143.786 85.0197 142.967C85.8388 142.148 86.299 141.037 86.299 139.878Z" fill="#84FF50"/>
</svg>
