<svg width="48" height="16" viewBox="0 0 48 16" fill="none" xmlns="http://www.w3.org/2000/svg">
<path fill-rule="evenodd" clip-rule="evenodd" d="M19.2118 0.552409L16.8176 15.2663H20.6481L23.0426 0.552409H19.2118ZM13.5947 0.552409L9.94254 10.6725L9.51054 8.49328L9.51084 8.49399L9.41565 8.00556C8.97364 7.05299 7.94995 5.24253 6.01695 3.69745C5.44547 3.24076 4.86939 2.85099 4.3125 2.51806L7.63171 15.2663H11.6228L17.7175 0.552409H13.5947ZM28.5446 4.63727C28.5446 2.97374 32.2752 3.18749 33.9144 4.09079L34.461 0.930641C34.461 0.930641 32.774 0.289062 31.0156 0.289062C29.1145 0.289062 24.6003 1.12042 24.6003 5.15998C24.6003 8.96171 29.8986 9.00895 29.8986 11.0049C29.8986 13.0009 25.1466 12.6442 23.5783 11.3851L23.0084 14.6882C23.0084 14.6882 24.7188 15.5195 27.3327 15.5195C29.9464 15.5195 33.8905 14.1655 33.8905 10.4822C33.8905 6.6567 28.5446 6.3004 28.5446 4.63727ZM44.1759 0.552409H41.0961C39.6739 0.552409 39.3277 1.64895 39.3277 1.64895L33.6151 15.2663H37.6077L38.4064 13.0809H43.2762L43.7254 15.2663H47.2427L44.1759 0.552409ZM39.5103 10.0614L41.5232 4.55514L42.6555 10.0614H39.5103Z" fill="#005BAC"/>
<path fill-rule="evenodd" clip-rule="evenodd" d="M8.27232 1.94123C8.27232 1.94123 8.11376 0.613281 6.42105 0.613281H0.271254L0.199219 0.862852C0.199219 0.862852 3.1553 1.46545 5.99129 3.72312C8.70147 5.8809 9.58558 8.57068 9.58558 8.57068L8.27232 1.94123Z" fill="#F6AC1D"/>
</svg>
