<svg width="26" height="26" viewBox="0 0 26 26" fill="none" xmlns="http://www.w3.org/2000/svg">
<path d="M15.4172 22.7712C15.3595 22.6587 15.2781 22.5601 15.1787 22.4818C15.0794 22.4035 14.9643 22.3476 14.8413 22.3179C14.5179 22.2323 14.1407 22.2467 13.8524 22.2256C11.1311 22.0363 8.57015 20.8684 6.643 18.9376C4.92976 17.2339 3.81632 15.0199 3.47032 12.6286C3.39198 12.0835 3.39198 11.948 3.39198 11.948C3.39194 11.7661 3.33653 11.5886 3.23311 11.439C3.1297 11.2894 2.98317 11.1748 2.81304 11.1105C2.6429 11.0462 2.45723 11.0353 2.28072 11.0791C2.10422 11.123 1.94523 11.2195 1.82494 11.3559C1.82494 11.3559 1.38394 11.8361 1.17574 12.3179C0.591848 13.6634 0.342839 15.1302 0.450058 16.5928C0.557277 18.0555 1.01753 19.4703 1.79136 20.7161C1.93688 20.9584 1.93688 21.0704 1.90441 21.3223C1.75163 22.1119 1.48412 23.5049 1.34476 24.2274C1.29862 24.4617 1.31578 24.7041 1.39449 24.9295C1.47318 25.155 1.61056 25.3554 1.79248 25.5102L1.81822 25.532C2.05889 25.7231 2.3571 25.8272 2.66442 25.8275C2.83728 25.8276 3.00847 25.7935 3.16812 25.7273L6.16283 24.5716C6.26593 24.5324 6.37984 24.5324 6.48294 24.5716C7.66214 25.0104 8.88946 25.2432 10.0524 25.2432C11.5014 25.2445 12.933 24.9261 14.2448 24.3107C14.5504 24.1675 15.0283 24.012 15.3081 23.6885C15.414 23.5629 15.4808 23.4092 15.5001 23.2461C15.5196 23.0831 15.4907 22.9179 15.4172 22.7712Z" fill="white"/>
<path fill-rule="evenodd" clip-rule="evenodd" d="M2.01367 20.7623C2.01815 20.7523 2.01815 20.745 2.01815 20.7412L2.0161 20.751C2.01534 20.755 2.01459 20.7587 2.01367 20.7623ZM22.718 21.5487C22.8885 21.6188 23.0705 21.6566 23.2548 21.6606C23.4315 21.6609 23.6065 21.6262 23.7697 21.5587C23.933 21.4911 24.0813 21.3921 24.2063 21.2672C24.3312 21.1423 24.4302 20.9939 24.4976 20.8307C24.5652 20.6674 24.5998 20.4924 24.5997 20.3157C24.597 20.1809 24.5759 20.047 24.5369 19.9178L23.6561 16.7871C23.674 16.7471 23.6942 16.7081 23.7165 16.6703L23.7249 16.6551C23.7311 16.6461 23.7377 16.6373 23.7443 16.6284L23.7528 16.617L23.7943 16.5611L23.8049 16.5454C24.9087 14.9051 25.499 12.9734 25.5006 10.9964C25.509 8.33583 24.4613 5.81403 22.5496 3.89609C20.527 1.87127 17.8043 0.751958 14.8823 0.751958C12.4395 0.749624 10.0667 1.56795 8.14468 3.07564C6.27096 4.55481 4.96808 6.62273 4.47615 8.89604C4.32508 9.58691 4.24891 10.292 4.24893 10.9992C4.24565 12.3564 4.51162 13.7009 5.03143 14.9546C5.55123 16.2083 6.31457 17.3465 7.27722 18.3033C9.24776 20.2749 11.8893 21.3607 14.7144 21.3607C15.8197 21.3607 17.1971 21.0064 17.5927 20.8978C18.3226 20.6975 19.0182 20.4361 19.0954 20.407C19.1601 20.3826 19.2288 20.3701 19.2981 20.3701C19.3731 20.3692 19.4475 20.3837 19.5169 20.4126L19.5404 20.4221L22.718 21.5487ZM10.9826 12.628C11.7114 12.628 12.3022 12.0372 12.3022 11.3084C12.3022 10.5795 11.7114 9.98875 10.9826 9.98875C10.2538 9.98875 9.66296 10.5795 9.66296 11.3084C9.66296 12.0372 10.2538 12.628 10.9826 12.628ZM16.2599 11.3084C16.2599 12.0372 15.669 12.628 14.9402 12.628C14.2115 12.628 13.6206 12.0372 13.6206 11.3084C13.6206 10.5795 14.2115 9.98875 14.9402 9.98875C15.669 9.98875 16.2599 10.5795 16.2599 11.3084ZM18.9002 12.628C19.6288 12.628 20.2197 12.0372 20.2197 11.3084C20.2197 10.5795 19.6288 9.98875 18.9002 9.98875C18.1713 9.98875 17.5805 10.5795 17.5805 11.3084C17.5805 12.0372 18.1713 12.628 18.9002 12.628Z" fill="white"/>
</svg>
