<?xml version="1.0" standalone="no"?>
<!DOCTYPE svg PUBLIC "-//W3C//DTD SVG 20010904//EN"
 "http://www.w3.org/TR/2001/REC-SVG-20010904/DTD/svg10.dtd">
<svg version="1.0" xmlns="http://www.w3.org/2000/svg"
 width="128.000000pt" height="128.000000pt" viewBox="0 0 128.000000 128.000000"
 preserveAspectRatio="xMidYMid meet">

<g transform="translate(0.000000,128.000000) scale(0.100000,-0.100000)"
fill="#000000" stroke="none">
<path d="M0 1230 l0 -50 255 0 255 0 0 50 0 50 -255 0 -255 0 0 -50z"/>
<path d="M810 964 c-110 -29 -204 -119 -240 -229 -19 -56 -17 -160 3 -220 102
-297 512 -314 645 -27 38 81 38 202 1 282 -49 106 -128 171 -238 196 -70 17
-102 17 -171 -2z m-142 -201 c-10 -2 -28 -2 -40 0 -13 2 -5 4 17 4 22 1 32 -1
23 -4z m259 1 c-3 -3 -12 -4 -19 -1 -8 3 -5 6 6 6 11 1 17 -2 13 -5z m226 -1
c-24 -2 -62 -2 -85 0 -24 2 -5 4 42 4 47 0 66 -2 43 -4z m-382 -30 c13 -16 12
-17 -3 -4 -10 7 -18 15 -18 17 0 8 8 3 21 -13z m306 -166 c-2 -23 -3 -1 -3 48
0 50 1 68 3 42 2 -26 2 -67 0 -90z m70 -4 c-2 -27 -3 -5 -3 47 0 52 1 74 3 48
2 -27 2 -69 0 -95z m-427 12 c-7 -8 -17 -15 -23 -15 -6 0 -2 7 9 15 25 19 30
19 14 0z m37 -91 c-3 -3 -12 -4 -19 -1 -8 3 -5 6 6 6 11 1 17 -2 13 -5z m196
-1 c-7 -2 -19 -2 -25 0 -7 3 -2 5 12 5 14 0 19 -2 13 -5z m-43 -33 c0 -11 -2
-20 -4 -20 -2 0 -6 9 -9 20 -3 11 -1 20 4 20 5 0 9 -9 9 -20z m177 -27 c-3
-10 -5 -2 -5 17 0 19 2 27 5 18 2 -10 2 -26 0 -35z m-250 1 c-3 -3 -12 -4 -19
-1 -8 3 -5 6 6 6 11 1 17 -2 13 -5z m-62 -24 c-3 -5 -12 -10 -18 -10 -7 0 -6
4 3 10 19 12 23 12 15 0z m58 -7 c-7 -2 -21 -2 -30 0 -10 3 -4 5 12 5 17 0 24
-2 18 -5z"/>
<path d="M43 753 c-10 -3 -13 -37 -13 -119 0 -131 -3 -128 105 -122 45 2 60 7
60 18 0 11 -14 16 -57 18 l-58 3 0 93 c0 94 -9 119 -37 109z"/>
<path d="M241 747 c-13 -13 -15 -205 -2 -226 5 -8 16 -11 25 -8 13 5 16 25 16
121 0 87 -3 115 -14 119 -7 3 -19 0 -25 -6z"/>
<path d="M353 753 c-10 -3 -13 -38 -13 -125 0 -108 2 -119 18 -116 14 3 18 17
22 83 l5 80 52 -83 c36 -56 59 -82 72 -82 27 0 31 18 31 130 0 70 -4 101 -14
109 -22 19 -35 -8 -38 -84 l-3 -69 -50 77 c-51 78 -61 87 -82 80z"/>
<path d="M0 45 l0 -45 255 0 255 0 0 45 0 45 -255 0 -255 0 0 -45z"/>
</g>
</svg>
