<?xml version="1.0" encoding="UTF-8"?>
<!DOCTYPE svg PUBLIC "-//W3C//DTD SVG 1.1//EN" "http://www.w3.org/Graphics/SVG/1.1/DTD/svg11.dtd">
<!-- Creator: CorelDRAW 2017 -->
<svg xmlns="http://www.w3.org/2000/svg" xml:space="preserve" width="1.82728in" height="0.456654in" version="1.1" style="shape-rendering:geometricPrecision; text-rendering:geometricPrecision; image-rendering:optimizeQuality; fill-rule:evenodd; clip-rule:evenodd"
viewBox="0 0 521 130"
 xmlns:xlink="http://www.w3.org/1999/xlink">
 <defs>
  <style type="text/css">
   <![CDATA[
    .fil1 {fill:#0D4F3C}
    .fil0 {fill:#0D4F3C;fill-rule:nonzero}
   ]]>
  </style>
 </defs>
 <g id="Layer_x0020_1">
  <metadata id="CorelCorpID_0Corel-Layer"/>
  <g id="_2303695109936">
   <path class="fil0" d="M193 80l26 -16c-1,-1 -3,-2 -4,-3 -2,-1 -3,-1 -5,-1 -5,0 -9,2 -12,5 -3,3 -5,8 -5,14l0 1zm39 18c-4,3 -7,5 -11,6 -4,1 -7,2 -11,2 -4,0 -7,-1 -11,-2 -3,-1 -6,-3 -9,-6 -3,-3 -5,-6 -6,-9 -1,-3 -2,-7 -2,-11 0,-4 1,-7 2,-11 1,-3 3,-6 6,-9 3,-3 5,-5 9,-6 3,-1 7,-2 10,-2 5,0 10,1 14,4 4,2 7,6 10,10l-38 23c1,2 3,4 6,6 3,1 6,2 9,2 3,0 6,-1 9,-2 3,-1 7,-4 10,-7l2 10zm112 -46l0 53 -10 1 0 -8c-2,3 -4,4 -6,6 -2,1 -5,2 -8,2 -6,0 -10,-2 -13,-6 -3,-4 -4,-9 -4,-17l0 -31 10 -1 0 33c0,5 1,8 2,10 2,2 4,3 8,3 4,0 7,-1 9,-4 2,-3 3,-7 3,-12l0 -29 10 -1zm22 -15l0 16 14 0 0 9 -14 0 0 21c0,6 1,10 2,12 1,2 4,2 8,2 1,0 2,0 3,0 1,0 2,0 3,-1l-2 9c-1,0 -2,0 -3,0 -1,0 -2,0 -3,0 -7,0 -11,-2 -14,-5 -3,-3 -4,-9 -4,-18l0 -21 -8 0 3 -9 5 0 0 -13 10 -2zm28 50c0,3 1,6 3,7 2,2 5,3 8,3 4,0 7,-1 10,-3 2,-2 3,-4 3,-7 0,-3 -1,-6 -3,-8 -2,-2 -5,-3 -9,-3 -4,0 -7,1 -9,3 -2,2 -3,4 -3,8zm25 13c-2,2 -4,3 -7,5 -3,1 -5,2 -8,2 -6,0 -11,-2 -14,-5 -4,-3 -5,-8 -5,-14 0,-6 2,-10 5,-14 4,-4 8,-5 14,-5 3,0 5,0 8,1 2,1 4,2 6,4l0 -4c0,-3 -1,-5 -3,-7 -2,-1 -5,-2 -9,-2 -2,0 -5,0 -7,1 -3,1 -5,2 -8,3l2 -10c3,-1 6,-1 8,-2 3,0 5,-1 7,-1 7,0 12,2 15,5 3,3 5,9 5,16l0 33 -9 1 0 -6zm15 -3l7 -6c2,2 4,3 5,4 2,1 4,1 6,1 3,0 5,-1 6,-2 2,-1 2,-3 2,-5 0,-3 -3,-5 -9,-7 -2,0 -3,-1 -4,-1 -5,-1 -8,-3 -10,-6 -2,-2 -3,-5 -3,-9 0,-5 2,-8 5,-11 3,-3 7,-4 12,-4 3,0 6,1 9,2 3,1 5,3 7,6l-6 6c-2,-2 -4,-3 -5,-4 -2,-1 -3,-1 -5,-1 -2,0 -4,1 -6,2 -1,1 -2,3 -2,5 0,3 4,6 11,8 1,0 2,1 3,1 4,1 7,3 9,6 2,3 3,6 3,9 0,5 -2,9 -5,12 -3,3 -8,5 -13,5 -4,0 -8,-1 -11,-2 -3,-1 -6,-4 -8,-6zm54 -19l23 -27 9 4 -20 23 22 25 -9 4 -24 -28zm-10 27l0 -73 10 -1 0 73 -10 1z"/>
   <path class="fil1" d="M264 51c7,0 14,3 19,8 0,0 0,0 0,0 0,-9 0,-17 0,-26 3,0 7,-1 10,-1 0,24 0,49 0,73 -3,0 -7,1 -10,1 0,-2 0,-5 0,-7 -5,5 -12,8 -19,8 -15,0 -27,-12 -27,-27 0,-15 12,-27 27,-27zm0 15c7,0 12,5 12,12 0,7 -5,12 -12,12 -7,0 -12,-5 -12,-12 0,-7 5,-12 12,-12zm0 -4c9,0 16,7 16,16 0,9 -7,16 -16,16 -9,0 -16,-7 -16,-16 0,-9 7,-16 16,-16z"/>
   <path class="fil1" d="M5 88c-14,-33 0,-71 30,-88l0 0 10 7c0,0 0,0 0,0 -29,14 -43,48 -30,77 13,30 48,44 78,31 30,-13 45,-48 32,-78 -3,-6 -6,-12 -11,-17 -5,1 -9,-1 -11,-6 -2,-5 0,-11 5,-13 5,-2 11,0 13,5 1,2 1,4 1,5 5,6 10,13 13,20 15,35 -2,76 -38,92 -36,15 -77,-1 -92,-36z"/>
   <path class="fil1" d="M70 15c13,0 24,6 32,15l0 0c5,0 10,4 10,10 0,5 -4,10 -10,10 -2,0 -3,0 -4,-1l-53 33c6,7 15,12 25,12 12,0 23,-7 29,-17l14 -9c-4,20 -21,36 -43,36 -24,0 -44,-20 -44,-44 0,-24 19,-44 44,-44zm23 24c0,-1 0,-3 1,-4 -6,-6 -14,-10 -24,-10 -18,0 -33,15 -33,34 0,5 1,9 3,13l53 -33z"/>
  </g>
 </g>
</svg>
