<?xml version="1.0" encoding="UTF-8"?>
<!DOCTYPE svg PUBLIC "-//W3C//DTD SVG 1.1//EN" "http://www.w3.org/Graphics/SVG/1.1/DTD/svg11.dtd">
<!-- Creator: CorelDRAW 2017 -->
<svg xmlns="http://www.w3.org/2000/svg" xml:space="preserve" width="0.608193in" height="0.604902in" version="1.1" style="shape-rendering:geometricPrecision; text-rendering:geometricPrecision; image-rendering:optimizeQuality; fill-rule:evenodd; clip-rule:evenodd"
viewBox="0 0 172 172"
 xmlns:xlink="http://www.w3.org/1999/xlink">
 <defs>
  <style type="text/css">
   <![CDATA[
    .fil0 {fill:gray;fill-rule:nonzero}
   ]]>
  </style>
 </defs>
 <g id="Layer_x0020_1">
  <metadata id="CorelCorpID_0Corel-Layer"/>
  <path class="fil0" d="M168 167c-5,5 -11,6 -14,3l-6 -6 17 -18 6 6c3,3 1,9 -3,14zm-52 -98c0,26 -21,48 -48,48 -26,0 -48,-21 -48,-48 0,-26 21,-48 48,-48 26,0 48,21 48,48zm45 72l-36 -36c7,-11 11,-24 11,-38 0,-38 -30,-68 -68,-68 -38,0 -69,30 -68,68 1,38 31,68 68,68 15,0 28,-5 39,-13l36 36 17 -18z"/>
 </g>
</svg>
