<?xml version="1.0" encoding="utf-8"?>
<!-- Generator: Adobe Illustrator 23.0.1, SVG Export Plug-In . SVG Version: 6.00 Build 0)  -->
<svg version="1.1" id="Layer_1" xmlns="http://www.w3.org/2000/svg" xmlns:xlink="http://www.w3.org/1999/xlink" x="0px" y="0px"
	 viewBox="0 0 52.4 48.7" style="enable-background:new 0 0 52.4 48.7;" xml:space="preserve">
<style type="text/css">
	.st0{fill-rule:evenodd;clip-rule:evenodd;fill:#CCCCCC;}
</style>
<g id="Layer_x0020_1">
	<g id="_2429651860912">
		<path class="st0" d="M2.1,33C-3.2,20.9,1.9,6.6,13.4,0.2L13.6,0l3.6,2.6H17C6.2,7.7,1.1,20.4,5.7,31.4
			c4.8,11.2,17.7,16.3,29.2,11.5c11.3-4.9,16.8-17.9,12-29.1c-1-2.3-2.3-4.4-4.1-6.2C41,8,39.2,7.1,38.5,5.4c-0.8-1.8,0.2-3.9,2-4.8
			s4.1,0,4.8,2c0.3,0.7,0.3,1.3,0.2,2c2,2.1,3.8,4.8,4.9,7.6c5.6,13.1-0.8,28.6-14.1,34.3C22.8,52.2,7.3,46.2,1.7,33H2.1z"/>
		<path class="st0" d="M26.4,5.7c4.8,0,9,2.1,12.2,5.4l0,0c2,0,3.6,1.6,3.6,3.6s-1.6,3.6-3.6,3.6c-0.7,0-1.1-0.2-1.6-0.3L17,30.2
			c2.3,2.8,5.7,4.4,9.5,4.4c4.6,0,8.7-2.5,10.8-6.2l5.3-3.1c-1.5,7.7-8,13.5-15.9,13.5c-9,0-16.3-7.4-16.3-16.4S17.7,5.9,26.7,5.9
			L26.4,5.7z M34.9,14.8c0-0.5,0.2-1,0.3-1.5C33,11,29.8,9.5,26.4,9.5c-6.9,0-12.5,5.6-12.5,12.5c0,1.6,0.3,3.3,1,4.8l19.9-12.2
			L34.9,14.8z"/>
	</g>
</g>
</svg>
