<?xml version="1.0" standalone="no"?>
<!DOCTYPE svg PUBLIC "-//W3C//DTD SVG 20010904//EN" "http://www.w3.org/TR/2001/REC-SVG-20010904/DTD/svg10.dtd">
<svg version="1.0" xmlns="http://www.w3.org/2000/svg" width="16.000000pt" height="16.000000pt" viewBox="0 0 16.000000 16.000000" preserveAspectRatio="xMidYMid meet">
  <g transform="translate(0.000000,16.000000) scale(0.100000,-0.100000)" fill="#000000" stroke="none">
    <path d="M0 80 l0 -80 80 0 c74 0 80 1 80 21 0 25 -26 54 -35 39 -11 -18 -25 -10 -25 15 0 14 5 25 10 25 6 0 10 -5 10 -10 0 -6 8 -5 20 2 12 8 20 24 20 40 l0 28 -80 0 -80 0 0 -80z m140 44 c0 -12 -6 -15 -26 -10 -27 7 -27 7 -22 -43 4 -43 2 -51 -12 -51 -14 0 -16 8 -12 50 3 32 1 50 -6 50 -18 0 -23 -17 -13 -43 9 -22 7 -24 -15 -24 -21 0 -23 3 -18 21 4 11 7 31 6 44 -2 21 2 22 58 22 48 0 60 -3 60 -16z"/>
    <path d="M151 74 c0 -11 3 -14 6 -6 3 7 2 16 -1 19 -3 4 -6 -2 -5 -13z"/>
  </g>
</svg>
