<svg width="541" height="541" viewBox="0 0 541 541" fill="none" xmlns="http://www.w3.org/2000/svg">
<path d="M250.282 250.955H290.719V81.7915H250.282V250.955ZM270.5 346.657C276.791 346.657 282.07 344.523 286.338 340.255C290.607 335.986 292.741 330.707 292.741 324.417C292.741 318.126 290.607 312.847 286.338 308.579C282.07 304.31 276.791 302.176 270.5 302.176C264.21 302.176 258.931 304.31 254.662 308.579C250.394 312.847 248.26 318.126 248.26 324.417C248.26 330.707 250.394 335.986 254.662 340.255C258.931 344.523 264.21 346.657 270.5 346.657ZM0.916992 540.083V41.354C0.916992 31.02 4.96074 21.6969 13.0482 13.3847C21.1357 5.07258 30.5712 0.916504 41.3545 0.916504H499.646C509.98 0.916504 519.303 5.07258 527.615 13.3847C535.928 21.6969 540.084 31.02 540.084 41.354V391.812C540.084 402.146 535.928 411.469 527.615 419.782C519.303 428.094 509.98 432.25 499.646 432.25H108.75L0.916992 540.083ZM41.3545 442.359L91.9014 391.812H499.646V41.354H41.3545V442.359Z" fill="black"/>
</svg>
