<svg width="52" height="52" viewBox="0 0 52 52" fill="none" xmlns="http://www.w3.org/2000/svg">
<circle cx="25.7773" cy="25.6486" r="25.3566" fill="#F87F3B" fill-opacity="0.09"/>
<path d="M25.1896 12.2148C19.5047 12.2148 14.8792 16.6386 14.8792 22.0741C14.8792 24.6627 16.0591 28.1051 18.386 32.306C20.2548 35.6788 22.4167 38.7287 23.5412 40.2463C23.7312 40.5056 23.9797 40.7165 24.2664 40.8618C24.5531 41.0072 24.8701 41.0829 25.1915 41.0829C25.513 41.0829 25.8299 41.0072 26.1167 40.8618C26.4034 40.7165 26.6518 40.5056 26.8418 40.2463C27.9644 38.7287 30.1283 35.6788 31.9971 32.306C34.3201 28.1064 35.5 24.664 35.5 22.0741C35.5 16.6386 30.8745 12.2148 25.1896 12.2148ZM25.1896 26.6494C24.3739 26.6494 23.5765 26.4075 22.8983 25.9544C22.2201 25.5012 21.6915 24.8571 21.3794 24.1035C21.0672 23.3499 20.9855 22.5207 21.1447 21.7206C21.3038 20.9206 21.6966 20.1858 22.2734 19.609C22.8501 19.0322 23.585 18.6394 24.385 18.4803C25.185 18.3212 26.0143 18.4028 26.7678 18.715C27.5214 19.0271 28.1656 19.5557 28.6187 20.234C29.0719 20.9122 29.3138 21.7095 29.3138 22.5252C29.3126 23.6187 28.8777 24.667 28.1045 25.4401C27.3313 26.2133 26.283 26.6482 25.1896 26.6494Z" fill="#F87F3B"/>
</svg>
