<svg width="667" height="181" viewBox="0 0 667 181" fill="none" xmlns="http://www.w3.org/2000/svg">
<path d="M0 28.6879V1.46094H96.0075V28.6879H63.5841V137.546H32.4739V28.6879H0Z" fill="white"/>
<path d="M100.312 137.545V52.9458H129.605V65.1246H129.908C130.135 64.6974 130.489 64.156 130.968 63.5137C131.474 62.8472 132.547 61.6898 134.201 60.0416C135.879 58.4065 137.648 56.9209 139.503 55.613C141.384 54.2789 143.809 53.0841 146.776 52.0398C149.768 51.0077 152.811 50.4795 155.917 50.4795C159.111 50.4795 162.243 50.9198 165.311 51.7884C168.404 52.669 170.677 53.5366 172.128 54.4051L174.452 55.7635L162.179 80.4746C158.544 77.3923 153.467 75.844 146.978 75.844C143.443 75.844 140.387 76.6247 137.836 78.1598C135.312 79.707 133.519 81.5815 132.483 83.7963C131.435 85.9848 130.69 87.8471 130.262 89.3822C129.82 90.9294 129.605 92.1373 129.605 93.0059V137.545H100.312Z" fill="white"/>
<path d="M178.55 5.78868C181.985 2.36641 186.075 0.655273 190.822 0.655273C195.569 0.655273 199.635 2.36641 203.045 5.78868C206.478 9.1857 208.195 13.237 208.195 17.9678C208.195 22.6985 206.478 26.775 203.045 30.1973C199.635 33.5944 195.569 35.2803 190.822 35.2803C186.075 35.2803 181.985 33.5944 178.55 30.1973C175.141 26.775 173.449 22.6985 173.449 17.9678C173.449 13.237 175.141 9.1857 178.55 5.78868ZM175.772 52.9447V137.545H205.065V52.9447H175.772Z" fill="white"/>
<path d="M306.171 63.4137C314.112 72.0446 318.089 82.6258 318.089 95.1702C318.089 107.689 314.112 118.296 306.171 126.977C298.216 135.671 288.116 140.011 275.868 140.011C264.618 140.011 255.364 136.489 248.091 129.442V180.424H218.799V52.9458H247.738V62.5078H248.091C255.364 54.493 264.618 50.4795 275.868 50.4795C288.116 50.4795 298.216 54.7949 306.171 63.4137ZM281.272 109.513C285.072 105.763 286.979 100.982 286.979 95.1702C286.979 89.3317 285.135 84.5891 281.474 80.927C277.838 77.2408 273.052 75.3916 267.131 75.3916C261.374 75.3916 256.639 77.2539 252.94 80.9775C249.265 84.7022 247.435 89.4327 247.435 95.1702C247.435 100.982 249.329 105.763 253.142 109.513C256.942 113.238 261.601 115.099 267.131 115.099C272.749 115.099 277.459 113.238 281.272 109.513Z" fill="white"/>
<path d="M361.744 50.4795C366.618 50.4795 371.416 51.0329 376.138 52.1398C380.886 53.2225 384.421 54.3041 386.743 55.412L390.229 57.0724L380.633 76.1965C373.992 72.6738 367.704 70.9125 361.744 70.9125C358.436 70.9125 356.101 71.2902 354.725 72.0194C353.335 72.7243 352.654 74.0706 352.654 76.046C352.654 76.4863 352.705 76.9267 352.805 77.3539C352.932 77.7942 353.159 78.2093 353.462 78.6123C353.79 78.99 354.093 79.3041 354.371 79.5687C354.674 79.8454 355.141 80.1474 355.785 80.4746C356.455 80.8139 356.972 81.0654 357.351 81.229C357.755 81.4058 358.386 81.6572 359.27 81.9844C360.141 82.2864 360.797 82.5258 361.239 82.6884C361.707 82.8651 362.465 83.1166 363.513 83.4438C364.547 83.7831 365.343 83.9972 365.886 84.0982C369.32 85.1041 372.299 86.212 374.825 87.4199C377.375 88.6278 380.052 90.276 382.855 92.3514C385.683 94.44 387.867 97.0698 389.42 100.253C390.961 103.449 391.744 107.085 391.744 111.174C391.744 130.399 378.322 140.011 351.493 140.011C345.432 140.011 339.675 139.08 334.22 137.243C328.765 135.369 324.801 133.494 322.351 131.607L318.716 128.637L330.634 108.708C331.543 109.451 332.705 110.357 334.119 111.426C335.559 112.47 338.159 113.891 341.896 115.703C345.659 117.515 348.916 118.421 351.644 118.421C357.73 118.421 360.785 116.395 360.785 112.332C360.785 110.457 360.002 108.997 358.461 107.953C356.909 106.922 354.283 105.739 350.584 104.43C346.871 103.096 343.98 101.863 341.896 100.756C336.607 98.0131 332.415 94.9056 329.321 91.4455C326.216 87.9986 324.675 83.3933 324.675 77.6558C324.675 69.1007 328.008 62.4452 334.675 57.6763C341.366 52.8821 350.394 50.4795 361.744 50.4795Z" fill="white"/>
<path d="M583.031 56.6686V140.024H552.801V5.70215H583.031L635.785 89.0572H636.08V5.70215H666.31V140.024H636.08L583.325 56.6686H583.031Z" fill="#84FF50"/>
<path fill-rule="evenodd" clip-rule="evenodd" d="M479.137 115.921C498.933 111.878 513.823 94.4204 513.823 73.4975C513.823 49.5802 494.367 30.1916 470.365 30.1916C446.364 30.1916 426.907 49.5802 426.907 73.4975C426.907 88.6385 434.705 101.966 446.517 109.707V121.709C446.517 124.029 448.427 125.914 450.783 125.914H453.512C453.076 126.535 452.821 127.287 452.821 128.104C452.821 130.223 454.565 131.946 456.722 131.946C458.874 131.946 460.622 130.223 460.622 128.104C460.622 127.287 460.366 126.535 459.926 125.914H485.221C484.785 126.535 484.529 127.287 484.529 128.104C484.529 130.223 486.273 131.946 488.425 131.946C490.581 131.946 492.325 130.223 492.325 128.104C492.325 127.287 492.07 126.535 491.633 125.914H494.364C496.719 125.914 498.629 124.029 498.629 121.709V120.854C492.729 120.236 486.092 118.573 479.137 115.921ZM538.147 73.4975C538.147 110.802 507.8 141.042 470.365 141.042C432.931 141.042 402.584 110.802 402.584 73.4975C402.584 36.1938 432.931 5.95312 470.365 5.95312C507.8 5.95312 538.147 36.1938 538.147 73.4975Z" fill="#84FF50"/>
<path d="M467.758 176.384C469.318 179.078 473.219 179.078 474.779 176.384L487.067 155.176C488.627 152.482 486.677 149.116 483.556 149.116H458.981C455.86 149.116 453.91 152.482 455.47 155.176L467.758 176.384Z" fill="#84FF50"/>
<path d="M463.735 46.1019C463.735 44.8496 464.74 43.8335 465.984 43.8335H466.933V44.0131C466.933 44.4337 467.27 44.7787 467.689 44.7787H478.473C478.892 44.7787 479.229 44.4337 479.229 44.0131V43.8335H480.178C481.423 43.8335 482.432 44.8496 482.432 46.1019V65.9183H463.735V46.1019ZM455.867 93.1532C482.113 109.874 509.471 113.73 516.978 101.764C518.228 99.7835 518.847 97.4869 518.899 94.9681C516.307 103.928 505.795 104.344 498.893 103.579V70.1762C498.893 67.822 497.001 65.9183 494.667 65.9183H484.248V46.1019C484.248 43.8383 482.422 41.9999 480.178 41.9999H479.229V41.8156C479.229 41.3949 478.892 41.0547 478.473 41.0547H467.689C467.27 41.0547 466.933 41.3949 466.933 41.8156V41.9999H465.984C463.74 41.9999 461.914 43.8383 461.914 46.1019V65.9183H451.496C449.162 65.9183 447.269 67.822 447.269 70.1762V83.6215C443.18 81.339 438.607 78.6495 434.78 76.0267C440.48 82.0146 447.631 87.9076 455.867 93.1532Z" fill="#84FF50"/>
</svg>
