<svg width="48" height="48" viewBox="0 0 48 48" fill="none" xmlns="http://www.w3.org/2000/svg">
<path d="M22.5 22.55H25.5V10H22.5V22.55ZM24 29.65C24.4667 29.65 24.8583 29.4917 25.175 29.175C25.4917 28.8583 25.65 28.4667 25.65 28C25.65 27.5333 25.4917 27.1417 25.175 26.825C24.8583 26.5083 24.4667 26.35 24 26.35C23.5333 26.35 23.1417 26.5083 22.825 26.825C22.5083 27.1417 22.35 27.5333 22.35 28C22.35 28.4667 22.5083 28.8583 22.825 29.175C23.1417 29.4917 23.5333 29.65 24 29.65ZM4 44V7C4 6.23333 4.3 5.54167 4.9 4.925C5.5 4.30833 6.2 4 7 4H41C41.7667 4 42.4583 4.30833 43.075 4.925C43.6917 5.54167 44 6.23333 44 7V33C44 33.7667 43.6917 34.4583 43.075 35.075C42.4583 35.6917 41.7667 36 41 36H12L4 44ZM7 36.75L10.75 33H41V7H7V36.75Z" fill="black"/>
</svg>
