<svg width="53" height="52" viewBox="0 0 53 52" fill="none" xmlns="http://www.w3.org/2000/svg">
<circle cx="26.4194" cy="25.6372" r="25.6382" fill="#31C975" fill-opacity="0.18"/>
<path d="M34.06 23.1577V33.0197C34.06 33.3012 34.0045 33.58 33.8968 33.8401C33.789 34.1002 33.6311 34.3366 33.432 34.5356C33.233 34.7347 32.9966 34.8926 32.7365 35.0004C32.4764 35.1081 32.1976 35.1636 31.9161 35.1636H19.0526C18.484 35.1636 17.9387 34.9377 17.5366 34.5356C17.1346 34.1336 16.9087 33.5883 16.9087 33.0197V20.1562C16.9087 19.5876 17.1346 19.0423 17.5366 18.6402C17.9387 18.2382 18.484 18.0123 19.0526 18.0123H28.0292M31.4873 14.582H37.4902V20.585M25.4843 26.5879L37.0615 15.0108" stroke="#16BB5D" stroke-width="2" stroke-linecap="round" stroke-linejoin="round"/>
</svg>
