<svg width="336" height="202" viewBox="0 0 336 202" fill="none" xmlns="http://www.w3.org/2000/svg">
<mask id="mask0_1554_36118" style="mask-type:alpha" maskUnits="userSpaceOnUse" x="16" y="0" width="311" height="174">
<rect x="16.8027" y="0.126953" width="309.374" height="173.674" rx="20" fill="#F8F8F8"/>
</mask>
<g mask="url(#mask0_1554_36118)">
<path d="M324.354 160.124C187.746 109.512 62.3992 124.277 16.8016 137.986L5.63281 187.837L118.995 202.08C244.368 209.183 460.961 210.736 324.354 160.124Z" fill="#ECFFE3"/>
</g>
<path d="M16.7943 138.072L325.592 160.573L334.737 164.407L335.091 199.991L1.05534 201.908L0.8125 143.134L16.7943 138.072Z" fill="#ECFFE3"/>
<path d="M280.86 125.595C280.881 125.572 282.502 123.809 283.004 121.692L282.859 121.557C282.398 123.665 280.755 125.455 280.734 125.477L280.86 125.595Z" fill="white"/>
<path d="M278.647 120.848C279.132 120.297 279.56 119.697 279.924 119.059L279.787 118.955C279.428 119.59 279.003 120.186 278.521 120.734L278.647 120.848Z" fill="white"/>
<path d="M282.023 128.091C282.048 128.064 284.157 125.773 284.491 123.182L284.337 123.02C284.073 125.608 281.923 127.948 281.898 127.975L282.023 128.091Z" fill="white"/>
<path d="M276.369 123.162C278.104 123.763 279.882 123.682 279.908 123.681L279.899 123.51C279.873 123.51 278.082 123.591 276.365 122.982C276.366 123.04 276.367 123.101 276.369 123.162Z" fill="white"/>
<path d="M281.335 126.739L281.326 126.567C281.292 126.567 278.599 126.69 276.492 125.568C276.497 125.634 276.503 125.7 276.509 125.771C278.648 126.861 281.299 126.741 281.335 126.739Z" fill="white"/>
<path d="M285.774 136.256L285.765 136.084C285.712 136.084 281.296 136.289 278.262 134.268C278.291 134.355 278.321 134.442 278.351 134.531C281.43 136.454 285.722 136.259 285.774 136.256Z" fill="white"/>
<path d="M288.261 141.441C288.208 141.441 283.62 141.652 280.584 139.504C280.65 139.619 280.716 139.733 280.782 139.843C283.862 141.814 288.218 141.615 288.27 141.613L288.261 141.441Z" fill="white"/>
<path d="M277.01 129.461C277.023 129.531 277.036 129.601 277.05 129.672C279.843 131.056 283.262 130.902 283.306 130.9L283.298 130.728C283.253 130.731 279.777 130.889 277.01 129.461Z" fill="white"/>
<path d="M292.722 123.075C292.68 123.059 289.253 121.616 287.604 118.968C287.633 118.883 287.662 118.799 287.691 118.715C289.263 121.395 292.759 122.866 292.799 122.886L292.722 123.075Z" fill="white"/>
<path d="M44.9681 113.533C44.1667 113.175 43.4039 112.736 42.6914 112.224C42.7237 112.162 42.7573 112.102 42.7876 112.043C43.4934 112.552 44.2497 112.988 45.0445 113.343L44.9681 113.533Z" fill="white"/>
<path d="M48.5876 114.914C47.0021 116.429 45.0292 117.22 45.0009 117.235L44.9258 117.044C44.9554 117.032 46.9409 116.23 48.5013 114.715C48.5303 114.781 48.5586 114.847 48.5876 114.914Z" fill="white"/>
<path d="M226.772 88.1145L217.613 89.6386C216.993 89.7403 216.358 89.5925 215.847 89.2277C215.336 88.8628 214.99 88.3105 214.885 87.6914L214.532 85.5729L211.951 70.073C211.85 69.4531 211.998 68.8183 212.363 68.3073C212.728 67.7962 213.281 67.4505 213.9 67.3456L222.95 65.8379L223.057 65.8201C223.677 65.719 224.312 65.8672 224.823 66.2324C225.334 66.5976 225.679 67.1501 225.784 67.7693L228.719 85.3877C228.821 86.0072 228.673 86.6417 228.308 87.1525C227.943 87.6634 227.391 88.0092 226.772 88.1145Z" fill="#025FCE"/>
<path d="M223.583 84.0659L214.53 85.5729L211.949 70.073C211.848 69.4531 211.996 68.8183 212.361 68.3073C212.726 67.7963 213.279 67.4505 213.898 67.3456L222.951 65.8379L225.533 81.3391C225.633 81.9589 225.484 82.5932 225.119 83.104C224.754 83.6147 224.202 83.9604 223.583 84.0659Z" fill="#0F69ED"/>
<path d="M241.332 138.234L245.985 148.452L243.104 151.272L235.117 141.928L241.332 138.234Z" fill="#FBBD9D"/>
<path d="M243.854 148.823L245.986 148.451L249.937 151.304L240.609 160.438L240.182 159.727L242.812 149.844L243.854 148.823Z" fill="#FBBD9D"/>
<path d="M241.562 153.43C241.562 153.43 246.478 149.533 245.445 147.264C245.445 147.264 248.363 148.653 250.348 150.9L250.988 151.533L240.577 161.724C240.504 161.796 240.406 161.835 240.304 161.834C240.202 161.833 240.105 161.791 240.034 161.718L240.023 161.707C239.862 161.544 239.742 161.345 239.672 161.127C239.601 160.909 239.582 160.678 239.616 160.451C239.869 158.802 240.556 154.837 241.562 153.43Z" fill="#1B3663"/>
<path d="M241.948 151.98L243.464 152.376L241.738 156.322L240.42 156.406C240.42 156.406 240.987 151.729 241.948 151.98Z" fill="#142B4C"/>
<path d="M242.216 154.088L242.247 153.843C242.25 153.818 242.232 153.796 242.208 153.793L240.691 153.607C240.667 153.604 240.645 153.621 240.642 153.646L240.612 153.891C240.609 153.915 240.626 153.937 240.651 153.94L242.167 154.126C242.191 154.129 242.213 154.112 242.216 154.088Z" fill="white"/>
<path d="M242.134 154.762L242.165 154.516C242.168 154.492 242.15 154.47 242.126 154.467L240.609 154.281C240.585 154.278 240.563 154.295 240.56 154.319L240.53 154.565C240.527 154.589 240.544 154.611 240.569 154.614L242.085 154.8C242.109 154.803 242.131 154.786 242.134 154.762Z" fill="white"/>
<path d="M242.058 155.371L242.088 155.126C242.091 155.102 242.074 155.08 242.05 155.077L240.533 154.89C240.509 154.887 240.487 154.905 240.484 154.929L240.454 155.174C240.451 155.198 240.468 155.22 240.492 155.223L242.009 155.41C242.033 155.413 242.055 155.395 242.058 155.371Z" fill="white"/>
<path d="M211.711 145.719L208.375 156.44L204.348 156.624L204.615 144.334L211.711 145.719Z" fill="#FBBD9D"/>
<path d="M206.538 155.297L208.375 156.439L209.422 161.199L196.381 161.797L196.535 160.983L205.08 155.363L206.538 155.297Z" fill="#FBBD9D"/>
<path d="M201.761 157.208C201.761 157.208 208.021 157.576 208.764 155.195C208.764 155.195 210.016 158.174 209.999 161.173L210.055 162.072L195.501 162.74C195.399 162.744 195.299 162.708 195.224 162.639C195.149 162.571 195.104 162.475 195.099 162.373V162.358C195.089 162.129 195.131 161.901 195.224 161.691C195.316 161.482 195.457 161.296 195.633 161.15C196.917 160.087 200.07 157.587 201.761 157.208Z" fill="#1B3663"/>
<path d="M203.013 156.382L203.88 157.688L199.965 159.482L198.924 158.665C198.924 158.665 202.462 155.555 203.013 156.382Z" fill="#142B4C"/>
<path d="M201.808 158.114L201.994 157.951C202.012 157.935 202.014 157.907 201.998 157.889L200.991 156.739C200.975 156.721 200.947 156.719 200.929 156.735L200.743 156.898C200.725 156.914 200.723 156.942 200.739 156.96L201.746 158.11C201.762 158.128 201.79 158.13 201.808 158.114Z" fill="white"/>
<path d="M201.297 158.563L201.482 158.4C201.501 158.384 201.503 158.356 201.487 158.338L200.479 157.189C200.463 157.17 200.435 157.168 200.417 157.185L200.231 157.347C200.213 157.363 200.211 157.391 200.227 157.41L201.234 158.559C201.25 158.577 201.278 158.579 201.297 158.563Z" fill="white"/>
<path d="M200.836 158.967L201.021 158.804C201.04 158.788 201.042 158.761 201.026 158.742L200.018 157.593C200.002 157.575 199.974 157.573 199.956 157.589L199.77 157.752C199.752 157.768 199.75 157.796 199.766 157.814L200.773 158.963C200.789 158.982 200.817 158.983 200.836 158.967Z" fill="white"/>
<path d="M191.63 98.1211L192.355 98.5824C192.355 98.5824 193.607 102.211 192.638 103.097C191.67 103.982 190.176 103.733 190.176 103.733L191.63 98.1211Z" fill="#FBBD9D"/>
<path d="M192.314 89.6719L189.585 97.5464C189.585 97.5464 187.238 99.2906 186.913 101.402C186.589 103.513 189.833 107.135 190.85 104.327C191.678 102.037 192.354 98.5822 192.354 98.5822L196.845 91.3766L192.314 89.6719Z" fill="#FBBD9D"/>
<path d="M221.231 115.693C219.781 119.383 211.224 149.531 211.224 149.531H203.358C201.014 128.51 204.174 109.592 205.659 102.356C206.072 100.344 206.354 99.2358 206.354 99.2358L206.323 91.5439L217.679 89.5176C217.679 89.5176 222.679 112.008 221.231 115.693Z" fill="#060C15"/>
<path opacity="0.55" d="M221.231 115.693C219.781 119.383 211.224 149.531 211.224 149.531H209.014C211.068 143.48 212.378 132.839 212.739 125.206C213.189 115.689 208.36 106.294 205.658 102.356C206.071 100.344 206.353 99.2358 206.353 99.2358L206.322 91.5439L217.678 89.5176C217.678 89.5176 222.678 112.008 221.231 115.693Z" fill="url(#paint0_linear_1554_36118)"/>
<path d="M224.306 67.1328C224.173 67.5276 223.954 67.8878 223.665 68.1871C221.79 70.2114 216.782 71.1004 212.578 71.3864C207.701 71.7158 196.515 71.4523 192.188 66.8561C187.862 62.2599 197.759 63.8525 199.484 51.1216C201.484 36.3689 210.525 39.5108 210.525 39.5108L205.933 42.5525L211.76 41.1931L212.913 43.2253L213.334 43.968C213.334 43.968 214.054 44.1578 214.965 44.8332C215.864 45.5007 216.946 46.642 217.7 48.5398C218.083 49.5232 218.343 50.5502 218.475 51.5973C218.518 51.915 218.554 52.2471 218.579 52.5904C219.132 59.9812 225.205 64.3501 224.306 67.1328Z" fill="#202B42"/>
<path d="M190.983 91.3691L190.278 93.3032C190.23 93.4432 190.233 93.596 190.287 93.734C190.341 93.872 190.442 93.9863 190.573 94.0564L194.03 95.9146C194.176 95.9925 194.346 96.0099 194.503 95.963C194.661 95.9161 194.794 95.8087 194.873 95.6642L195.799 93.9694L190.983 91.3691Z" fill="#5FD72C"/>
<path d="M223.666 68.1893C221.792 70.2136 216.783 71.1025 212.579 71.3885C207.703 71.718 196.517 71.4544 192.19 66.8582C189.752 62.8386 197.396 61.6307 200.163 57.1716C202.931 52.7124 202.746 48.4734 202.746 48.4734C202.746 48.4734 207.249 41.1247 212.913 43.2281C214.294 43.7415 214.864 44.2436 214.965 44.836C215.276 46.6725 211.049 49.39 212.35 56.1126C213.598 62.5374 222.272 64.6164 223.666 68.1893Z" fill="#141C2B"/>
<path d="M205.234 82.3902C205.234 82.3902 198.52 90.6805 197.42 92.6574C196.32 94.6342 195.295 94.0412 195.295 94.0412L195.091 93.9384L191.187 91.9576C191.059 91.8927 190.953 91.7904 190.884 91.6641C190.815 91.5379 190.786 91.3937 190.801 91.2505C192.215 77.9719 200.909 64.5181 200.909 64.5181L201.393 64.4746L204.087 65.3378L205.234 82.3902Z" fill="#84FF50"/>
<path d="M207.974 63.2664L202.139 64.4103L201.754 66.5249H215.06L217.973 64.1553L215.776 63.0938L207.974 63.2664Z" fill="#FBBD9D"/>
<path d="M206.287 57.7148V62.4382L202.139 64.413L216.689 63.2941L211.777 62.1831L210.74 57.6113L206.287 57.7148Z" fill="#FBBD9D"/>
<path d="M218.477 51.5987C218.286 52.025 217.982 52.2939 217.61 52.2576C216.659 52.1608 215.213 49.5144 215.213 49.5144C215.213 49.5144 216.711 48.3527 217.703 48.5424C218.086 49.5255 218.346 50.552 218.477 51.5987Z" fill="#141C2B"/>
<path d="M215.249 54.6102C214.698 57.3304 213.23 60.0749 209.516 59.7389C203.026 59.1544 203.364 47.4033 203.364 47.4033C203.364 47.4033 205.344 38.3624 211.776 42.6206C214.945 44.72 215.482 49.5712 215.482 49.5712C215.545 50.2418 215.57 50.9155 215.556 51.5889C215.544 52.6032 215.442 53.6143 215.249 54.6102Z" fill="#FBBD9D"/>
<path d="M209.564 53.221C209.67 51.959 208.833 50.8584 207.696 50.7629C206.558 50.6674 205.55 51.613 205.444 52.875C205.338 54.1371 206.174 55.2376 207.312 55.3331C208.449 55.4287 209.458 54.483 209.564 53.221Z" fill="#FC9E8B"/>
<path d="M215.249 54.6092C214.959 54.143 214.831 53.5934 214.886 53.0467C214.94 52.4999 215.175 51.9868 215.553 51.5879C215.542 52.602 215.441 53.6132 215.249 54.6092Z" fill="#FC9E8B"/>
<path d="M212.386 44.7956C212.386 44.7956 210.097 43.4903 209.628 48.1879C209.144 53.0418 204.726 54.3452 203.452 53.2414C202.178 52.1377 199.505 45.7748 202.733 41.9384C205.96 38.102 210.525 39.5102 210.525 39.5102C210.525 39.5102 213.21 38.2279 215.636 41.487C218.062 44.7462 220.631 45.3413 217.982 49.6824C217.979 49.6838 214.15 51.3904 212.386 44.7956Z" fill="#202B42"/>
<path d="M211.547 41.4786C211.547 41.4786 209.253 40.1831 207.502 40.8401C205.751 41.497 202.889 43.3039 202.935 48.8997C202.982 54.4956 200.308 58.6456 199.416 58.1798C199.416 58.1798 202.233 53.4168 202.139 47.1752C202.045 40.9336 206.784 37.7997 211.547 41.4786Z" fill="#141C2B"/>
<path d="M203.904 52.2571C203.904 52.2571 203.533 50.733 202.114 51.6739C200.695 52.6149 201.887 55.1559 204.062 55.7871C206.237 56.4184 203.904 52.2571 203.904 52.2571Z" fill="#FBBD9D"/>
<path opacity="0.55" d="M205.235 82.3909C205.235 82.3909 198.52 90.6812 197.421 92.658C196.321 94.6349 195.295 94.0418 195.295 94.0418L195.092 93.939C199.303 83.2093 201.286 65.2746 201.286 65.2746C201.32 65.0017 201.357 64.7349 201.395 64.4766L204.088 65.3398L205.235 82.3909Z" fill="url(#paint1_linear_1554_36118)"/>
<path d="M244.733 143.609L238.545 147.427C238.545 147.427 229.771 138.301 224.983 132.812C222.621 130.105 220.615 126.951 218.921 123.653C212.392 110.952 209.768 92.4718 209.768 92.4718L211.239 90.4732L222.748 89.2324C222.748 89.2324 226.617 95.5182 228.998 98.9269C229.252 99.2861 229.494 99.6557 229.723 100.031C233.673 106.483 233.146 117.542 235.516 124.208C237.885 130.874 244.733 143.609 244.733 143.609Z" fill="#060C15"/>
<path opacity="0.55" d="M228.999 98.9243C228.999 98.9243 220.659 102.246 218.921 123.65C212.392 110.95 209.768 92.4692 209.768 92.4692L211.239 90.4706L222.749 89.2324C222.749 89.2324 226.618 95.5155 228.999 98.9243Z" fill="url(#paint2_linear_1554_36118)"/>
<path d="M222.749 89.23C220.466 90.992 211.883 94.4357 205.973 92.2697C205.973 92.2697 200.574 79.5921 200.14 77.1276C199.539 73.7347 199.524 66.5422 201.098 64.0909C201.131 64.0373 201.184 63.998 201.244 63.9805C201.305 63.963 201.37 63.9685 201.427 63.996C202.227 64.3835 203.367 64.6477 204.678 64.792C205.093 64.8375 205.527 64.8731 205.971 64.8948C208.269 65.0095 210.883 64.8098 213.082 64.3182C213.508 64.2233 213.919 64.1205 214.308 63.9999C215.197 63.7364 215.977 63.4069 216.583 63.0326C216.709 62.9647 216.849 62.9275 216.992 62.9241C217.135 62.9207 217.277 62.9511 217.406 63.0128L220.665 64.7624C220.876 64.8754 221.048 65.0486 221.161 65.2597C221.273 65.4709 221.32 65.7106 221.295 65.9485C220.993 68.9289 221.025 79.8148 220.792 83.213C220.744 83.8791 220.904 84.5435 221.25 85.1148L222.845 88.6916C222.898 88.7776 222.917 88.8798 222.899 88.979C222.882 89.0782 222.828 89.1674 222.749 89.23Z" fill="#84FF50"/>
<path d="M240.175 89.6719L239.73 90.3691C239.73 90.3691 240.111 94.0453 241.312 94.4256C242.513 94.8058 243.72 93.9821 243.72 93.9821L240.175 89.6719Z" fill="#FBBD9D"/>
<path d="M244.734 93.1992C244.734 93.1992 242.256 91.076 241.367 91.7673C240.478 92.4585 240.726 94.4835 242.108 95.9892C243.491 97.4949 245.62 98.1545 245.62 98.1545L247.194 96.3095L244.734 93.1992Z" fill="#F7AF8F"/>
<path d="M236.149 82.5762L241.726 88.3433C241.726 88.3433 244.483 88.914 245.624 90.6253C246.764 92.3366 245.402 96.8194 243.374 94.7767C241.721 93.1142 239.729 90.3716 239.729 90.3716L232.885 85.9032L236.149 82.5762Z" fill="#FBBD9D"/>
<path d="M217.611 66.4599L220.743 64.7598C220.743 64.7598 236.233 75.5949 236.169 82.3703L232.949 86.353C232.949 86.353 228.195 90.3456 217.611 73.2965V66.4599Z" fill="#84FF50"/>
<path d="M232.535 86.221L233.807 87.1436C233.895 87.2065 234.003 87.2346 234.111 87.2225C234.219 87.2103 234.318 87.1587 234.39 87.0777L237.514 83.4106C237.574 83.3414 237.607 83.2524 237.605 83.1608C237.604 83.0692 237.569 82.9812 237.507 82.9138L235.86 81.4746C235.86 81.4746 233.075 81.9484 232.535 86.221Z" fill="#5FD72C"/>
<path d="M215.179 50.9022C215.169 51.2225 214.995 51.4801 214.79 51.4781C214.585 51.4762 214.427 51.2145 214.436 50.8943C214.445 50.574 214.62 50.3164 214.825 50.3184C215.029 50.3203 215.188 50.582 215.179 50.9022Z" fill="#263238"/>
<path d="M210.71 50.8327C210.736 51.1417 210.573 51.4106 210.347 51.4343C210.12 51.458 209.915 51.2267 209.889 50.9177C209.864 50.6086 210.026 50.3391 210.252 50.316C210.478 50.293 210.685 50.5236 210.71 50.8327Z" fill="#263238"/>
<path d="M210.015 50.5694C209.952 50.5641 209.891 50.5437 209.837 50.5099C209.784 50.476 209.739 50.4298 209.707 50.375C209.707 50.375 209.669 50.6999 209.93 50.7868C210.19 50.8738 210.015 50.5694 210.015 50.5694Z" fill="#263238"/>
<path d="M212.572 54.4806C212.572 54.449 212.918 54.4319 213.474 54.4279C213.615 54.4279 213.75 54.4187 213.784 54.3265C213.829 54.2302 213.789 54.0741 213.741 53.9041C213.653 53.5526 213.559 53.1838 213.459 52.7977C213.07 51.2241 212.808 49.9372 212.871 49.922C212.934 49.9069 213.3 51.1701 213.689 52.7436C213.781 53.1311 213.869 53.5014 213.952 53.8546C213.986 54.0187 214.054 54.2085 213.958 54.4075C213.932 54.4541 213.896 54.4942 213.852 54.5247C213.809 54.5552 213.758 54.5753 213.706 54.5834C213.626 54.5945 213.546 54.5958 213.466 54.5874C212.913 54.5505 212.568 54.5116 212.572 54.4806Z" fill="#263238"/>
<path d="M212.353 56.1105C212.2 56.0252 212.027 55.9805 211.851 55.9805C211.675 55.9805 211.502 56.0252 211.348 56.1105C211.236 56.1699 211.137 56.2515 211.056 56.3502C210.976 56.4489 210.916 56.5628 210.881 56.6851C210.82 56.9309 210.902 57.2123 211.103 57.3348C211.33 57.4765 211.648 57.4007 211.872 57.2202C212.095 57.0396 212.243 56.7853 212.38 56.5329C212.423 56.4655 212.452 56.3909 212.467 56.3128C212.474 56.2752 212.47 56.2364 212.455 56.2012C212.44 56.166 212.415 56.1361 212.383 56.1151" fill="#F98470"/>
<path d="M210.637 55.756C210.721 55.7151 210.962 56.2904 211.625 56.4927C212.288 56.695 212.877 56.3767 212.913 56.4551C212.936 56.4881 212.823 56.6238 212.567 56.7391C212.232 56.8855 211.856 56.9088 211.506 56.805C211.17 56.7047 210.887 56.4776 210.715 56.1718C210.592 55.9411 210.596 55.7718 210.637 55.756Z" fill="#263238"/>
<path d="M215.061 50.5644C215.061 50.5644 215.281 50.5915 215.334 50.4023C215.344 50.4702 215.332 50.5394 215.299 50.5997C215.267 50.6601 215.216 50.7082 215.153 50.7371L215.061 50.5644Z" fill="#263238"/>
<path d="M210.85 48.7857C210.815 48.9557 210.279 48.9313 209.669 49.0796C209.055 49.2114 208.576 49.475 208.479 49.334C208.435 49.2681 208.506 49.1027 208.692 48.9228C208.933 48.7001 209.229 48.5453 209.549 48.474C209.863 48.3978 210.192 48.4085 210.5 48.505C210.736 48.5874 210.864 48.7033 210.85 48.7857Z" fill="#202B42"/>
<path d="M216.025 49.4952C215.868 49.5828 215.439 49.3113 214.877 49.1341C214.322 48.941 213.813 48.9015 213.743 48.7387C213.714 48.6609 213.826 48.5588 214.072 48.5048C214.406 48.4457 214.75 48.4737 215.07 48.5858C215.453 48.713 215.755 48.9278 215.911 49.113C216.068 49.2981 216.097 49.4517 216.025 49.4952Z" fill="#202B42"/>
<path d="M210.693 94.2148C210.693 94.2148 211.425 100.611 211.835 103.557" stroke="#060C15" stroke-width="1.44" stroke-miterlimit="10"/>
<path d="M211.448 101.173C211.448 101.173 210.573 100.96 210.055 100.395C209.536 99.8304 208.961 95.0352 208.961 95.0352" stroke="#060C15" stroke-width="1.44" stroke-miterlimit="10"/>
<path d="M215.396 62.6865C215.396 62.6865 213.66 73.4512 220.873 81.474L221.495 80.0664C221.495 80.0664 218.413 70.3021 218.609 63.6585C218.609 63.6559 217.174 62.0157 215.396 62.6865Z" fill="#1F78FF"/>
<path d="M112.971 71.7794L127.841 74.5219L127.133 66.8398L114.525 66.9716C114.525 66.9716 110.55 68.6065 112.971 71.7794Z" fill="#FBBD9D"/>
<path d="M112.453 66.1864C112.453 66.1864 98.9442 63.6461 99.5511 65.4253L104.839 67.0457C104.839 67.0457 103.509 66.987 103.994 68.3161C104.479 69.6452 103.065 70.3787 104.587 71.2551C106.11 72.1315 108.637 72.2125 108.662 70.3813C108.687 68.5501 109.048 67.7718 109.048 67.7718C109.048 67.7718 111.947 68.3208 112.202 67.2539L112.453 66.1864Z" fill="#FBBD9D"/>
<path d="M105.53 66.9993C105.53 66.9993 98.5788 65.6887 98.018 66.4142C97.6826 66.8511 98.306 67.1614 98.306 67.1614C98.306 67.1614 97.0263 67.6135 98.9913 68.4701C98.9913 68.4701 98.4496 68.7996 99.1758 69.4902C99.902 70.1807 104.897 71.3352 104.897 71.3352C104.897 71.3352 105.527 67.2926 105.53 66.9993Z" fill="#FBBD9D"/>
<path d="M107.938 66.8392L112.453 66.1875L114.525 66.9736L112.971 71.7787C112.971 71.7787 107.575 72.0937 106.983 71.7649C106.39 71.4361 107.938 66.8392 107.938 66.8392Z" fill="#FBBD9D"/>
<path d="M108.012 62.99C107.94 62.944 107.855 62.921 107.77 62.9241C107.684 62.9272 107.601 62.9563 107.532 63.0076C107.463 63.0588 107.412 63.1297 107.384 63.2109C107.356 63.2922 107.354 63.3799 107.377 63.4625C107.539 64.0391 107.814 64.5773 108.188 65.0453C108.562 65.5133 109.025 65.9014 109.552 66.1866C111.889 67.4848 113.905 66.7368 113.905 66.7368L108.012 62.99Z" fill="#FBBD9D"/>
<path d="M98.3105 67.161C98.3105 67.161 99.863 66.8822 103.64 67.9682L98.3105 67.161Z" fill="#EC996F"/>
<path d="M98.9961 68.4729C98.9961 68.4729 100.628 68.4406 102.95 69.1812L98.9961 68.4729Z" fill="#EC996F"/>
<path d="M108.973 66.3652C108.973 66.3652 108.8 68.9081 111.543 69.9453C111.54 69.9453 109.466 69.0314 108.973 66.3652Z" fill="#EC996F"/>
<path d="M58.1418 158.777C58.7858 154.809 56.0915 151.071 52.1238 150.427C48.1562 149.783 44.4176 152.477 43.7736 156.445C43.1295 160.412 45.8239 164.151 49.7915 164.795C53.7592 165.439 57.4977 162.745 58.1418 158.777Z" fill="#35353F"/>
<path d="M52.787 162.022C55.227 161.011 56.3857 158.214 55.375 155.774C54.3643 153.334 51.567 152.175 49.127 153.186C46.687 154.196 45.5283 156.994 46.539 159.434C47.5497 161.874 50.347 163.032 52.787 162.022Z" fill="#90919A"/>
<path d="M54.5718 151.098L52.9705 157.763C52.8584 158.228 52.5923 158.641 52.2154 158.936C51.8386 159.231 51.3732 159.389 50.8949 159.386C50.4165 159.382 49.9534 159.217 49.5807 158.918C49.2081 158.618 48.9478 158.201 48.8422 157.734L47.3457 151.1L54.5718 151.098Z" fill="#757E9C"/>
<path d="M52.0683 156.971C52.0685 157.191 52.0035 157.405 51.8815 157.588C51.7596 157.771 51.5862 157.913 51.3834 157.997C51.1805 158.081 50.9572 158.104 50.7418 158.061C50.5264 158.018 50.3285 157.912 50.1731 157.757C50.0178 157.602 49.9119 157.404 49.869 157.189C49.8261 156.973 49.8481 156.75 49.9321 156.547C50.0161 156.344 50.1584 156.171 50.3411 156.049C50.5237 155.926 50.7384 155.861 50.958 155.861C51.2523 155.862 51.5345 155.978 51.7427 156.187C51.9509 156.395 52.068 156.677 52.0683 156.971Z" fill="#303030"/>
<path d="M117.235 158.499C117.726 154.509 114.891 150.877 110.901 150.386C106.912 149.894 103.279 152.73 102.788 156.72C102.297 160.709 105.133 164.342 109.122 164.833C113.111 165.324 116.744 162.488 117.235 158.499Z" fill="#35353F"/>
<path d="M110.599 162.345C113.22 162.023 115.083 159.636 114.76 157.015C114.438 154.394 112.051 152.53 109.43 152.853C106.809 153.176 104.945 155.562 105.268 158.184C105.591 160.805 107.977 162.668 110.599 162.345Z" fill="#90919A"/>
<path d="M109.323 147.172L112.025 156.924C112.155 157.385 112.124 157.876 111.939 158.318C111.754 158.759 111.425 159.125 111.006 159.356C110.586 159.586 110.101 159.668 109.629 159.587C109.157 159.507 108.726 159.269 108.407 158.912L101.969 151.783L109.323 147.172Z" fill="#757E9C"/>
<path d="M110.858 156.676C110.965 156.868 111.013 157.087 110.995 157.306C110.978 157.524 110.896 157.733 110.76 157.905C110.624 158.077 110.439 158.205 110.231 158.273C110.022 158.34 109.798 158.345 109.587 158.285C109.375 158.225 109.187 158.104 109.044 157.937C108.902 157.77 108.812 157.564 108.787 157.347C108.761 157.129 108.801 156.908 108.901 156.712C109 156.517 109.156 156.356 109.348 156.248C109.475 156.177 109.615 156.132 109.76 156.115C109.904 156.098 110.051 156.11 110.191 156.149C110.332 156.189 110.463 156.256 110.577 156.346C110.691 156.437 110.787 156.549 110.858 156.676Z" fill="#303030"/>
<path d="M126.388 114.56L112.748 113.773L107.754 152.008H121.54L126.388 114.56Z" fill="#5479D3"/>
<path d="M119.018 123.037H47.9195C47.6986 123.037 47.5195 123.216 47.5195 123.437V150.838C47.5195 151.059 47.6986 151.238 47.9195 151.238H119.018C119.239 151.238 119.418 151.059 119.418 150.838V123.437C119.418 123.216 119.239 123.037 119.018 123.037Z" fill="#6784DD"/>
<path d="M47.5195 125.178V127.544C47.8172 127.577 48.1163 127.594 48.4157 127.595C51.6354 127.595 54.2455 125.857 54.2455 123.713C54.2436 123.484 54.2121 123.257 54.1519 123.037H50.7339C48.9587 123.035 47.5195 123.996 47.5195 125.178Z" fill="#263762"/>
<path d="M116.203 123.035H112.731C112.671 123.255 112.639 123.482 112.637 123.711C112.637 125.855 115.247 127.593 118.466 127.593C118.784 127.592 119.102 127.573 119.418 127.536V125.176C119.418 123.996 117.979 123.035 116.203 123.035Z" fill="#263762"/>
<path d="M48.4157 146.889C48.1163 146.89 47.8172 146.907 47.5195 146.939V149.097C47.5195 150.28 48.9587 151.238 50.7339 151.238H54.1993C54.2286 151.084 54.2441 150.928 54.2455 150.771C54.2455 148.626 51.6354 146.889 48.4157 146.889Z" fill="#263762"/>
<path d="M118.466 146.889C115.247 146.889 112.637 148.627 112.637 150.771C112.638 150.928 112.654 151.084 112.683 151.238H116.203C117.982 151.238 119.418 150.28 119.418 149.097V146.945C119.102 146.909 118.784 146.89 118.466 146.889Z" fill="#263762"/>
<path d="M62.72 123.037H59.3633V151.238H62.72V123.037Z" fill="#263762"/>
<path d="M106.788 123.037H103.432V151.238H106.788V123.037Z" fill="#263762"/>
<path d="M115.538 104.4H70.392C69.9382 104.4 69.5703 104.768 69.5703 105.222V122.315C69.5703 122.769 69.9382 123.136 70.392 123.136H115.538C115.991 123.136 116.359 122.769 116.359 122.315V105.222C116.359 104.768 115.991 104.4 115.538 104.4Z" fill="url(#paint3_linear_1554_36118)"/>
<path d="M69.5703 105.823V107.395C69.764 107.416 69.9586 107.428 70.1535 107.428C72.2483 107.428 73.9471 106.274 73.9471 104.849C73.946 104.698 73.9254 104.547 73.8858 104.4H71.6618C70.5067 104.4 69.5703 105.038 69.5703 105.823Z" fill="#F1995B"/>
<path d="M114.268 104.4H112.009C111.969 104.547 111.948 104.698 111.947 104.849C111.947 106.274 113.645 107.428 115.741 107.428C115.948 107.427 116.155 107.415 116.36 107.391V105.823C116.362 105.038 115.423 104.4 114.268 104.4Z" fill="#F1995B"/>
<path d="M70.1535 120.248C69.9586 120.249 69.764 120.26 69.5703 120.282V121.717C69.5703 122.502 70.5067 123.139 71.6618 123.139H73.9168C73.9362 123.037 73.9463 122.933 73.9471 122.829C73.9471 121.403 72.2483 120.248 70.1535 120.248Z" fill="#F1995B"/>
<path d="M115.741 120.248C113.645 120.248 111.947 121.403 111.947 122.827C111.948 122.931 111.958 123.035 111.977 123.138H114.268C115.423 123.138 116.36 122.501 116.36 121.716V120.286C116.155 120.262 115.948 120.249 115.741 120.248Z" fill="#F1995B"/>
<path d="M84.3153 104.4H82.1309V123.136H84.3153V104.4Z" fill="#F1995B"/>
<path d="M103.8 104.4H101.615V123.136H103.8V104.4Z" fill="#F1995B"/>
<path d="M68.8145 160.64C69.9796 156.793 67.8055 152.73 63.9585 151.565C60.1115 150.4 56.0483 152.574 54.8831 156.421C53.718 160.268 55.8921 164.331 59.7391 165.496C63.5861 166.662 67.6493 164.487 68.8145 160.64Z" fill="#3C3C4F"/>
<path d="M66.6324 158.516C66.6324 159.462 66.3519 160.387 65.8265 161.173C65.301 161.96 64.5542 162.572 63.6804 162.934C62.8066 163.296 61.8451 163.391 60.9175 163.207C59.9898 163.022 59.1378 162.567 58.469 161.898C57.8002 161.229 57.3448 160.377 57.1602 159.449C56.9757 158.522 57.0704 157.56 57.4324 156.686C57.7943 155.813 58.4072 155.066 59.1936 154.54C59.98 154.015 60.9046 153.734 61.8504 153.734C63.1187 153.734 64.335 154.238 65.2318 155.135C66.1286 156.032 66.6324 157.248 66.6324 158.516Z" fill="#E8EAFC"/>
<path d="M65.4637 152.008L63.8605 158.671C63.7484 159.136 63.4822 159.55 63.1054 159.844C62.7286 160.139 62.2632 160.297 61.7848 160.294C61.3065 160.291 60.8434 160.126 60.4707 159.826C60.098 159.526 59.8377 159.109 59.7322 158.642L58.2363 152.008H65.4637Z" fill="#B6C7FF"/>
<path d="M62.9596 157.883C62.9592 158.103 62.8938 158.317 62.7716 158.499C62.6494 158.681 62.476 158.823 62.2732 158.907C62.0704 158.991 61.8473 159.012 61.6322 158.969C61.4171 158.926 61.2195 158.82 61.0646 158.665C60.9096 158.51 60.8041 158.312 60.7614 158.097C60.7188 157.882 60.7408 157.659 60.8249 157.456C60.9089 157.253 61.0512 157.08 61.2336 156.958C61.4161 156.837 61.6305 156.771 61.8499 156.771C61.9958 156.771 62.1403 156.8 62.275 156.856C62.4098 156.912 62.5322 156.994 62.6353 157.097C62.7383 157.2 62.82 157.323 62.8757 157.458C62.9313 157.593 62.9599 157.737 62.9596 157.883Z" fill="#474747"/>
<path d="M128.742 163.662C131.584 160.82 131.584 156.211 128.742 153.369C125.9 150.527 121.291 150.527 118.449 153.369C115.607 156.211 115.607 160.82 118.449 163.662C121.291 166.504 125.9 166.504 128.742 163.662Z" fill="#3C3C4F"/>
<path d="M128.378 158.516C128.378 159.462 128.098 160.387 127.572 161.174C127.047 161.96 126.3 162.573 125.426 162.935C124.552 163.298 123.59 163.392 122.663 163.208C121.735 163.023 120.882 162.568 120.214 161.899C119.545 161.23 119.089 160.378 118.904 159.45C118.72 158.523 118.815 157.561 119.176 156.687C119.538 155.813 120.151 155.066 120.938 154.54C121.725 154.015 122.649 153.734 123.595 153.734C124.223 153.734 124.845 153.858 125.425 154.098C126.006 154.338 126.533 154.691 126.977 155.135C127.421 155.579 127.773 156.106 128.014 156.686C128.254 157.266 128.378 157.888 128.378 158.516Z" fill="#E8EAFC"/>
<path d="M122.911 148.084L125.613 157.836C125.743 158.297 125.712 158.788 125.527 159.23C125.342 159.671 125.013 160.037 124.593 160.268C124.174 160.498 123.689 160.58 123.217 160.499C122.745 160.419 122.314 160.181 121.995 159.825L115.557 152.694L122.911 148.084Z" fill="#B6C7FF"/>
<path d="M124.446 157.59C124.553 157.782 124.601 158.001 124.583 158.22C124.566 158.439 124.484 158.647 124.348 158.819C124.211 158.992 124.027 159.12 123.819 159.187C123.61 159.255 123.386 159.259 123.175 159.199C122.963 159.139 122.775 159.018 122.632 158.851C122.49 158.684 122.4 158.479 122.375 158.261C122.349 158.043 122.389 157.822 122.489 157.627C122.588 157.431 122.744 157.27 122.935 157.163C123.063 157.092 123.203 157.046 123.347 157.029C123.492 157.012 123.639 157.024 123.779 157.063C123.92 157.103 124.051 157.17 124.165 157.261C124.279 157.351 124.375 157.463 124.446 157.59Z" fill="#474747"/>
<path d="M121.539 153.318H48.8263C48.652 153.322 48.4787 153.291 48.3166 153.227C48.1544 153.163 48.0067 153.067 47.882 152.945C47.7574 152.823 47.6583 152.678 47.5907 152.517C47.5231 152.357 47.4883 152.184 47.4883 152.01C47.4883 151.835 47.5231 151.663 47.5907 151.502C47.6583 151.341 47.7574 151.196 47.882 151.074C48.0067 150.952 48.1544 150.856 48.3166 150.792C48.4787 150.728 48.652 150.697 48.8263 150.701H120.389L127.332 97.0658C127.476 95.9276 127.934 94.8519 128.654 93.9588C129.375 93.0658 130.329 92.3907 131.411 92.009L138.483 89.4918C138.645 89.4342 138.817 89.409 138.989 89.4177C139.16 89.4264 139.329 89.4688 139.484 89.5426C139.639 89.6163 139.778 89.7199 139.893 89.8474C140.009 89.975 140.098 90.1239 140.155 90.2858C140.213 90.4477 140.238 90.6194 140.229 90.7911C140.221 90.9627 140.178 91.1309 140.104 91.2862C140.031 91.4414 139.927 91.5806 139.8 91.6958C139.672 91.811 139.523 91.9 139.361 91.9576L132.289 94.4741C131.662 94.6951 131.11 95.086 130.693 95.603C130.275 96.12 130.01 96.7429 129.927 97.4019L122.836 152.177C122.795 152.493 122.641 152.782 122.403 152.992C122.164 153.202 121.857 153.318 121.539 153.318Z" fill="#B6C7FF"/>
<path d="M167.062 113.073C160.249 120.084 151.658 149.909 151.658 149.909H143.363C143.363 149.909 141.749 136.752 142.77 127.79C143.621 120.293 145.155 113.643 146.592 108.589C148.355 102.369 149.969 98.5607 149.969 98.5607L163.807 97.5723L167.062 113.073Z" fill="#192C51"/>
<path d="M159.554 109.01C159.554 109.01 149.365 127.038 149.227 149.905" stroke="#234170" stroke-width="2" stroke-miterlimit="10"/>
<path d="M167.062 113.073C160.248 120.084 151.657 149.909 151.657 149.909H149.226C153.016 126.704 148.9 113.675 146.59 108.589C148.353 102.369 149.967 98.5607 149.967 98.5607L163.805 97.5723L167.062 113.073Z" fill="url(#paint4_linear_1554_36118)"/>
<path d="M202.413 132.17L201.283 140.868C201.283 140.868 185.989 142.689 176.729 138.038C168.871 134.09 160.175 114.631 157.722 108.828C157.284 107.794 157.045 107.193 157.045 107.193C156.473 106.042 156.056 104.821 155.804 103.561C152.789 88.0326 181.451 80.8078 182.5 101.123C182.873 108.354 185.182 114.2 188.105 118.783C194.008 128.052 202.413 132.17 202.413 132.17Z" fill="#192C51"/>
<path d="M188.105 118.786C161.85 117.552 157.525 108.827 157.525 108.827L155.608 103.559C152.591 88.0306 181.452 80.8058 182.5 101.121C182.873 108.355 185.182 114.2 188.105 118.786Z" fill="url(#paint5_linear_1554_36118)"/>
<path d="M182.081 91.3787C182.081 91.3787 178.806 99.837 167.16 102.34C157.722 104.37 148.77 102.208 148.77 102.208L148.924 97.3752L149.399 82.5573L147.904 72.6822L151.064 51.3493L154.622 51.1555C155.29 50.1724 156.678 50.9796 158.489 52.9387C166.317 61.4069 182.081 91.3787 182.081 91.3787Z" fill="white"/>
<path d="M182.081 91.3795C182.081 91.3795 178.806 99.8378 167.16 102.341C157.722 104.371 148.77 102.209 148.77 102.209L148.924 97.376C162.847 86.6522 157.976 53.8225 157.976 53.8225C158.146 53.5189 158.316 53.2246 158.486 52.9395C166.317 61.4077 182.081 91.3795 182.081 91.3795Z" fill="#E9F4FF"/>
<path d="M149.968 90.2635C149.968 90.2635 149.611 106.129 147.294 111.33C147.294 111.33 143.594 111.396 142.344 109.155C142.344 109.155 144.35 102.44 146.705 96.7134C149.059 90.9864 148.772 88.4844 148.772 88.4844L149.968 90.2635Z" fill="#84FF50"/>
<path d="M147.293 76.0434C134.535 80.0584 122.528 76.0434 122.528 76.0434C121.897 74.9337 121.706 73.656 121.755 72.3941C121.879 69.1652 123.58 66.0365 123.58 66.0365C137.405 64.1914 144.733 56.707 144.733 56.707L145.499 57.7712L145.601 58.8256L147.293 76.0434Z" fill="#84FF50"/>
<path opacity="0.55" d="M147.293 76.0433C134.535 80.0583 122.528 76.0433 122.528 76.0433C121.897 74.9336 121.706 73.6559 121.755 72.394C124.721 73.2902 132.299 74.8862 137.997 70.1186C142.281 66.5339 144.505 61.9621 145.604 58.8281L147.293 76.0433Z" fill="url(#paint6_linear_1554_36118)"/>
<path d="M164.602 95.4711C158.342 92.1341 154.191 86.108 151.814 81.6403C149.244 76.8069 148.13 72.7016 148.119 72.6607L148.501 72.5586C148.544 72.7207 152.966 88.8229 164.788 95.1225L164.602 95.4711Z" fill="#BAD1F7"/>
<path d="M150.636 52.2305C150.636 52.2305 144.979 56.0972 143.43 58.0062C141.881 59.9152 142.737 74.0029 149.385 83.4167C149.385 83.4167 149.78 58.1722 150.636 52.2305Z" fill="#84FF50"/>
<path d="M174.104 107.43C174.104 107.43 177.419 127.227 198.276 134.2" stroke="#234170" stroke-width="2" stroke-miterlimit="10"/>
<path d="M155.201 69.5283C155.201 69.5283 156.233 95.9925 165.845 112.451C165.845 112.451 179.998 114.098 196.653 104.419C196.653 104.419 196.108 103.601 193.754 100.535C188.103 93.1617 181.974 68.2071 178.613 61.6947C174.745 54.1879 168.741 50.0233 164.334 49.307C159.927 48.5907 155.201 69.5283 155.201 69.5283Z" fill="#84FF50"/>
<path d="M152.641 49.3105C152.641 49.3105 150.571 54.5821 149.65 69.1964C149.65 69.1964 146.012 58.3843 147.739 54.2533C149.945 48.987 152.641 49.3105 152.641 49.3105Z" fill="#CC3644"/>
<path d="M160.726 47.7832C160.726 47.7832 157.756 59.2556 152.473 54.6146L152.348 54.0281L151.064 47.9987L151.545 45.9704L151.706 45.2831L156.695 43.9896L157.846 43.6911L158.374 43.5547L158.393 43.5903L159.113 44.8838L159.706 45.9526L160.726 47.7832Z" fill="#FBBD9D"/>
<path opacity="0.7" d="M159.113 44.8838C156.693 48.5911 153.78 48.3005 152.276 53.6268L151.064 47.9987L151.545 45.9704L151.706 45.2831L156.695 43.9896L157.846 43.6911L158.374 43.5547L158.393 43.5903L159.113 44.8838Z" fill="#EC996F"/>
<path d="M158.373 41.0872C158.373 41.0872 154.916 48.8879 147.906 48.9868C144.471 49.0342 144.046 45.4791 144.507 41.8417C144.714 40.1943 145.105 38.5298 145.478 37.175C145.733 36.2525 145.982 35.4703 146.158 34.9392C146.235 34.7138 146.296 34.5326 146.341 34.4041C146.395 34.2559 146.424 34.1748 146.424 34.1748C152.053 24.2015 158.965 33.6812 159.458 35.6581C159.951 37.635 158.373 41.0872 158.373 41.0872Z" fill="#FBBD9D"/>
<path d="M162.827 36.3748C162.898 37.3975 161.779 38.1243 161.779 38.1243C161.186 45.1356 157.536 42.6138 157.536 42.6138L157.73 40.4452C156.002 40.3463 157.433 38.3715 157.433 38.3715C153.484 38.1243 153.829 32.1997 153.829 32.1997C152.002 34.3742 148.102 34.1252 148.102 34.1252C141.016 33.6237 141.764 29.9079 142.712 27.9C142.922 27.4511 143.172 27.0227 143.461 26.6203C144.695 20.8934 149.485 24.942 149.485 24.942C151.558 19.4121 156.002 28.9906 156.002 28.9906C158.769 23.0165 159.408 33.0886 161.779 34.8382C162.519 35.3851 162.795 35.9109 162.827 36.3748Z" fill="#60432F"/>
<path opacity="0.8" d="M162.827 36.3732C162.898 37.3959 161.779 38.1228 161.779 38.1228C161.186 45.134 157.536 42.6122 157.536 42.6122L157.73 40.4436C156.002 40.3447 157.433 38.3699 157.433 38.3699C153.484 38.1228 153.829 32.1981 153.829 32.1981C152.002 34.3727 148.102 34.1236 148.102 34.1236C141.016 33.6221 141.764 29.9063 142.712 27.8984C143.36 28.2681 144.496 28.4658 146.389 28.3136C153.401 27.7548 154.949 27.9841 156.265 31.4733C157.491 34.7239 160.319 37.8051 162.827 36.3732Z" fill="url(#paint7_linear_1554_36118)"/>
<path d="M157.677 41.001C157.677 41.001 158.665 39.6547 159.899 41.2843C161.132 42.9139 158.813 45.0858 156.097 44.9376C153.382 44.7893 157.677 41.001 157.677 41.001Z" fill="#FBBD9D"/>
<path d="M156.156 42.9141C156.739 41.5602 156.222 40.0369 155.002 39.5115C153.781 38.9862 152.32 39.6578 151.737 41.0116C151.154 42.3654 151.671 43.8888 152.891 44.4141C154.112 44.9395 155.574 44.2679 156.156 42.9141Z" fill="#FC9E8B"/>
<path d="M146.147 40.288C145.997 40.6475 145.773 40.9715 145.49 41.239C145.207 41.5064 144.871 41.7114 144.504 41.8405C144.711 40.1932 145.102 38.5286 145.475 37.1738C146.344 37.8453 146.649 39.1289 146.147 40.288Z" fill="#FC9E8B"/>
<path d="M156.091 45.3686C156.411 45.3027 156.745 45.3884 156.002 46.419C154.867 48.0005 153.336 47.6051 153.336 47.6051C153.336 47.6051 152.892 52.6909 146.966 52.1974C143.153 51.8791 143.165 49.8647 143.658 48.4683C143.831 47.9883 144.064 47.5324 144.352 47.1116C142.725 46.1732 143.905 43.6554 143.905 43.6554C145.14 40.4924 147.658 42.52 147.658 42.52C150.472 38.076 152.892 42.4211 154.324 43.5084C154.433 43.5934 154.554 43.662 154.683 43.712C155.897 44.1733 156.618 42.12 156.865 43.6231C157.047 44.7308 156.48 45.1887 156.091 45.3686Z" fill="#60432F"/>
<path d="M155.332 57.8448C152.849 57.8448 151.843 56.4353 151.789 56.3569L152.115 56.1328C152.18 56.2244 153.728 58.3594 157.913 56.9954L158.036 57.371C156.988 57.713 156.091 57.8448 155.332 57.8448Z" fill="#BAD1F7"/>
<path d="M135.733 90.9533C135.733 90.9533 130.683 89.0588 128.525 90.9533C126.368 92.8478 130.698 92.3852 135.733 90.9533Z" fill="#F4AF90"/>
<path d="M154.721 90.4416C149.55 91.4096 137.486 93.9018 136.264 94.3426C135.012 94.7927 130.174 95.99 128.786 97.3448C127.397 98.6996 125.931 98.1211 125.931 98.1211C125.931 98.1211 125.688 98.5046 125.196 97.9234C123.977 96.4908 125.196 94.7275 125.196 94.7275C126.501 90.464 133.613 90.5721 133.613 90.5721L150.298 82.8287C150.327 82.8131 150.354 82.7959 150.381 82.7773L154.721 90.4416Z" fill="#FBBD9D"/>
<path d="M171.645 85.168L170.251 86.5612C170.059 86.7539 170.059 87.0664 170.251 87.2592L180.827 97.8353C181.02 98.028 181.333 98.028 181.525 97.8353L182.919 96.4421C183.111 96.2494 183.111 95.9368 182.919 95.7441L172.343 85.168C172.15 84.9752 171.837 84.9752 171.645 85.168Z" fill="#CC3644"/>
<path d="M165.92 73.1178C165.091 71.873 164.404 70.5083 163.819 69.1364C162.765 66.6746 161.925 63.8279 162.376 61.1295C162.837 58.3566 165.016 55.8677 167.916 55.5989C170.569 55.3524 173.113 56.7758 175.165 58.3105C176.583 59.3714 177.81 60.6076 179.016 61.8938C179.037 61.9149 179.055 61.938 179.074 61.9597C179.346 62.2853 179.81 61.8167 179.54 61.4939C178.541 60.3005 177.37 59.2211 176.157 58.2511C174.048 56.5642 171.49 54.9972 168.71 54.9149C165.682 54.8253 162.982 56.9293 162.034 59.7595C161.107 62.5271 161.776 65.6242 162.767 68.2732C163.426 70.0352 164.254 71.7992 165.298 73.3708C165.315 73.3972 165.332 73.4235 165.35 73.4492C165.584 73.8005 166.154 73.471 165.918 73.1198L165.92 73.1178Z" fill="#39257A"/>
<path d="M196.322 74.5662L193.453 77.0874L175.368 92.9807C175.012 93.2929 174.593 93.5246 174.139 93.66C173.685 93.7954 173.207 93.8313 172.738 93.7653C172.269 93.6993 171.82 93.533 171.421 93.2776C171.022 93.0222 170.683 92.6838 170.426 92.2855L161.387 78.2043C161.031 77.6494 160.85 77.0005 160.866 76.3415C160.883 75.6825 161.097 75.0436 161.481 74.5076C161.636 74.2916 161.817 74.0949 162.019 73.9218L181.535 56.9208C182.95 55.7116 185.483 55.9185 186.643 57.3735L196.725 70.0419C197.251 70.7037 197.503 71.5425 197.428 72.3847C197.353 73.2268 196.957 74.0079 196.322 74.5662Z" fill="#463493"/>
<path d="M193.549 76.6232L175.464 92.5165C175.108 92.8287 174.688 93.0604 174.235 93.1958C173.781 93.3312 173.303 93.3671 172.834 93.3012C172.365 93.2352 171.915 93.0688 171.516 92.8135C171.117 92.5581 170.778 92.2197 170.522 91.8213L161.482 77.7402C161.126 77.1853 160.945 76.5363 160.962 75.8773C160.979 75.2183 161.193 74.5795 161.577 74.0434L178.82 59.3211C179.156 59.0344 179.547 58.8183 179.968 58.6855C180.389 58.5528 180.833 58.5061 181.273 58.5483C181.712 58.5904 182.139 58.7206 182.528 58.931C182.916 59.1414 183.258 59.4278 183.534 59.7731L193.616 72.4415C194.09 73.0385 194.343 73.7817 194.331 74.5443C194.319 75.3069 194.042 76.0416 193.549 76.6232Z" fill="#39257A"/>
<path d="M184.47 65.6895L165.563 81.3644C165.482 81.4317 165.471 81.5522 165.538 81.6334L166.026 82.2224C166.094 82.3037 166.214 82.3149 166.295 82.2476L185.203 66.5727C185.284 66.5054 185.295 66.3849 185.228 66.3036L184.739 65.7147C184.672 65.6334 184.552 65.6222 184.47 65.6895Z" fill="#463493"/>
<path d="M161.98 61.3131C159.785 65.8349 153.685 76.0645 147.293 82.8227L153.139 91.5011C153.139 91.5011 166.458 88.3731 174.601 70.779C179.933 59.2539 172.34 55.5723 167.198 56.2221C165.195 56.4718 162.862 59.4971 161.98 61.3131Z" fill="#5FD72C"/>
<path d="M119.822 65.9803C119.822 65.9803 119.715 65.1837 120.738 65.4835C121.76 65.7833 124.407 65.214 124.635 65.6357C124.863 66.0574 122.873 69.5235 122.984 76.6237C122.984 76.6237 118.916 75.922 118.645 75.4132C118.374 74.9045 117.737 72.8934 119.822 65.9803Z" fill="#CC3644"/>
<path d="M144.221 84.4082C144.221 84.4082 144.341 84.1716 145.038 83.8942C145.736 83.6168 147.36 82.2738 147.768 82.4781C148.164 82.6758 149.086 86.2493 153.847 91.2995C153.891 91.3454 153.922 91.4016 153.937 91.4627C153.953 91.5238 153.953 91.588 153.938 91.6491C153.922 91.7103 153.891 91.7666 153.848 91.8127C153.805 91.8588 153.751 91.8933 153.691 91.913C152.505 92.2978 149.838 93.1294 149.458 92.9363C148.968 92.6879 145.487 89.2857 144.221 84.4082Z" fill="#CC3644"/>
<path d="M142.592 64.4756C142.516 68.5493 143.3 72.8819 145.059 76.5588L145.315 76.1127C143.24 75.89 141.455 74.3052 140.479 72.559C140.293 72.2295 139.781 72.5247 139.968 72.8582C141.057 74.8073 143.024 76.4593 145.315 76.7058C145.559 76.7315 145.657 76.4422 145.57 76.2597C143.857 72.6763 143.111 68.4432 143.184 64.4756C143.192 64.0941 142.599 64.0941 142.591 64.4756H142.592Z" fill="#CC3644"/>
<path d="M155.201 69.5281C155.167 68.9455 155.141 68.3744 155.124 67.8148C154.656 52.6411 160.243 46.0291 160.243 46.0291C160.762 45.9997 161.283 46.0555 161.784 46.1945C162.888 46.4816 163.859 47.1424 164.531 48.0646C167.451 52.0401 155.201 69.5281 155.201 69.5281Z" fill="#CC3644"/>
<path d="M155.2 69.5288C155.166 68.9463 155.141 68.3752 155.123 67.8156C160.815 57.6914 161.799 49.9975 161.783 46.1953C162.888 46.4824 163.859 47.1432 164.531 48.0654C167.451 52.0409 155.2 69.5288 155.2 69.5288Z" fill="url(#paint8_linear_1554_36118)"/>
<path d="M152.624 149.506L151.752 163.099L147.608 162.756L147.641 161.088L145.844 162.61L132.863 161.536C132.863 161.536 132.453 159.395 133.516 158.829C134.58 158.263 137.297 157.907 137.297 157.907L142.343 154.901C142.538 154.785 142.697 154.617 142.802 154.416C142.906 154.215 142.953 153.988 142.936 153.762L142.578 148.782C142.573 148.693 142.586 148.604 142.618 148.521C142.649 148.437 142.699 148.362 142.762 148.299C142.826 148.236 142.902 148.188 142.986 148.158C143.07 148.128 143.16 148.116 143.249 148.123L152.052 148.848C152.215 148.861 152.366 148.937 152.473 149.06C152.58 149.183 152.634 149.344 152.624 149.506Z" fill="#4E1413"/>
<path d="M202.105 131.489L215.613 135.839L214.209 139.937L212.533 139.476L213.611 141.68L209.213 154.518C209.213 154.518 206.947 154.386 206.643 153.166C206.34 151.947 206.677 149.112 206.677 149.112L204.928 143.247C204.861 143.02 204.732 142.817 204.555 142.66C204.379 142.502 204.162 142.397 203.929 142.356L198.807 141.446C198.715 141.43 198.628 141.394 198.551 141.341C198.475 141.288 198.41 141.218 198.363 141.138C198.316 141.058 198.286 140.968 198.277 140.875C198.267 140.782 198.278 140.688 198.308 140.6L201.291 131.892C201.347 131.732 201.463 131.599 201.615 131.524C201.768 131.449 201.943 131.436 202.105 131.489Z" fill="#4E1413"/>
<path d="M148.112 42.5158C148.121 42.4762 147.695 42.3412 147.001 42.1534C146.824 42.1099 146.659 42.0512 146.646 41.9247C146.622 41.789 146.723 41.6064 146.839 41.4101C147.067 40.9998 147.306 40.5692 147.557 40.1185C148.56 38.2774 149.313 36.7539 149.239 36.7137C149.164 36.6735 148.29 38.1344 147.287 39.9755C147.043 40.4302 146.811 40.8642 146.59 41.2776C146.494 41.4753 146.346 41.6868 146.4 41.9682C146.418 42.0349 146.45 42.0969 146.495 42.1493C146.539 42.2017 146.596 42.2432 146.659 42.2707C146.754 42.3111 146.855 42.3395 146.957 42.355C147.661 42.4914 148.104 42.5553 148.112 42.5158Z" fill="#263238"/>
<path d="M150.453 37.9317C150.453 37.9317 152.184 36.5828 153.075 38.6974C153.075 38.6974 151.944 37.4942 150.453 37.9317Z" fill="#263238"/>
<path d="M145.91 36.6523C145.91 36.6523 147.27 35.3166 147.97 37.4101C147.97 37.4101 147.084 36.2193 145.91 36.6523Z" fill="#263238"/>
<path d="M151.357 35.5144C151.399 35.7121 152.112 35.7207 152.922 35.9335C153.736 36.1312 154.367 36.4607 154.499 36.3065C154.559 36.2313 154.468 36.0356 154.225 35.8142C153.898 35.5382 153.513 35.3404 153.098 35.2358C152.683 35.1312 152.25 35.1226 151.831 35.2106C151.512 35.291 151.34 35.4195 151.357 35.5144Z" fill="#60432F"/>
<path d="M145.948 34.8389C146.05 35.0155 146.556 34.9166 147.138 34.9891C147.723 35.0405 148.196 35.2441 148.333 35.0926C148.393 35.0188 148.338 34.8487 148.144 34.6682C147.88 34.4473 147.556 34.3099 147.214 34.2735C146.872 34.237 146.527 34.303 146.222 34.4633C145.995 34.599 145.905 34.7539 145.948 34.8389Z" fill="#60432F"/>
<path d="M147.148 44.9321C147.148 44.9321 148.765 45.8744 150.641 44.459Z" fill="#D86145"/>
<path d="M146.84 25.8784C147.211 25.8071 147.59 25.7954 147.965 25.8435C148.341 25.8881 148.705 26.0044 149.037 26.1861C149.369 26.3726 149.656 26.6281 149.88 26.9353L149.961 27.0513L150.045 27.1627C150.073 27.1997 150.104 27.2345 150.137 27.2668L150.185 27.3169L150.239 27.3617C150.381 27.4826 150.542 27.5782 150.716 27.6444C151.063 27.7828 151.437 27.8421 151.809 27.8882C152.181 27.9343 152.557 27.9758 152.929 28.0444C153.303 28.1084 153.667 28.2171 154.015 28.3679C154.362 28.5235 154.681 28.7362 154.958 28.9972C155.231 29.2614 155.464 29.564 155.649 29.8954C155.835 30.2248 155.987 30.5701 156.152 30.9082C156.481 31.5856 156.814 32.259 157.174 32.9193C157.526 33.5832 157.923 34.2218 158.364 34.8303L158.447 34.9443L158.535 35.0543C158.594 35.1274 158.651 35.2026 158.712 35.2737L158.898 35.4853C158.959 35.5571 159.03 35.6203 159.096 35.6882C159.36 35.9554 159.655 36.1911 159.974 36.3907C159.652 36.1954 159.353 35.9634 159.085 35.6994C159.019 35.6335 158.947 35.5676 158.887 35.5017L158.696 35.2922C158.634 35.2217 158.576 35.1472 158.516 35.0747L158.427 34.9653L158.342 34.8527C157.897 34.2445 157.494 33.6059 157.138 32.9417C156.776 32.2827 156.436 31.61 156.105 30.9339C155.939 30.5965 155.784 30.2512 155.6 29.927C155.414 29.601 155.182 29.3037 154.911 29.0446C154.64 28.7872 154.328 28.577 153.988 28.4226C153.645 28.2722 153.286 28.1632 152.917 28.0977C152.549 28.0279 152.175 27.9877 151.802 27.9369C151.428 27.8862 151.053 27.8276 150.699 27.6846C150.521 27.6161 150.356 27.5174 150.212 27.3927L150.157 27.3465L150.108 27.2945C150.074 27.2613 150.042 27.2256 150.013 27.1877L149.928 27.0731L149.848 26.9584C149.629 26.6541 149.347 26.4002 149.021 26.2138C148.694 26.0291 148.334 25.9088 147.961 25.8593C147.589 25.8064 147.21 25.8128 146.84 25.8784Z" fill="#724E36"/>
<path d="M54.2655 101.592L50.4258 105.808L52.9924 107.957L57.4924 104.664L54.2655 101.592Z" fill="#FBBD9D"/>
<path d="M64.7852 112.6L64.94 118.01L68.134 117.906L69.0301 112.768L64.7852 112.6Z" fill="#FBBD9D"/>
<path d="M56.3537 72.2007L63.5363 75.4704L64.1491 71.4916L57.7487 69.9648C57.7487 69.9648 55.5287 70.2897 56.3537 72.2007Z" fill="#F9B393"/>
<path d="M56.3539 72.2009C56.3539 72.2009 54.8779 72.8552 54.0819 71.7073C52.733 69.7634 54.2604 70.2458 54.2604 70.2458L55.268 69.3496L56.5147 69.6567L57.7476 69.9651L56.3539 72.2009Z" fill="#F9B393"/>
<path d="M57.7479 69.9655C57.7479 69.9655 51.0635 65.4609 50.9785 66.562L53.4489 68.6628C53.4489 68.6628 52.7471 68.3221 52.6997 69.1511C52.6523 69.98 51.6737 70.1513 52.2898 70.977C52.906 71.8027 54.2937 72.3259 54.7319 71.346C55.1701 70.3662 55.5457 70.0281 55.5457 70.0281C55.5457 70.0281 56.9809 70.9974 57.3644 70.4815L57.7479 69.9655Z" fill="#FBBD9D"/>
<path d="M78.7176 57.1089C78.7176 57.1089 72.6638 56.3142 72.0582 63.2009C71.4526 70.0876 72.0582 73.1511 72.0582 73.1511C72.0582 73.1511 76.0778 73.4233 78.9825 72.6437C81.8872 71.8642 85.4903 70.8257 88.1011 70.6451C88.1011 70.6471 86.3226 54.7663 78.7176 57.1089Z" fill="#202B42"/>
<path d="M77.5831 68.5996L77.7597 72.0644L76.1123 73.1055C76.1123 73.1055 75.8659 76.8227 83.1308 73.9977L84.3169 72.635L81.2647 71.6684L81.1639 70.0869L77.5831 68.5996Z" fill="#FBBD9D"/>
<path d="M81.3568 70.9634C76.0918 71.3522 74.6836 63.3756 74.6836 63.3756C74.6836 63.3756 75.2938 56.8823 81.0372 58.9797C83.8707 60.0143 84.6667 63.3756 84.6667 63.3756C84.6667 63.3756 84.7326 63.5535 84.813 63.854C85.0132 64.5846 85.1397 65.3333 85.1906 66.0891C85.3151 68.1648 84.7577 70.7137 81.3568 70.9634Z" fill="#FBBD9D"/>
<path d="M80.0294 58.7345C80.0294 58.7345 79.2735 58.0564 79.1727 60.8926C79.0245 65.0354 75.5722 66.1728 75.5722 66.1728C75.5722 66.1728 72.1107 63.6628 74.0935 59.9786C75.65 57.0812 79.0712 57.9761 80.0294 58.7345Z" fill="#202B42"/>
<path d="M79.3281 59.4886C79.3281 59.4886 79.8447 58.2004 80.8793 58.9213C81.9139 59.6422 83.811 62.7906 84.8231 62.956C85.8353 63.1214 85.9117 61.9861 85.9117 61.9861C85.9117 61.9861 79.7802 53.6239 79.3281 59.4886Z" fill="#202B42"/>
<path d="M76.2198 66.0016C76.2198 66.0016 74.7444 64.113 74.2904 66.1736C73.8364 68.2341 76.3714 69.0789 77.0521 68.5998C77.7328 68.1208 76.2198 66.0016 76.2198 66.0016Z" fill="#FBBD9D"/>
<path d="M75.1856 92.8754L75.0538 95.95L74.7039 104.296L74.6967 104.451C74.6967 104.451 74.6024 104.426 74.4331 104.385C72.8569 104.035 64.6957 102.479 58.5134 106.23L53.7907 101.553L53.1113 100.879C53.1113 100.879 61.0537 91.6642 75.1856 92.8754Z" fill="#060C15"/>
<path d="M63.5881 70.7051L76.4614 72.9047L77.4287 79.8803L75.6265 81.7313L62.8428 81.3749C62.8428 81.3749 59.7121 76.2185 63.5881 70.7051Z" fill="#FFBD5C"/>
<path d="M76.1133 73.1058C76.1133 73.1058 79.101 75.4392 84.0003 72.5352C84.0003 72.5352 87.4466 74.1061 88.5056 76.0856C89.5645 78.0651 89.0479 94.7135 89.0479 94.7135L73.5625 90.0534C73.5625 90.0534 75.1288 86.2836 74.6827 80.438C74.3104 75.5202 76.1133 73.1058 76.1133 73.1058Z" fill="#FFBD5C"/>
<path d="M75.289 72.6353L77.0155 72.5352C76.4849 75.0371 76.1958 77.5842 76.1522 80.1415L74.2367 79.6327C74.2367 79.6327 74.1879 75.2547 75.289 72.6353Z" fill="#060C15"/>
<path d="M74.2407 79.1172C74.2407 79.1172 78.1113 80.9254 84.9605 80.8964C84.9605 80.8964 85.6676 88.7438 89.6068 89.3791C89.6068 89.3791 89.9883 95.1403 88.8022 98.4443C87.6161 101.748 70.5037 96.5584 71.6035 93.3703C72.7033 90.1823 74.1675 82.6261 74.2407 79.1172Z" fill="#060C15"/>
<path d="M75.0573 83.0781L83.1025 84.51C83.1025 84.51 82.2551 89.2545 77.2299 87.9662C73.9483 87.1267 75.0573 83.0781 75.0573 83.0781Z" fill="#1D4887" stroke="#173560" stroke-miterlimit="10"/>
<path opacity="0.5" d="M75.0574 95.9515L74.7075 104.297C74.6153 104.328 74.525 104.358 74.4334 104.389C72.8572 104.04 64.696 102.484 58.5137 106.234L53.791 101.553C56.2173 99.2509 62.6098 94.8115 75.0574 95.9515Z" fill="url(#paint9_linear_1554_36118)"/>
<path d="M79.4541 91.9865C79.4541 91.9865 73.1453 89.777 72.1568 91.8942C71.1684 94.0114 70.1246 102.011 74.8348 102.569C79.545 103.127 89.2204 104.714 89.1704 96.6018C89.1203 88.4894 79.4541 91.9865 79.4541 91.9865Z" fill="#060C15"/>
<path d="M79.9223 68.2108C80.7394 68.0505 81.2576 67.1857 81.0798 66.2794C80.9019 65.373 80.0954 64.7682 79.2783 64.9285C78.4612 65.0888 77.943 65.9535 78.1208 66.8599C78.2986 67.7663 79.1052 68.3711 79.9223 68.2108Z" fill="#FC9E8B"/>
<path d="M85.1923 66.0906C84.8837 65.8171 84.6779 65.4463 84.6092 65.0397C84.5405 64.633 84.6131 64.2152 84.8147 63.8555C85.0149 64.586 85.1414 65.3348 85.1923 66.0906Z" fill="#FC9E8B"/>
<path d="M84.5502 63.5382C84.6076 63.7648 84.5364 63.9803 84.3921 64.0199C84.2478 64.0594 84.085 63.9078 84.0277 63.6812C83.9703 63.4545 84.0415 63.2383 84.1852 63.1995C84.3288 63.1606 84.4929 63.3115 84.5502 63.5382Z" fill="#263238"/>
<path d="M81.4036 64.3833C81.4833 64.5948 81.4227 64.8163 81.2678 64.8775C81.1129 64.9388 80.9245 64.8182 80.8441 64.6067C80.7637 64.3952 80.825 64.1738 80.9759 64.1118C81.1268 64.0499 81.3232 64.1718 81.4036 64.3833Z" fill="#263238"/>
<path d="M80.8624 64.3362C80.8171 64.3451 80.7702 64.343 80.7259 64.33C80.6815 64.3171 80.6409 64.2936 80.6074 64.2617C80.6074 64.2617 80.6456 64.497 80.8453 64.5062C81.045 64.5154 80.8624 64.3362 80.8624 64.3362Z" fill="#263238"/>
<path d="M83.4367 66.5695C83.4314 66.5471 83.6699 66.4661 84.0594 66.3521C84.1582 66.3257 84.2505 66.2908 84.2571 66.2203C84.2637 66.1498 84.2103 66.0417 84.1424 65.9323L83.7233 65.2127C83.1368 64.1868 82.6953 63.336 82.7349 63.313C82.7744 63.2899 83.2858 64.1037 83.8722 65.1291L84.2795 65.8539C84.3355 65.962 84.4218 66.0812 84.3941 66.2407C84.3852 66.2785 84.3677 66.3138 84.343 66.3438C84.3184 66.3739 84.2872 66.3979 84.2518 66.414C84.1987 66.4382 84.1427 66.4553 84.0851 66.4648C83.6897 66.5504 83.4419 66.5913 83.4367 66.5695Z" fill="#263238"/>
<path d="M82.3345 67.8517C82.3853 67.8062 82.6693 68.1614 83.1754 68.1713C83.6814 68.1812 84.028 67.8418 84.0709 67.8879C84.0933 67.9057 84.0412 68.0237 83.8851 68.1561C83.6789 68.3249 83.42 68.4156 83.1536 68.4124C82.8976 68.4091 82.6529 68.3066 82.4709 68.1265C82.3391 67.9887 82.3088 67.8688 82.3345 67.8517Z" fill="#263238"/>
<path d="M84.4023 63.3262C84.4023 63.3262 84.5625 63.3012 84.5618 63.1582C84.5824 63.2038 84.5877 63.2548 84.5769 63.3036C84.5661 63.3524 84.5398 63.3964 84.5018 63.429L84.4023 63.3262Z" fill="#263238"/>
<path d="M81.094 62.9205C81.1032 63.0471 80.723 63.1367 80.3243 63.3627C79.9256 63.5887 79.637 63.8569 79.5408 63.7785C79.4966 63.7403 79.5138 63.6111 79.6067 63.449C79.7313 63.2451 79.9075 63.0776 80.1174 62.9634C80.3223 62.8474 80.5548 62.7893 80.7902 62.7953C80.9767 62.8072 81.088 62.8612 81.094 62.9205Z" fill="#202B42"/>
<path d="M84.8637 62.3836C84.7708 62.4765 84.4157 62.3718 83.9867 62.3599C83.5584 62.3349 83.1959 62.4087 83.1116 62.3085C83.076 62.2597 83.1346 62.1655 83.2948 62.0785C83.5174 61.9704 83.764 61.9213 84.0111 61.9362C84.2568 61.9422 84.4967 62.0124 84.7069 62.1398C84.8572 62.2393 84.9053 62.3381 84.8637 62.3836Z" fill="#202B42"/>
<path d="M83.4843 93.7498C83.4843 93.7498 73.741 93.9475 67.5607 100.754C62.4255 106.41 62.3418 112.013 62.3418 112.013L71.1718 112.662C71.1718 112.662 76.2108 108.168 83.0329 106.659C89.9631 105.127 89.6969 99.2949 88.719 95.5599C87.7412 91.825 83.4843 93.7498 83.4843 93.7498Z" fill="#060C15"/>
<path d="M91.638 97.9551L90.8816 98.1007C90.8816 98.1007 88.6352 100.712 89.1485 101.772C89.6618 102.831 90.9936 103.119 90.9936 103.119L91.638 97.9551Z" fill="#FBBD9D"/>
<path d="M93.8699 90.68L93.5345 98.1525C93.5345 98.1525 94.9137 100.385 94.4847 102.254C94.0557 104.123 90.1474 106.069 90.2311 103.388C90.297 101.204 90.8815 98.0985 90.8815 98.0985L89.5254 90.5996L93.8699 90.68Z" fill="#FBBD9D"/>
<path d="M83.9314 74.0845L84.3182 72.6348C84.3182 72.6348 90.3278 74.3915 93.844 81.926C97.3602 89.4605 96.2637 94.3058 96.2637 94.3058C96.2637 94.3058 93.5086 96.1139 88.2976 95.1822C88.2976 95.1822 86.4341 80.5251 84.9093 77.9835C83.3844 75.4419 83.9314 74.0845 83.9314 74.0845Z" fill="#FFBD5C"/>
<path d="M84.4013 72.5137C84.4013 72.5137 82.8283 75.2325 82.7012 81.1203L84.9462 81.3746C84.9462 81.3746 85.8786 75.2516 86.9798 73.6537C86.9765 73.6537 86.3122 72.5486 84.4013 72.5137Z" fill="#060C15"/>
<path d="M62.6326 111.437L70.9592 112.282C71.0363 112.29 71.1111 112.313 71.179 112.35C71.2469 112.388 71.3066 112.438 71.3545 112.499C71.4023 112.56 71.4374 112.63 71.4576 112.705C71.4777 112.78 71.4826 112.858 71.4718 112.935L71.1898 114.953C71.1689 115.103 71.0901 115.238 70.9701 115.33C70.8502 115.423 70.6988 115.464 70.5486 115.446L62.5048 114.457C62.3649 114.44 62.2362 114.372 62.1428 114.267C62.0495 114.161 61.998 114.025 61.998 113.885V112.01C61.9981 111.929 62.015 111.85 62.0478 111.776C62.0805 111.702 62.1283 111.636 62.1881 111.582C62.2479 111.528 62.3183 111.487 62.3949 111.462C62.4715 111.437 62.5525 111.428 62.6326 111.437Z" fill="#19437F"/>
<path d="M53.9249 99.4134L59.9721 105.198C60.028 105.252 60.0725 105.317 60.1029 105.388C60.1332 105.459 60.1489 105.536 60.1489 105.614C60.1489 105.691 60.1332 105.768 60.1029 105.84C60.0725 105.911 60.028 105.975 59.9721 106.029L58.5099 107.447C58.4012 107.552 58.2556 107.611 58.1044 107.61C57.9532 107.608 57.8085 107.548 57.7014 107.441L51.9625 101.718C51.8638 101.619 51.8046 101.487 51.796 101.348C51.7874 101.208 51.83 101.07 51.9157 100.959L53.0696 99.4793C53.1189 99.4151 53.1811 99.362 53.2523 99.3235C53.3234 99.285 53.4019 99.2618 53.4825 99.2556C53.5632 99.2494 53.6443 99.2602 53.7205 99.2874C53.7967 99.3146 53.8664 99.3575 53.9249 99.4134Z" fill="#19437F"/>
<path d="M66.9487 117.256L68.117 118.059L68.6587 121.205H60.1074L60.2333 120.676L65.9932 117.256H66.9487Z" fill="#FBBD9D"/>
<path d="M63.7645 118.363C63.7645 118.363 67.85 118.792 68.4074 117.256C68.4074 117.256 69.1369 119.243 69.0361 121.205L69.0453 121.798H59.5037C59.4369 121.798 59.3729 121.772 59.3257 121.724C59.2785 121.677 59.252 121.613 59.252 121.546V121.536C59.2519 121.386 59.2867 121.238 59.3536 121.103C59.4205 120.969 59.5177 120.852 59.6374 120.761C60.5106 120.101 62.6489 118.56 63.7645 118.363Z" fill="#1B3663"/>
<path d="M64.6092 117.859L65.1363 118.739L62.5203 119.794L61.8613 119.228C61.8613 119.228 64.2744 117.302 64.6092 117.859Z" fill="#142B4C"/>
<path d="M63.7684 118.968L63.8838 118.876C63.8994 118.864 63.902 118.841 63.8895 118.825L63.2739 118.054C63.2614 118.039 63.2386 118.036 63.223 118.049L63.1077 118.141C63.092 118.153 63.0895 118.176 63.102 118.192L63.7175 118.963C63.73 118.978 63.7528 118.981 63.7684 118.968Z" fill="white"/>
<path d="M63.4208 119.246L63.5361 119.153C63.5518 119.141 63.5543 119.118 63.5418 119.103L62.9263 118.332C62.9138 118.316 62.891 118.314 62.8753 118.326L62.76 118.418C62.7444 118.431 62.7418 118.453 62.7543 118.469L63.3699 119.24C63.3823 119.256 63.4052 119.258 63.4208 119.246Z" fill="white"/>
<path d="M63.1063 119.496L63.2217 119.403C63.2373 119.391 63.2399 119.368 63.2274 119.353L62.6118 118.582C62.5993 118.566 62.5765 118.564 62.5609 118.576L62.4455 118.668C62.4299 118.681 62.4273 118.703 62.4398 118.719L63.0554 119.49C63.0679 119.506 63.0907 119.508 63.1063 119.496Z" fill="white"/>
<path d="M52.6423 106.552L53.1734 107.846L51.9221 110.739L44.8555 106.118L45.2449 105.75L50.4263 105.809L52.6423 106.552Z" fill="#FBBD9D"/>
<path d="M49.4113 105.746C49.4113 105.746 52.5565 108.308 53.8454 107.34C53.8454 107.34 53.3749 109.377 52.2316 110.943L51.9206 111.435L44.0362 106.279C44.0089 106.262 43.9854 106.239 43.967 106.212C43.9486 106.185 43.9358 106.155 43.9291 106.123C43.9224 106.091 43.9221 106.058 43.9281 106.026C43.9342 105.994 43.9465 105.963 43.9644 105.936L43.9696 105.928C44.0506 105.803 44.1592 105.7 44.2871 105.625C44.415 105.55 44.5585 105.506 44.7063 105.496C45.787 105.424 48.3846 105.306 49.4113 105.746Z" fill="#1B3663"/>
<path d="M50.3831 105.787L50.3436 106.8L47.6116 106.26L47.375 105.437C47.375 105.437 50.4075 105.145 50.3831 105.787Z" fill="#142B4C"/>
<path d="M49.0917 106.248L49.2354 106.234C49.2553 106.232 49.2699 106.214 49.2681 106.194L49.176 105.226C49.1741 105.206 49.1564 105.192 49.1365 105.193L48.9928 105.207C48.9729 105.209 48.9583 105.227 48.9602 105.247L49.0522 106.215C49.0541 106.235 49.0718 106.249 49.0917 106.248Z" fill="white"/>
<path d="M48.6542 106.289L48.7979 106.275C48.8178 106.273 48.8324 106.255 48.8306 106.235L48.7385 105.267C48.7366 105.247 48.7189 105.233 48.699 105.235L48.5553 105.248C48.5354 105.25 48.5208 105.268 48.5227 105.288L48.6147 106.256C48.6166 106.276 48.6343 106.29 48.6542 106.289Z" fill="white"/>
<path d="M48.2597 106.328L48.4034 106.314C48.4233 106.312 48.4379 106.294 48.436 106.274L48.344 105.306C48.3421 105.286 48.3244 105.272 48.3045 105.274L48.1608 105.287C48.1409 105.289 48.1263 105.307 48.1282 105.327L48.2202 106.295C48.2221 106.315 48.2398 106.33 48.2597 106.328Z" fill="white"/>
<path d="M70.1738 109.84C70.1738 109.84 75.9897 104.891 81.3675 104.403C86.7452 103.914 87.9418 101.018 88.1006 98.8457" stroke="#194C89" stroke-miterlimit="10"/>
<path d="M270.442 146.023L266.717 156.426L263.359 156.073L265.034 144.125L270.442 146.023Z" fill="#FBBD9D"/>
<path d="M265.397 155.372L266.716 156.426L267.092 160.21L256.932 159.48L257.126 158.863L264.261 155.291L265.397 155.372Z" fill="#FBBD9D"/>
<path d="M261.519 156.415C261.519 156.415 266.338 157.271 267.13 155.496C267.13 155.496 267.827 157.919 267.54 160.241L267.501 160.942L256.167 160.127C256.088 160.121 256.014 160.085 255.962 160.024C255.91 159.964 255.884 159.886 255.889 159.807V159.794C255.902 159.616 255.957 159.443 256.048 159.289C256.14 159.135 256.266 159.004 256.417 158.907C257.504 158.202 260.177 156.554 261.519 156.415Z" fill="#1B3663"/>
<path d="M262.567 155.89L263.119 156.981L259.922 158.013L259.189 157.288C259.189 157.288 262.217 155.199 262.567 155.89Z" fill="#142B4C"/>
<path d="M261.925 158.73L262.068 158.63C262.088 158.617 262.092 158.589 262.079 158.57L261.409 157.607C261.396 157.587 261.369 157.582 261.349 157.596L261.206 157.696C261.186 157.709 261.181 157.736 261.195 157.756L261.864 158.719C261.878 158.739 261.905 158.743 261.925 158.73Z" fill="white"/>
<path d="M261.045 157.444L261.189 157.345C261.209 157.331 261.214 157.304 261.2 157.284L260.535 156.317C260.521 156.297 260.494 156.292 260.474 156.306L260.33 156.404C260.311 156.418 260.306 156.445 260.319 156.465L260.984 157.433C260.998 157.452 261.025 157.457 261.045 157.444Z" fill="white"/>
<path d="M260.65 157.715L260.794 157.616C260.814 157.603 260.819 157.576 260.805 157.556L260.14 156.588C260.127 156.568 260.1 156.563 260.08 156.577L259.936 156.676C259.916 156.69 259.911 156.717 259.925 156.736L260.59 157.704C260.603 157.724 260.631 157.729 260.65 157.715Z" fill="white"/>
<path d="M283.552 141.562L288.425 150.733L285.921 152.625L279.033 144.24L283.552 141.562Z" fill="#FBBD9D"/>
<path d="M286.756 151.121L288.425 150.732L291.679 152.815L284.701 160.455L284.332 159.912L285.975 151.975L286.756 151.121Z" fill="#FBBD9D"/>
<path d="M285.144 154.871C285.144 154.871 288.862 151.57 287.944 149.82C287.944 149.82 290.316 150.79 291.985 152.481L292.519 152.953L284.734 161.478C284.679 161.537 284.603 161.573 284.523 161.576C284.442 161.58 284.363 161.551 284.303 161.497L284.295 161.489C284.161 161.367 284.057 161.215 283.991 161.045C283.925 160.876 283.9 160.693 283.917 160.512C284.042 159.197 284.41 156.029 285.144 154.871Z" fill="#1B3663"/>
<path d="M285.384 153.704L286.601 153.95L285.41 157.149L284.369 157.274C284.369 157.274 284.615 153.548 285.384 153.704Z" fill="#142B4C"/>
<path d="M284.307 155.347L284.319 155.169C284.321 155.145 284.302 155.124 284.278 155.122L283.085 155.038C283.061 155.037 283.04 155.055 283.038 155.079L283.026 155.257C283.024 155.282 283.042 155.303 283.067 155.305L284.259 155.388C284.284 155.39 284.305 155.371 284.307 155.347Z" fill="white"/>
<path d="M285.655 155.888L285.667 155.71C285.669 155.686 285.65 155.665 285.626 155.663L284.436 155.584C284.411 155.582 284.39 155.601 284.389 155.625L284.377 155.803C284.375 155.827 284.394 155.848 284.418 155.85L285.608 155.929C285.633 155.93 285.654 155.912 285.655 155.888Z" fill="white"/>
<path d="M285.624 156.374L285.636 156.196C285.637 156.172 285.619 156.151 285.595 156.149L284.405 156.07C284.38 156.069 284.359 156.087 284.358 156.111L284.346 156.289C284.344 156.313 284.363 156.334 284.387 156.336L285.577 156.415C285.601 156.417 285.622 156.398 285.624 156.374Z" fill="white"/>
<path d="M282.802 128.331L286.756 143.539L277.865 146.698L271.314 136.287C271.314 136.287 272.236 124.579 282.802 128.331Z" fill="#166FEF"/>
<path d="M267.819 130.831L263.572 144.48L271.275 146.815C271.275 146.815 281.446 137.249 282.335 127.473L267.819 130.831Z" fill="#1F78FF"/>
<path d="M253.124 99.5174L247.133 95.7402L245.619 98.1553L251.146 104.374L253.124 99.5174Z" fill="#F7AF8F"/>
<path d="M251.76 98.4043L248.795 103.952C248.795 103.952 255.933 112.372 266.031 116.57L270.136 107.587L251.76 98.4043Z" fill="#214C7F"/>
<path d="M265.432 112.809C265.432 112.809 263.941 108.604 266.669 106.489C270.871 103.228 270.767 106.094 270.767 106.094L265.432 112.809Z" fill="#060C15"/>
<path d="M263.967 94.9415C263.967 94.9415 262.222 97.9812 260.346 99.2319L261.071 100.286C261.071 100.286 259.799 104.122 261.136 105.421C262.288 106.541 266.008 106.029 266.008 106.029L267.326 108.976L270.848 106.573L269.819 104.625C269.819 104.625 270.815 103.961 271.473 101.959C272.132 99.9568 270.615 88.346 263.967 94.9415Z" fill="#FBBD9D"/>
<path d="M265.979 89.607C265.979 89.607 261.923 87.2848 261.006 92.111C260.952 92.3967 260.96 92.6906 261.028 92.9733C261.096 93.2559 261.222 93.5211 261.4 93.7513C261.577 93.9815 261.802 94.1716 262.058 94.3091C262.314 94.4466 262.596 94.5284 262.886 94.5491L262.946 94.5531C264.982 94.6664 267.127 96.3323 267.324 96.8245C267.324 96.8245 267.686 99.2626 268.608 100.215C269.53 101.167 269.201 103.078 269.201 103.078L269.366 104.435C269.366 104.435 270.174 105.679 271.613 105.086C273.052 104.494 273.381 102.354 273.381 102.354C273.381 102.354 274.66 102.441 275.743 100.731C275.895 100.489 275.959 100.202 275.923 99.919C275.857 99.4089 275.642 98.632 274.929 98.437C274.929 98.437 275.883 90.6033 271.011 91.8211C271.01 91.8237 268.222 86.9949 265.979 89.607Z" fill="#60432F"/>
<path d="M269.067 101.437C269.067 101.437 270.417 100.614 271.176 101.601C271.935 102.589 269.397 105.584 268.247 103.842C267.097 102.1 269.067 101.437 269.067 101.437Z" fill="#FBBD9D"/>
<path d="M263.535 97.7355C263.456 98.0353 263.569 98.3285 263.788 98.3944C264.006 98.4603 264.249 98.2666 264.329 97.9668C264.408 97.6669 264.296 97.3737 264.077 97.3078C263.858 97.2419 263.616 97.4356 263.535 97.7355Z" fill="#263238"/>
<path d="M266.583 101.189C267.005 100.21 266.631 99.1084 265.748 98.7284C264.865 98.3484 263.808 98.834 263.386 99.8131C262.965 100.792 263.339 101.894 264.222 102.274C265.104 102.654 266.162 102.168 266.583 101.189Z" fill="#FC9E8B"/>
<path d="M284.342 128.164C284.342 128.164 276.639 133.299 267.456 131.62C267.456 131.62 267.39 131.356 267.28 130.883C266.518 127.627 263.64 114.527 265.797 110.99C268.265 106.941 269.036 108.415 269.036 108.415L272.64 107.111C272.929 107.283 273.205 107.476 273.464 107.69C274.309 108.367 275.683 109.692 277.001 111.936C279.108 115.523 284.342 128.164 284.342 128.164Z" fill="#1E437A"/>
<path d="M265.432 112.808C265.432 112.808 265.647 107.245 271.612 105.09L272.64 107.112L265.432 112.808Z" fill="#1E437A"/>
<path d="M263.831 95.9387C263.808 96.0857 264.292 96.2768 264.782 96.6333C265.271 96.9897 265.621 97.3706 265.752 97.2995C265.812 97.2645 265.802 97.1084 265.696 96.8942C265.546 96.6216 265.337 96.3866 265.083 96.2069C264.83 96.0272 264.539 95.9076 264.232 95.857C263.995 95.828 263.844 95.8695 263.831 95.9387Z" fill="#202B42"/>
<path d="M260.752 102.377C260.752 102.377 260.832 103.743 262.789 102.592Z" fill="#D86145"/>
<path opacity="0.55" d="M284.341 128.163C284.341 128.163 276.638 133.298 267.455 131.619C267.455 131.619 267.389 131.356 267.279 130.883C273.65 122.539 273.816 112.435 273.463 107.688C274.308 108.365 275.682 109.69 277 111.933C279.107 115.522 284.341 128.163 284.341 128.163Z" fill="url(#paint10_linear_1554_36118)"/>
<path d="M265.979 110.468C265.979 110.468 268.73 102.348 276.531 105.249C276.531 105.249 280.35 107.49 275.577 108.974C270.804 110.458 265.979 110.468 265.979 110.468Z" fill="#1E437A"/>
<path d="M287.434 122.473L287.047 123.138C287.047 123.138 287.538 126.548 288.673 126.858C289.809 127.168 290.9 126.355 290.9 126.355L287.434 122.473Z" fill="#FBBD9D"/>
<path d="M283.42 116.01L288.83 121.175C288.83 121.175 291.419 121.604 292.546 123.152C293.672 124.701 292.569 128.928 290.604 127.106C289.003 125.619 287.046 123.138 287.046 123.138L280.504 119.231L283.42 116.01Z" fill="#FBBD9D"/>
<path d="M284.994 123.562L287.637 119.133C287.637 119.133 281.487 111.628 273.379 107.803L270.301 115.336L284.994 123.562Z" fill="#1E437A"/>
<path d="M266.361 111.113C266.361 111.113 265.979 115.26 267.28 119.408L268.071 119.243C268.071 119.243 266.848 114.273 267.28 111.113H266.361Z" fill="white"/>
<path d="M267.437 110.838L266.041 110.984C266.005 110.987 265.98 111.019 265.983 111.054L266.014 111.354C266.018 111.389 266.05 111.415 266.085 111.412L267.481 111.266C267.517 111.262 267.543 111.231 267.539 111.195L267.508 110.896C267.504 110.86 267.472 110.834 267.437 110.838Z" fill="#102E5B"/>
<path d="M214.309 63.9981C213.92 64.1168 213.509 64.2215 213.083 64.3164C213.089 63.7043 213.073 63.104 213.033 62.5254L214.267 62.754C214.267 62.754 214.301 63.2021 214.309 63.9981Z" fill="#F9A182"/>
<path d="M205.971 64.8925C205.527 64.8707 205.093 64.8351 204.677 64.7897C204.565 63.7946 204.541 63.2181 204.541 63.2181L205.703 62.625C205.754 63.3498 205.846 64.1123 205.971 64.8925Z" fill="#F9A182"/>
<path d="M215.473 80.4356V84.0105C215.473 84.3283 215.346 84.6331 215.121 84.8578C214.897 85.0826 214.592 85.2089 214.274 85.2091H206.044C205.727 85.2089 205.422 85.0826 205.197 84.8578C204.972 84.6331 204.846 84.3283 204.846 84.0105V80.4356C204.846 80.2783 204.877 80.1226 204.937 79.9773C204.998 79.8321 205.086 79.7001 205.197 79.589C205.308 79.4778 205.441 79.3897 205.586 79.3297C205.731 79.2696 205.887 79.2388 206.044 79.239H209.134C206.001 73.4619 204.994 67.5333 204.678 64.7901C205.093 64.8356 205.527 64.8712 205.971 64.8929C206.894 70.6792 209.572 77.5402 210.352 79.239H210.479C210.986 77.5204 213.026 70.2805 213.081 64.3163C213.508 64.2214 213.919 64.1186 214.308 63.998C214.333 66.568 214.092 72.7549 211.618 79.239H211.891C211.88 79.2119 211.874 79.1831 211.873 79.154C211.873 79.0841 211.901 79.017 211.95 78.9676C211.999 78.9182 212.067 78.8904 212.136 78.8904H213.549C213.618 78.8904 213.686 78.9182 213.735 78.9676C213.784 79.017 213.812 79.0841 213.812 79.154C213.811 79.1831 213.805 79.2119 213.794 79.239H214.27C214.428 79.2383 214.584 79.2687 214.73 79.3285C214.876 79.3884 215.008 79.4764 215.12 79.5876C215.232 79.6987 215.32 79.8309 215.381 79.9764C215.441 80.122 215.473 80.278 215.473 80.4356Z" fill="#ED8037"/>
<path d="M203.623 63.5045C203.623 63.5045 204.094 71.2446 208.586 79.2733H209.768C209.768 79.2733 205.278 69.9227 204.785 62.9121L203.623 63.5045Z" fill="#060C15"/>
<path d="M213.477 62.3491C213.477 62.3491 214.083 70.4746 210.746 79.0489L209.576 79.2124C209.576 79.2124 212.727 69.1304 212.244 62.1211L213.477 62.3491Z" fill="#060C15"/>
<path d="M212.939 78.4844H211.172C211.124 78.4844 211.084 78.5239 211.084 78.5727V78.9272C211.084 78.976 211.124 79.0155 211.172 79.0155H212.939C212.988 79.0155 213.027 78.976 213.027 78.9272V78.5727C213.027 78.5239 212.988 78.4844 212.939 78.4844Z" fill="#3E68BA"/>
<path d="M214.682 80.0313V83.6055C214.682 83.7627 214.651 83.9185 214.591 84.0638C214.531 84.2091 214.443 84.3411 214.331 84.4523C214.22 84.5635 214.088 84.6517 213.943 84.7118C213.798 84.772 213.642 84.8029 213.484 84.8028H206.322C206.164 84.8029 206.009 84.772 205.863 84.7118C205.718 84.6517 205.586 84.5636 205.474 84.4524C205.363 84.3412 205.275 84.2092 205.214 84.0639C205.154 83.9186 205.123 83.7628 205.123 83.6055V80.0313C205.123 79.874 205.154 79.7182 205.214 79.5729C205.275 79.4276 205.363 79.2956 205.474 79.1844C205.586 79.0732 205.718 78.9851 205.863 78.9249C206.009 78.8648 206.164 78.8339 206.322 78.834H213.484C213.642 78.8339 213.798 78.8648 213.943 78.925C214.088 78.9851 214.22 79.0733 214.331 79.1845C214.443 79.2957 214.531 79.4277 214.591 79.573C214.651 79.7183 214.682 79.874 214.682 80.0313Z" fill="#567BD6"/>
<path d="M213.617 80.0313V83.6055C213.617 83.7628 213.586 83.9186 213.526 84.0639C213.465 84.2092 213.377 84.3412 213.266 84.4524C213.154 84.5636 213.022 84.6517 212.877 84.7118C212.731 84.772 212.576 84.8029 212.418 84.8028H206.322C206.164 84.8029 206.009 84.772 205.863 84.7118C205.718 84.6517 205.586 84.5636 205.474 84.4524C205.363 84.3412 205.275 84.2092 205.214 84.0639C205.154 83.9186 205.123 83.7628 205.123 83.6055V80.0313C205.123 79.874 205.154 79.7182 205.214 79.5729C205.275 79.4276 205.363 79.2956 205.474 79.1844C205.586 79.0732 205.718 78.9851 205.863 78.9249C206.009 78.8648 206.164 78.8339 206.322 78.834H212.418C212.576 78.8339 212.731 78.8648 212.877 78.9249C213.022 78.9851 213.154 79.0732 213.266 79.1844C213.377 79.2956 213.465 79.4276 213.526 79.5729C213.586 79.7182 213.617 79.874 213.617 80.0313Z" fill="#6784DD"/>
<path d="M207.844 83.9365C209.003 83.9365 209.942 82.9971 209.942 81.8383C209.942 80.6796 209.003 79.7402 207.844 79.7402C206.685 79.7402 205.746 80.6796 205.746 81.8383C205.746 82.9971 206.685 83.9365 207.844 83.9365Z" fill="#EBF1FF"/>
<path d="M207.843 83.4935C208.758 83.4935 209.499 82.7521 209.499 81.8376C209.499 80.923 208.758 80.1816 207.843 80.1816C206.929 80.1816 206.188 80.923 206.188 81.8376C206.188 82.7521 206.929 83.4935 207.843 83.4935Z" fill="#C7DAFF"/>
<path d="M213.066 79.7402H211.372C211.312 79.7402 211.264 79.7886 211.264 79.8483V80.2799C211.264 80.3396 211.312 80.388 211.372 80.388H213.066C213.126 80.388 213.174 80.3396 213.174 80.2799V79.8483C213.174 79.7886 213.126 79.7402 213.066 79.7402Z" fill="#EBF1FF"/>
<path d="M247.194 96.056L247.134 95.486L246.021 92.4548C246.021 92.4548 243.908 90.107 243.724 90.785C243.54 91.4631 244.735 93.9605 244.735 93.9605C244.735 93.9605 244.095 96.8309 245.62 97.2553C247.145 97.6797 247.194 96.056 247.194 96.056Z" fill="#FBBD9D"/>
<path d="M243.758 91.377C243.758 91.377 244.076 93.0296 244.734 93.9633C244.734 93.9633 244.491 95.162 244.631 95.7821C244.631 95.7821 244.601 94.4035 245.144 93.7867C245.144 93.7867 244.199 92.4978 243.758 91.377Z" fill="#F7AF8F"/>
<path d="M126.17 55.6382H103.779C103.779 55.6382 104.731 52.6439 108.122 52.9444C108.122 52.9444 110.183 48.9524 114.475 48.8233C118.768 48.6941 120.657 52.8159 120.657 52.8159C120.657 52.8159 121.645 51.0987 123.319 51.0987C124.992 51.0987 126.17 53.1592 126.17 53.1592C126.17 53.1592 128.941 52.4508 128.941 55.6382H126.17Z" fill="#DFF7FF"/>
<path d="M193.506 43.6919H172.4C172.4 43.6919 173.298 40.8696 176.494 41.153C176.494 41.153 178.436 37.3903 182.483 37.2684C186.53 37.1465 188.31 41.0317 188.31 41.0317C188.31 41.0317 189.241 39.414 190.818 39.414C192.395 39.414 193.506 41.3559 193.506 41.3559C193.506 41.3559 196.118 40.6884 196.118 43.6926L193.506 43.6919Z" fill="#DFF7FF"/>
<path d="M302.996 83.1129H275.918C275.918 83.1129 277.069 79.4465 281.17 79.8142C281.17 79.8142 283.662 74.9248 288.853 74.7673C294.044 74.6098 296.328 79.6567 296.328 79.6567C296.328 79.6567 297.522 77.5533 299.547 77.5533C301.572 77.5533 302.996 80.0771 302.996 80.0771C302.996 80.0771 306.348 79.2093 306.348 83.1129H302.996Z" fill="#DFF7FF"/>
<g clip-path="url(#clip0_1554_36118)">
<path d="M67.373 135.227V133.992H71.7172V135.227H70.2501V140.166H68.8424V135.227H67.373Z" fill="white"/>
<path d="M71.9121 140.165V136.327H73.2375V136.879H73.2512C73.2615 136.86 73.2775 136.835 73.2992 136.806C73.3221 136.776 73.3706 136.723 73.4455 136.649C73.5214 136.574 73.6014 136.507 73.6854 136.448C73.7705 136.387 73.8802 136.333 74.0145 136.286C74.1499 136.239 74.2876 136.215 74.4281 136.215C74.5726 136.215 74.7143 136.235 74.8531 136.274C74.9931 136.314 75.0959 136.354 75.1616 136.393L75.2668 136.455L74.7114 137.576C74.5469 137.436 74.3172 137.366 74.0236 137.366C73.8637 137.366 73.7254 137.401 73.61 137.471C73.4957 137.541 73.4146 137.626 73.3678 137.726C73.3203 137.826 73.2866 137.91 73.2672 137.98C73.2472 138.05 73.2375 138.105 73.2375 138.144V140.165H71.9121Z" fill="white"/>
<path d="M75.4515 134.188C75.6069 134.033 75.792 133.955 76.0068 133.955C76.2216 133.955 76.4056 134.033 76.5598 134.188C76.7152 134.342 76.7929 134.526 76.7929 134.74C76.7929 134.955 76.7152 135.14 76.5598 135.295C76.4056 135.449 76.2216 135.526 76.0068 135.526C75.792 135.526 75.6069 135.449 75.4515 135.295C75.2972 135.14 75.2207 134.955 75.2207 134.74C75.2207 134.526 75.2972 134.342 75.4515 134.188ZM75.3258 136.327V140.165H76.6512V136.327H75.3258Z" fill="white"/>
<path d="M81.2268 136.802C81.5862 137.193 81.7661 137.673 81.7661 138.242C81.7661 138.81 81.5862 139.291 81.2268 139.685C80.8669 140.08 80.4099 140.277 79.8557 140.277C79.3467 140.277 78.9279 140.117 78.5989 139.797V142.11H77.2734V136.327H78.5829V136.761H78.5989C78.9279 136.397 79.3467 136.215 79.8557 136.215C80.4099 136.215 80.8669 136.411 81.2268 136.802ZM80.1002 138.893C80.2722 138.723 80.3584 138.506 80.3584 138.242C80.3584 137.977 80.275 137.762 80.1094 137.596C79.9448 137.429 79.7283 137.345 79.4603 137.345C79.1999 137.345 78.9856 137.43 78.8182 137.598C78.652 137.767 78.5691 137.982 78.5691 138.242C78.5691 138.506 78.6549 138.723 78.8274 138.893C78.9993 139.062 79.2101 139.146 79.4603 139.146C79.7146 139.146 79.9277 139.062 80.1002 138.893Z" fill="white"/>
<path d="M83.7418 136.215C83.9624 136.215 84.1795 136.24 84.3932 136.29C84.608 136.339 84.7679 136.388 84.873 136.439L85.0307 136.514L84.5965 137.382C84.296 137.222 84.0115 137.142 83.7418 137.142C83.5922 137.142 83.4865 137.159 83.4242 137.192C83.3614 137.224 83.3306 137.285 83.3306 137.375C83.3306 137.395 83.3328 137.415 83.3374 137.434C83.3431 137.454 83.3534 137.473 83.3671 137.491C83.382 137.508 83.3957 137.523 83.4082 137.535C83.4219 137.547 83.4431 137.561 83.4722 137.576C83.5025 137.591 83.5259 137.602 83.5431 137.61C83.5614 137.618 83.5899 137.629 83.6299 137.644C83.6693 137.658 83.699 137.669 83.719 137.676C83.7402 137.684 83.7745 137.695 83.8219 137.71C83.8687 137.726 83.9047 137.735 83.9293 137.74C84.0846 137.786 84.2195 137.836 84.3337 137.891C84.4491 137.945 84.5703 138.02 84.6971 138.114C84.825 138.209 84.9239 138.328 84.9941 138.473C85.0638 138.618 85.0993 138.783 85.0993 138.968C85.0993 139.84 84.492 140.277 83.278 140.277C83.0038 140.277 82.7433 140.234 82.4964 140.151C82.2496 140.066 82.0702 139.981 81.9594 139.895L81.7949 139.761L82.3342 138.856C82.3753 138.89 82.4279 138.931 82.4919 138.98C82.557 139.027 82.6747 139.092 82.8438 139.174C83.014 139.256 83.1614 139.297 83.2848 139.297C83.5602 139.297 83.6985 139.205 83.6985 139.021C83.6985 138.936 83.663 138.87 83.5933 138.822C83.5231 138.775 83.4042 138.722 83.2369 138.662C83.0689 138.602 82.9381 138.546 82.8438 138.496C82.6044 138.371 82.4148 138.23 82.2748 138.073C82.1343 137.917 82.0646 137.708 82.0646 137.448C82.0646 137.06 82.2154 136.758 82.517 136.541C82.8198 136.324 83.2283 136.215 83.7418 136.215Z" fill="white"/>
<path d="M93.7546 136.496V140.277H92.3867V134.184H93.7546L96.1416 137.965H96.1549V134.184H97.5228V140.277H96.1549L93.7679 136.496H93.7546Z" fill="#84FF50"/>
<path fill-rule="evenodd" clip-rule="evenodd" d="M89.0537 139.184C89.9494 139.001 90.6232 138.209 90.6232 137.26C90.6232 136.175 89.7428 135.295 88.6568 135.295C87.5708 135.295 86.6904 136.175 86.6904 137.26C86.6904 137.946 87.0433 138.551 87.5777 138.902V139.447C87.5777 139.552 87.6641 139.638 87.7707 139.638H87.8942C87.8745 139.666 87.863 139.7 87.863 139.737C87.863 139.833 87.9419 139.911 88.0395 139.911C88.1368 139.911 88.2159 139.833 88.2159 139.737C88.2159 139.7 88.2044 139.666 88.1844 139.638H89.329C89.3093 139.666 89.2977 139.7 89.2977 139.737C89.2977 139.833 89.3766 139.911 89.4739 139.911C89.5715 139.911 89.6504 139.833 89.6504 139.737C89.6504 139.7 89.6389 139.666 89.6191 139.638H89.7427C89.8492 139.638 89.9357 139.552 89.9357 139.447V139.408C89.6687 139.38 89.3684 139.304 89.0537 139.184ZM91.7237 137.26C91.7237 138.952 90.3506 140.324 88.6568 140.324C86.963 140.324 85.5898 138.952 85.5898 137.26C85.5898 135.567 86.963 134.195 88.6568 134.195C90.3506 134.195 91.7237 135.567 91.7237 137.26Z" fill="#84FF50"/>
<path d="M88.5379 141.927C88.6084 142.049 88.785 142.049 88.8556 141.927L89.4115 140.964C89.4822 140.842 89.3939 140.689 89.2527 140.689H88.1407C87.9995 140.689 87.9113 140.842 87.9819 140.964L88.5379 141.927Z" fill="#84FF50"/>
<path d="M88.357 136.016C88.357 135.959 88.4025 135.913 88.4588 135.913H88.5017V135.921C88.5017 135.94 88.517 135.956 88.5359 135.956H89.0239C89.0428 135.956 89.0581 135.94 89.0581 135.921V135.913H89.101C89.1573 135.913 89.203 135.959 89.203 136.016V136.915H88.357V136.016ZM88.001 138.151C89.1886 138.909 90.4264 139.084 90.7662 138.541C90.8227 138.451 90.8507 138.347 90.8531 138.233C90.7358 138.639 90.2601 138.658 89.9478 138.624V137.108C89.9478 137.001 89.8622 136.915 89.7566 136.915H89.2852V136.016C89.2852 135.913 89.2025 135.83 89.101 135.83H89.0581V135.822C89.0581 135.803 89.0428 135.787 89.0239 135.787H88.5359C88.517 135.787 88.5017 135.803 88.5017 135.822V135.83H88.4588C88.3573 135.83 88.2746 135.913 88.2746 136.016V136.915H87.8032C87.6976 136.915 87.612 137.001 87.612 137.108V137.718C87.4269 137.615 87.22 137.493 87.0469 137.374C87.3048 137.645 87.6283 137.913 88.001 138.151Z" fill="#84FF50"/>
</g>
<g clip-path="url(#clip1_1554_36118)">
<path d="M67.373 135.227V133.992H71.7172V135.227H70.2501V140.166H68.8424V135.227H67.373Z" fill="white"/>
<path d="M71.9121 140.165V136.327H73.2375V136.879H73.2512C73.2615 136.86 73.2775 136.835 73.2992 136.806C73.3221 136.776 73.3706 136.723 73.4455 136.649C73.5214 136.574 73.6014 136.507 73.6854 136.448C73.7705 136.387 73.8802 136.333 74.0145 136.286C74.1499 136.239 74.2876 136.215 74.4281 136.215C74.5726 136.215 74.7143 136.235 74.8531 136.274C74.9931 136.314 75.0959 136.354 75.1616 136.393L75.2668 136.455L74.7114 137.576C74.5469 137.436 74.3172 137.366 74.0236 137.366C73.8637 137.366 73.7254 137.401 73.61 137.471C73.4957 137.541 73.4146 137.626 73.3678 137.726C73.3203 137.826 73.2866 137.91 73.2672 137.98C73.2472 138.05 73.2375 138.105 73.2375 138.144V140.165H71.9121Z" fill="white"/>
<path d="M75.4515 134.188C75.6069 134.033 75.792 133.955 76.0068 133.955C76.2216 133.955 76.4056 134.033 76.5598 134.188C76.7152 134.342 76.7929 134.526 76.7929 134.74C76.7929 134.955 76.7152 135.14 76.5598 135.295C76.4056 135.449 76.2216 135.526 76.0068 135.526C75.792 135.526 75.6069 135.449 75.4515 135.295C75.2972 135.14 75.2207 134.955 75.2207 134.74C75.2207 134.526 75.2972 134.342 75.4515 134.188ZM75.3258 136.327V140.165H76.6512V136.327H75.3258Z" fill="white"/>
<path d="M81.2268 136.802C81.5862 137.193 81.7661 137.673 81.7661 138.242C81.7661 138.81 81.5862 139.291 81.2268 139.685C80.8669 140.08 80.4099 140.277 79.8557 140.277C79.3467 140.277 78.9279 140.117 78.5989 139.797V142.11H77.2734V136.327H78.5829V136.761H78.5989C78.9279 136.397 79.3467 136.215 79.8557 136.215C80.4099 136.215 80.8669 136.411 81.2268 136.802ZM80.1002 138.893C80.2722 138.723 80.3584 138.506 80.3584 138.242C80.3584 137.977 80.275 137.762 80.1094 137.596C79.9448 137.429 79.7283 137.345 79.4603 137.345C79.1999 137.345 78.9856 137.43 78.8182 137.598C78.652 137.767 78.5691 137.982 78.5691 138.242C78.5691 138.506 78.6549 138.723 78.8274 138.893C78.9993 139.062 79.2101 139.146 79.4603 139.146C79.7146 139.146 79.9277 139.062 80.1002 138.893Z" fill="white"/>
<path d="M83.7418 136.215C83.9624 136.215 84.1795 136.24 84.3932 136.29C84.608 136.339 84.7679 136.388 84.873 136.439L85.0307 136.514L84.5965 137.382C84.296 137.222 84.0115 137.142 83.7418 137.142C83.5922 137.142 83.4865 137.159 83.4242 137.192C83.3614 137.224 83.3306 137.285 83.3306 137.375C83.3306 137.395 83.3328 137.415 83.3374 137.434C83.3431 137.454 83.3534 137.473 83.3671 137.491C83.382 137.508 83.3957 137.523 83.4082 137.535C83.4219 137.547 83.4431 137.561 83.4722 137.576C83.5025 137.591 83.5259 137.602 83.5431 137.61C83.5614 137.618 83.5899 137.629 83.6299 137.644C83.6693 137.658 83.699 137.669 83.719 137.676C83.7402 137.684 83.7745 137.695 83.8219 137.71C83.8687 137.726 83.9047 137.735 83.9293 137.74C84.0846 137.786 84.2195 137.836 84.3337 137.891C84.4491 137.945 84.5703 138.02 84.6971 138.114C84.825 138.209 84.9239 138.328 84.9941 138.473C85.0638 138.618 85.0993 138.783 85.0993 138.968C85.0993 139.84 84.492 140.277 83.278 140.277C83.0038 140.277 82.7433 140.234 82.4964 140.151C82.2496 140.066 82.0702 139.981 81.9594 139.895L81.7949 139.761L82.3342 138.856C82.3753 138.89 82.4279 138.931 82.4919 138.98C82.557 139.027 82.6747 139.092 82.8438 139.174C83.014 139.256 83.1614 139.297 83.2848 139.297C83.5602 139.297 83.6985 139.205 83.6985 139.021C83.6985 138.936 83.663 138.87 83.5933 138.822C83.5231 138.775 83.4042 138.722 83.2369 138.662C83.0689 138.602 82.9381 138.546 82.8438 138.496C82.6044 138.371 82.4148 138.23 82.2748 138.073C82.1343 137.917 82.0646 137.708 82.0646 137.448C82.0646 137.06 82.2154 136.758 82.517 136.541C82.8198 136.324 83.2283 136.215 83.7418 136.215Z" fill="white"/>
<path d="M93.7546 136.496V140.277H92.3867V134.184H93.7546L96.1416 137.965H96.1549V134.184H97.5228V140.277H96.1549L93.7679 136.496H93.7546Z" fill="#84FF50"/>
<path fill-rule="evenodd" clip-rule="evenodd" d="M89.0537 139.184C89.9494 139.001 90.6232 138.209 90.6232 137.26C90.6232 136.175 89.7428 135.295 88.6568 135.295C87.5708 135.295 86.6904 136.175 86.6904 137.26C86.6904 137.946 87.0433 138.551 87.5777 138.902V139.447C87.5777 139.552 87.6641 139.638 87.7707 139.638H87.8942C87.8745 139.666 87.863 139.7 87.863 139.737C87.863 139.833 87.9419 139.911 88.0395 139.911C88.1368 139.911 88.2159 139.833 88.2159 139.737C88.2159 139.7 88.2044 139.666 88.1844 139.638H89.329C89.3093 139.666 89.2977 139.7 89.2977 139.737C89.2977 139.833 89.3766 139.911 89.4739 139.911C89.5715 139.911 89.6504 139.833 89.6504 139.737C89.6504 139.7 89.6389 139.666 89.6191 139.638H89.7427C89.8492 139.638 89.9357 139.552 89.9357 139.447V139.408C89.6687 139.38 89.3684 139.304 89.0537 139.184ZM91.7237 137.26C91.7237 138.952 90.3506 140.324 88.6568 140.324C86.963 140.324 85.5898 138.952 85.5898 137.26C85.5898 135.567 86.963 134.195 88.6568 134.195C90.3506 134.195 91.7237 135.567 91.7237 137.26Z" fill="#84FF50"/>
<path d="M88.5379 141.927C88.6084 142.049 88.785 142.049 88.8556 141.927L89.4115 140.964C89.4822 140.842 89.3939 140.689 89.2527 140.689H88.1407C87.9995 140.689 87.9113 140.842 87.9819 140.964L88.5379 141.927Z" fill="#84FF50"/>
<path d="M88.357 136.016C88.357 135.959 88.4025 135.913 88.4588 135.913H88.5017V135.921C88.5017 135.94 88.517 135.956 88.5359 135.956H89.0239C89.0428 135.956 89.0581 135.94 89.0581 135.921V135.913H89.101C89.1573 135.913 89.203 135.959 89.203 136.016V136.915H88.357V136.016ZM88.001 138.151C89.1886 138.909 90.4264 139.084 90.7662 138.541C90.8227 138.451 90.8507 138.347 90.8531 138.233C90.7358 138.639 90.2601 138.658 89.9478 138.624V137.108C89.9478 137.001 89.8622 136.915 89.7566 136.915H89.2852V136.016C89.2852 135.913 89.2025 135.83 89.101 135.83H89.0581V135.822C89.0581 135.803 89.0428 135.787 89.0239 135.787H88.5359C88.517 135.787 88.5017 135.803 88.5017 135.822V135.83H88.4588C88.3573 135.83 88.2746 135.913 88.2746 136.016V136.915H87.8032C87.6976 136.915 87.612 137.001 87.612 137.108V137.718C87.4269 137.615 87.22 137.493 87.0469 137.374C87.3048 137.645 87.6283 137.913 88.001 138.151Z" fill="#84FF50"/>
</g>
<path d="M29.4258 169.863C88.4323 161.823 259.489 160.744 303.498 165.947" stroke="#060C15"/>
<path d="M124.216 18.5576C123.455 18.3967 122.246 19.237 122.246 19.237C122.246 19.237 121.036 18.3967 120.275 18.5576C119.515 18.7184 118.686 19.2023 118.686 19.2023C118.686 19.2023 120.932 18.5457 122.246 20.343C123.559 18.5457 125.806 19.2023 125.806 19.2023C125.806 19.2023 124.976 18.7184 124.216 18.5576Z" fill="#060C15" fill-opacity="0.92"/>
<path d="M130.441 26.982C129.804 26.8472 128.79 27.5512 128.79 27.5512C128.79 27.5512 127.776 26.8472 127.139 26.982C126.502 27.1168 125.807 27.5223 125.807 27.5223C125.807 27.5223 127.689 26.9719 128.79 28.478C129.89 26.9719 131.773 27.5223 131.773 27.5223C131.773 27.5223 131.078 27.1168 130.441 26.982Z" fill="#060C15" fill-opacity="0.92"/>
<path d="M86.2508 36.418C86.2508 36.418 81.7007 37.5296 79.9398 42.2195C77.683 36.9698 73.6289 38.2359 73.6289 38.2359C73.6289 38.2359 78.1809 39.793 79.858 44.2354C81.6148 40.6848 86.2508 36.418 86.2508 36.418Z" fill="#060C15" fill-opacity="0.92"/>
<defs>
<linearGradient id="paint0_linear_1554_36118" x1="215.646" y1="136.397" x2="211.607" y2="81.4309" gradientUnits="userSpaceOnUse">
<stop stop-opacity="0"/>
<stop offset="1" stop-color="#000046"/>
</linearGradient>
<linearGradient id="paint1_linear_1554_36118" x1="192.959" y1="96.2256" x2="207.179" y2="64.9227" gradientUnits="userSpaceOnUse">
<stop stop-color="#F15A24" stop-opacity="0"/>
<stop offset="1" stop-color="#F14724"/>
</linearGradient>
<linearGradient id="paint2_linear_1554_36118" x1="222.349" y1="108.372" x2="206.336" y2="87.9415" gradientUnits="userSpaceOnUse">
<stop stop-opacity="0"/>
<stop offset="1" stop-color="#000046"/>
</linearGradient>
<linearGradient id="paint3_linear_1554_36118" x1="94.316" y1="92.1465" x2="92.1026" y2="127.563" gradientUnits="userSpaceOnUse">
<stop stop-color="#FFD162"/>
<stop offset="1" stop-color="#F1995B"/>
</linearGradient>
<linearGradient id="paint4_linear_1554_36118" x1="146.787" y1="123.738" x2="167.259" y2="123.738" gradientUnits="userSpaceOnUse">
<stop stop-opacity="0"/>
<stop offset="1" stop-color="#000046"/>
</linearGradient>
<linearGradient id="paint5_linear_1554_36118" x1="171.696" y1="115.746" x2="171.992" y2="81.7771" gradientUnits="userSpaceOnUse">
<stop stop-opacity="0"/>
<stop offset="1" stop-color="#000046"/>
</linearGradient>
<linearGradient id="paint6_linear_1554_36118" x1="121.748" y1="68.3283" x2="147.293" y2="68.3283" gradientUnits="userSpaceOnUse">
<stop stop-color="#DCFFCD"/>
<stop offset="1" stop-color="#41B50F"/>
</linearGradient>
<linearGradient id="paint7_linear_1554_36118" x1="141.595" y1="26.1278" x2="161.778" y2="39.5672" gradientUnits="userSpaceOnUse">
<stop stop-color="#603813" stop-opacity="0"/>
<stop offset="1" stop-color="#42210B"/>
</linearGradient>
<linearGradient id="paint8_linear_1554_36118" x1="154.363" y1="70.0929" x2="164.698" y2="45.8672" gradientUnits="userSpaceOnUse">
<stop offset="0.01" stop-color="#C1272D" stop-opacity="0"/>
<stop offset="1" stop-color="#C1272D"/>
</linearGradient>
<linearGradient id="paint9_linear_1554_36118" x1="71.4009" y1="103.091" x2="61.0902" y2="98.6269" gradientUnits="userSpaceOnUse">
<stop stop-opacity="0"/>
<stop offset="1" stop-color="#000046"/>
</linearGradient>
<linearGradient id="paint10_linear_1554_36118" x1="267.279" y1="119.823" x2="284.341" y2="119.823" gradientUnits="userSpaceOnUse">
<stop stop-opacity="0"/>
<stop offset="1" stop-color="#000046"/>
</linearGradient>
<clipPath id="clip0_1554_36118">
<rect width="30.1743" height="10.6296" fill="white" transform="translate(67.373 131.572)"/>
</clipPath>
<clipPath id="clip1_1554_36118">
<rect width="30.1743" height="10.6296" fill="white" transform="translate(67.373 131.572)"/>
</clipPath>
</defs>
</svg>
