<svg width="28" height="27" viewBox="0 0 28 27" fill="none" xmlns="http://www.w3.org/2000/svg">
<path d="M21.7709 17.4434H18.4893C18.2628 17.4434 18.0791 17.627 18.0791 17.8536V21.1351C18.0791 21.3617 18.2628 21.5453 18.4893 21.5453H21.7709C21.9974 21.5453 22.181 21.3617 22.181 21.1351V17.8536C22.181 17.627 21.9974 17.4434 21.7709 17.4434Z" fill="#6C5DD3"/>
<path d="M17.6682 14.1611H15.2071C14.9805 14.1611 14.7969 14.3448 14.7969 14.5713V17.0325C14.7969 17.259 14.9805 17.4427 15.2071 17.4427H17.6682C17.8948 17.4427 18.0784 17.259 18.0784 17.0325V14.5713C18.0784 14.3448 17.8948 14.1611 17.6682 14.1611Z" fill="#6C5DD3"/>
<path d="M25.052 21.5449H22.5909C22.3643 21.5449 22.1807 21.7286 22.1807 21.9551V24.4163C22.1807 24.6428 22.3643 24.8265 22.5909 24.8265H25.052C25.2786 24.8265 25.4622 24.6428 25.4622 24.4163V21.9551C25.4622 21.7286 25.2786 21.5449 25.052 21.5449Z" fill="#6C5DD3"/>
<path d="M25.0519 14.1611H23.4112C23.1846 14.1611 23.001 14.3448 23.001 14.5713V16.2121C23.001 16.4386 23.1846 16.6223 23.4112 16.6223H25.0519C25.2785 16.6223 25.4621 16.4386 25.4621 16.2121V14.5713C25.4621 14.3448 25.2785 14.1611 25.0519 14.1611Z" fill="#6C5DD3"/>
<path d="M16.8478 22.3652H15.2071C14.9805 22.3652 14.7969 22.5489 14.7969 22.7754V24.4162C14.7969 24.6428 14.9805 24.8264 15.2071 24.8264H16.8478C17.0744 24.8264 17.258 24.6428 17.258 24.4162V22.7754C17.258 22.5489 17.0744 22.3652 16.8478 22.3652Z" fill="#6C5DD3"/>
<path d="M21.7709 5.13672H18.4893C18.2628 5.13672 18.0791 5.32037 18.0791 5.54691V8.82847C18.0791 9.05501 18.2628 9.23866 18.4893 9.23866H21.7709C21.9974 9.23866 22.181 9.05501 22.181 8.82847V5.54691C22.181 5.32037 21.9974 5.13672 21.7709 5.13672Z" fill="#6C5DD3"/>
<path d="M23.8211 2.67578H16.4376C15.9845 2.67578 15.6172 3.04308 15.6172 3.49617V10.8797C15.6172 11.3328 15.9845 11.7001 16.4376 11.7001H23.8211C24.2742 11.7001 24.6415 11.3328 24.6415 10.8797V3.49617C24.6415 3.04308 24.2742 2.67578 23.8211 2.67578Z" stroke="#6C5DD3" stroke-width="1.5" stroke-linecap="round" stroke-linejoin="round"/>
<path d="M9.46421 5.13672H6.18266C5.95611 5.13672 5.77246 5.32037 5.77246 5.54691V8.82847C5.77246 9.05501 5.95611 9.23866 6.18266 9.23866H9.46421C9.69075 9.23866 9.8744 9.05501 9.8744 8.82847V5.54691C9.8744 5.32037 9.69075 5.13672 9.46421 5.13672Z" fill="#6C5DD3"/>
<path d="M11.5154 2.67578H4.13191C3.67882 2.67578 3.31152 3.04308 3.31152 3.49617V10.8797C3.31152 11.3328 3.67882 11.7001 4.13191 11.7001H11.5154C11.9685 11.7001 12.3358 11.3328 12.3358 10.8797V3.49617C12.3358 3.04308 11.9685 2.67578 11.5154 2.67578Z" stroke="#6C5DD3" stroke-width="1.5" stroke-linecap="round" stroke-linejoin="round"/>
<path d="M9.46421 17.4434H6.18266C5.95611 17.4434 5.77246 17.627 5.77246 17.8536V21.1351C5.77246 21.3617 5.95611 21.5453 6.18266 21.5453H9.46421C9.69075 21.5453 9.8744 21.3617 9.8744 21.1351V17.8536C9.8744 17.627 9.69075 17.4434 9.46421 17.4434Z" fill="#6C5DD3"/>
<path d="M11.5154 14.9814H4.13191C3.67882 14.9814 3.31152 15.3487 3.31152 15.8018V23.1853C3.31152 23.6384 3.67882 24.0057 4.13191 24.0057H11.5154C11.9685 24.0057 12.3358 23.6384 12.3358 23.1853V15.8018C12.3358 15.3487 11.9685 14.9814 11.5154 14.9814Z" stroke="#6C5DD3" stroke-width="1.5" stroke-linecap="round" stroke-linejoin="round"/>
</svg>
