<svg width="53" height="52" viewBox="0 0 53 52" fill="none" xmlns="http://www.w3.org/2000/svg">
<circle cx="26.4568" cy="26.0552" r="25.6382" fill="#FFF1D8"/>
<path d="M39.7795 22.6035L22.1361 37.8583C22.0882 37.9039 22.0295 37.9368 21.9656 37.9539C21.9016 37.971 21.8344 37.9718 21.7701 37.9561C21.7058 37.9405 21.6464 37.909 21.5975 37.8644C21.5485 37.8199 21.5115 37.7638 21.4899 37.7012L19.6811 32.2748C19.6513 32.1856 19.6537 32.0888 19.6877 32.0011C19.7217 31.9134 19.7853 31.8403 19.8674 31.7945L30.9755 25.5908C31.7544 25.1562 31.3575 23.9656 30.4736 24.0852L17.8645 25.7874C17.7714 25.7999 17.6769 25.7795 17.5972 25.7298C17.5175 25.6801 17.4576 25.6043 17.4279 25.5152L15.6199 20.0912C15.5282 19.8164 15.7377 19.506 16.0266 19.53L39.3104 21.196C39.4676 21.2094 39.6175 21.2685 39.7415 21.3662C39.8655 21.4638 39.9582 21.5956 40.0081 21.7453C40.058 21.8951 40.063 22.0561 40.0223 22.2086C39.9817 22.3611 39.8973 22.4984 39.7795 22.6035Z" stroke="#D9A344" stroke-width="2" stroke-linecap="round" stroke-linejoin="round"/>
</svg>
