<svg width="237" height="366" viewBox="0 0 237 366" fill="none" xmlns="http://www.w3.org/2000/svg">
<path d="M118.256 0.174316C183.329 0.174316 236.164 53.009 236.164 118.083C236.164 183.156 183.329 235.991 118.256 235.991C53.1823 235.991 0.347656 183.156 0.347656 118.083C0.347656 53.009 53.1823 0.174316 118.256 0.174316Z" fill="#101133"/>
<mask id="mask0_498_15247" style="mask-type:alpha" maskUnits="userSpaceOnUse" x="0" y="0" width="237" height="236">
<path d="M118.256 0.174316C183.329 0.174316 236.164 53.009 236.164 118.083C236.164 183.156 183.329 235.991 118.256 235.991C53.1823 235.991 0.347656 183.156 0.347656 118.083C0.347656 53.009 53.1823 0.174316 118.256 0.174316Z" fill="#101133"/>
</mask>
<g mask="url(#mask0_498_15247)">
<g style="mix-blend-mode:multiply">
<path d="M28.0983 130.378C28.9157 130.378 29.5794 130.978 29.5794 131.716C29.5794 132.454 28.9157 133.054 28.0983 133.054C27.2809 133.054 26.6172 132.454 26.6172 131.716C26.6172 130.978 27.2809 130.378 28.0983 130.378Z" fill="#F6FAFF"/>
</g>
<g style="mix-blend-mode:multiply">
<path d="M218.282 130.378C219.099 130.378 219.763 130.978 219.763 131.716C219.763 132.454 219.099 133.054 218.282 133.054C217.464 133.054 216.801 132.454 216.801 131.716C216.801 130.978 217.464 130.378 218.282 130.378Z" fill="#F6FAFF"/>
</g>
<g style="mix-blend-mode:multiply">
<path d="M141.258 130.378C142.076 130.378 142.74 130.978 142.74 131.716C142.74 132.454 142.076 133.054 141.258 133.054C140.441 133.054 139.777 132.454 139.777 131.716C139.777 130.978 140.441 130.378 141.258 130.378Z" fill="#F6FAFF"/>
</g>
</g>
<path d="M118.208 39.0973C118.208 36.0558 121.864 34.7548 123.581 37.2652C146.361 70.5649 143.354 119.883 138.471 143.811C138.164 145.315 136.832 146.37 135.297 146.37H121.494C119.679 146.37 118.208 144.9 118.208 143.085V39.0973ZM118.208 143.085V39.0973C118.208 36.0558 114.552 34.7548 112.835 37.2652C90.056 70.5649 93.0628 119.883 97.9456 143.811C98.2523 145.315 99.585 146.37 101.119 146.37H114.923C116.738 146.37 118.208 144.9 118.208 143.085Z" fill="url(#paint0_linear_498_15247)"/>
<path d="M134.294 146.37V151.116H102.17V146.37H134.294Z" fill="#515274"/>
<path d="M131.008 151.116V155.862H105.455V151.116H131.008Z" fill="#666786"/>
<path d="M94.5039 101.835H141.959" stroke="black" stroke-opacity="0.1"/>
<path d="M118.051 68.2516L118.051 58.7605M118.051 128.119L117.963 94.8119" stroke="black" stroke-opacity="0.1"/>
<path d="M117.137 100.375C117.338 100.375 117.502 100.539 117.502 100.74C117.502 100.942 117.338 101.105 117.137 101.105C116.935 101.105 116.771 100.942 116.771 100.74C116.771 100.539 116.935 100.375 117.137 100.375Z" fill="#C4C4C4"/>
<path d="M118.963 59.4907C119.164 59.4907 119.328 59.6543 119.328 59.8558C119.328 60.0572 119.164 60.2208 118.963 60.2208C118.761 60.2208 118.598 60.0572 118.598 59.8558C118.598 59.6543 118.761 59.4907 118.963 59.4907Z" fill="#C4C4C4"/>
<path d="M95.5975 102.566C95.7989 102.566 95.9625 102.729 95.9625 102.931C95.9625 103.132 95.7989 103.296 95.5975 103.296C95.396 103.296 95.2324 103.132 95.2324 102.931C95.2324 102.729 95.396 102.566 95.5975 102.566Z" fill="#C4C4C4"/>
<path d="M140.867 102.2C141.068 102.2 141.232 102.364 141.232 102.565C141.232 102.767 141.068 102.931 140.867 102.931C140.666 102.931 140.502 102.767 140.502 102.565C140.502 102.364 140.666 102.2 140.867 102.2Z" fill="#C4C4C4"/>
<path d="M119.693 125.198C119.895 125.198 120.058 125.362 120.058 125.563C120.058 125.765 119.895 125.928 119.693 125.928C119.492 125.928 119.328 125.765 119.328 125.563C119.328 125.362 119.492 125.198 119.693 125.198Z" fill="#C4C4C4"/>
<path d="M118.21 30.2874C108.536 40.6911 103.367 53.5285 102.09 58.7606H134.33C133.052 53.5285 127.883 40.6911 118.21 30.2874Z" fill="#FDB32F"/>
<path d="M112.757 146.188C106.369 100.74 111.479 61.3159 114.399 49.4521C97.1696 54.5627 99.5544 116.072 102.901 146.188C103.996 146.188 107.5 146.188 112.757 146.188Z" fill="white" fill-opacity="0.5"/>
<path d="M118.051 68.2516C125.404 68.2516 131.375 74.2221 131.375 81.5756C131.375 88.9292 125.404 94.8996 118.051 94.8996C110.697 94.8996 104.727 88.9292 104.727 81.5756C104.727 74.2221 110.697 68.2516 118.051 68.2516Z" fill="#282947"/>
<path d="M118.051 68.2516C125.404 68.2516 131.375 74.2221 131.375 81.5756C131.375 88.9292 125.404 94.8996 118.051 94.8996C110.697 94.8996 104.727 88.9292 104.727 81.5756C104.727 74.2221 110.697 68.2516 118.051 68.2516Z" stroke="#1C1D3D" stroke-width="3"/>
<path d="M118.049 72.6322C122.985 72.6322 126.992 76.6398 126.992 81.5757C126.992 86.5116 122.985 90.5192 118.049 90.5192C113.113 90.5192 109.105 86.5116 109.105 81.5757C109.105 76.6398 113.113 72.6322 118.049 72.6322Z" fill="url(#paint1_linear_498_15247)"/>
<path d="M118.049 72.6322C122.985 72.6322 126.992 76.6398 126.992 81.5757C126.992 86.5116 122.985 90.5192 118.049 90.5192C113.113 90.5192 109.105 86.5116 109.105 81.5757C109.105 76.6398 113.113 72.6322 118.049 72.6322Z" stroke="#04104F" stroke-width="3"/>
<path d="M122.977 81.2107C122.977 86.3212 119.692 87.5989 115.494 85.9562C118.962 85.9562 122.977 76.1001 122.977 81.2107Z" fill="#F09103"/>
<path d="M113.909 80.8949C113.855 77.6523 115.926 76.8068 118.607 77.8051C116.406 77.8415 113.962 84.1375 113.909 80.8949Z" fill="#F09103"/>
<path d="M114.953 106.566H119.095L117.037 110.301L114.953 106.566Z" fill="#890E00"/>
<path d="M112.883 110.301H117.025L114.967 114.035L112.883 110.301Z" fill="#B20E02"/>
<path d="M110.814 114.035H114.955L112.897 117.77L110.814 114.035Z" fill="#EC261B"/>
<path d="M108.742 117.77H112.883L110.825 121.504L108.742 117.77Z" fill="#F46809"/>
<path d="M112.883 117.77H117.025L114.967 121.504L112.883 117.77Z" fill="#F79D0B"/>
<path d="M117.025 110.301H112.883L114.941 106.566L117.025 110.301Z" fill="#9A0F08"/>
<path d="M114.955 114.035H110.814L112.873 110.301L114.955 114.035Z" fill="#D41C12"/>
<path d="M112.883 117.77H108.742L110.8 114.035L112.883 117.77Z" fill="#AE4501"/>
<path d="M114.955 121.504H110.814L112.873 117.77L114.955 121.504Z" fill="#D38306"/>
<path d="M119.057 110.301H123.198L121.141 114.035L119.057 110.301Z" fill="#01DAF9"/>
<path d="M121.125 114.035H125.267L123.209 117.77L121.125 114.035Z" fill="#01B2D3"/>
<path d="M119.074 117.77H123.216L121.158 121.504L119.074 117.77Z" fill="#37EAFF"/>
<path d="M123.219 117.77H127.361L125.303 121.504L123.219 117.77Z" fill="#008DA9"/>
<path d="M123.198 110.301H119.057L121.115 106.566L123.198 110.301Z" fill="#3DE8F9"/>
<path d="M125.288 114.035H121.146L123.204 110.301L125.288 114.035Z" fill="#22C8D8"/>
<path d="M127.361 117.77H123.219L125.276 114.035L127.361 117.77Z" fill="#019ABC"/>
<path d="M123.198 117.77H119.057L121.115 114.035L123.198 117.77Z" fill="#00E5FD"/>
<path d="M121.145 121.504H117.004L119.061 117.77L121.145 121.504Z" fill="#7AF3FC"/>
<path d="M118.198 365.208C114.969 300.234 88.0565 183.467 108.108 156.091C118.198 156.091 117.31 156.091 128.288 156.091C149.763 192.298 121.427 300.78 118.198 365.208Z" fill="#E9E6FC"/>
<path d="M117.959 219.555C115.302 199.793 104.176 180.197 109.656 155.952C117.959 155.952 117.228 155.952 126.262 155.952C133.071 177.706 120.616 199.959 117.959 219.555Z" fill="#F77227"/>
<path d="M117.924 206.104C115.818 190.521 107 175.069 111.343 155.952C117.924 155.952 117.345 155.952 124.505 155.952C129.902 173.106 120.03 190.652 117.924 206.104Z" fill="#FD9636"/>
<path d="M117.991 189.829C116.587 179.303 110.708 168.866 113.604 155.952C117.991 155.952 117.605 155.952 122.378 155.952C125.976 167.539 119.395 179.392 117.991 189.829Z" fill="#FFDCBB"/>
<path d="M86.6844 140.239C86.5802 139.643 86.7958 138.772 87.1656 138.294L96.4119 126.337C96.7816 125.859 97.1625 125.955 97.2619 126.551L99.4571 139.722C99.5564 140.318 99.5438 141.284 99.4288 141.878L93.0921 174.589C92.9772 175.182 92.7993 175.181 92.6951 174.585L86.6844 140.239Z" fill="#FDB32F"/>
<path d="M90.8477 150.841C90.4826 146.096 91.7603 137.882 96.5058 130.946C89.9351 136.057 88.4749 138.247 90.8477 150.841Z" fill="white" fill-opacity="0.26"/>
<path d="M114.729 137.972C114.711 137.771 114.751 137.454 114.818 137.264L118.044 128.097C118.11 127.907 118.211 127.909 118.268 128.102L120.981 137.258C121.039 137.452 121.073 137.771 121.058 137.972L118.192 176.669C118.177 176.87 118.15 176.87 118.133 176.669L114.729 137.972Z" fill="#FDB32F"/>
<path d="M117.983 167.177C117.618 162.431 117.801 139.799 117.983 129.942C115.793 135.418 115.428 139.251 117.983 167.177Z" fill="white" fill-opacity="0.26"/>
<path d="M149.825 140.239C149.93 139.643 149.714 138.772 149.344 138.294L140.098 126.337C139.728 125.859 139.347 125.955 139.248 126.551L137.053 139.722C136.953 140.318 136.966 141.284 137.081 141.878L143.418 174.589C143.533 175.182 143.71 175.181 143.815 174.585L149.825 140.239Z" fill="#FDB32F"/>
<path d="M147.13 147.373C147.367 144.239 146.535 138.813 143.444 134.232C147.724 137.608 148.675 139.054 147.13 147.373Z" fill="white" fill-opacity="0.26"/>
<defs>
<linearGradient id="paint0_linear_498_15247" x1="118.208" y1="35.939" x2="118.208" y2="146.37" gradientUnits="userSpaceOnUse">
<stop stop-color="#CED0F7"/>
<stop offset="0.5" stop-color="#D1C9F1"/>
<stop offset="1" stop-color="#D4C1EC"/>
</linearGradient>
<linearGradient id="paint1_linear_498_15247" x1="118.049" y1="72.6322" x2="118.049" y2="90.5192" gradientUnits="userSpaceOnUse">
<stop stop-color="#FFF844"/>
<stop offset="0.5" stop-color="#FEBA24"/>
<stop offset="1" stop-color="#FE7C05"/>
</linearGradient>
</defs>
</svg>
