<svg width="52" height="52" viewBox="0 0 52 52" fill="none" xmlns="http://www.w3.org/2000/svg">
<circle cx="25.7773" cy="25.9122" r="25.3566" fill="#319BC9" fill-opacity="0.07"/>
<path d="M25.7776 12.3427C18.2835 12.3427 12.2078 18.4185 12.2078 25.9125C12.2078 33.4066 18.2835 39.4824 25.7776 39.4824C33.2717 39.4824 39.3474 33.4066 39.3474 25.9125C39.3474 18.4185 33.2717 12.3427 25.7776 12.3427ZM32.0406 28.0002H25.7776C25.5007 28.0002 25.2352 27.8902 25.0395 27.6945C24.8437 27.4987 24.7338 27.2332 24.7338 26.9564V17.5619C24.7338 17.285 24.8437 17.0195 25.0395 16.8238C25.2352 16.628 25.5007 16.518 25.7776 16.518C26.0544 16.518 26.3199 16.628 26.5157 16.8238C26.7114 17.0195 26.8214 17.285 26.8214 17.5619V25.9125H32.0406C32.3174 25.9125 32.5829 26.0225 32.7787 26.2183C32.9744 26.414 33.0844 26.6795 33.0844 26.9564C33.0844 27.2332 32.9744 27.4987 32.7787 27.6945C32.5829 27.8902 32.3174 28.0002 32.0406 28.0002Z" fill="#319BC9"/>
</svg>
