<svg width="27" height="27" viewBox="0 0 27 27" fill="none" xmlns="http://www.w3.org/2000/svg">
<rect x="0.729492" y="0.620117" width="25.6296" height="25.6296" rx="8" fill="#6C5DD3" fill-opacity="0.15"/>
<path d="M13.1958 7.22168C9.64574 7.22168 6.76758 10.0998 6.76758 13.6499C6.76758 17.1999 9.64574 20.0781 13.1958 20.0781C16.7458 20.0781 19.624 17.1999 19.624 13.6499C19.624 10.0998 16.7458 7.22168 13.1958 7.22168ZM16.1626 14.6388H13.1958C13.0646 14.6388 12.9389 14.5867 12.8461 14.494C12.7534 14.4013 12.7013 14.2755 12.7013 14.1444V9.69406C12.7013 9.56292 12.7534 9.43715 12.8461 9.34442C12.9389 9.25168 13.0646 9.19959 13.1958 9.19959C13.3269 9.19959 13.4527 9.25168 13.5454 9.34442C13.6382 9.43715 13.6903 9.56292 13.6903 9.69406V13.6499H16.1626C16.2938 13.6499 16.4196 13.702 16.5123 13.7947C16.605 13.8874 16.6571 14.0132 16.6571 14.1444C16.6571 14.2755 16.605 14.4013 16.5123 14.494C16.4196 14.5867 16.2938 14.6388 16.1626 14.6388Z" fill="#6C5DD3"/>
</svg>
