<?xml version="1.0" encoding="utf-8"?>
<!-- Generator: Adobe Illustrator 16.0.0, SVG Export Plug-In . SVG Version: 6.00 Build 0)  -->
<!DOCTYPE svg PUBLIC "-//W3C//DTD SVG 1.1//EN" "http://www.w3.org/Graphics/SVG/1.1/DTD/svg11.dtd">
<svg version="1.1" id="Layer_1" data-name="Layer 1" xmlns="http://www.w3.org/2000/svg" x="0px" y="0px" width="216px" height="216px" viewBox="0 0 216 216">
  <defs>
    <style>.cls-1{fill:#500000;}</style>
  </defs>
  <title>Artboard 1</title>
  <polygon class="cls-1" points="190.36 84.32 173.7 84.32 172.73 84.32 172.31 85.19 160.22 110.34 148.1 85.19 147.69 84.32 146.72 84.32 130.63 84.32 129.09 84.32 129.09 85.85 129.09 94.43 129.09 95.96 130.63 95.96 133.38 95.96 133.38 131.97 130.4 131.97 128.86 131.97 128.86 133.51 128.86 142.08 128.86 143.62 130.4 143.62 148.48 143.62 150.02 143.62 150.02 142.08 150.02 133.51 150.02 131.97 148.48 131.97 145.35 131.97 145.35 106.42 158.86 134.28 160.23 137.12 161.62 134.28 175.27 106.36 175.27 131.97 172.28 131.97 170.74 131.97 170.74 133.51 170.74 142.08 170.74 143.62 172.28 143.62 190.36 143.62 191.9 143.62 191.9 142.08 191.9 133.51 191.9 131.97 190.36 131.97 187.25 131.97 187.25 95.96 190.36 95.96 191.9 95.96 191.9 94.43 191.9 85.85 191.9 84.32 190.36 84.32" />
  <path class="cls-1" d="M85.37,131.94h-4.8L64.91,95.77h3V84.11H42.78V95.77h3.46L30.6,131.94H24.1v11.64H46.91V131.94H43.58l2.6-6H65l2.6,6H64.08v11.64H86.91V131.94ZM60,114.27H51.21l4.37-10.11Z" />
  <path class="cls-1" d="M171.23,39.11H42.6v37.4H68V62.16H95.08v89.33H80.74v25.4h54.1v-25.4H120.51V62.16h26.9V76.35H173V39.11h-1.75ZM124.15,162l5.36-5.51v15.15l-5.36-5.13Zm-8.95-5.12-5.36,5.29V51.63L115.2,57Zm-62-107.21-5.53-5.37H165l-6.94,5.37Zm114.7,21.78-5.36-5.12V52.68l5.36-5.52Z" />
  <path class="cls-1" d="M140.77,171.62a5.2,5.2,0,1,1,5.2,5.2A5.21,5.21,0,0,1,140.77,171.62Zm9.14,0a3.94,3.94,0,1,0-3.94,4.19A4,4,0,0,0,149.91,171.62Zm-5.94-3h2.19c1.41,0,2.17.5,2.17,1.73a1.47,1.47,0,0,1-1.54,1.59l1.58,2.58h-1.12L145.72,172h-.66v2.54H144Zm1.1,2.52h1c.65,0,1.21-.08,1.21-.87s-.63-.81-1.19-.81h-1v1.68Z" />
</svg>
