<?xml version="1.0" encoding="utf-8"?>
<!-- Generator: Adobe Illustrator 19.2.1, SVG Export Plug-In . SVG Version: 6.00 Build 0)  -->
<svg version="1.1" id="Layer_1" xmlns="http://www.w3.org/2000/svg" xmlns:xlink="http://www.w3.org/1999/xlink" x="0px" y="0px"
	 viewBox="0 0 1599.7 358.7" style="enable-background:new 0 0 1599.7 358.7;" xml:space="preserve">
<style type="text/css">
	.st0{fill:#B31B1B;}
</style>
<g id="Layer_2">
</g>
<g>
	<g id="Layer_1_1_">
		<path class="st0" d="M178.9,358.7C80.1,358.7,0,277.6,0,178.9S80.1,0,178.9,0s178.9,80.1,178.9,178.9
			C357.8,277.5,277.5,358.7,178.9,358.7z M178.9,19.6C91,19.6,19.5,91,19.5,179s71.4,159.4,159.4,159.4S338.3,267,338.3,179
			C338.2,90.8,266.8,19.6,178.9,19.6z"/>
		<path class="st0" d="M136.8,198.5"/>
		<path class="st0" d="M178.9,337.2l-2.9-1c-4-1.9-105.5-45.9-105.5-127.1V64.6h217v146.6c0,77.2-100.6,122.3-105.5,124.1
			L178.9,337.2z M86.1,79.2v130c0,64.5,77.2,104.6,93.8,112.4c15.8-7.8,93.8-48.9,93.8-109.5v-132H86C86.1,80.1,86.1,79.2,86.1,79.2
			z"/>
		<path class="st0" d="M133.1,149.6l-1.9-1c0,0-11.8-6.9-18.6-11.8c-5.9-4-8.8-8.8-9.9-12.8c0-1,0-12.8,0-36.1V83h61.6v4.9
			c0,23.5,0,35.2,0,36.1c0,4.9-2.9,8.8-8.8,12.8c-7.8,4.9-18.6,11.8-19.5,11.8L133.1,149.6z M111.4,91.8c0,12.8,0,29.4,0,31.2
			c0,1,1.9,4,4.9,5.9c4.9,2.9,11.8,7.8,15.8,9.9c4-1.9,11.8-6.9,16.6-9.9c1.9-1,4.9-2.9,4.9-4.9c0-1.9,0-17.6,0-31.2h-42.1v-1H111.4
			z"/>
		<path class="st0" d="M228.7,149.6l-1.9-1c0,0-11.8-6.9-18.6-11.8c-5.9-4-8.8-8.8-9.9-12.8c0-1,0-12.8,0-36.1V83h61.6v4.9
			c0,23.5,0,35.2,0,36.1c0,4.9-2.9,8.8-8.8,12.8c-7.8,4.9-18.6,11.8-19.5,11.8L228.7,149.6z M207.3,91.8c0,12.8,0,29.4,0,31.2
			c0,1,1.9,4,4.9,5.9c4.9,2.9,11.7,7.8,15.8,9.9c4-1.9,11.7-6.9,16.6-9.9c1.9-1,4.9-2.9,4.9-4.9c0-1.9,0-17.6,0-31.2h-42v-1H207.3z"
			/>
		<rect x="74.3" y="152.5" class="st0" width="211.1" height="12.8"/>
		<g>
			<g>
				<path class="st0" d="M178.9,280.5c-4,0-5.9-2.9-6.9-4c-1-1-1.9-1.9-2.9-1.9c-5.9,0-9.9,0-14.6,1c-4.9,0-9.9,1-17.6,1
					s-13.6,0-13.6,0h-5.9v-98.8h5.9c4,0,8.8,0,16.6,0c4,0,7.8-1,12.8-1c2.9,0,5.9-1,8.8-1c6.9-1,12.8,1,13.6,1c1.9,0,2.9,1,4.9,1.9
					c1-1,2.9-1,4.9-1.9c0,0,6.9-1,13.6-1c2.9,0,5.9,1,8.8,1c4.9,1,8.8,1,12.8,1c7.7,0,12.7,0,16.6,0h5.9v98.8h-5.8c0,0-5.9,0-13.6,0
					c-7.8,0-12.8-1-17.6-1c-4.9,0-8.8-1-14.6-1c-1.9,0-1.9,0-2.9,1.9C184.8,278.6,182.8,280.5,178.9,280.5z M169.1,263.8
					c4.9,0,8.8,1.9,10.8,4c1.9-1.9,5.9-4,10.8-4c5.9,0,10.8,0,15.8,1c4.9,0,9.9,1,16.6,1c2.9,0,4.9,0,6.9,0v-76.1
					c-2.9,0-6.9,0-10.8,0c-3.9,0-8.8-1-13.6-1c-2.9,0-5.9-1-8.8-1c-4.9-1-9.9,0-9.9,0c-1,0-1.9,1-1.9,1s0,0,1-1l-5.9-1l-5.9,1
					c0,1,0,1,1,1c0,0,0,0-1.9-1l0,0c0,0-4.9-1-9.9,0c-2.9,0-5.9,1-8.8,1c-4.9,1-9.9,1-13.6,1c-4.9,0-7.8,0-10.8,0v76.1
					c1.9,0,4.9,0,6.9,0c6.9,0,11.8-1,16.6-1C158.4,263.8,162.3,263.8,169.1,263.8z"/>
			</g>
		</g>
		<rect x="106.6" y="101.7" class="st0" width="50.7" height="8.8"/>
		<rect x="173.9" y="155.5" class="st0" width="11.7" height="173.9"/>
		<polygon class="st0" points="250.3,121.2 227.8,106.6 207.3,121.2 201.4,114.3 227.8,95.8 255.1,114.3 		"/>
		<path class="st0" d="M226.8,122.2"/>
		<rect x="136.8" y="200.3" class="st0" width="25.4" height="8.8"/>
		<rect x="136.8" y="220.8" class="st0" width="25.4" height="8.8"/>
		<rect x="136.8" y="241.5" class="st0" width="25.4" height="8.8"/>
		<rect x="193.5" y="200.3" class="st0" width="25.4" height="8.8"/>
		<rect x="193.5" y="220.8" class="st0" width="25.4" height="8.8"/>
		<rect x="193.5" y="241.5" class="st0" width="25.4" height="8.8"/>
	</g>
	<g id="Layer_3">
		<g>
			<path class="st0" d="M518.9,228.7c-8.8,5.9-24.5,8.8-34.2,8.8c-37.1,0-62.5-21.6-62.5-56.6c0-17.6,6.9-32.2,19.5-42
				c11.8-9.9,27.2-14.6,44.9-14.6c14.6,0,28.4,4,36.1,6.9c-1.9,7.8-2.9,15.7-2.9,23.5h-4.9v-11.9c0-4-5.9-6.9-13.6-9.9
				c-4.9-1.9-11.8-2.9-17.6-2.9c-29.4,0-44.9,21.6-44.9,47.9c0,31.2,20.5,50.8,51.7,50.8c11.8,0,24.5-4,31.3-9.9l1,1.9L518.9,228.7z
				"/>
			<path class="st0" d="M558.2,236.6c-19.5,0-33.1-15.8-33.1-36.1c0-23.5,14.6-40.1,40.1-40.1c19.5,0,35.2,15.8,35.2,35.2
				c0,23.5-16.6,41.1-41.1,41.1h-1v-0.1H558.2L558.2,236.6z M539.5,193.6c0,16.6,5.9,38.1,26.4,38.1c14.6,0,20.5-14.6,20.5-28.4
				c0-20.5-9.9-37.1-24.5-37.1C544.4,165.2,539.5,178.8,539.5,193.6z"/>
			<path class="st0" d="M611.8,182.7c0-4.9,0-8.8-1-9.9c-1-1-2.9-1.9-5.9-1.9H599v-4c8.8-1,18.6-4,24.5-6.9l1,1v15.8l0,0l8.8-9.9
				c4-4.9,8.7-6.9,12.7-6.9c2.9,0,5.9,1,6.9,1.9l-1,18.6H649c-1.9-4-4.9-6.9-10.8-6.9c-6.9,0-13.6,6.9-13.6,17.6v27.2
				c0,4,0,7.8,1,8.8s2.9,1.9,6.9,1.9h7.8v4.9c-7.8,0-14.6,0-22.5,0c-7.8,0-13.6,0-19.5,0v-4.9h6.9c2.9,0,4-1,4.9-1.9
				c1-1.9,1-4.9,1-8.8v-36.1h0.6v0.2h0.1V182.7z"/>
			<path class="st0" d="M684.2,218c0,4,0,7.8,1,8.8s1.9,1.9,4.9,1.9h6.9v4.9c-5.9,0-11.8,0-19.5,0s-13.6,0-19.5,0v-4.9h6.9
				c2.9,0,4-1,4.9-1.9c1-1.9,1-4.9,1-8.8v-35.3c0-4.9,0-8.8-1-9.9s-2.9-1.9-5.9-1.9H659v-4c8.8-1,18.6-4,24.5-6.9l1,1v13.6l0,0
				l11.8-9.9c4-2.9,6.9-4,12.8-4c18.6,0,25.4,9.9,25.4,27.2v30.2c0,4,0,7.8,1,8.8s1.9,1.9,4.9,1.9h6.9v4.9c-4,0-8.8,0-12.8,0
				s-8.8,0-12.8,0v-44c0-12.8-7.8-19.5-17.6-19.5c-9.9,0-19.5,7.8-19.5,14.6L684.2,218L684.2,218z"/>
			<path class="st0" d="M812.2,188.6c0,1.9,0,4,0,6.9c-9.9,1.9-18.6,1.9-28.4,1.9h-22.5c0,18.6,8.8,31.2,28.4,31.2
				c7.8,0,13.6-4,19.5-7.8l1.9,1.9l-2.9,4.9c-1,1.9-14.6,8.8-25.4,8.8c-23.5,0-36.1-14.6-36.1-36.1c0-15.7,4-24.5,11.8-30.2
				c2.9-1.9,5.9-4.9,9.9-5.9c5.9-2.9,9.9-4,15.8-4C799.5,160.2,812.2,171.1,812.2,188.6z M761.4,189.6v1.9c6.9,1,13.6,1,19.5,1
				s11.8,0,17.6,0c0-14.6-4.9-26.4-16.6-26.4C770.2,165.2,761.4,174.1,761.4,189.6z"/>
			<path class="st0" d="M826.8,136.8c0-4,0-6.9-4-6.9H814V126c7.8-1,16.6-2.9,24.5-5.9l1,1v96.8c0,4,0,7.8,1,8.8s1.9,1.9,4.9,1.9
				h6.9v4.9c-5.9,0-11.8,0-19.5,0s-13.6,0-19.5,0v-4.9h6.9c2.9,0,4-1,4.9-1.9c1-1.9,1-4.9,1-8.8v-81.1H826.8z"/>
			<path class="st0" d="M866.1,136.8c0-4,0-6.9-4-6.9h-8.8V126c7.8-1,16.6-2.9,24.5-5.9l1,1v96.8c0,4,0,7.8,1,8.8s1.9,1.9,4.9,1.9
				h6.9v4.9c-5.9,0-11.8,0-19.5,0c-7.8,0-13.6,0-19.5,0v-4.9h6.9c2.9,0,4-1,4.9-1.9c1-1.9,1-4.9,1-8.8v-81.1H866.1z"/>
			<path class="st0" d="M939.3,144.7c0-5.9,0-9.9-1-11.8s-2.9-1.9-6.9-1.9h-7.8v-5c7.8,0,15.8,0,23.5,0c6.9,0,14.6,0,22.5,0v4.9
				h-7.8c-4,0-5.9,1-6.9,1.9c-1,1.9-1,5.9-1,11.8v53.8c0,22.5,11.8,28.4,32.2,28.4c16.6,0,32.2-6.9,32.2-32.2v-49.9
				c0-5.9,0-9.9-1-11.8s-2.9-1.9-6.9-1.9h-6.9v-4.8c5.9,0,12.8,0,18.6,0s11.8,0,18.6,0v4.9h-6.8c-4,0-5.9,1-6.9,1.9
				c-1,1.9-1,5.9-1,11.8v44.9c0,33.1-12.8,47-44,47c-26.4,0-42-7.8-42-36.1v-55.8L939.3,144.7L939.3,144.7z"/>
			<path class="st0" d="M1061.4,218c0,4,0,7.8,1,8.8s1.9,1.9,4.9,1.9h6.9v4.9c-5.9,0-11.8,0-19.5,0s-13.6,0-19.5,0v-4.9h6.9
				c2.9,0,4-1,4.9-1.9c1-1.9,1-4.9,1-8.8v-35.3c0-4.9,0-8.8-1-9.9s-2.9-1.9-5.9-1.9h-5.9v-4c8.8-1,18.6-4,24.5-6.9l1,1v13.6l0,0
				l11.8-9.9c4-2.9,6.9-4,12.8-4c18.6,0,25.4,9.9,25.4,27.2v30.2c0,4,0,7.8,1,8.8s1.9,1.9,4.9,1.9h6.9v4.9c-4,0-8.8,0-12.8,0
				s-8.8,0-12.8,0v-44c0-12.8-7.8-19.5-17.6-19.5c-9.9,0-19.5,7.8-19.5,14.6v32.6h0.8L1061.4,218L1061.4,218z"/>
			<path class="st0" d="M1155.3,218c0,4,0,7.8,1,8.8s1.9,1.9,4.9,1.9h6.9v4.9c-5.9,0-11.8,0-19.5,0s-13.6,0-19.5,0v-4.9h6.9
				c2.9,0,4-1,4.9-1.9c1-1.9,1-4.9,1-8.8v-35.3c0-4.9,0-8.8-1-9.9s-2.9-1.9-5.9-1.9h-5.9v-4c8.8-1,18.6-4,24.5-6.9l1,1v56.8h0.8v0.2
				H1155.3z M1156.3,134.8c0,4.9-4,8.8-8.8,8.8c-4.9,0-8.8-4-8.8-8.8s4-8.8,8.8-8.8S1156.3,130,1156.3,134.8z"/>
			<path class="st0" d="M1213.9,218c-2.9,5.9-4,11.8-6.9,16.6h-7.8l-27.5-63.5c-1-1.9-1.9-4.9-4.9-4.9h-4.9v-4c5.9,0,11.8,0,18.6,0
				c5.9,0,11.8,0,18.6,0v4h-7.8c-2.9,0-4,1-4,2.9c0,1,0,2.9,1,5.9l18.6,44.9c2.9-6.9,6.9-14.6,9.9-21.6l6.9-16.6
				c1.9-4.9,2.9-8.8,2.9-11.8c0-2.9-1-4-4-4h-6.9v-4c4.9,0,9.9,0,14.6,0s9.9,0,14.6,0v4h-4.9c-4,0-6.9,5.9-8.8,10.8L1213.9,218z"/>
			<path class="st0" d="M1307.7,188.6c0,1.9,0,4,0,6.9c-9.9,1.9-18.6,1.9-28.4,1.9h-22.5c0,18.6,8.8,31.2,28.4,31.2
				c7.7,0,13.6-4,19.5-7.8l1.9,1.9l-2.9,4.9c-1,1.9-14.6,8.8-25.4,8.8c-23.5,0-36.1-14.6-36.1-36.1c0-15.7,4-24.5,11.8-30.2
				c2.9-1.9,5.9-4.9,9.9-5.9c5.9-2.9,9.9-4,15.8-4C1295.1,160.2,1307.7,171.1,1307.7,188.6z M1255.9,189.6v1.9c6.9,1,13.6,1,19.5,1
				c5.9,0,11.8,0,17.6,0c0-14.6-4.9-26.4-16.6-26.4C1265.8,165.2,1255.9,174.1,1255.9,189.6z"/>
			<path class="st0" d="M1325.3,182.7c0-4.9,0-8.8-1-9.9c-1-1-2.9-1.9-5.9-1.9h-5.9v-4c8.8-1,18.6-4,24.5-6.9l1,1v15.8l0,0l8.8-9.9
				c4-4.9,8.8-6.9,12.8-6.9c2.9,0,5.9,1,6.9,1.9l-1,18.6h-2.9c-1.9-4-4.9-6.9-10.8-6.9c-6.9,0-13.6,6.9-13.6,17.6v27.2
				c0,4,0,7.8,1,8.8s2.9,1.9,6.9,1.9h7.8v4.9c-7.8,0-14.6,0-22.5,0c-7.9,0-13.6,0-19.5,0v-4.9h6.9c2.9,0,4-1,4.9-1.9
				c1-1.9,1-4.9,1-8.8v-36.1h0.6V182.7L1325.3,182.7z"/>
			<path class="st0" d="M1379.1,211.2v6.9c0,9.9,10.8,13.6,20.5,13.6c9.9,0,18.6-5.9,18.6-14.6c0-4.9-2.9-8.8-7.7-10.7
				c-6.9-1.9-15.8-4-23.5-5.9c-7.7-2.9-13.6-7.8-13.6-16.6c0-16.6,14.6-22.5,29.4-22.5c7.7,0,13.6,1.9,20.5,4c0,5.9-1,11.8-1,17.6
				h-4v-4c0-7.8-8.8-12.8-18.6-12.8c-13.6,0-15.8,7.8-15.8,12.8c0,6.9,4.9,10.8,16.6,12.8c18.6,2.9,27.2,7.8,27.2,19.5
				c0,17.6-17.6,26.4-34.2,26.4c-7.8,0-14.6-1-21.6-4c1.9-6.9,1.9-14.6,1.9-21.6h4.9v-1h0.5L1379.1,211.2L1379.1,211.2z"/>
			<path class="st0" d="M1460.2,218c0,4,0,7.8,1,8.8s1.9,1.9,4.9,1.9h6.9v4.9c-5.9,0-11.8,0-19.5,0s-13.6,0-19.5,0v-4.9h6.9
				c2.9,0,4-1,4.9-1.9c1-1.9,1-4.9,1-8.8v-35.3c0-4.9,0-8.8-1-9.9s-2.9-1.9-5.9-1.9h-5.9v-4c8.8-1,18.6-4,24.5-6.9l1,1v56.8h0.8
				L1460.2,218L1460.2,218z M1462.2,134.8c0,4.9-4,8.8-8.8,8.8c-4.9,0-8.8-4-8.8-8.8s4-8.8,8.8-8.8
				C1457.3,126.1,1462.2,130,1462.2,134.8z"/>
			<path class="st0" d="M1470.9,175v-2.9l11.8-5.9v-10.7c0-4,0-7.8-1-12.8c5.9-1.9,10.8-4,13.6-5.9l1.9,1.9
				c-1,6.9-1.9,15.8-1.9,22.5v5.9l21.6-1l-1,8.8h-19.5V216c0,6.9,1.9,10.8,8.8,10.8c4,0,6.9-1.9,8.8-2.9l1.9,2.9l-7.8,7.8
				c-1,1.9-6.9,1.9-9.9,1.9c-7.7,0-15.8-4-15.8-16.6v-45.1L1470.9,175z"/>
			<path class="st0" d="M1580.4,175c1-1.9,1-2.9,1-4c0-2.9-1.9-4-6.9-4h-4v-4c4.9,0,9.9,0,14.6,0c4.9,0,9.9,0,14.6,0v4h-4
				c-4,0-6.9,4.9-12.8,18.6l-31.2,73.4c-4.9,11.8-10.7,19.5-23.5,19.5c-2.9,0-5.9-1-7.8-1.9l4-11.8h1.9c1.9,1.9,5.9,4,7.7,4l0,0
				c8.8-1,13.6-13.6,16.6-20.5l4-9.9l-25.4-63.5c-2.9-5.9-4.9-7.8-7.8-7.8h-2.9v-4c5.9,0,11.8,0,18.6,0c5.9,0,11.8,0,18.6,0v4h-5.9
				c-2.9,0-4.9,1-4.9,4c0,1.9,0,4,1,5.9l17.6,43L1580.4,175z"/>
		</g>
	</g>
</g>
</svg>
