<svg id="Layer_1" data-name="Layer 1" xmlns="http://www.w3.org/2000/svg" xmlns:xlink="http://www.w3.org/1999/xlink" viewBox="0 0 219.76 69"><defs><style>.cls-1,.cls-4{fill:none;}.cls-2{clip-path:url(#clip-path);}.cls-3{fill:#b32025;}.cls-4{stroke:#231f20;stroke-miterlimit:10;stroke-width:0.75px;}.cls-5{fill:#231f20;}</style><clipPath id="clip-path"><rect class="cls-1" width="219.76" height="69"/></clipPath></defs><g class="cls-2"><path class="cls-3" d="M26.4,52.85a38.06,38.06,0,0,0,8,4.8l.29.12.29-.12a38.14,38.14,0,0,0,7.93-4.8c5.27-4.11,8-8.8,8-13.6V17.48H18.29V38.9c0,4.92,2.78,9.78,8.11,14m7.46-6.72a1.87,1.87,0,0,0-.58-.11h-.05c-.81,0-1.39.06-2,.11a21.19,21.19,0,0,1-2.2.12H27.9V36.06h1.62c.52,0,1.1-.06,1.74-.11.35-.06.75-.06,1.16-.12a4.89,4.89,0,0,1,1.27.06c.06,0,.12.06.17.06Zm15.52-6.88c0,8.91-10.94,14.93-14.19,16.55V47.7l.18-.18a.72.72,0,0,1,.58-.29,19.48,19.48,0,0,1,2,.12,21.27,21.27,0,0,0,2.25.12h2.26v-3H43.7V42.84H42.43v-3H43.7V38.26H42.43V35H39.65c-.46,0-1-.05-1.62-.11-.35-.06-.75-.06-1.16-.12a5.94,5.94,0,0,0-1.68.06h0V31.61H49.32ZM35.19,46.19V36c.06-.06.18-.06.29-.12a6.22,6.22,0,0,1,1.33-.06c.41.06.82.06,1.16.12.64.06,1.22.11,1.74.11h1.62V46.25h-1.1a21.19,21.19,0,0,1-2.2-.12c-.64-.05-1.22-.11-2-.11-.34.06-.57.11-.81.17M19.85,19H49.38V30.1H19.85Zm0,12.57H33.92v3.06a6.23,6.23,0,0,0-1.56-.05c-.41.05-.81.05-1.16.11-.64.06-1.16.12-1.62.12H26.8V37.8H25.41v1.62H26.8v2.95H25.41V44H26.8v3.3h.52a14.47,14.47,0,0,0,1.74,0c1,0,1.68-.06,2.26-.11a17.91,17.91,0,0,1,1.91-.12.55.55,0,0,1,.52.29l.06.06v8.16c-3.3-1.5-14-7.47-14-16.67Z"/><path class="cls-3" d="M32.18,20.14H23.91V25.7a2.36,2.36,0,0,0,1.27,1.74A25.22,25.22,0,0,0,27.73,29l.29.17.29-.17c.05-.06,1.67-.93,2.66-1.56,1.16-.75,1.21-1.51,1.21-1.74V20.14ZM25.06,21.3H31v1.51H25.06Zm6,4.34c0,.29-.41.58-.7.81-.69.47-1.79,1.1-2.31,1.39-.47-.29-1.51-.87-2.2-1.39-.47-.29-.76-.63-.76-.86V23.91H31c.06.92.06,1.62.06,1.73"/><path class="cls-3" d="M46.19,19.91H37.8v5.73a2.38,2.38,0,0,0,1.27,1.74c1,.69,2.55,1.56,2.61,1.62l.29.17.29-.17c.05-.06,1.73-.93,2.72-1.62,1.21-.81,1.21-1.5,1.21-1.74V19.91ZM45,25.53c0,.29-.41.63-.7.81-.75.46-1.85,1.1-2.37,1.39-.52-.29-1.51-.93-2.26-1.39-.23-.18-.75-.52-.75-.87v-.29l2.89-2.08L45,25.24Zm-3.19-3.88L39,23.73V21h6.13v2.78Z"/><path class="cls-3" d="M36.7,38.26l.58.06a5.71,5.71,0,0,0,1,.06l1.68.06V37.28l-1.68-.06c-.23,0-.52-.06-.87-.06l-.57-.06h-.41l.06,1.16a.17.17,0,0,1,.23,0"/><path class="cls-3" d="M38.26,40.4c-.23,0-.52,0-.87,0-.17,0-.4-.06-.57-.06h-.41v1.16h.29c.23,0,.4,0,.58,0a5.11,5.11,0,0,0,.92.06h1.74V40.4h-.46a8.28,8.28,0,0,1-1.22,0"/><path class="cls-3" d="M38.26,43.65c-.23,0-.52-.06-.87-.06-.17,0-.4-.06-.57-.06h-.41l.06,1.16h.29c.23,0,.4.06.58.06a6.39,6.39,0,0,0,.92,0h.47a6.39,6.39,0,0,1,1.21.06V43.7c-.17,0-.75,0-1.21-.05Z"/><path class="cls-3" d="M31,38.38c.29,0,.58-.06,1-.06.18,0,.35-.06.58-.06h.29V37.11h-.4c-.24,0-.41,0-.58,0a4.87,4.87,0,0,1-.87.06l-1.68.06v1.16Z"/><path class="cls-3" d="M31.84,40.35a5.83,5.83,0,0,1-.87,0l-1.68.06v1.16L31,41.56c.29,0,.58-.06,1-.06l.52,0h.24l0-1.16h-.4Z"/><path class="cls-3" d="M31.84,43.53a5.17,5.17,0,0,1-.93.06c-.52,0-1.39.06-1.62.06V44.8c.23,0,1.1,0,1.68,0,.29,0,.58-.06,1-.06l.58-.06h.23V43.47h-.4Z"/><path class="cls-3" d="M5.21,34.67c1.45,0,2.31-.92,2.43-2.54A7.47,7.47,0,0,0,7.58,31v-.12H6.37l.11.23a3.56,3.56,0,0,1,.12.93A1.36,1.36,0,0,1,5,33.34a1.4,1.4,0,0,1-1.45-1.45A1.31,1.31,0,0,1,3.88,31l.17-.23-1.16-.18-.05.12a3.39,3.39,0,0,0-.29,1.1A2.41,2.41,0,0,0,5,34.67Z"/><path class="cls-3" d="M5.44,29a2.64,2.64,0,0,0,.93.12,2.27,2.27,0,0,0,2.25-1.74,2.49,2.49,0,0,0-.17-1.85,2.83,2.83,0,0,0-1.68-1.22,2.5,2.5,0,0,0-.87-.11,2.26,2.26,0,0,0-2.25,1.73A2.29,2.29,0,0,0,5.44,29m-.81-2.72a1,1,0,0,1,1.1-.75,3.58,3.58,0,0,1,.64.11,1.83,1.83,0,0,1,1.1.76.88.88,0,0,1,.06.75,1,1,0,0,1-1.11.75,2.78,2.78,0,0,1-.63-.11c-.7-.24-1.39-.76-1.16-1.51"/><path class="cls-3" d="M10.42,22.52l-1.68-.93.06-.11c.17-.29.29-.29.52-.24l1.68.24.63-1.22L9.44,20H9a1.28,1.28,0,0,0-.69-1.16,1.53,1.53,0,0,0-.7-.17c-.81,0-1.22.81-1.62,1.56l-.58,1.1,4.4,2.37ZM7.81,21l0,.12L7,20.66l0-.11c.18-.35.41-.7.76-.52a.47.47,0,0,1,.23.23.93.93,0,0,1-.18.69"/><polygon class="cls-3" points="13.14 18.12 10.88 16.27 14.12 17.02 14.99 15.92 11.17 12.73 10.36 13.66 12.68 15.57 9.44 14.82 8.51 15.92 12.39 19.1 13.14 18.12"/><polygon class="cls-3" points="18.75 12.73 18.06 11.92 16.67 13.03 16.03 12.27 17.31 11.23 16.61 10.42 15.34 11.46 14.88 10.82 16.27 9.72 15.57 8.86 13.2 10.77 16.32 14.64 18.75 12.73"/><polygon class="cls-3" points="22.86 10.25 22.34 9.32 20.78 10.19 18.87 6.77 17.77 7.41 20.2 11.75 22.86 10.25"/><polygon class="cls-3" points="27.09 8.63 26.69 7.64 25.07 8.22 23.73 4.57 22.52 4.98 24.2 9.67 27.09 8.63"/><path class="cls-3" d="M32.13,7.81h.29a2.14,2.14,0,0,0,1.5-.63,2,2,0,0,0,.35-1.45L34,2.61l-1.28.05L33,5.5c.06,1-.34,1.16-.69,1.21h-.12c-.28,0-.69-.11-.81-1.1l-.23-2.83-1.27.11L30.1,6a1.92,1.92,0,0,0,2,1.79"/><polygon class="cls-3" points="37.86 4.86 38.9 7.93 40.35 8.16 40.98 3.18 39.77 3.01 39.36 5.96 38.32 2.84 36.93 2.66 36.24 7.58 37.45 7.76 37.86 4.86"/><polygon class="cls-3" points="44.75 4.28 43.53 3.88 42.02 8.63 43.24 9.03 44.75 4.28"/><polygon class="cls-3" points="51 7.06 49.9 6.48 47.47 8.97 47.99 5.56 46.77 4.92 46.02 10.19 47.29 10.77 51 7.06"/><polygon class="cls-3" points="52.27 14.24 52.91 13.37 51.52 12.27 52.1 11.52 53.37 12.5 54.06 11.63 52.79 10.65 53.26 10.01 54.65 11.12 55.34 10.25 52.91 8.39 49.84 12.33 52.27 14.24"/><path class="cls-3" d="M54.35,16.32l1.45-1.27.06.12c.17.23.17.29.06.57l-.81,1.51.92,1,1-2a.64.64,0,0,0,.11-.4,1.3,1.3,0,0,0,1.33-.23c1.1-.93.24-1.91-.4-2.67l-.81-.92-3.76,3.3Zm3-2.6,0,.11a1.42,1.42,0,0,1,.35.64c0,.12-.06.17-.17.23a.23.23,0,0,1-.23.12.82.82,0,0,1-.58-.41l-.06-.11Z"/><path class="cls-3" d="M59,20.32c-.24.17-.58-.12-.7-.35a1.8,1.8,0,0,1-.23-1V18.7l-1.16.52.06.23a4,4,0,0,0,.4,1,1.78,1.78,0,0,0,1.51,1,1.39,1.39,0,0,0,.81-.23,1.65,1.65,0,0,0,.64-2c-.06-.4-.12-.69,0-.81a.45.45,0,0,1,.24-.06c.23,0,.4.24.46.29a2.12,2.12,0,0,1,.29.82l.06.23,1-.47v-.11a3.45,3.45,0,0,0-.46-1.1,1.54,1.54,0,0,0-2.26-.7,1.59,1.59,0,0,0-.64,1.91c.06.58.12.87-.11,1"/><rect class="cls-3" x="59.16" y="22.69" width="4.98" height="1.27" transform="translate(-4.25 25.01) rotate(-22.19)"/><polygon class="cls-3" points="64.2 26.51 60.43 27.44 60.72 28.65 64.54 27.73 64.83 29 65.88 28.77 64.95 24.95 63.91 25.24 64.2 26.51"/><polygon class="cls-3" points="61.3 32.53 61.36 33.8 63.33 33.69 66.45 35.31 66.39 33.92 64.54 33.05 66.28 31.95 66.16 30.45 63.27 32.47 61.3 32.53"/><polygon class="cls-3" points="6.19 43.99 7.24 43.7 6.83 42.2 7.58 41.97 8.05 43.59 9.09 43.24 8.28 40.46 3.47 41.85 3.82 43.07 5.79 42.49 6.19 43.99"/><path class="cls-3" d="M10.65,48.16a2.62,2.62,0,0,0-.17-1.85,2.23,2.23,0,0,0-2.09-1.39,3.07,3.07,0,0,0-1.33.35,2.65,2.65,0,0,0-1.45,1.5,2.62,2.62,0,0,0,.18,1.85A2.31,2.31,0,0,0,7.87,50a3,3,0,0,0,1.33-.34,2.59,2.59,0,0,0,1.45-1.51m-2,.29a1.85,1.85,0,0,1-.92.23,1,1,0,0,1-1-1.33,1.86,1.86,0,0,1,.93-.93,2.56,2.56,0,0,1,.87-.23.89.89,0,0,1,.92.58.84.84,0,0,1,.06.75,1.65,1.65,0,0,1-.87.93"/><path class="cls-3" d="M14.12,52l-2.25,1.79c-.58.47-1,.52-1.39.12a.91.91,0,0,1-.18-.52,1.71,1.71,0,0,1,.58-.81l2.26-1.8-.81-1-2.49,2A1.78,1.78,0,0,0,9,53.2a2.29,2.29,0,0,0,.58,1.44,1.9,1.9,0,0,0,1.56.93,1.87,1.87,0,0,0,1.22-.52l2.49-2Z"/><polygon class="cls-3" points="18.35 56.09 16.5 58.41 17.19 55.16 16.09 54.24 12.91 58.12 13.89 58.93 15.74 56.61 15.05 59.85 16.15 60.78 19.33 56.9 18.35 56.09"/><path class="cls-3" d="M22.05,58.47l-1.27-.64-2.26,4.46,1.28.63a4,4,0,0,0,1.68.47,2.21,2.21,0,0,0,2-1.39c.75-1.51.23-2.67-1.45-3.53m.24,3a1.33,1.33,0,0,1-1.22.81,1.3,1.3,0,0,1-.64-.18l-.29-.17,1.28-2.55.29.18a1.43,1.43,0,0,1,.69.75,1.62,1.62,0,0,1-.11,1.16"/><polygon class="cls-3" points="24.83 65.06 27.79 65.88 28.07 64.83 26.34 64.37 26.57 63.44 28.19 63.85 28.48 62.81 26.86 62.4 27.03 61.59 28.83 62.05 29.06 61.01 26.11 60.26 24.83 65.06"/><path class="cls-3" d="M32.18,61.42l-1.44-.06-.29,5,1.45.06h.34A2.34,2.34,0,0,0,34.9,64a2.41,2.41,0,0,0-.52-1.85,3.48,3.48,0,0,0-2.2-.75m0,3.93h-.35L32,62.52h.35a1.42,1.42,0,0,1-.17,2.83"/><path class="cls-3" d="M39.3,61l-.86,5.27L39.77,66l.17-1.1,1.62-.35.64,1,1.39-.29-3-4.46Zm.82,2.78.17-1.33.69,1.1Z"/><polygon class="cls-3" points="44.05 63.62 44.51 64.83 45.67 64.37 45.27 63.21 44.05 63.62"/><path class="cls-3" d="M46.48,58.58l-1.27.7,2.37,4.39L48.86,63c1.67-.93,2.08-2.08,1.33-3.53s-2-1.8-3.71-.87m2,3.36-.29.17-1.33-2.49.29-.17a1.1,1.1,0,0,1,.63-.17A1.41,1.41,0,0,1,49,60a1.37,1.37,0,0,1-.52,1.91"/><polygon class="cls-3" points="51.17 60.14 51.87 61.19 52.91 60.43 52.21 59.39 51.17 60.14"/><polygon class="cls-3" points="53.14 53.72 52.91 55.69 54.01 55.86 54.12 55.05 56.5 57.42 57.42 56.55 53.89 52.97 53.14 53.72"/><path class="cls-3" d="M59.91,51.11a1.47,1.47,0,0,0-1.39-.17,1.43,1.43,0,0,0-.58-1.16c-.63-.46-1.44-.17-2.08.64A1.43,1.43,0,0,0,56,52.56a1.49,1.49,0,0,0,1.22.17A1.24,1.24,0,0,0,57.77,54a1.32,1.32,0,0,0,.87.29,1.9,1.9,0,0,0,1.45-.87A2,2,0,0,0,60.55,52a1.69,1.69,0,0,0-.64-.87m-2.37.35a1,1,0,0,1-.52.23c-.06,0-.18,0-.23-.06-.24-.17-.12-.46,0-.63a.31.31,0,0,1,.29-.18,1.1,1.1,0,0,1,.29.12.47.47,0,0,1,.17.52m1.74,1.39a.49.49,0,0,1-.7.12.71.71,0,0,1-.23-.7c.35-.23.64-.29.87-.11a.31.31,0,0,1,.17.28,1.25,1.25,0,0,1-.11.41"/><path class="cls-3" d="M62.17,46.25a1.46,1.46,0,0,0-2.08.64,1,1,0,0,0-.12.69.94.94,0,0,1-.35-1.16,2.17,2.17,0,0,1,.47-.57l.17-.12-.93-.64-.11.12a3.27,3.27,0,0,0-.64.87,1.84,1.84,0,0,0-.12,1.44A3.31,3.31,0,0,0,60.2,49.2a3.25,3.25,0,0,0,1.45.41,1.55,1.55,0,0,0,1.45-.93,1.72,1.72,0,0,0-.93-2.43m0,1.85a.38.38,0,0,1-.41.23,1.13,1.13,0,0,1-.86-.52c-.06-.11,0-.17,0-.29s.17-.23.4-.23a1.65,1.65,0,0,1,.46.12.67.67,0,0,1,.41.4.46.46,0,0,1,0,.29"/><path class="cls-3" d="M64,41.16a1.58,1.58,0,0,0-2.08,1.1c0,.11-.06.17-.06.23l-.58-.18.52-1.73-1-.29-.87,2.89,2.78.87v-.23a3.78,3.78,0,0,1,.12-.81c0-.23.34-.81.86-.7s.47.81.41,1a2.82,2.82,0,0,1-.46.81l-.18.17,1.16.41.06-.12c.17-.35.35-.75.46-1A2,2,0,0,0,65.06,42a2.21,2.21,0,0,0-1.1-.81"/><path class="cls-3" d="M9.26,34.5A25.18,25.18,0,1,0,34.44,9.32,25.25,25.25,0,0,0,9.26,34.5M34.5,10.13A24.31,24.31,0,1,1,10.19,34.44,24.34,24.34,0,0,1,34.5,10.13"/><path class="cls-3" d="M34.5,0A34.5,34.5,0,1,0,69,34.5,34.52,34.52,0,0,0,34.5,0m0,68.07A33.57,33.57,0,1,1,68.07,34.5,33.6,33.6,0,0,1,34.5,68.07"/><line class="cls-4" x1="85.38" y1="0.88" x2="85.38" y2="66.39"/></g><path class="cls-5" d="M121.59,52.52h-16.7L105,51.3l1.87-.22c.68-.07.93-.21.93-.5V31.94c0-.29-.18-.36-.93-.47L105,31.25,104.89,30H114l-.11,1.22-2.2.22c-.68.07-.93.21-.93.5V51.19h.9c7.12,0,7.59-.21,8-1.55l1.08-4.28h1.65Z"/><path class="cls-5" d="M125.62,52.52l.11-1.22,1.52-.14c.61,0,.89-.18.89-.54V40.5c0-1.73-.21-1.94-1.22-2.19l-1.44-.22.07-1,5.15-1.19V50.65c0,.29.18.47,1,.51l1.51.14.11,1.22ZM129,32.69a1.84,1.84,0,0,1-1.83-2,1.84,1.84,0,1,1,3.67,0A1.84,1.84,0,0,1,129,32.69Z"/><path class="cls-5" d="M144,53.06a13,13,0,0,1-4-.82h-.07l-1.62,1h-.4V31.11c0-.4-.1-.61-.36-.69l-2.7-.79.11-.9,5.51-1.29V38.67h.14a7.36,7.36,0,0,1,5.22-2.56c3.93,0,6.52,3.38,6.52,7.85C152.3,48.82,149.09,53.06,144,53.06Zm.75-14.79a5.83,5.83,0,0,0-4.28,2.16v9.25a6.07,6.07,0,0,0,4.14,2c2.77,0,5-2.66,5-6.69S147.58,38.27,144.7,38.27Z"/><path class="cls-5" d="M165.94,39.57a2.07,2.07,0,0,1-1.73-1.16,11.49,11.49,0,0,0-3.67,4.14v8.1c0,.29.15.47,1,.51l1.91.14.11,1.22h-8l.11-1.22,1.44-.14c.65,0,.9-.18.9-.54V40.43c0-1.66-.18-1.87-1.11-2.12l-1.48-.22.07-1,5.11-1.19v4.68h.15c2.09-3.49,3.38-4.72,4.93-4.72a1.83,1.83,0,0,1,2,1.84A1.68,1.68,0,0,1,165.94,39.57Z"/><path class="cls-5" d="M181.31,53.06c-1.29,0-2.3-.79-2.3-2.66h-.14c-1.37,1.48-2.78,2.66-4.5,2.66A4.24,4.24,0,0,1,170,48.89c0-3,2.73-4.68,9.17-6.26V42.3c0-3.85-1.33-4.86-3.67-4.86-1.36,0-2.84.58-2.84.94,0,.18.72.75.72,1.65a1.7,1.7,0,0,1-1.77,1.62,1.58,1.58,0,0,1-1.72-1.58c0-1.73,3.74-4.18,6.66-4.18,4,0,5.4,1.62,5.18,7l-.29,6.88c0,.83.25,1.26.79,1.26a3.51,3.51,0,0,0,1.84-1l.61.79C183.55,52.2,182.47,53.06,181.31,53.06Zm-2.23-9.28c-4.82,1.26-6.48,2.59-6.48,4.5a2.64,2.64,0,0,0,2.74,2.77c1.26,0,2.34-.79,3.53-1.87Z"/><path class="cls-5" d="M197.05,39.57a2,2,0,0,1-1.73-1.16,11.4,11.4,0,0,0-3.67,4.14v8.1c0,.29.14.47,1,.51l1.91.14.1,1.22h-8l.1-1.22,1.45-.14c.64,0,.89-.18.89-.54V40.43c0-1.66-.17-1.87-1.11-2.12l-1.48-.22.08-1,5.11-1.19v4.68h.14c2.09-3.49,3.38-4.72,4.93-4.72a1.83,1.83,0,0,1,2,1.84A1.68,1.68,0,0,1,197.05,39.57Z"/><path class="cls-5" d="M216.77,37.66l-1.18.25c-.76.07-1.05.4-1.66,1.91l-4.39,12-1.73,5.47c-1,3.13-2.09,4.72-4.21,4.72-1.44,0-2.34-.8-2.34-1.88a1.62,1.62,0,0,1,1.69-1.8,2.13,2.13,0,0,1,2.05,1.3c.62-.29,1.05-1.15,1.59-2.77L208,52.88v0L201.69,39c-.32-.72-.47-.9-1.37-1l-1-.22-.14-1.22h7.41l-.11,1.19-1.22.18c-.58,0-.9.32-.61,1l4.46,10.62,3.42-9.76c.4-1.22.29-1.65-.68-1.76l-1.34-.25-.1-1.19h6.51Z"/><path class="cls-5" d="M110.79,20.58l-.46-.1a5.59,5.59,0,0,1-1.54.24,3.13,3.13,0,0,1-3.4-3.17,3.25,3.25,0,0,1,3.44-3.36,5,5,0,0,1,1.39.19l.76-.16v2h-.42L110.3,15a2.87,2.87,0,0,0-1.53-.37,2.57,2.57,0,0,0-2.47,2.84c0,1.71.94,2.92,2.59,2.92a2.78,2.78,0,0,0,1.28-.3l.42-1.34H111Z"/><path class="cls-5" d="M115.75,20.72a3.1,3.1,0,0,1-3.22-3.21,3.26,3.26,0,0,1,3.25-3.31A3.1,3.1,0,0,1,119,17.43,3.24,3.24,0,0,1,115.75,20.72Zm0-6.16c-1.24,0-2.3,1-2.3,2.84s1.1,3,2.34,3,2.3-1,2.3-2.83S117,14.56,115.74,14.56Z"/><path class="cls-5" d="M125,19.74c.24.34.34.39.48.42l.41.07,0,.34h-1.47l-.38-.69-1.21-2.07H122V20c0,.08.06.11.26.13l.57.06,0,.34h-2.49l0-.34.52-.06c.19,0,.26-.06.26-.14V14.86c0-.08,0-.1-.26-.13l-.52-.06,0-.34h2.56c1.51,0,2.19.63,2.19,1.53a1.88,1.88,0,0,1-1.47,1.79Zm-2.33-5-.67,0V17.4s.85.07.85.07A1.38,1.38,0,0,0,124.25,16C124.25,15.14,123.74,14.66,122.68,14.72Z"/><path class="cls-5" d="M133.46,14.67l-.6.08c-.29.05-.33.13-.33,1.42v4.48h-.48l-3.92-5.49h0v3.58c0,1.28,0,1.36.32,1.41l.6.08,0,.34h-2.3l0-.34.6-.08c.29,0,.32-.13.32-1.41v-3.3c0-.42-.08-.58-.31-.68l-.57-.09,0-.34h1.73l3.59,5h0V16.17c0-1.29,0-1.37-.32-1.42l-.6-.08,0-.34h2.31Z"/><path class="cls-5" d="M139.44,20.57h-4.79l0-.34.52-.06c.19,0,.26-.06.26-.14V14.86c0-.08-.05-.1-.26-.13l-.52-.06,0-.34h4.79v1.81H139l-.22-1c-.11-.39-.2-.43-2.13-.43h-.38v2.51h.38c.84,0,.94,0,1-.19l.21-.67h.35L138,18.43h-.33l-.08-.64c0-.16-.07-.22-1-.22h-.35V20.2h.26c2.12,0,2.22-.06,2.35-.43l.25-1h.49Z"/><path class="cls-5" d="M145.61,20.57H141l0-.34.52-.06c.19,0,.26-.06.26-.14V14.86c0-.08,0-.1-.26-.13l-.52-.06,0-.34h2.52l0,.34-.6.06c-.19,0-.26.06-.26.14V20.2h.25c2,0,2.1-.06,2.21-.43l.3-1.18h.46Z"/><path class="cls-5" d="M151.76,20.57h-4.63l0-.34.52-.06c.19,0,.26-.06.26-.14V14.86c0-.08-.05-.1-.26-.13l-.52-.06,0-.34h2.53l0,.34-.6.06c-.19,0-.26.06-.26.14V20.2H149c2,0,2.1-.06,2.21-.43l.3-1.18H152Z"/><path class="cls-5" d="M162.46,14.67l-.59.08c-.3.05-.33.13-.33,1.42v2.34a2.14,2.14,0,0,1-2.39,2.21,2.07,2.07,0,0,1-2.36-2.29V14.86c0-.08,0-.11-.26-.13l-.52-.06,0-.34h2.44l0,.34-.51.06c-.19,0-.26.06-.26.14v3.46a1.64,1.64,0,0,0,1.82,1.88,1.59,1.59,0,0,0,1.71-1.75V16.17c0-1.29,0-1.37-.32-1.42l-.6-.08,0-.34h2.3Z"/><path class="cls-5" d="M170.34,14.67l-.6.08c-.29.05-.33.13-.33,1.42v4.48h-.48L165,15.16h0v3.58c0,1.28,0,1.36.33,1.41l.59.08,0,.34h-2.3l0-.34.6-.08c.29,0,.32-.13.32-1.41v-3.3c0-.42-.08-.58-.31-.68l-.57-.09,0-.34h1.72l3.6,5h0V16.17c0-1.29,0-1.37-.32-1.42l-.6-.08,0-.34h2.31Z"/><path class="cls-5" d="M171.55,20.57l0-.34.62-.06c.19,0,.26-.06.26-.14V14.86c0-.08-.05-.1-.26-.13l-.62-.06,0-.34h2.63l0,.34-.61.06c-.19,0-.26.06-.26.14V20c0,.08.05.11.26.13l.61.06,0,.34Z"/><path class="cls-5" d="M181.38,14.67l-.39.07c-.33.07-.41.18-.85,1.43l-1.54,4.42h-.81l-2-5.63a.25.25,0,0,0-.24-.19l-.6-.1,0-.34h2.56l0,.34-.57.07c-.27,0-.21.16,0,.75l1.46,4.38h.09l1.25-3.7c.4-1.18.3-1.41-.06-1.45l-.38-.05,0-.34h2.18Z"/><path class="cls-5" d="M187,20.57h-4.79l0-.34.52-.06c.19,0,.26-.06.26-.14V14.86c0-.08-.05-.1-.26-.13l-.52-.06,0-.34H187v1.81h-.43l-.22-1c-.11-.39-.2-.43-2.13-.43h-.38v2.51h.38c.84,0,.94,0,1-.19l.22-.67h.34l-.21,2.08h-.33l-.08-.64c0-.16-.06-.22-1-.22h-.36V20.2h.27c2.11,0,2.21-.06,2.34-.43l.25-1h.49Z"/><path class="cls-5" d="M193.14,19.74c.24.34.34.39.48.42l.41.07,0,.34h-1.47l-.38-.69L191,17.81h-.86V20c0,.08.06.11.26.13l.57.06,0,.34h-2.48l0-.34.52-.06c.19,0,.26-.06.26-.14V14.86c0-.08,0-.1-.26-.13l-.52-.06,0-.34h2.55c1.52,0,2.2.63,2.2,1.53a1.88,1.88,0,0,1-1.48,1.79Zm-2.34-5-.67,0V17.4s.85.07.85.07A1.37,1.37,0,0,0,192.37,16C192.37,15.14,191.86,14.66,190.8,14.72Z"/><path class="cls-5" d="M196.83,20.72a5.39,5.39,0,0,1-1.74-.27l-.15-1.76h.4l.42,1.37a3.25,3.25,0,0,0,1.22.27,1.25,1.25,0,0,0,1.4-1.18c0-.82-.61-1.1-1.57-1.46s-1.74-.75-1.74-1.8c0-.89.67-1.69,2.05-1.7a4.79,4.79,0,0,1,1.17.11l.52-.15v2h-.4l-.28-1.28a3,3,0,0,0-1.13-.25,1.07,1.07,0,0,0-1.21,1c0,.81.66,1.07,1.53,1.41s1.8.75,1.8,1.85S198.25,20.71,196.83,20.72Z"/><path class="cls-5" d="M200.48,20.57l0-.34.62-.06c.19,0,.26-.06.26-.14V14.86c0-.08-.06-.1-.26-.13l-.62-.06,0-.34h2.63l0,.34-.62.06c-.18,0-.25.06-.25.14V20c0,.08,0,.11.25.13l.62.06,0,.34Z"/><path class="cls-5" d="M209.38,16.25l-.22-1.05c-.09-.37-.16-.49-1.58-.5h-.07V20c0,.08.06.11.26.13l.68.06,0,.34h-2.76l0-.34.68-.06c.19,0,.26-.06.26-.14V14.7h-.07c-1.37,0-1.5.06-1.6.43l-.27,1.12h-.45l.17-1.92h5.34v1.92Z"/><path class="cls-5" d="M216.77,14.67l-.3.05a1.07,1.07,0,0,0-.68.54l-1.57,2.6V20c0,.08.05.11.26.13l.68.06,0,.34h-2.76l0-.34.69-.06c.18,0,.26-.06.26-.14V18L211.55,15a.7.7,0,0,0-.41-.28l-.41-.07,0-.34h2.44l0,.34-.5.06c-.23,0-.21.23.12.77l1.19,2H214l1.3-2.22c.21-.35.17-.5-.08-.55l-.38-.05,0-.34h2Z"/></svg>