<svg id="Layer_1" data-name="Layer 1" xmlns="http://www.w3.org/2000/svg" viewBox="0 0 140.33 53.82"><defs><style>.cls-1{fill:#231f20;}</style></defs><path class="cls-1" d="M25.63,35.78H4.85L5,34.25,6.77,34c1.14-.13,1.53-.39,1.53-.78V10.89c0-.39-.26-.52-1.53-.7L5,10,4.85,8.44H16.31L16.18,10,14,10.19c-1.14.13-1.53.4-1.53.79v23.1h1.36c7.87,0,8.61-.26,9.23-2.19L24.32,27h2.27Z"/><path class="cls-1" d="M29.48,35.78l.13-1.53,1.22-.13c1.05-.09,1.49-.3,1.49-.83V22.22c0-2.75-.3-3.15-1.88-3.54l-1.05-.26,0-1.18,6.48-1.71v17.8c0,.44.26.7,1.66.79l1.27.13L39,35.78Zm4.2-24a2.33,2.33,0,0,1-2.36-2.58,2.37,2.37,0,1,1,4.72,0A2.33,2.33,0,0,1,33.68,11.77Z"/><path class="cls-1" d="M51,36.44a19.12,19.12,0,0,1-5-1h0l-2.1,1.22h-.52V10.5c0-.53-.13-.88-.48-1L39.93,8.27l.14-1.1,6.86-1.88V19.07h.22a8.85,8.85,0,0,1,6.26-3.23c4.9,0,7.79,4.24,7.79,9.4C61.2,30.89,57.52,36.44,51,36.44Zm.92-17.54a6.53,6.53,0,0,0-5,2.58V32a6.89,6.89,0,0,0,5,2.67c2.8,0,5.38-3.07,5.38-7.79C57.3,22,55.07,18.9,51.88,18.9Z"/><path class="cls-1" d="M76.86,20.43A2.89,2.89,0,0,1,74.63,19a11.87,11.87,0,0,0-4.29,4.68v9.66c0,.44.26.7,1.66.79l1.71.13.13,1.53H63.91L64,34.25l1.22-.13c1-.09,1.49-.3,1.49-.83V22.22c0-2.75-.3-3.15-1.88-3.54l-1.05-.26,0-1.18,6.48-1.71v5.6h.22c2.4-3.94,3.89-5.6,6-5.6A2.37,2.37,0,0,1,79.13,18,2.2,2.2,0,0,1,76.86,20.43Z"/><path class="cls-1" d="M94.75,36.48c-1.71,0-2.8-1-2.93-3.19H91.6c-1.53,1.71-3.24,3.15-5.42,3.15a5.21,5.21,0,0,1-5.25-5.12c0-3.63,3.45-5.68,10.93-7.43v-.4c0-4.85-1.7-5.95-4.24-5.95-1.44,0-3.24.61-3.24,1,0,.22,1,1,1,2.19a2.16,2.16,0,0,1-2.32,2.1,2.11,2.11,0,0,1-2.27-2.06c0-2.14,4.85-5.29,8.31-5.29,5.16,0,6.65,2.1,6.34,9l-.31,7.43c0,1.1.31,1.71,1,1.71a3.79,3.79,0,0,0,2.14-1l.75,1C97.68,35.3,96.28,36.48,94.75,36.48Zm-3-11.15C86,26.77,84.6,28.52,84.6,30.4a3.14,3.14,0,0,0,3.15,3.28,5.75,5.75,0,0,0,3.81-1.83Z"/><path class="cls-1" d="M113.3,20.43A2.89,2.89,0,0,1,111.07,19a11.87,11.87,0,0,0-4.29,4.68v9.66c0,.44.26.7,1.66.79l1.71.13.13,1.53h-9.93l.13-1.53,1.23-.13c1.05-.09,1.48-.3,1.48-.83V22.22c0-2.75-.3-3.15-1.88-3.54l-1-.26,0-1.18,6.47-1.71v5.6H107c2.41-3.94,3.89-5.6,6-5.6A2.37,2.37,0,0,1,115.58,18,2.21,2.21,0,0,1,113.3,20.43Z"/><path class="cls-1" d="M136.92,17.67l-1.13.31c-1.27.17-1.71.7-2.72,3.24L128,34.69l-2.19,6.69c-1.27,3.81-2.49,5.82-5,5.82-1.88,0-2.93-1-2.93-2.4A2.06,2.06,0,0,1,120,42.48a2.84,2.84,0,0,1,2.58,1.4c.66-.35,1-1.14,1.71-2.89l1.84-5.12v-.09l-7.79-16.09A2.24,2.24,0,0,0,116.06,18l-.92-.26L115,16.19h9.63l-.13,1.53-1.1.17c-.92.09-1.44.53-1,1.58l5.25,11.59,3.59-10.15c.7-2.06.52-2.76-1.1-2.93L129,17.67l-.13-1.48h8.23Z"/></svg>