<svg width="367" height="352" viewBox="1 8 367 352" xmlns="http://www.w3.org/2000/svg">
  <path
    d="M1.000000,112.468658 C28.460188,112.000000 55.920376,112.000000 83.861267,112.000000 C83.861267,120.100616 83.861267,127.838646 83.861267,136.716187 C88.158173,133.530884 91.644302,131.017258 95.055443,128.405685	C109.562279,117.299171 126.044762,111.190887 144.069199,108.990402 C161.729889,106.834335 179.232635,107.440422 196.517853,112.003220 C199.855698,112.884315 201.765640,114.390289 203.238235,118.011223 C211.607788,138.590958 225.554047,154.635437 244.578156,166.145599 C248.466110,168.497910 252.836349,170.062042 256.679718,172.474686 C258.202148,173.430389 259.582550,175.605087 259.851746,177.401047 C261.428253,187.918213 263.677734,198.473038 263.828400,209.041840 C264.537628,258.791290 264.639313,308.549377 264.948181,358.304474 C264.950165,358.622345 264.817322,358.941071 264.666168,359.629364 C235.702515,359.629364 206.659607,359.629364 177.000198,359.629364 C177.000198,357.688354 177.000198,355.750732 177.000198,353.813110 C177.000168,311.991974 177.177307,270.169556 176.873703,228.350601 C176.799194,218.088516 174.846802,208.071838 169.533707,198.749969 C163.338669,187.880661 153.487213,183.232407 142.134903,182.210815 C123.545181,180.537918 107.253761,186.390671 97.170731,202.814651 C92.813103,209.912674 89.559502,218.904343 89.347443,227.127167 C88.262466,269.196838 88.332520,311.296265 88.001801,353.385315 C87.986267,355.362061 87.999809,357.338989 87.999809,360.000397 C59.107670,360.000397 30.522491,360.000397 1.468657,360.000183 C1.000000,277.645782 1.000000,195.291550 1.000000,112.468658z"
    fill="#7DC34B"/>
  <circle cx="296" cy="80" fill="#7DC34B" r="72"/>
</svg>
