<?xml version="1.0" standalone="no"?>
<!DOCTYPE svg PUBLIC "-//W3C//DTD SVG 20010904//EN"
 "http://www.w3.org/TR/2001/REC-SVG-20010904/DTD/svg10.dtd">
<svg version="1.0" xmlns="http://www.w3.org/2000/svg"
 width="224.000000pt" height="224.000000pt" viewBox="0 0 224.000000 224.000000"
 preserveAspectRatio="xMidYMid meet">

<g transform="translate(0.000000,224.000000) scale(0.100000,-0.100000)"
fill="#000000" stroke="none">
<path d="M945 2184 c-335 -75 -584 -357 -624 -709 -18 -161 -23 -357 -12 -496
19 -246 91 -411 244 -561 298 -290 772 -296 1074 -14 130 121 218 281 247 447
27 156 39 402 26 545 -18 210 -50 313 -136 447 -103 159 -246 266 -439 327
-93 30 -280 36 -380 14z m489 -466 c-3 -12 -13 -28 -20 -36 -8 -7 -14 -21 -15
-30 0 -9 -3 -26 -6 -37 -3 -11 -6 -31 -7 -45 -4 -39 -36 -143 -52 -167 -8 -13
-12 -23 -9 -23 3 0 -3 -10 -15 -22 -11 -12 -20 -25 -20 -30 0 -5 -16 -31 -35
-58 -19 -28 -33 -50 -30 -50 3 0 -6 -11 -20 -25 -14 -14 -25 -28 -25 -31 0
-14 53 -93 65 -98 8 -3 15 -16 15 -29 0 -31 -41 -52 -61 -32 -8 8 -37 22 -65
33 -61 23 -80 15 -128 -49 -16 -21 -48 -51 -70 -65 -23 -15 -71 -56 -108 -92
-40 -40 -87 -75 -118 -89 l-52 -23 6 31 c3 17 17 57 31 88 22 47 40 67 115
126 48 39 96 83 105 98 29 49 35 85 19 115 -7 15 -14 36 -14 47 0 18 -23 37
-82 70 -10 5 -18 13 -18 16 0 13 125 3 155 -13 61 -31 91 -30 136 5 46 35 84
99 126 213 23 63 40 88 100 150 72 75 111 96 97 52z"/>
<path d="M1096 1265 c-11 -8 -15 -15 -9 -15 6 0 16 7 23 15 16 19 11 19 -14 0z"/>
<path d="M1762 1974 c-24 -17 -29 -49 -9 -57 21 -8 72 37 64 56 -8 21 -26 22
-55 1z m48 -1 c0 -12 -33 -43 -47 -43 -17 0 -17 10 4 32 16 18 43 25 43 11z"/>
<path d="M1833 1934 c24 -7 21 -21 -8 -40 -25 -16 -51 -11 -39 8 4 7 2 8 -4 4
-6 -4 -9 -13 -5 -21 6 -17 39 -20 48 -5 12 20 21 9 17 -20 -2 -18 -9 -29 -16
-27 -6 3 -10 10 -8 16 1 7 -2 10 -7 6 -16 -9 -1 -35 19 -35 13 0 20 9 22 27 2
14 9 29 17 31 10 3 12 -1 8 -17 -3 -11 -1 -19 4 -15 15 9 10 34 -8 42 -10 4
-18 16 -18 27 0 12 -7 20 -20 22 -16 1 -16 1 -2 -3z"/>
<path d="M1863 1810 c-22 -13 -31 -25 -27 -35 8 -19 27 -19 64 0 33 17 36 25
18 43 -16 16 -17 15 -55 -8z m49 -5 c1 -6 -11 -17 -25 -25 -20 -11 -29 -12
-38 -3 -8 8 -4 15 17 27 31 16 45 17 46 1z"/>
<path d="M1898 1753 c-27 -13 -40 -53 -18 -53 16 0 80 28 80 35 0 3 -9 1 -19
-5 -13 -7 -22 -7 -26 0 -9 15 5 32 22 26 8 -3 11 -1 8 4 -8 12 -13 12 -47 -7z
m4 -28 c0 -5 -5 -11 -11 -13 -6 -2 -11 4 -11 13 0 9 5 15 11 13 6 -2 11 -8 11
-13z"/>
<path d="M1935 1664 l-40 -14 35 5 35 5 -25 -20 c-14 -11 -29 -20 -34 -20 -6
0 -6 -4 0 -10 6 -6 23 -6 47 1 46 12 49 20 5 13 l-33 -5 28 18 c15 10 27 23
27 30 0 7 -1 13 -2 12 -2 -1 -21 -7 -43 -15z"/>
<path d="M1968 1594 c-29 -15 -39 -30 -13 -21 8 4 17 1 21 -5 5 -8 -3 -9 -24
-5 -18 4 -32 3 -32 -2 0 -5 20 -11 45 -13 50 -4 53 -1 28 18 -16 12 -16 15 -3
23 25 17 7 20 -22 5z"/>
<path d="M1945 1520 c-14 -6 -7 -7 23 -3 33 4 42 2 42 -9 0 -10 -14 -18 -41
-22 -23 -4 -39 -9 -37 -11 3 -3 23 -2 44 3 29 6 39 13 39 27 0 23 -37 30 -70
15z"/>
<path d="M1951 1451 c-10 -6 0 -8 29 -4 37 5 42 4 37 -10 -4 -10 -2 -17 3 -17
6 0 10 9 10 20 0 16 -7 20 -32 20 -18 0 -40 -4 -47 -9z"/>
<path d="M1995 1350 c19 -7 18 -9 -8 -19 -16 -6 -33 -11 -38 -11 -5 0 -9 -4
-9 -10 0 -5 21 -9 48 -9 45 2 45 2 12 8 l-35 7 33 8 c40 9 44 36 5 35 -25 0
-26 -1 -8 -9z"/>
<path d="M1975 1273 c-39 -9 -36 -21 9 -36 44 -15 45 -15 33 4 -10 16 -9 21 3
29 12 8 11 10 -5 9 -11 -1 -29 -3 -40 -6z m25 -17 c0 -10 -7 -12 -22 -8 -21 5
-21 6 -2 13 10 4 20 8 22 8 1 1 2 -5 2 -13z"/>
<path d="M1944 1195 c-14 -35 28 -49 46 -15 6 11 16 20 22 20 5 0 8 -9 5 -20
-3 -11 -1 -20 4 -20 5 0 9 9 9 20 0 30 -28 37 -46 11 -8 -11 -19 -21 -25 -21
-14 0 -11 28 4 33 9 4 9 6 -1 6 -7 1 -15 -6 -18 -14z"/>
<path d="M1975 1111 c-30 -6 -38 -23 -13 -29 9 -2 8 0 -2 7 -12 9 -9 11 15 11
17 0 37 5 45 10 13 9 13 10 0 9 -8 -1 -28 -4 -45 -8z"/>
<path d="M1990 1070 c20 -13 33 -13 25 0 -3 6 -14 10 -23 10 -15 0 -15 -2 -2
-10z"/>
<path d="M1931 1036 c2 -2 24 -6 49 -10 31 -4 40 -3 30 4 -13 9 -89 15 -79 6z"/>
<path d="M1961 996 c12 -10 59 -15 59 -6 0 5 -14 10 -32 10 -17 0 -29 -2 -27
-4z"/>
<path d="M1930 970 c-20 -12 -13 -16 39 -23 29 -4 40 -2 30 4 -7 5 -23 9 -34
10 -17 1 -16 2 5 9 l25 8 -25 1 c-14 0 -32 -3 -40 -9z"/>
<path d="M1916 914 c-9 -23 0 -31 39 -36 42 -5 65 13 45 37 -17 20 -76 20 -84
-1z m68 0 c28 -11 17 -24 -18 -24 -34 0 -52 11 -39 24 8 8 37 8 57 0z"/>
<path d="M1950 852 c0 -5 7 -9 16 -8 9 0 19 -5 22 -13 4 -11 -4 -13 -38 -8
-28 3 -39 2 -32 -5 5 -5 25 -8 43 -6 26 2 34 8 34 23 0 13 -8 21 -22 23 -13 2
-23 -1 -23 -6z"/>
<path d="M1902 781 c-10 -6 -5 -14 21 -30 41 -25 48 -26 41 -6 -4 8 -1 21 5
29 8 10 4 13 -22 14 -18 1 -38 -3 -45 -7z m48 -16 c0 -13 -4 -14 -20 -5 -11 6
-20 13 -20 15 0 3 9 5 20 5 11 0 20 -7 20 -15z"/>
<path d="M1881 743 c0 -6 -3 -17 -6 -25 -3 -8 3 -13 17 -13 13 -1 34 -4 48 -8
14 -3 8 1 -12 9 -20 9 -39 24 -41 33 -3 9 -5 11 -6 4z"/>
<path d="M1880 640 c19 -17 39 -30 45 -29 5 0 5 3 -2 5 -17 7 -4 34 16 34 14
0 14 2 1 10 -8 5 -33 10 -55 9 l-40 0 35 -29z m30 4 c0 -14 -3 -15 -17 -3 -10
7 -20 15 -22 16 -2 2 5 3 17 3 14 0 22 -6 22 -16z"/>
<path d="M1837 624 c-15 -15 -6 -31 28 -47 41 -20 59 -22 30 -4 -11 7 -20 21
-20 32 0 20 -25 32 -38 19z m33 -20 c0 -17 -22 -14 -28 4 -2 7 3 12 12 12 9 0
16 -7 16 -16z"/>
<path d="M1770 514 c0 -4 14 -22 31 -41 17 -20 30 -29 29 -22 -5 30 0 41 15
35 8 -3 15 -2 15 3 0 4 -17 13 -39 19 -44 14 -51 14 -51 6z m42 -12 c11 -4 14
-12 9 -20 -6 -9 -12 -8 -26 8 -18 20 -13 24 17 12z"/>
<path d="M1732 451 c2 -8 16 -24 31 -35 23 -17 29 -18 40 -7 10 11 9 12 -1 6
-9 -4 -25 4 -44 21 -17 16 -29 23 -26 15z"/>
<path d="M1680 404 c-11 -13 -9 -20 18 -47 31 -31 32 -31 49 -13 17 18 17 19
0 12 -27 -9 -40 3 -25 22 10 14 10 15 -2 5 -19 -18 -45 3 -29 23 6 8 9 14 6
14 -2 0 -10 -7 -17 -16z"/>
<path d="M485 380 c-27 -28 -28 -31 -12 -47 16 -16 19 -15 47 12 16 16 28 31
25 34 -3 2 -18 -8 -34 -23 -37 -36 -49 -17 -15 23 33 40 26 40 -11 1z"/>
<path d="M1632 358 c-7 -10 -2 -22 18 -46 25 -31 29 -32 44 -17 17 17 15 27
-12 58 -18 20 -36 22 -50 5z m52 -22 c10 -17 12 -27 5 -31 -12 -8 -49 23 -49
42 0 22 26 15 44 -11z"/>
<path d="M543 337 c-31 -34 -40 -55 -13 -32 l22 20 -7 -35 -7 -35 31 29 c17
17 31 35 31 40 -1 6 -10 0 -20 -13 -21 -24 -27 -13 -10 19 15 28 -4 33 -27 7z"/>
<path d="M602 293 c-32 -47 -38 -60 -21 -46 15 13 53 73 45 73 -2 0 -13 -12
-24 -27z"/>
<path d="M631 278 c-30 -80 -22 -87 30 -31 l34 38 -34 -30 c-33 -30 -33 -30
-26 -5 4 14 10 31 12 38 3 6 2 12 -1 12 -4 0 -10 -10 -15 -22z"/>
<path d="M1550 285 c0 -5 11 -23 24 -40 21 -25 27 -28 38 -16 11 12 10 13 -4
8 -10 -4 -18 -3 -18 1 -1 11 -40 58 -40 47z"/>
<path d="M1501 248 c0 -13 3 -17 6 -10 4 10 8 10 19 1 19 -15 18 -33 -1 -25
-10 4 -15 -1 -15 -15 0 -19 1 -19 16 -4 9 9 24 13 33 10 9 -3 0 10 -18 29 -19
20 -36 36 -38 36 -2 0 -3 -10 -2 -22z"/>
<path d="M676 223 c-14 -29 -15 -38 -4 -44 7 -5 18 -8 23 -8 6 0 4 3 -2 6 -19
7 -16 33 5 33 11 0 13 3 5 8 -7 4 -9 13 -4 21 5 8 14 10 21 6 9 -5 11 -4 6 3
-13 22 -32 12 -50 -25z"/>
<path d="M1461 248 c-1 -4 4 -19 10 -35 l10 -28 -25 24 c-35 33 -42 21 -17
-31 20 -41 22 -38 5 7 -6 18 -4 17 19 -4 36 -33 43 -22 19 31 -11 23 -21 40
-21 36z"/>
<path d="M736 200 c-20 -49 -20 -64 -1 -30 12 22 14 23 20 8 4 -9 4 -22 0 -28
-3 -5 -4 -10 -1 -10 6 0 36 60 36 71 0 5 -9 13 -19 18 -16 9 -21 5 -35 -29z
m42 8 c-6 -18 -28 -21 -28 -4 0 9 7 16 16 16 9 0 14 -5 12 -12z"/>
<path d="M804 195 c-4 -9 1 -24 11 -35 10 -11 14 -24 10 -32 -6 -10 -5 -10 4
-2 10 9 10 17 -3 36 -18 28 -10 44 12 25 13 -10 14 -9 10 3 -7 21 -37 25 -44
5z"/>
<path d="M1365 200 c-12 -19 15 -80 35 -80 24 0 29 17 17 57 -10 33 -38 45
-52 23z m43 -30 c8 -20 8 -32 1 -36 -14 -8 -26 5 -34 39 -10 39 20 37 33 -3z"/>
<path d="M862 148 c-6 -23 -9 -44 -7 -46 2 -2 9 15 15 38 6 23 9 44 7 46 -2 3
-9 -14 -15 -38z"/>
<path d="M1281 181 c-22 -14 3 -94 27 -89 9 2 18 12 19 23 2 17 1 17 -3 2 -8
-25 -26 -16 -36 18 -9 36 -1 50 20 33 15 -12 16 -11 3 5 -7 9 -14 17 -15 17 0
0 -7 -4 -15 -9z"/>
<path d="M1337 165 c3 -16 9 -37 14 -45 15 -27 10 11 -6 45 l-14 30 6 -30z"/>
<path d="M896 149 c-10 -52 -8 -61 16 -57 29 4 49 65 27 79 -25 16 -36 10 -43
-22z m39 11 c9 -15 -6 -60 -21 -60 -15 0 -17 12 -8 48 7 23 19 29 29 12z"/>
<path d="M967 135 c-21 -43 -22 -60 -3 -43 8 7 12 16 9 20 -2 5 1 16 6 25 8
15 10 11 11 -19 0 -20 3 -39 8 -42 9 -5 3 76 -7 87 -4 4 -15 -9 -24 -28z"/>
<path d="M1219 126 c-4 -39 -2 -42 14 -32 14 8 20 8 27 -4 6 -9 10 -10 10 -3
0 17 -32 83 -41 83 -4 0 -9 -20 -10 -44z m31 -8 c0 -5 -4 -8 -10 -8 -5 0 -10
10 -10 23 0 18 2 19 10 7 5 -8 10 -18 10 -22z"/>
<path d="M1020 114 c0 -41 2 -45 23 -42 18 2 23 10 25 46 3 39 1 42 -22 42
-24 0 -26 -3 -26 -46z m40 1 c0 -24 -5 -35 -15 -35 -10 0 -15 11 -15 35 0 24
5 35 15 35 10 0 15 -11 15 -35z"/>
<path d="M1141 113 c2 -46 2 -46 8 -13 l6 35 12 -33 c7 -19 17 -31 23 -27 6 3
7 12 3 18 -4 7 -7 25 -6 42 l2 30 -8 -30 -8 -30 -7 28 c-13 43 -26 32 -25 -20z"/>
<path d="M790 135 c0 -8 4 -15 10 -15 5 0 7 7 4 15 -4 8 -8 15 -10 15 -2 0 -4
-7 -4 -15z"/>
</g>
</svg>
